%TF.GenerationSoftware,KiCad,Pcbnew,(6.0.10)*%
%TF.CreationDate,2023-01-20T09:05:44-05:00*%
%TF.ProjectId,soft_pump_start,736f6674-5f70-4756-9d70-5f7374617274,rev?*%
%TF.SameCoordinates,PX8722ba0PY337f980*%
%TF.FileFunction,Copper,L2,Bot*%
%TF.FilePolarity,Positive*%
%FSLAX46Y46*%
G04 Gerber Fmt 4.6, Leading zero omitted, Abs format (unit mm)*
G04 Created by KiCad (PCBNEW (6.0.10)) date 2023-01-20 09:05:44*
%MOMM*%
%LPD*%
G01*
G04 APERTURE LIST*
G04 Aperture macros list*
%AMRoundRect*
0 Rectangle with rounded corners*
0 $1 Rounding radius*
0 $2 $3 $4 $5 $6 $7 $8 $9 X,Y pos of 4 corners*
0 Add a 4 corners polygon primitive as box body*
4,1,4,$2,$3,$4,$5,$6,$7,$8,$9,$2,$3,0*
0 Add four circle primitives for the rounded corners*
1,1,$1+$1,$2,$3*
1,1,$1+$1,$4,$5*
1,1,$1+$1,$6,$7*
1,1,$1+$1,$8,$9*
0 Add four rect primitives between the rounded corners*
20,1,$1+$1,$2,$3,$4,$5,0*
20,1,$1+$1,$4,$5,$6,$7,0*
20,1,$1+$1,$6,$7,$8,$9,0*
20,1,$1+$1,$8,$9,$2,$3,0*%
G04 Aperture macros list end*
%TA.AperFunction,SMDPad,CuDef*%
%ADD10RoundRect,0.150000X0.675000X0.150000X-0.675000X0.150000X-0.675000X-0.150000X0.675000X-0.150000X0*%
%TD*%
%TA.AperFunction,ComponentPad*%
%ADD11R,1.600000X1.600000*%
%TD*%
%TA.AperFunction,ComponentPad*%
%ADD12O,1.600000X1.600000*%
%TD*%
%TA.AperFunction,SMDPad,CuDef*%
%ADD13R,2.000000X1.500000*%
%TD*%
%TA.AperFunction,SMDPad,CuDef*%
%ADD14R,2.000000X3.800000*%
%TD*%
%TA.AperFunction,SMDPad,CuDef*%
%ADD15RoundRect,0.237500X0.250000X0.237500X-0.250000X0.237500X-0.250000X-0.237500X0.250000X-0.237500X0*%
%TD*%
%TA.AperFunction,ComponentPad*%
%ADD16RoundRect,0.250001X-0.799999X-0.799999X0.799999X-0.799999X0.799999X0.799999X-0.799999X0.799999X0*%
%TD*%
%TA.AperFunction,SMDPad,CuDef*%
%ADD17RoundRect,0.237500X-0.237500X0.300000X-0.237500X-0.300000X0.237500X-0.300000X0.237500X0.300000X0*%
%TD*%
%TA.AperFunction,ComponentPad*%
%ADD18C,1.600000*%
%TD*%
%TA.AperFunction,Conductor*%
%ADD19C,0.500000*%
%TD*%
G04 APERTURE END LIST*
D10*
%TO.P,U3,1,VDD*%
%TO.N,+5V*%
X11225000Y-10695000D03*
%TO.P,U3,2,PA7*%
%TO.N,unconnected-(U3-Pad2)*%
X11225000Y-11965000D03*
%TO.P,U3,3,PA6*%
%TO.N,unconnected-(U3-Pad3)*%
X11225000Y-13235000D03*
%TO.P,U3,4,PA5*%
%TO.N,/INPUT*%
X11225000Y-14505000D03*
%TO.P,U3,5,PA3*%
%TO.N,unconnected-(U3-Pad5)*%
X5975000Y-14505000D03*
%TO.P,U3,6,PA4*%
%TO.N,/PWM_OUT*%
X5975000Y-13235000D03*
%TO.P,U3,7,PA0*%
%TO.N,unconnected-(U3-Pad7)*%
X5975000Y-11965000D03*
%TO.P,U3,8,GND*%
%TO.N,GND*%
X5975000Y-10695000D03*
%TD*%
D11*
%TO.P,U2,1*%
%TO.N,Net-(R1-Pad2)*%
X12400000Y-17400000D03*
D12*
%TO.P,U2,2*%
%TO.N,GND*%
X12400000Y-19940000D03*
%TO.P,U2,3*%
X4780000Y-19940000D03*
%TO.P,U2,4*%
%TO.N,/INPUT*%
X4780000Y-17400000D03*
%TD*%
D13*
%TO.P,U1,1,GND*%
%TO.N,GND*%
X17550000Y-3900000D03*
D14*
%TO.P,U1,2,VO*%
%TO.N,+5V*%
X11250000Y-6200000D03*
D13*
X17550000Y-6200000D03*
%TO.P,U1,3,VI*%
%TO.N,+12V*%
X17550000Y-8500000D03*
%TD*%
D15*
%TO.P,R1,1*%
%TO.N,Net-(J3-Pad1)*%
X17012500Y-17475000D03*
%TO.P,R1,2*%
%TO.N,Net-(R1-Pad2)*%
X15187500Y-17475000D03*
%TD*%
D16*
%TO.P,J4,1,Pin_1*%
%TO.N,/PWM_OUT*%
X3800000Y-8400000D03*
%TD*%
%TO.P,J3,1,Pin_1*%
%TO.N,Net-(J3-Pad1)*%
X20000000Y-17475000D03*
%TD*%
%TO.P,J2,1,Pin_1*%
%TO.N,GND*%
X23100000Y-2500000D03*
%TD*%
%TO.P,J1,1,Pin_1*%
%TO.N,+12V*%
X21200000Y-8800000D03*
%TD*%
D17*
%TO.P,C3,1*%
%TO.N,+5V*%
X13200000Y-10737500D03*
%TO.P,C3,2*%
%TO.N,GND*%
X13200000Y-12462500D03*
%TD*%
D11*
%TO.P,C2,1*%
%TO.N,+5V*%
X6900000Y-6200000D03*
D18*
%TO.P,C2,2*%
%TO.N,GND*%
X6900000Y-3700000D03*
%TD*%
D11*
%TO.P,C1,1*%
%TO.N,+12V*%
X17500000Y-11394887D03*
D18*
%TO.P,C1,2*%
%TO.N,GND*%
X17500000Y-13894887D03*
%TD*%
D19*
%TO.N,/PWM_OUT*%
X4235000Y-13235000D02*
X3800000Y-12800000D01*
X5975000Y-13235000D02*
X4235000Y-13235000D01*
X3800000Y-12800000D02*
X3800000Y-8400000D01*
%TO.N,/INPUT*%
X4780000Y-17400000D02*
X8100000Y-17400000D01*
X8100000Y-17400000D02*
X9300000Y-16200000D01*
X9300000Y-16200000D02*
X9300000Y-14900000D01*
X9300000Y-14900000D02*
X9695000Y-14505000D01*
X9695000Y-14505000D02*
X11225000Y-14505000D01*
%TO.N,Net-(J3-Pad1)*%
X17012500Y-17475000D02*
X20000000Y-17475000D01*
%TO.N,Net-(R1-Pad2)*%
X12400000Y-17400000D02*
X15112500Y-17400000D01*
X15112500Y-17400000D02*
X15187500Y-17475000D01*
%TD*%
%TA.AperFunction,Conductor*%
%TO.N,GND*%
G36*
X21485012Y-1528502D02*
G01*
X21531505Y-1582158D01*
X21541552Y-1643176D01*
X21542492Y-1643224D01*
X21542000Y-1652856D01*
X21542000Y-2227885D01*
X21546475Y-2243124D01*
X21547865Y-2244329D01*
X21555548Y-2246000D01*
X23228000Y-2246000D01*
X23296121Y-2266002D01*
X23342614Y-2319658D01*
X23354000Y-2372000D01*
X23354000Y-4039885D01*
X23358475Y-4055124D01*
X23359865Y-4056329D01*
X23367548Y-4058000D01*
X23947096Y-4058000D01*
X23953611Y-4057663D01*
X24049203Y-4047744D01*
X24062602Y-4044850D01*
X24223731Y-3991094D01*
X24224601Y-3993703D01*
X24282210Y-3984844D01*
X24347076Y-4013703D01*
X24386043Y-4073051D01*
X24391500Y-4109731D01*
X24391500Y-21465500D01*
X24371498Y-21533621D01*
X24317842Y-21580114D01*
X24265500Y-21591500D01*
X1634500Y-21591500D01*
X1566379Y-21571498D01*
X1519886Y-21517842D01*
X1508500Y-21465500D01*
X1508500Y-20206522D01*
X3497273Y-20206522D01*
X3544764Y-20383761D01*
X3548510Y-20394053D01*
X3640586Y-20591511D01*
X3646069Y-20601007D01*
X3771028Y-20779467D01*
X3778084Y-20787875D01*
X3932125Y-20941916D01*
X3940533Y-20948972D01*
X4118993Y-21073931D01*
X4128489Y-21079414D01*
X4325947Y-21171490D01*
X4336239Y-21175236D01*
X4508503Y-21221394D01*
X4522599Y-21221058D01*
X4526000Y-21213116D01*
X4526000Y-21207967D01*
X5034000Y-21207967D01*
X5037973Y-21221498D01*
X5046522Y-21222727D01*
X5223761Y-21175236D01*
X5234053Y-21171490D01*
X5431511Y-21079414D01*
X5441007Y-21073931D01*
X5619467Y-20948972D01*
X5627875Y-20941916D01*
X5781916Y-20787875D01*
X5788972Y-20779467D01*
X5913931Y-20601007D01*
X5919414Y-20591511D01*
X6011490Y-20394053D01*
X6015236Y-20383761D01*
X6061394Y-20211497D01*
X6061275Y-20206522D01*
X11117273Y-20206522D01*
X11164764Y-20383761D01*
X11168510Y-20394053D01*
X11260586Y-20591511D01*
X11266069Y-20601007D01*
X11391028Y-20779467D01*
X11398084Y-20787875D01*
X11552125Y-20941916D01*
X11560533Y-20948972D01*
X11738993Y-21073931D01*
X11748489Y-21079414D01*
X11945947Y-21171490D01*
X11956239Y-21175236D01*
X12128503Y-21221394D01*
X12142599Y-21221058D01*
X12146000Y-21213116D01*
X12146000Y-21207967D01*
X12654000Y-21207967D01*
X12657973Y-21221498D01*
X12666522Y-21222727D01*
X12843761Y-21175236D01*
X12854053Y-21171490D01*
X13051511Y-21079414D01*
X13061007Y-21073931D01*
X13239467Y-20948972D01*
X13247875Y-20941916D01*
X13401916Y-20787875D01*
X13408972Y-20779467D01*
X13533931Y-20601007D01*
X13539414Y-20591511D01*
X13631490Y-20394053D01*
X13635236Y-20383761D01*
X13681394Y-20211497D01*
X13681058Y-20197401D01*
X13673116Y-20194000D01*
X12672115Y-20194000D01*
X12656876Y-20198475D01*
X12655671Y-20199865D01*
X12654000Y-20207548D01*
X12654000Y-21207967D01*
X12146000Y-21207967D01*
X12146000Y-20212115D01*
X12141525Y-20196876D01*
X12140135Y-20195671D01*
X12132452Y-20194000D01*
X11132033Y-20194000D01*
X11118502Y-20197973D01*
X11117273Y-20206522D01*
X6061275Y-20206522D01*
X6061058Y-20197401D01*
X6053116Y-20194000D01*
X5052115Y-20194000D01*
X5036876Y-20198475D01*
X5035671Y-20199865D01*
X5034000Y-20207548D01*
X5034000Y-21207967D01*
X4526000Y-21207967D01*
X4526000Y-20212115D01*
X4521525Y-20196876D01*
X4520135Y-20195671D01*
X4512452Y-20194000D01*
X3512033Y-20194000D01*
X3498502Y-20197973D01*
X3497273Y-20206522D01*
X1508500Y-20206522D01*
X1508500Y-9250400D01*
X2241500Y-9250400D01*
X2241837Y-9253646D01*
X2241837Y-9253650D01*
X2246623Y-9299771D01*
X2252474Y-9356165D01*
X2308450Y-9523945D01*
X2401522Y-9674348D01*
X2526697Y-9799305D01*
X2532927Y-9803145D01*
X2532928Y-9803146D01*
X2668966Y-9887001D01*
X2677262Y-9892115D01*
X2702687Y-9900548D01*
X2838611Y-9945632D01*
X2838613Y-9945632D01*
X2845139Y-9947797D01*
X2851975Y-9948497D01*
X2851978Y-9948498D01*
X2928343Y-9956322D01*
X2994070Y-9983163D01*
X3034852Y-10041278D01*
X3041500Y-10081666D01*
X3041500Y-12732930D01*
X3040067Y-12751880D01*
X3036801Y-12773349D01*
X3037394Y-12780641D01*
X3037394Y-12780644D01*
X3041085Y-12826018D01*
X3041500Y-12836233D01*
X3041500Y-12844293D01*
X3041925Y-12847937D01*
X3044789Y-12872507D01*
X3045222Y-12876882D01*
X3048830Y-12921234D01*
X3051140Y-12949637D01*
X3053396Y-12956601D01*
X3054587Y-12962560D01*
X3055971Y-12968415D01*
X3056818Y-12975681D01*
X3081735Y-13044327D01*
X3083152Y-13048455D01*
X3095295Y-13085937D01*
X3105649Y-13117899D01*
X3109445Y-13124154D01*
X3111951Y-13129628D01*
X3114670Y-13135058D01*
X3117167Y-13141937D01*
X3121180Y-13148057D01*
X3121180Y-13148058D01*
X3157186Y-13202976D01*
X3159523Y-13206680D01*
X3197405Y-13269107D01*
X3201121Y-13273315D01*
X3201122Y-13273316D01*
X3204803Y-13277484D01*
X3204776Y-13277508D01*
X3207429Y-13280500D01*
X3210132Y-13283733D01*
X3214144Y-13289852D01*
X3219456Y-13294884D01*
X3270383Y-13343128D01*
X3272825Y-13345506D01*
X3651230Y-13723911D01*
X3663616Y-13738323D01*
X3672149Y-13749918D01*
X3672154Y-13749923D01*
X3676492Y-13755818D01*
X3682070Y-13760557D01*
X3682073Y-13760560D01*
X3716768Y-13790035D01*
X3724284Y-13796965D01*
X3729979Y-13802660D01*
X3732861Y-13804940D01*
X3752251Y-13820281D01*
X3755655Y-13823072D01*
X3804452Y-13864528D01*
X3811285Y-13870333D01*
X3817801Y-13873661D01*
X3822850Y-13877028D01*
X3827979Y-13880195D01*
X3833716Y-13884734D01*
X3899875Y-13915655D01*
X3903769Y-13917558D01*
X3968808Y-13950769D01*
X3975916Y-13952508D01*
X3981559Y-13954607D01*
X3987322Y-13956524D01*
X3993950Y-13959622D01*
X4001112Y-13961112D01*
X4001113Y-13961112D01*
X4065412Y-13974486D01*
X4069696Y-13975456D01*
X4140610Y-13992808D01*
X4146212Y-13993156D01*
X4146215Y-13993156D01*
X4151764Y-13993500D01*
X4151762Y-13993536D01*
X4155755Y-13993775D01*
X4159947Y-13994149D01*
X4167115Y-13995640D01*
X4244520Y-13993546D01*
X4247928Y-13993500D01*
X4551481Y-13993500D01*
X4619602Y-14013502D01*
X4666095Y-14067158D01*
X4676199Y-14137432D01*
X4672478Y-14154652D01*
X4646233Y-14244989D01*
X4646232Y-14244993D01*
X4644438Y-14251169D01*
X4643934Y-14257574D01*
X4643933Y-14257579D01*
X4643199Y-14266909D01*
X4641500Y-14288498D01*
X4641500Y-14721502D01*
X4641693Y-14723950D01*
X4641693Y-14723958D01*
X4642539Y-14734701D01*
X4644438Y-14758831D01*
X4690855Y-14918601D01*
X4694892Y-14925427D01*
X4771509Y-15054980D01*
X4771511Y-15054983D01*
X4775547Y-15061807D01*
X4893193Y-15179453D01*
X4900017Y-15183489D01*
X4900020Y-15183491D01*
X4940455Y-15207404D01*
X5036399Y-15264145D01*
X5044010Y-15266356D01*
X5044012Y-15266357D01*
X5051399Y-15268503D01*
X5196169Y-15310562D01*
X5202574Y-15311066D01*
X5202579Y-15311067D01*
X5231042Y-15313307D01*
X5231050Y-15313307D01*
X5233498Y-15313500D01*
X6716502Y-15313500D01*
X6718950Y-15313307D01*
X6718958Y-15313307D01*
X6747421Y-15311067D01*
X6747426Y-15311066D01*
X6753831Y-15310562D01*
X6898601Y-15268503D01*
X6905988Y-15266357D01*
X6905990Y-15266356D01*
X6913601Y-15264145D01*
X7009545Y-15207404D01*
X7049980Y-15183491D01*
X7049983Y-15183489D01*
X7056807Y-15179453D01*
X7174453Y-15061807D01*
X7178489Y-15054983D01*
X7178491Y-15054980D01*
X7255108Y-14925427D01*
X7259145Y-14918601D01*
X7305562Y-14758831D01*
X7307462Y-14734701D01*
X7308307Y-14723958D01*
X7308307Y-14723950D01*
X7308500Y-14721502D01*
X7308500Y-14288498D01*
X7306801Y-14266909D01*
X7306067Y-14257579D01*
X7306066Y-14257574D01*
X7305562Y-14251169D01*
X7259145Y-14091399D01*
X7174453Y-13948193D01*
X7171771Y-13945511D01*
X7146498Y-13881139D01*
X7160400Y-13811516D01*
X7170572Y-13795688D01*
X7174453Y-13791807D01*
X7259145Y-13648601D01*
X7261358Y-13640986D01*
X7276528Y-13588769D01*
X7305562Y-13488831D01*
X7308165Y-13455767D01*
X7308307Y-13453958D01*
X7308307Y-13453950D01*
X7308500Y-13451502D01*
X7308500Y-13018498D01*
X7305562Y-12981169D01*
X7259145Y-12821399D01*
X7174453Y-12678193D01*
X7171771Y-12675511D01*
X7146498Y-12611139D01*
X7160400Y-12541516D01*
X7170572Y-12525688D01*
X7174453Y-12521807D01*
X7259145Y-12378601D01*
X7305562Y-12218831D01*
X7306376Y-12208500D01*
X7308307Y-12183958D01*
X7308307Y-12183950D01*
X7308500Y-12181502D01*
X7308500Y-11748498D01*
X7308307Y-11746042D01*
X7306067Y-11717579D01*
X7306066Y-11717574D01*
X7305562Y-11711169D01*
X7274739Y-11605075D01*
X7261357Y-11559012D01*
X7261356Y-11559010D01*
X7259145Y-11551399D01*
X7174453Y-11408193D01*
X7171513Y-11405253D01*
X7146180Y-11340734D01*
X7160079Y-11271111D01*
X7172126Y-11252364D01*
X7178090Y-11244676D01*
X7254648Y-11115221D01*
X7260893Y-11100790D01*
X7299939Y-10966395D01*
X7299899Y-10952294D01*
X7292630Y-10949000D01*
X5847000Y-10949000D01*
X5778879Y-10928998D01*
X5732386Y-10875342D01*
X5721000Y-10823000D01*
X5721000Y-10422885D01*
X6229000Y-10422885D01*
X6233475Y-10438124D01*
X6234865Y-10439329D01*
X6242548Y-10441000D01*
X7286878Y-10441000D01*
X7300409Y-10437027D01*
X7301544Y-10429129D01*
X7260893Y-10289210D01*
X7254648Y-10274779D01*
X7178089Y-10145322D01*
X7168449Y-10132896D01*
X7062104Y-10026551D01*
X7049678Y-10016911D01*
X6920221Y-9940352D01*
X6905790Y-9934107D01*
X6759935Y-9891731D01*
X6747333Y-9889430D01*
X6718916Y-9887193D01*
X6713986Y-9887000D01*
X6247115Y-9887000D01*
X6231876Y-9891475D01*
X6230671Y-9892865D01*
X6229000Y-9900548D01*
X6229000Y-10422885D01*
X5721000Y-10422885D01*
X5721000Y-9905116D01*
X5716525Y-9889877D01*
X5715135Y-9888672D01*
X5707452Y-9887001D01*
X5289520Y-9887001D01*
X5221399Y-9866999D01*
X5174906Y-9813343D01*
X5164802Y-9743069D01*
X5190639Y-9682907D01*
X5194129Y-9678488D01*
X5199305Y-9673303D01*
X5292115Y-9522738D01*
X5347797Y-9354861D01*
X5348980Y-9343320D01*
X5358172Y-9253598D01*
X5358500Y-9250400D01*
X5358500Y-8158439D01*
X5378502Y-8090318D01*
X5432158Y-8043825D01*
X5502432Y-8033721D01*
X5567012Y-8063215D01*
X5581467Y-8077982D01*
X5595171Y-8094500D01*
X5605608Y-8107080D01*
X6068015Y-8525448D01*
X8586839Y-10804384D01*
X9357549Y-11501693D01*
X9359428Y-11503149D01*
X9359437Y-11503157D01*
X9391153Y-11527740D01*
X9419226Y-11549500D01*
X9451093Y-11570530D01*
X9453188Y-11571694D01*
X9453189Y-11571695D01*
X9513246Y-11605075D01*
X9513249Y-11605076D01*
X9519285Y-11608431D01*
X9659404Y-11650007D01*
X9663845Y-11650658D01*
X9663852Y-11650660D01*
X9715749Y-11658272D01*
X9729649Y-11660311D01*
X9734149Y-11660324D01*
X9734152Y-11660324D01*
X9758109Y-11660392D01*
X9765858Y-11660414D01*
X9833922Y-11680609D01*
X9880262Y-11734397D01*
X9891500Y-11786413D01*
X9891500Y-12181502D01*
X9891693Y-12183950D01*
X9891693Y-12183958D01*
X9893625Y-12208500D01*
X9894438Y-12218831D01*
X9940855Y-12378601D01*
X10025547Y-12521807D01*
X10028229Y-12524489D01*
X10053502Y-12588861D01*
X10039600Y-12658484D01*
X10029428Y-12674312D01*
X10025547Y-12678193D01*
X9940855Y-12821399D01*
X9894438Y-12981169D01*
X9891500Y-13018498D01*
X9891500Y-13451502D01*
X9891693Y-13453950D01*
X9891693Y-13453958D01*
X9891836Y-13455767D01*
X9894438Y-13488831D01*
X9896232Y-13495007D01*
X9896233Y-13495011D01*
X9922478Y-13585348D01*
X9922275Y-13656344D01*
X9883721Y-13715960D01*
X9819056Y-13745268D01*
X9801481Y-13746500D01*
X9762063Y-13746500D01*
X9743114Y-13745067D01*
X9742907Y-13745036D01*
X9721651Y-13741802D01*
X9714359Y-13742395D01*
X9714356Y-13742395D01*
X9668991Y-13746085D01*
X9658777Y-13746500D01*
X9650707Y-13746500D01*
X9647087Y-13746922D01*
X9647069Y-13746923D01*
X9622461Y-13749792D01*
X9618100Y-13750224D01*
X9592981Y-13752267D01*
X9552661Y-13755546D01*
X9552658Y-13755547D01*
X9545363Y-13756140D01*
X9538399Y-13758396D01*
X9532440Y-13759587D01*
X9526585Y-13760971D01*
X9519319Y-13761818D01*
X9450673Y-13786735D01*
X9446545Y-13788152D01*
X9384064Y-13808393D01*
X9384062Y-13808394D01*
X9377101Y-13810649D01*
X9370846Y-13814445D01*
X9365372Y-13816951D01*
X9359942Y-13819670D01*
X9353063Y-13822167D01*
X9292016Y-13862191D01*
X9288327Y-13864518D01*
X9286560Y-13865591D01*
X9230693Y-13899491D01*
X9230688Y-13899495D01*
X9225892Y-13902405D01*
X9217516Y-13909803D01*
X9217493Y-13909777D01*
X9214503Y-13912426D01*
X9211264Y-13915134D01*
X9205148Y-13919144D01*
X9200121Y-13924451D01*
X9200117Y-13924454D01*
X9151872Y-13975383D01*
X9149494Y-13977825D01*
X8811089Y-14316230D01*
X8796677Y-14328616D01*
X8785082Y-14337149D01*
X8785077Y-14337154D01*
X8779182Y-14341492D01*
X8774443Y-14347070D01*
X8774440Y-14347073D01*
X8744965Y-14381768D01*
X8738035Y-14389284D01*
X8732340Y-14394979D01*
X8730060Y-14397861D01*
X8714719Y-14417251D01*
X8711928Y-14420655D01*
X8669409Y-14470703D01*
X8664667Y-14476285D01*
X8661339Y-14482801D01*
X8657972Y-14487850D01*
X8654805Y-14492979D01*
X8650266Y-14498716D01*
X8619345Y-14564875D01*
X8617442Y-14568769D01*
X8584231Y-14633808D01*
X8582492Y-14640916D01*
X8580393Y-14646559D01*
X8578476Y-14652322D01*
X8575378Y-14658950D01*
X8573888Y-14666112D01*
X8573888Y-14666113D01*
X8560514Y-14730412D01*
X8559544Y-14734696D01*
X8542192Y-14805610D01*
X8541500Y-14816764D01*
X8541464Y-14816762D01*
X8541225Y-14820755D01*
X8540851Y-14824947D01*
X8539360Y-14832115D01*
X8539558Y-14839432D01*
X8541454Y-14909521D01*
X8541500Y-14912928D01*
X8541500Y-15833629D01*
X8521498Y-15901750D01*
X8504595Y-15922724D01*
X7822724Y-16604595D01*
X7760412Y-16638621D01*
X7733629Y-16641500D01*
X5911867Y-16641500D01*
X5843746Y-16621498D01*
X5808655Y-16587772D01*
X5786198Y-16555700D01*
X5624300Y-16393802D01*
X5619792Y-16390645D01*
X5619789Y-16390643D01*
X5482325Y-16294390D01*
X5436749Y-16262477D01*
X5431767Y-16260154D01*
X5431762Y-16260151D01*
X5234225Y-16168039D01*
X5234224Y-16168039D01*
X5229243Y-16165716D01*
X5223935Y-16164294D01*
X5223933Y-16164293D01*
X5013402Y-16107881D01*
X5013400Y-16107881D01*
X5008087Y-16106457D01*
X4780000Y-16086502D01*
X4551913Y-16106457D01*
X4546600Y-16107881D01*
X4546598Y-16107881D01*
X4336067Y-16164293D01*
X4336065Y-16164294D01*
X4330757Y-16165716D01*
X4325776Y-16168039D01*
X4325775Y-16168039D01*
X4128238Y-16260151D01*
X4128233Y-16260154D01*
X4123251Y-16262477D01*
X4077675Y-16294390D01*
X3940211Y-16390643D01*
X3940208Y-16390645D01*
X3935700Y-16393802D01*
X3773802Y-16555700D01*
X3770645Y-16560208D01*
X3770643Y-16560211D01*
X3723271Y-16627866D01*
X3642477Y-16743251D01*
X3640154Y-16748233D01*
X3640151Y-16748238D01*
X3573836Y-16890452D01*
X3545716Y-16950757D01*
X3486457Y-17171913D01*
X3466502Y-17400000D01*
X3486457Y-17628087D01*
X3545716Y-17849243D01*
X3548039Y-17854224D01*
X3548039Y-17854225D01*
X3640151Y-18051762D01*
X3640154Y-18051767D01*
X3642477Y-18056749D01*
X3711421Y-18155211D01*
X3766240Y-18233500D01*
X3773802Y-18244300D01*
X3935700Y-18406198D01*
X3940208Y-18409355D01*
X3940211Y-18409357D01*
X3981542Y-18438297D01*
X4123251Y-18537523D01*
X4128233Y-18539846D01*
X4128238Y-18539849D01*
X4163049Y-18556081D01*
X4216334Y-18602998D01*
X4235795Y-18671275D01*
X4215253Y-18739235D01*
X4163049Y-18784471D01*
X4128489Y-18800586D01*
X4118993Y-18806069D01*
X3940533Y-18931028D01*
X3932125Y-18938084D01*
X3778084Y-19092125D01*
X3771028Y-19100533D01*
X3646069Y-19278993D01*
X3640586Y-19288489D01*
X3548510Y-19485947D01*
X3544764Y-19496239D01*
X3498606Y-19668503D01*
X3498942Y-19682599D01*
X3506884Y-19686000D01*
X6047967Y-19686000D01*
X6061498Y-19682027D01*
X6062727Y-19673478D01*
X6015236Y-19496239D01*
X6011490Y-19485947D01*
X5919414Y-19288489D01*
X5913931Y-19278993D01*
X5788972Y-19100533D01*
X5781916Y-19092125D01*
X5627875Y-18938084D01*
X5619467Y-18931028D01*
X5441007Y-18806069D01*
X5431511Y-18800586D01*
X5396951Y-18784471D01*
X5343666Y-18737554D01*
X5324205Y-18669277D01*
X5344747Y-18601317D01*
X5396951Y-18556081D01*
X5431762Y-18539849D01*
X5431767Y-18539846D01*
X5436749Y-18537523D01*
X5578458Y-18438297D01*
X5619789Y-18409357D01*
X5619792Y-18409355D01*
X5624300Y-18406198D01*
X5782364Y-18248134D01*
X11091500Y-18248134D01*
X11098255Y-18310316D01*
X11149385Y-18446705D01*
X11236739Y-18563261D01*
X11353295Y-18650615D01*
X11489684Y-18701745D01*
X11501229Y-18702999D01*
X11503910Y-18704113D01*
X11505222Y-18704425D01*
X11505172Y-18704637D01*
X11566790Y-18730238D01*
X11607218Y-18788599D01*
X11609677Y-18859553D01*
X11573384Y-18920572D01*
X11562775Y-18929147D01*
X11552125Y-18938084D01*
X11398084Y-19092125D01*
X11391028Y-19100533D01*
X11266069Y-19278993D01*
X11260586Y-19288489D01*
X11168510Y-19485947D01*
X11164764Y-19496239D01*
X11118606Y-19668503D01*
X11118942Y-19682599D01*
X11126884Y-19686000D01*
X13667967Y-19686000D01*
X13681498Y-19682027D01*
X13682727Y-19673478D01*
X13635236Y-19496239D01*
X13631490Y-19485947D01*
X13539414Y-19288489D01*
X13533931Y-19278993D01*
X13408972Y-19100533D01*
X13401916Y-19092125D01*
X13247875Y-18938084D01*
X13235254Y-18927493D01*
X13236108Y-18926475D01*
X13195776Y-18876016D01*
X13188468Y-18805397D01*
X13220500Y-18742037D01*
X13281702Y-18706053D01*
X13298762Y-18703000D01*
X13310316Y-18701745D01*
X13446705Y-18650615D01*
X13563261Y-18563261D01*
X13650615Y-18446705D01*
X13701745Y-18310316D01*
X13706028Y-18270892D01*
X13733270Y-18205330D01*
X13791634Y-18164904D01*
X13831291Y-18158500D01*
X14276191Y-18158500D01*
X14344312Y-18178502D01*
X14365206Y-18195325D01*
X14471997Y-18301929D01*
X14478227Y-18305769D01*
X14478228Y-18305770D01*
X14544298Y-18346496D01*
X14620080Y-18393209D01*
X14785191Y-18447974D01*
X14792027Y-18448674D01*
X14792030Y-18448675D01*
X14842943Y-18453891D01*
X14887928Y-18458500D01*
X15487072Y-18458500D01*
X15490318Y-18458163D01*
X15490322Y-18458163D01*
X15584235Y-18448419D01*
X15584239Y-18448418D01*
X15591093Y-18447707D01*
X15597629Y-18445526D01*
X15597631Y-18445526D01*
X15730395Y-18401232D01*
X15756107Y-18392654D01*
X15904031Y-18301116D01*
X15951562Y-18253502D01*
X16010747Y-18194214D01*
X16073030Y-18160135D01*
X16143850Y-18165138D01*
X16188937Y-18194059D01*
X16291812Y-18296754D01*
X16291817Y-18296758D01*
X16296997Y-18301929D01*
X16303227Y-18305769D01*
X16303228Y-18305770D01*
X16369298Y-18346496D01*
X16445080Y-18393209D01*
X16610191Y-18447974D01*
X16617027Y-18448674D01*
X16617030Y-18448675D01*
X16667943Y-18453891D01*
X16712928Y-18458500D01*
X17312072Y-18458500D01*
X17315318Y-18458163D01*
X17315322Y-18458163D01*
X17409235Y-18448419D01*
X17409239Y-18448418D01*
X17416093Y-18447707D01*
X17422629Y-18445526D01*
X17422631Y-18445526D01*
X17555395Y-18401232D01*
X17581107Y-18392654D01*
X17729031Y-18301116D01*
X17734204Y-18295934D01*
X17759612Y-18270482D01*
X17821895Y-18236403D01*
X17848785Y-18233500D01*
X18318362Y-18233500D01*
X18386483Y-18253502D01*
X18432976Y-18307158D01*
X18443689Y-18346496D01*
X18448719Y-18394972D01*
X18452474Y-18431165D01*
X18454655Y-18437701D01*
X18454655Y-18437703D01*
X18486905Y-18534366D01*
X18508450Y-18598945D01*
X18601522Y-18749348D01*
X18726697Y-18874305D01*
X18732927Y-18878145D01*
X18732928Y-18878146D01*
X18870090Y-18962694D01*
X18877262Y-18967115D01*
X18957005Y-18993564D01*
X19038611Y-19020632D01*
X19038613Y-19020632D01*
X19045139Y-19022797D01*
X19051975Y-19023497D01*
X19051978Y-19023498D01*
X19095031Y-19027909D01*
X19149600Y-19033500D01*
X20850400Y-19033500D01*
X20853646Y-19033163D01*
X20853650Y-19033163D01*
X20949307Y-19023238D01*
X20949311Y-19023237D01*
X20956165Y-19022526D01*
X20962701Y-19020345D01*
X20962703Y-19020345D01*
X21094805Y-18976272D01*
X21123945Y-18966550D01*
X21274348Y-18873478D01*
X21399305Y-18748303D01*
X21403146Y-18742072D01*
X21488275Y-18603968D01*
X21488276Y-18603966D01*
X21492115Y-18597738D01*
X21542210Y-18446705D01*
X21545632Y-18436389D01*
X21545632Y-18436387D01*
X21547797Y-18429861D01*
X21550222Y-18406198D01*
X21552909Y-18379969D01*
X21558500Y-18325400D01*
X21558500Y-16624600D01*
X21557171Y-16611789D01*
X21548238Y-16525693D01*
X21548237Y-16525689D01*
X21547526Y-16518835D01*
X21542641Y-16504191D01*
X21493868Y-16358003D01*
X21491550Y-16351055D01*
X21398478Y-16200652D01*
X21273303Y-16075695D01*
X21267072Y-16071854D01*
X21128968Y-15986725D01*
X21128966Y-15986724D01*
X21122738Y-15982885D01*
X20962254Y-15929655D01*
X20961389Y-15929368D01*
X20961387Y-15929368D01*
X20954861Y-15927203D01*
X20948025Y-15926503D01*
X20948022Y-15926502D01*
X20904969Y-15922091D01*
X20850400Y-15916500D01*
X19149600Y-15916500D01*
X19146354Y-15916837D01*
X19146350Y-15916837D01*
X19050693Y-15926762D01*
X19050689Y-15926763D01*
X19043835Y-15927474D01*
X19037299Y-15929655D01*
X19037297Y-15929655D01*
X18905195Y-15973728D01*
X18876055Y-15983450D01*
X18725652Y-16076522D01*
X18600695Y-16201697D01*
X18596855Y-16207927D01*
X18596854Y-16207928D01*
X18552894Y-16279245D01*
X18507885Y-16352262D01*
X18505581Y-16359209D01*
X18457493Y-16504191D01*
X18452203Y-16520139D01*
X18451503Y-16526975D01*
X18451502Y-16526978D01*
X18443678Y-16603343D01*
X18416837Y-16669070D01*
X18358722Y-16709852D01*
X18318334Y-16716500D01*
X17848677Y-16716500D01*
X17780556Y-16696498D01*
X17759666Y-16679679D01*
X17728003Y-16648071D01*
X17579920Y-16556791D01*
X17414809Y-16502026D01*
X17407973Y-16501326D01*
X17407970Y-16501325D01*
X17356474Y-16496049D01*
X17312072Y-16491500D01*
X16712928Y-16491500D01*
X16709682Y-16491837D01*
X16709678Y-16491837D01*
X16615765Y-16501581D01*
X16615761Y-16501582D01*
X16608907Y-16502293D01*
X16602371Y-16504474D01*
X16602369Y-16504474D01*
X16470501Y-16548469D01*
X16443893Y-16557346D01*
X16295969Y-16648884D01*
X16290796Y-16654066D01*
X16189253Y-16755786D01*
X16126970Y-16789865D01*
X16056150Y-16784862D01*
X16011063Y-16755941D01*
X15908188Y-16653246D01*
X15908183Y-16653242D01*
X15903003Y-16648071D01*
X15892343Y-16641500D01*
X15761150Y-16560631D01*
X15761148Y-16560630D01*
X15754920Y-16556791D01*
X15589809Y-16502026D01*
X15582973Y-16501326D01*
X15582970Y-16501325D01*
X15531474Y-16496049D01*
X15487072Y-16491500D01*
X14887928Y-16491500D01*
X14884682Y-16491837D01*
X14884678Y-16491837D01*
X14790765Y-16501581D01*
X14790761Y-16501582D01*
X14783907Y-16502293D01*
X14777371Y-16504474D01*
X14777369Y-16504474D01*
X14730416Y-16520139D01*
X14618893Y-16557346D01*
X14612673Y-16561195D01*
X14513370Y-16622645D01*
X14447067Y-16641500D01*
X13831291Y-16641500D01*
X13763170Y-16621498D01*
X13716677Y-16567842D01*
X13706028Y-16529108D01*
X13704344Y-16513611D01*
X13701745Y-16489684D01*
X13650615Y-16353295D01*
X13563261Y-16236739D01*
X13446705Y-16149385D01*
X13310316Y-16098255D01*
X13248134Y-16091500D01*
X11551866Y-16091500D01*
X11489684Y-16098255D01*
X11353295Y-16149385D01*
X11236739Y-16236739D01*
X11149385Y-16353295D01*
X11098255Y-16489684D01*
X11091500Y-16551866D01*
X11091500Y-18248134D01*
X5782364Y-18248134D01*
X5786198Y-18244300D01*
X5808655Y-18212229D01*
X5864110Y-18167901D01*
X5911867Y-18158500D01*
X8032930Y-18158500D01*
X8051880Y-18159933D01*
X8066115Y-18162099D01*
X8066119Y-18162099D01*
X8073349Y-18163199D01*
X8080641Y-18162606D01*
X8080644Y-18162606D01*
X8126018Y-18158915D01*
X8136233Y-18158500D01*
X8144293Y-18158500D01*
X8157583Y-18156951D01*
X8172507Y-18155211D01*
X8176882Y-18154778D01*
X8242339Y-18149454D01*
X8242342Y-18149453D01*
X8249637Y-18148860D01*
X8256601Y-18146604D01*
X8262560Y-18145413D01*
X8268415Y-18144029D01*
X8275681Y-18143182D01*
X8344327Y-18118265D01*
X8348455Y-18116848D01*
X8410936Y-18096607D01*
X8410938Y-18096606D01*
X8417899Y-18094351D01*
X8424154Y-18090555D01*
X8429628Y-18088049D01*
X8435058Y-18085330D01*
X8441937Y-18082833D01*
X8474846Y-18061257D01*
X8502976Y-18042814D01*
X8506680Y-18040477D01*
X8569107Y-18002595D01*
X8577484Y-17995197D01*
X8577508Y-17995224D01*
X8580500Y-17992571D01*
X8583733Y-17989868D01*
X8589852Y-17985856D01*
X8643128Y-17929617D01*
X8645506Y-17927175D01*
X9788911Y-16783770D01*
X9803323Y-16771384D01*
X9814918Y-16762851D01*
X9814923Y-16762846D01*
X9820818Y-16758508D01*
X9825557Y-16752930D01*
X9825560Y-16752927D01*
X9855035Y-16718232D01*
X9861965Y-16710716D01*
X9867660Y-16705021D01*
X9885281Y-16682749D01*
X9888072Y-16679345D01*
X9930591Y-16629297D01*
X9930592Y-16629295D01*
X9935333Y-16623715D01*
X9938661Y-16617199D01*
X9942028Y-16612150D01*
X9945195Y-16607021D01*
X9949734Y-16601284D01*
X9980655Y-16535125D01*
X9982561Y-16531225D01*
X9996221Y-16504474D01*
X10015769Y-16466192D01*
X10017508Y-16459084D01*
X10019607Y-16453441D01*
X10021524Y-16447678D01*
X10024622Y-16441050D01*
X10039487Y-16369583D01*
X10040457Y-16365299D01*
X10045153Y-16346109D01*
X10057808Y-16294390D01*
X10058500Y-16283236D01*
X10058536Y-16283238D01*
X10058775Y-16279245D01*
X10059149Y-16275053D01*
X10060640Y-16267885D01*
X10058546Y-16190479D01*
X10058500Y-16187072D01*
X10058500Y-15389500D01*
X10078502Y-15321379D01*
X10132158Y-15274886D01*
X10184500Y-15263500D01*
X10266246Y-15263500D01*
X10301398Y-15268503D01*
X10439989Y-15308767D01*
X10439993Y-15308768D01*
X10446169Y-15310562D01*
X10452574Y-15311066D01*
X10452579Y-15311067D01*
X10481042Y-15313307D01*
X10481050Y-15313307D01*
X10483498Y-15313500D01*
X11966502Y-15313500D01*
X11968950Y-15313307D01*
X11968958Y-15313307D01*
X11997421Y-15311067D01*
X11997426Y-15311066D01*
X12003831Y-15310562D01*
X12148601Y-15268503D01*
X12155988Y-15266357D01*
X12155990Y-15266356D01*
X12163601Y-15264145D01*
X12259545Y-15207404D01*
X12299980Y-15183491D01*
X12299983Y-15183489D01*
X12306807Y-15179453D01*
X12424453Y-15061807D01*
X12428489Y-15054983D01*
X12428491Y-15054980D01*
X12472273Y-14980949D01*
X16778493Y-14980949D01*
X16787789Y-14992964D01*
X16838994Y-15028818D01*
X16848489Y-15034301D01*
X17045947Y-15126377D01*
X17056239Y-15130123D01*
X17266688Y-15186512D01*
X17277481Y-15188415D01*
X17494525Y-15207404D01*
X17505475Y-15207404D01*
X17722519Y-15188415D01*
X17733312Y-15186512D01*
X17943761Y-15130123D01*
X17954053Y-15126377D01*
X18151511Y-15034301D01*
X18161006Y-15028818D01*
X18213048Y-14992378D01*
X18221424Y-14981899D01*
X18214356Y-14968453D01*
X17512812Y-14266909D01*
X17498868Y-14259295D01*
X17497035Y-14259426D01*
X17490420Y-14263677D01*
X16784923Y-14969174D01*
X16778493Y-14980949D01*
X12472273Y-14980949D01*
X12505108Y-14925427D01*
X12509145Y-14918601D01*
X12555562Y-14758831D01*
X12557462Y-14734701D01*
X12558307Y-14723958D01*
X12558307Y-14723950D01*
X12558500Y-14721502D01*
X12558500Y-14288498D01*
X12556801Y-14266909D01*
X12556067Y-14257579D01*
X12556066Y-14257574D01*
X12555562Y-14251169D01*
X12509145Y-14091399D01*
X12424453Y-13948193D01*
X12421771Y-13945511D01*
X12404045Y-13900362D01*
X16187483Y-13900362D01*
X16206472Y-14117406D01*
X16208375Y-14128199D01*
X16264764Y-14338648D01*
X16268510Y-14348940D01*
X16360586Y-14546398D01*
X16366069Y-14555893D01*
X16402509Y-14607935D01*
X16412988Y-14616311D01*
X16426434Y-14609243D01*
X17127978Y-13907699D01*
X17134356Y-13896019D01*
X17864408Y-13896019D01*
X17864539Y-13897852D01*
X17868790Y-13904467D01*
X18574287Y-14609964D01*
X18586062Y-14616394D01*
X18598077Y-14607098D01*
X18633931Y-14555893D01*
X18639414Y-14546398D01*
X18731490Y-14348940D01*
X18735236Y-14338648D01*
X18791625Y-14128199D01*
X18793528Y-14117406D01*
X18812517Y-13900362D01*
X18812517Y-13889412D01*
X18793528Y-13672368D01*
X18791625Y-13661575D01*
X18735236Y-13451126D01*
X18731490Y-13440834D01*
X18639414Y-13243376D01*
X18633931Y-13233881D01*
X18597491Y-13181839D01*
X18587012Y-13173463D01*
X18573566Y-13180531D01*
X17872022Y-13882075D01*
X17864408Y-13896019D01*
X17134356Y-13896019D01*
X17135592Y-13893755D01*
X17135461Y-13891922D01*
X17131210Y-13885307D01*
X16425713Y-13179810D01*
X16413938Y-13173380D01*
X16401923Y-13182676D01*
X16366069Y-13233881D01*
X16360586Y-13243376D01*
X16268510Y-13440834D01*
X16264764Y-13451126D01*
X16208375Y-13661575D01*
X16206472Y-13672368D01*
X16187483Y-13889412D01*
X16187483Y-13900362D01*
X12404045Y-13900362D01*
X12396498Y-13881139D01*
X12410400Y-13811516D01*
X12420572Y-13795688D01*
X12424453Y-13791807D01*
X12509145Y-13648601D01*
X12511357Y-13640988D01*
X12511358Y-13640986D01*
X12539162Y-13545281D01*
X12577374Y-13485445D01*
X12641871Y-13455767D01*
X12699826Y-13460840D01*
X12803765Y-13495315D01*
X12817132Y-13498181D01*
X12909770Y-13507672D01*
X12916185Y-13508000D01*
X12927885Y-13508000D01*
X12943124Y-13503525D01*
X12944329Y-13502135D01*
X12946000Y-13494452D01*
X12946000Y-13489885D01*
X13454000Y-13489885D01*
X13458475Y-13505124D01*
X13459865Y-13506329D01*
X13467548Y-13508000D01*
X13483766Y-13508000D01*
X13490282Y-13507663D01*
X13584132Y-13497925D01*
X13597528Y-13495032D01*
X13748953Y-13444512D01*
X13762115Y-13438347D01*
X13897492Y-13354574D01*
X13908890Y-13345540D01*
X14021363Y-13232871D01*
X14030375Y-13221460D01*
X14113912Y-13085937D01*
X14120056Y-13072759D01*
X14170315Y-12921234D01*
X14173181Y-12907868D01*
X14182672Y-12815230D01*
X14183000Y-12808815D01*
X14183000Y-12734615D01*
X14178525Y-12719376D01*
X14177135Y-12718171D01*
X14169452Y-12716500D01*
X13472115Y-12716500D01*
X13456876Y-12720975D01*
X13455671Y-12722365D01*
X13454000Y-12730048D01*
X13454000Y-13489885D01*
X12946000Y-13489885D01*
X12946000Y-12334500D01*
X12966002Y-12266379D01*
X13019658Y-12219886D01*
X13072000Y-12208500D01*
X14164885Y-12208500D01*
X14180124Y-12204025D01*
X14181329Y-12202635D01*
X14183000Y-12194952D01*
X14183000Y-12116234D01*
X14182663Y-12109718D01*
X14172925Y-12015868D01*
X14170032Y-12002472D01*
X14119512Y-11851047D01*
X14113347Y-11837885D01*
X14029574Y-11702508D01*
X14020536Y-11691106D01*
X14018861Y-11689433D01*
X14018081Y-11688007D01*
X14015993Y-11685373D01*
X14016444Y-11685016D01*
X13984781Y-11627151D01*
X13989784Y-11556331D01*
X14018701Y-11511246D01*
X14021756Y-11508185D01*
X14026929Y-11503003D01*
X14118209Y-11354920D01*
X14172974Y-11189809D01*
X14183500Y-11087072D01*
X14183500Y-10431908D01*
X14203502Y-10363787D01*
X14241380Y-10325910D01*
X14358824Y-10250434D01*
X14358830Y-10250430D01*
X14362612Y-10247999D01*
X14416268Y-10201506D01*
X14424297Y-10192240D01*
X14506081Y-10097857D01*
X14506083Y-10097854D01*
X14511982Y-10091046D01*
X14572698Y-9958097D01*
X14589596Y-9900548D01*
X14591431Y-9894299D01*
X14591432Y-9894295D01*
X14592700Y-9889976D01*
X14605060Y-9804015D01*
X14612861Y-9749754D01*
X14612861Y-9749749D01*
X14613500Y-9745307D01*
X14613500Y-8039500D01*
X14633502Y-7971379D01*
X14687158Y-7924886D01*
X14739500Y-7913500D01*
X15915500Y-7913500D01*
X15983621Y-7933502D01*
X16030114Y-7987158D01*
X16041500Y-8039500D01*
X16041500Y-9101180D01*
X16021498Y-9169301D01*
X15968168Y-9215511D01*
X15960343Y-9217809D01*
X15837388Y-9296827D01*
X15783732Y-9343320D01*
X15780792Y-9346713D01*
X15693919Y-9446969D01*
X15693917Y-9446972D01*
X15688018Y-9453780D01*
X15627302Y-9586729D01*
X15616420Y-9623791D01*
X15607300Y-9654850D01*
X15606661Y-9659294D01*
X15606660Y-9659299D01*
X15592921Y-9754861D01*
X15586500Y-9799519D01*
X15586500Y-10170121D01*
X15589426Y-10224860D01*
X15589605Y-10226527D01*
X15591907Y-10247999D01*
X15592290Y-10251574D01*
X15601038Y-10305706D01*
X15603198Y-10311507D01*
X15650343Y-10438124D01*
X15652038Y-10442677D01*
X15654199Y-10446639D01*
X15683868Y-10501048D01*
X15683872Y-10501054D01*
X15686028Y-10505008D01*
X15773551Y-10622061D01*
X15890506Y-10709716D01*
X15952799Y-10743776D01*
X15957007Y-10745348D01*
X15957011Y-10745350D01*
X16081270Y-10791775D01*
X16089712Y-10794929D01*
X16094307Y-10795260D01*
X16154647Y-10828254D01*
X16188636Y-10890586D01*
X16191500Y-10917298D01*
X16191500Y-12243021D01*
X16198255Y-12305203D01*
X16249385Y-12441592D01*
X16336739Y-12558148D01*
X16453295Y-12645502D01*
X16589684Y-12696632D01*
X16633252Y-12701365D01*
X16648486Y-12703020D01*
X16648489Y-12703020D01*
X16651866Y-12703387D01*
X16655185Y-12703387D01*
X16722110Y-12727040D01*
X16757804Y-12773043D01*
X16759734Y-12772028D01*
X16765442Y-12782887D01*
X16765632Y-12783132D01*
X16765653Y-12783290D01*
X16785644Y-12821321D01*
X17487188Y-13522865D01*
X17501132Y-13530479D01*
X17502965Y-13530348D01*
X17509580Y-13526097D01*
X18215077Y-12820600D01*
X18237871Y-12778858D01*
X18240047Y-12768858D01*
X18290253Y-12718660D01*
X18343814Y-12703436D01*
X18344719Y-12703387D01*
X18348134Y-12703387D01*
X18351530Y-12703018D01*
X18351532Y-12703018D01*
X18363879Y-12701677D01*
X18410316Y-12696632D01*
X18546705Y-12645502D01*
X18627199Y-12585175D01*
X18693705Y-12560327D01*
X18737026Y-12564749D01*
X18795641Y-12581313D01*
X18940508Y-12600638D01*
X18949407Y-12599266D01*
X18949408Y-12599266D01*
X19040802Y-12585175D01*
X19084959Y-12578367D01*
X19089256Y-12577058D01*
X19089259Y-12577057D01*
X19148574Y-12558983D01*
X19148578Y-12558981D01*
X19152872Y-12557673D01*
X19243898Y-12514978D01*
X19281119Y-12497520D01*
X19281122Y-12497518D01*
X19285199Y-12495606D01*
X21633717Y-10952294D01*
X21685695Y-10918137D01*
X21685697Y-10918135D01*
X21686576Y-10917558D01*
X21714383Y-10897935D01*
X21727699Y-10887861D01*
X21754158Y-10866428D01*
X21816113Y-10794929D01*
X21846928Y-10759367D01*
X21846931Y-10759362D01*
X21849871Y-10755970D01*
X21879597Y-10709716D01*
X21885822Y-10700030D01*
X21885823Y-10700029D01*
X21888255Y-10696244D01*
X21948973Y-10563293D01*
X21963344Y-10463338D01*
X21992837Y-10398757D01*
X22052563Y-10360373D01*
X22075058Y-10355942D01*
X22149307Y-10348238D01*
X22149311Y-10348237D01*
X22156165Y-10347526D01*
X22162701Y-10345345D01*
X22162703Y-10345345D01*
X22316997Y-10293868D01*
X22323945Y-10291550D01*
X22474348Y-10198478D01*
X22599305Y-10073303D01*
X22619046Y-10041278D01*
X22688275Y-9928968D01*
X22688276Y-9928966D01*
X22692115Y-9922738D01*
X22747797Y-9754861D01*
X22758500Y-9650400D01*
X22758500Y-7949600D01*
X22755936Y-7924886D01*
X22748238Y-7850693D01*
X22748237Y-7850689D01*
X22747526Y-7843835D01*
X22691550Y-7676055D01*
X22598478Y-7525652D01*
X22473303Y-7400695D01*
X22322738Y-7307885D01*
X22211629Y-7271032D01*
X22161389Y-7254368D01*
X22161387Y-7254368D01*
X22154861Y-7252203D01*
X22148025Y-7251503D01*
X22148022Y-7251502D01*
X22104969Y-7247091D01*
X22050400Y-7241500D01*
X20477631Y-7241500D01*
X20409510Y-7221498D01*
X20363017Y-7167842D01*
X20356178Y-7149043D01*
X20353010Y-7137570D01*
X20353008Y-7137566D01*
X20350610Y-7128883D01*
X20273585Y-7004669D01*
X20270698Y-7001227D01*
X20270694Y-7001221D01*
X20230856Y-6953719D01*
X20230852Y-6953715D01*
X20227963Y-6950270D01*
X20119063Y-6852789D01*
X19987110Y-6789937D01*
X19919321Y-6768839D01*
X19886257Y-6763540D01*
X19779443Y-6746419D01*
X19779439Y-6746419D01*
X19775005Y-6745708D01*
X19182468Y-6736151D01*
X19114679Y-6715053D01*
X19069057Y-6660654D01*
X19058500Y-6610167D01*
X19058500Y-5401866D01*
X19051745Y-5339684D01*
X19000615Y-5203295D01*
X18942047Y-5125148D01*
X18917199Y-5058642D01*
X18932252Y-4989259D01*
X18942047Y-4974018D01*
X18994786Y-4903648D01*
X19003324Y-4888054D01*
X19048478Y-4767606D01*
X19052105Y-4752351D01*
X19057631Y-4701486D01*
X19058000Y-4694672D01*
X19058000Y-4172115D01*
X19053525Y-4156876D01*
X19052135Y-4155671D01*
X19044452Y-4154000D01*
X16060116Y-4154000D01*
X16044877Y-4158475D01*
X16043672Y-4159865D01*
X16042001Y-4167548D01*
X16042001Y-4360500D01*
X16021999Y-4428621D01*
X15968343Y-4475114D01*
X15916001Y-4486500D01*
X14739500Y-4486500D01*
X14671379Y-4466498D01*
X14624886Y-4412842D01*
X14613500Y-4360500D01*
X14613500Y-3627885D01*
X16042000Y-3627885D01*
X16046475Y-3643124D01*
X16047865Y-3644329D01*
X16055548Y-3646000D01*
X17277885Y-3646000D01*
X17293124Y-3641525D01*
X17294329Y-3640135D01*
X17296000Y-3632452D01*
X17296000Y-3627885D01*
X17804000Y-3627885D01*
X17808475Y-3643124D01*
X17809865Y-3644329D01*
X17817548Y-3646000D01*
X19039884Y-3646000D01*
X19055123Y-3641525D01*
X19056328Y-3640135D01*
X19057999Y-3632452D01*
X19057999Y-3347096D01*
X21542000Y-3347096D01*
X21542337Y-3353611D01*
X21552256Y-3449203D01*
X21555150Y-3462602D01*
X21606588Y-3616783D01*
X21612762Y-3629962D01*
X21698063Y-3767807D01*
X21707099Y-3779208D01*
X21821830Y-3893739D01*
X21833241Y-3902751D01*
X21971245Y-3987818D01*
X21984423Y-3993962D01*
X22138716Y-4045139D01*
X22152081Y-4048005D01*
X22246439Y-4057672D01*
X22252855Y-4058000D01*
X22827885Y-4058000D01*
X22843124Y-4053525D01*
X22844329Y-4052135D01*
X22846000Y-4044452D01*
X22846000Y-2772115D01*
X22841525Y-2756876D01*
X22840135Y-2755671D01*
X22832452Y-2754000D01*
X21560115Y-2754000D01*
X21544876Y-2758475D01*
X21543671Y-2759865D01*
X21542000Y-2767548D01*
X21542000Y-3347096D01*
X19057999Y-3347096D01*
X19057999Y-3105331D01*
X19057629Y-3098510D01*
X19052105Y-3047648D01*
X19048479Y-3032396D01*
X19003324Y-2911946D01*
X18994786Y-2896351D01*
X18918285Y-2794276D01*
X18905724Y-2781715D01*
X18803649Y-2705214D01*
X18788054Y-2696676D01*
X18667606Y-2651522D01*
X18652351Y-2647895D01*
X18601486Y-2642369D01*
X18594672Y-2642000D01*
X17822115Y-2642000D01*
X17806876Y-2646475D01*
X17805671Y-2647865D01*
X17804000Y-2655548D01*
X17804000Y-3627885D01*
X17296000Y-3627885D01*
X17296000Y-2660116D01*
X17291525Y-2644877D01*
X17290135Y-2643672D01*
X17282452Y-2642001D01*
X16505331Y-2642001D01*
X16498510Y-2642371D01*
X16447648Y-2647895D01*
X16432396Y-2651521D01*
X16311946Y-2696676D01*
X16296351Y-2705214D01*
X16194276Y-2781715D01*
X16181715Y-2794276D01*
X16105214Y-2896351D01*
X16096676Y-2911946D01*
X16051522Y-3032394D01*
X16047895Y-3047649D01*
X16042369Y-3098514D01*
X16042000Y-3105328D01*
X16042000Y-3627885D01*
X14613500Y-3627885D01*
X14613500Y-3526000D01*
X14607124Y-3466688D01*
X14602128Y-3420215D01*
X14602127Y-3420208D01*
X14601766Y-3416851D01*
X14590380Y-3364509D01*
X14555710Y-3260343D01*
X14476692Y-3137388D01*
X14430199Y-3083732D01*
X14399210Y-3056880D01*
X14326550Y-2993919D01*
X14326547Y-2993917D01*
X14319739Y-2988018D01*
X14186790Y-2927302D01*
X14163036Y-2920327D01*
X14122992Y-2908569D01*
X14122988Y-2908568D01*
X14118669Y-2907300D01*
X14114220Y-2906660D01*
X14114214Y-2906659D01*
X13978447Y-2887139D01*
X13978442Y-2887139D01*
X13974000Y-2886500D01*
X9849827Y-2886500D01*
X9848407Y-2886565D01*
X9848391Y-2886565D01*
X9810459Y-2888292D01*
X9803175Y-2888624D01*
X9780375Y-2890704D01*
X9778985Y-2890895D01*
X9778975Y-2890896D01*
X9739996Y-2896248D01*
X9739995Y-2896248D01*
X9734112Y-2897056D01*
X9728484Y-2898951D01*
X9728483Y-2898951D01*
X9703685Y-2907300D01*
X9595594Y-2943691D01*
X9591582Y-2945717D01*
X9591581Y-2945717D01*
X9536237Y-2973659D01*
X9536233Y-2973661D01*
X9532217Y-2975689D01*
X9412446Y-3059461D01*
X9409168Y-3062534D01*
X9409162Y-3062539D01*
X8786804Y-3646000D01*
X8422199Y-3987818D01*
X8407294Y-4001791D01*
X8343917Y-4033789D01*
X8273301Y-4026444D01*
X8217867Y-3982087D01*
X8195214Y-3914801D01*
X8195596Y-3898888D01*
X8212517Y-3705475D01*
X8212517Y-3694525D01*
X8193528Y-3477481D01*
X8191625Y-3466688D01*
X8135236Y-3256239D01*
X8131490Y-3245947D01*
X8039414Y-3048489D01*
X8033931Y-3038994D01*
X7997491Y-2986952D01*
X7987012Y-2978576D01*
X7973566Y-2985644D01*
X6184923Y-4774287D01*
X6162129Y-4816029D01*
X6159953Y-4826029D01*
X6109747Y-4876227D01*
X6056186Y-4891451D01*
X6055281Y-4891500D01*
X6051866Y-4891500D01*
X6048470Y-4891869D01*
X6048468Y-4891869D01*
X6036121Y-4893210D01*
X5989684Y-4898255D01*
X5853295Y-4949385D01*
X5736739Y-5036739D01*
X5649385Y-5153295D01*
X5598255Y-5289684D01*
X5591500Y-5351866D01*
X5591500Y-7048134D01*
X5591869Y-7051531D01*
X5598105Y-7108933D01*
X5585577Y-7178815D01*
X5566280Y-7207070D01*
X5528270Y-7249082D01*
X5525757Y-7252813D01*
X5525753Y-7252819D01*
X5504913Y-7283768D01*
X5450274Y-7329101D01*
X5379799Y-7337697D01*
X5315865Y-7306827D01*
X5292621Y-7275392D01*
X5291550Y-7276055D01*
X5202332Y-7131880D01*
X5198478Y-7125652D01*
X5073303Y-7000695D01*
X4991499Y-6950270D01*
X4928968Y-6911725D01*
X4928966Y-6911724D01*
X4922738Y-6907885D01*
X4842995Y-6881436D01*
X4761389Y-6854368D01*
X4761387Y-6854368D01*
X4754861Y-6852203D01*
X4748025Y-6851503D01*
X4748022Y-6851502D01*
X4704969Y-6847091D01*
X4650400Y-6841500D01*
X2949600Y-6841500D01*
X2946354Y-6841837D01*
X2946350Y-6841837D01*
X2850693Y-6851762D01*
X2850689Y-6851763D01*
X2843835Y-6852474D01*
X2837299Y-6854655D01*
X2837297Y-6854655D01*
X2705195Y-6898728D01*
X2676055Y-6908450D01*
X2525652Y-7001522D01*
X2400695Y-7126697D01*
X2396855Y-7132927D01*
X2396854Y-7132928D01*
X2323332Y-7252203D01*
X2307885Y-7277262D01*
X2252203Y-7445139D01*
X2241500Y-7549600D01*
X2241500Y-9250400D01*
X1508500Y-9250400D01*
X1508500Y-3705475D01*
X5587483Y-3705475D01*
X5606472Y-3922519D01*
X5608375Y-3933312D01*
X5664764Y-4143761D01*
X5668510Y-4154053D01*
X5760586Y-4351511D01*
X5766069Y-4361006D01*
X5802509Y-4413048D01*
X5812988Y-4421424D01*
X5826434Y-4414356D01*
X6527978Y-3712812D01*
X6535592Y-3698868D01*
X6535461Y-3697035D01*
X6531210Y-3690420D01*
X5825713Y-2984923D01*
X5813938Y-2978493D01*
X5801923Y-2987789D01*
X5766069Y-3038994D01*
X5760586Y-3048489D01*
X5668510Y-3245947D01*
X5664764Y-3256239D01*
X5608375Y-3466688D01*
X5606472Y-3477481D01*
X5587483Y-3694525D01*
X5587483Y-3705475D01*
X1508500Y-3705475D01*
X1508500Y-2612988D01*
X6178576Y-2612988D01*
X6185644Y-2626434D01*
X6887188Y-3327978D01*
X6901132Y-3335592D01*
X6902965Y-3335461D01*
X6909580Y-3331210D01*
X7615077Y-2625713D01*
X7621507Y-2613938D01*
X7612211Y-2601923D01*
X7561006Y-2566069D01*
X7551511Y-2560586D01*
X7354053Y-2468510D01*
X7343761Y-2464764D01*
X7133312Y-2408375D01*
X7122519Y-2406472D01*
X6905475Y-2387483D01*
X6894525Y-2387483D01*
X6677481Y-2406472D01*
X6666688Y-2408375D01*
X6456239Y-2464764D01*
X6445947Y-2468510D01*
X6248489Y-2560586D01*
X6238994Y-2566069D01*
X6186952Y-2602509D01*
X6178576Y-2612988D01*
X1508500Y-2612988D01*
X1508500Y-1634500D01*
X1528502Y-1566379D01*
X1582158Y-1519886D01*
X1634500Y-1508500D01*
X21416891Y-1508500D01*
X21485012Y-1528502D01*
G37*
%TD.AperFunction*%
%TD*%
%TA.AperFunction,Conductor*%
%TO.N,+12V*%
G36*
X19766724Y-7259141D02*
G01*
X19834513Y-7280239D01*
X19880135Y-7334638D01*
X19889104Y-7405066D01*
X19853865Y-7474143D01*
X19806261Y-7521830D01*
X19797249Y-7533241D01*
X19712182Y-7671245D01*
X19706038Y-7684423D01*
X19654861Y-7838716D01*
X19651995Y-7852081D01*
X19642328Y-7946439D01*
X19642000Y-7952856D01*
X19642000Y-8527885D01*
X19646475Y-8543124D01*
X19647865Y-8544329D01*
X19655548Y-8546000D01*
X21328000Y-8546000D01*
X21396121Y-8566002D01*
X21442614Y-8619658D01*
X21454000Y-8672000D01*
X21454000Y-10339885D01*
X21456273Y-10347626D01*
X21456273Y-10418623D01*
X21417889Y-10478349D01*
X21404573Y-10488423D01*
X19003196Y-12066471D01*
X18935283Y-12087165D01*
X18866962Y-12067858D01*
X18819925Y-12014679D01*
X18808000Y-11961172D01*
X18808000Y-11667002D01*
X18803525Y-11651763D01*
X18802135Y-11650558D01*
X18794452Y-11648887D01*
X17372000Y-11648887D01*
X17303879Y-11628885D01*
X17257386Y-11575229D01*
X17246000Y-11522887D01*
X17246000Y-11122772D01*
X17754000Y-11122772D01*
X17758475Y-11138011D01*
X17759865Y-11139216D01*
X17767548Y-11140887D01*
X18789884Y-11140887D01*
X18805123Y-11136412D01*
X18806328Y-11135022D01*
X18807999Y-11127339D01*
X18807999Y-10550218D01*
X18807629Y-10543397D01*
X18802105Y-10492535D01*
X18798479Y-10477283D01*
X18753324Y-10356833D01*
X18744786Y-10341238D01*
X18668285Y-10239163D01*
X18655724Y-10226602D01*
X18553649Y-10150101D01*
X18538054Y-10141563D01*
X18417606Y-10096409D01*
X18402351Y-10092782D01*
X18351486Y-10087256D01*
X18344672Y-10086887D01*
X17772115Y-10086887D01*
X17756876Y-10091362D01*
X17755671Y-10092752D01*
X17754000Y-10100435D01*
X17754000Y-11122772D01*
X17246000Y-11122772D01*
X17246000Y-10105003D01*
X17241525Y-10089764D01*
X17240135Y-10088559D01*
X17232452Y-10086888D01*
X16655331Y-10086888D01*
X16648510Y-10087258D01*
X16597648Y-10092782D01*
X16582396Y-10096408D01*
X16461946Y-10141563D01*
X16446351Y-10150101D01*
X16344276Y-10226602D01*
X16331717Y-10239161D01*
X16326826Y-10245687D01*
X16269966Y-10288201D01*
X16199147Y-10293226D01*
X16136854Y-10259166D01*
X16102864Y-10196835D01*
X16100000Y-10170121D01*
X16100000Y-9799519D01*
X16120002Y-9731398D01*
X16173658Y-9684905D01*
X16243932Y-9674801D01*
X16287236Y-9692756D01*
X16288483Y-9690478D01*
X16311946Y-9703324D01*
X16432394Y-9748478D01*
X16447649Y-9752105D01*
X16498514Y-9757631D01*
X16505328Y-9758000D01*
X17277885Y-9758000D01*
X17293124Y-9753525D01*
X17294329Y-9752135D01*
X17296000Y-9744452D01*
X17296000Y-9739884D01*
X17804000Y-9739884D01*
X17808475Y-9755123D01*
X17809865Y-9756328D01*
X17817548Y-9757999D01*
X18594669Y-9757999D01*
X18601490Y-9757629D01*
X18652352Y-9752105D01*
X18667604Y-9748479D01*
X18788054Y-9703324D01*
X18803649Y-9694786D01*
X18867282Y-9647096D01*
X19642000Y-9647096D01*
X19642337Y-9653611D01*
X19652256Y-9749203D01*
X19655150Y-9762602D01*
X19706588Y-9916783D01*
X19712762Y-9929962D01*
X19798063Y-10067807D01*
X19807099Y-10079208D01*
X19921830Y-10193739D01*
X19933241Y-10202751D01*
X20071245Y-10287818D01*
X20084423Y-10293962D01*
X20238716Y-10345139D01*
X20252081Y-10348005D01*
X20346439Y-10357672D01*
X20352855Y-10358000D01*
X20927885Y-10358000D01*
X20943124Y-10353525D01*
X20944329Y-10352135D01*
X20946000Y-10344452D01*
X20946000Y-9072115D01*
X20941525Y-9056876D01*
X20940135Y-9055671D01*
X20932452Y-9054000D01*
X19660115Y-9054000D01*
X19644876Y-9058475D01*
X19643671Y-9059865D01*
X19642000Y-9067548D01*
X19642000Y-9647096D01*
X18867282Y-9647096D01*
X18905724Y-9618285D01*
X18918285Y-9605724D01*
X18994786Y-9503649D01*
X19003324Y-9488054D01*
X19048478Y-9367606D01*
X19052105Y-9352351D01*
X19057631Y-9301486D01*
X19058000Y-9294672D01*
X19058000Y-8772115D01*
X19053525Y-8756876D01*
X19052135Y-8755671D01*
X19044452Y-8754000D01*
X17822115Y-8754000D01*
X17806876Y-8758475D01*
X17805671Y-8759865D01*
X17804000Y-8767548D01*
X17804000Y-9739884D01*
X17296000Y-9739884D01*
X17296000Y-8372000D01*
X17316002Y-8303879D01*
X17369658Y-8257386D01*
X17422000Y-8246000D01*
X19039884Y-8246000D01*
X19055123Y-8241525D01*
X19056328Y-8240135D01*
X19057999Y-8232452D01*
X19057999Y-7705331D01*
X19057629Y-7698510D01*
X19052105Y-7647648D01*
X19048479Y-7632396D01*
X19003324Y-7511946D01*
X18994786Y-7496352D01*
X18959545Y-7449330D01*
X18934697Y-7382824D01*
X18949750Y-7313442D01*
X18999924Y-7263211D01*
X19062403Y-7247781D01*
X19766724Y-7259141D01*
G37*
%TD.AperFunction*%
%TD*%
%TA.AperFunction,Conductor*%
%TO.N,+5V*%
G36*
X14042121Y-3420002D02*
G01*
X14088614Y-3473658D01*
X14100000Y-3526000D01*
X14100000Y-5000000D01*
X16000481Y-5000000D01*
X16068602Y-5020002D01*
X16115095Y-5073658D01*
X16125199Y-5143932D01*
X16107244Y-5187236D01*
X16109522Y-5188483D01*
X16096676Y-5211946D01*
X16051522Y-5332394D01*
X16047895Y-5347649D01*
X16042369Y-5398514D01*
X16042000Y-5405328D01*
X16042000Y-5927885D01*
X16046475Y-5943124D01*
X16047865Y-5944329D01*
X16055548Y-5946000D01*
X17678000Y-5946000D01*
X17746121Y-5966002D01*
X17792614Y-6019658D01*
X17804000Y-6072000D01*
X17804000Y-6328000D01*
X17783998Y-6396121D01*
X17730342Y-6442614D01*
X17678000Y-6454000D01*
X16060116Y-6454000D01*
X16044877Y-6458475D01*
X16043672Y-6459865D01*
X16042001Y-6467548D01*
X16042001Y-6994669D01*
X16042371Y-7001490D01*
X16047895Y-7052352D01*
X16051521Y-7067604D01*
X16096676Y-7188054D01*
X16109522Y-7211517D01*
X16106758Y-7213030D01*
X16126154Y-7264928D01*
X16111108Y-7334312D01*
X16060939Y-7384548D01*
X16000481Y-7400000D01*
X14100000Y-7400000D01*
X14100000Y-9745307D01*
X14079998Y-9813428D01*
X14026342Y-9859921D01*
X13956068Y-9870025D01*
X13903355Y-9847388D01*
X13902691Y-9848466D01*
X13760937Y-9761088D01*
X13747759Y-9754944D01*
X13596234Y-9704685D01*
X13582868Y-9701819D01*
X13490230Y-9692328D01*
X13483815Y-9692000D01*
X13472115Y-9692000D01*
X13456876Y-9696475D01*
X13455671Y-9697865D01*
X13454000Y-9705548D01*
X13454000Y-10865500D01*
X13433998Y-10933621D01*
X13380342Y-10980114D01*
X13328000Y-10991500D01*
X12265250Y-10991500D01*
X12197129Y-10971498D01*
X12182738Y-10960725D01*
X12171135Y-10950671D01*
X12163452Y-10949000D01*
X9913122Y-10949000D01*
X9899591Y-10952973D01*
X9898456Y-10960870D01*
X9907595Y-10992325D01*
X9907393Y-11063322D01*
X9868839Y-11122939D01*
X9804175Y-11152248D01*
X9733930Y-11141944D01*
X9702063Y-11120914D01*
X8931353Y-10423605D01*
X9900061Y-10423605D01*
X9900101Y-10437706D01*
X9907370Y-10441000D01*
X10952885Y-10441000D01*
X10968124Y-10436525D01*
X10969329Y-10435135D01*
X10971000Y-10427452D01*
X10971000Y-10422885D01*
X11479000Y-10422885D01*
X11483475Y-10438124D01*
X11484865Y-10439329D01*
X11492548Y-10441000D01*
X12509750Y-10441000D01*
X12577871Y-10461002D01*
X12592262Y-10471775D01*
X12603865Y-10481829D01*
X12611548Y-10483500D01*
X12927885Y-10483500D01*
X12943124Y-10479025D01*
X12944329Y-10477635D01*
X12946000Y-10469952D01*
X12946000Y-9710115D01*
X12941525Y-9694876D01*
X12940135Y-9693671D01*
X12932452Y-9692000D01*
X12916234Y-9692000D01*
X12909718Y-9692337D01*
X12815868Y-9702075D01*
X12802472Y-9704968D01*
X12651047Y-9755488D01*
X12637885Y-9761653D01*
X12502508Y-9845426D01*
X12491110Y-9854460D01*
X12387189Y-9958562D01*
X12324906Y-9992641D01*
X12254086Y-9987638D01*
X12233877Y-9977997D01*
X12170227Y-9940355D01*
X12155790Y-9934107D01*
X12009935Y-9891731D01*
X11997333Y-9889430D01*
X11968916Y-9887193D01*
X11963986Y-9887000D01*
X11497115Y-9887000D01*
X11481876Y-9891475D01*
X11480671Y-9892865D01*
X11479000Y-9900548D01*
X11479000Y-10422885D01*
X10971000Y-10422885D01*
X10971000Y-9905116D01*
X10966525Y-9889877D01*
X10965135Y-9888672D01*
X10957452Y-9887001D01*
X10486017Y-9887001D01*
X10481080Y-9887195D01*
X10452664Y-9889430D01*
X10440069Y-9891730D01*
X10294210Y-9934107D01*
X10279779Y-9940352D01*
X10150322Y-10016911D01*
X10137896Y-10026551D01*
X10031551Y-10132896D01*
X10021911Y-10145322D01*
X9945352Y-10274779D01*
X9939107Y-10289210D01*
X9900061Y-10423605D01*
X8931353Y-10423605D01*
X6924224Y-8607631D01*
X6412529Y-8144669D01*
X9742001Y-8144669D01*
X9742371Y-8151490D01*
X9747895Y-8202352D01*
X9751521Y-8217604D01*
X9796676Y-8338054D01*
X9805214Y-8353649D01*
X9881715Y-8455724D01*
X9894276Y-8468285D01*
X9996351Y-8544786D01*
X10011946Y-8553324D01*
X10132394Y-8598478D01*
X10147649Y-8602105D01*
X10198514Y-8607631D01*
X10205328Y-8608000D01*
X10977885Y-8608000D01*
X10993124Y-8603525D01*
X10994329Y-8602135D01*
X10996000Y-8594452D01*
X10996000Y-8589884D01*
X11504000Y-8589884D01*
X11508475Y-8605123D01*
X11509865Y-8606328D01*
X11517548Y-8607999D01*
X12294669Y-8607999D01*
X12301490Y-8607629D01*
X12352352Y-8602105D01*
X12367604Y-8598479D01*
X12488054Y-8553324D01*
X12503649Y-8544786D01*
X12605724Y-8468285D01*
X12618285Y-8455724D01*
X12694786Y-8353649D01*
X12703324Y-8338054D01*
X12748478Y-8217606D01*
X12752105Y-8202351D01*
X12757631Y-8151486D01*
X12758000Y-8144672D01*
X12758000Y-6472115D01*
X12753525Y-6456876D01*
X12752135Y-6455671D01*
X12744452Y-6454000D01*
X11522115Y-6454000D01*
X11506876Y-6458475D01*
X11505671Y-6459865D01*
X11504000Y-6467548D01*
X11504000Y-8589884D01*
X10996000Y-8589884D01*
X10996000Y-6472115D01*
X10991525Y-6456876D01*
X10990135Y-6455671D01*
X10982452Y-6454000D01*
X9760116Y-6454000D01*
X9744877Y-6458475D01*
X9743672Y-6459865D01*
X9742001Y-6467548D01*
X9742001Y-8144669D01*
X6412529Y-8144669D01*
X5950122Y-7726301D01*
X5913028Y-7665765D01*
X5914550Y-7594785D01*
X5954205Y-7535895D01*
X6019403Y-7507794D01*
X6045107Y-7507625D01*
X6045117Y-7507447D01*
X6048043Y-7507605D01*
X6048262Y-7507604D01*
X6048507Y-7507631D01*
X6055328Y-7508000D01*
X6627885Y-7508000D01*
X6643124Y-7503525D01*
X6644329Y-7502135D01*
X6646000Y-7494452D01*
X6646000Y-7489884D01*
X7154000Y-7489884D01*
X7158475Y-7505123D01*
X7159865Y-7506328D01*
X7167548Y-7507999D01*
X7744669Y-7507999D01*
X7751490Y-7507629D01*
X7802352Y-7502105D01*
X7817604Y-7498479D01*
X7938054Y-7453324D01*
X7953649Y-7444786D01*
X8055724Y-7368285D01*
X8068285Y-7355724D01*
X8144786Y-7253649D01*
X8153324Y-7238054D01*
X8198478Y-7117606D01*
X8202105Y-7102351D01*
X8207631Y-7051486D01*
X8208000Y-7044668D01*
X8208000Y-6472115D01*
X8203525Y-6456876D01*
X8202135Y-6455671D01*
X8194452Y-6454000D01*
X7172115Y-6454000D01*
X7156876Y-6458475D01*
X7155671Y-6459865D01*
X7154000Y-6467548D01*
X7154000Y-7489884D01*
X6646000Y-7489884D01*
X6646000Y-6072000D01*
X6666002Y-6003879D01*
X6719658Y-5957386D01*
X6772000Y-5946000D01*
X8189884Y-5946000D01*
X8205123Y-5941525D01*
X8206328Y-5940135D01*
X8207999Y-5932452D01*
X8207999Y-5927885D01*
X9742000Y-5927885D01*
X9746475Y-5943124D01*
X9747865Y-5944329D01*
X9755548Y-5946000D01*
X10977885Y-5946000D01*
X10993124Y-5941525D01*
X10994329Y-5940135D01*
X10996000Y-5932452D01*
X10996000Y-5927885D01*
X11504000Y-5927885D01*
X11508475Y-5943124D01*
X11509865Y-5944329D01*
X11517548Y-5946000D01*
X12739884Y-5946000D01*
X12755123Y-5941525D01*
X12756328Y-5940135D01*
X12757999Y-5932452D01*
X12757999Y-4255331D01*
X12757629Y-4248510D01*
X12752105Y-4197648D01*
X12748479Y-4182396D01*
X12703324Y-4061946D01*
X12694786Y-4046351D01*
X12618285Y-3944276D01*
X12605724Y-3931715D01*
X12503649Y-3855214D01*
X12488054Y-3846676D01*
X12367606Y-3801522D01*
X12352351Y-3797895D01*
X12301486Y-3792369D01*
X12294672Y-3792000D01*
X11522115Y-3792000D01*
X11506876Y-3796475D01*
X11505671Y-3797865D01*
X11504000Y-3805548D01*
X11504000Y-5927885D01*
X10996000Y-5927885D01*
X10996000Y-3810116D01*
X10991525Y-3794877D01*
X10990135Y-3793672D01*
X10982452Y-3792001D01*
X10205331Y-3792001D01*
X10198510Y-3792371D01*
X10147648Y-3797895D01*
X10132396Y-3801521D01*
X10011946Y-3846676D01*
X9996351Y-3855214D01*
X9894276Y-3931715D01*
X9881715Y-3944276D01*
X9805214Y-4046351D01*
X9796676Y-4061946D01*
X9751522Y-4182394D01*
X9747895Y-4197649D01*
X9742369Y-4248514D01*
X9742000Y-4255328D01*
X9742000Y-5927885D01*
X8207999Y-5927885D01*
X8207999Y-5355331D01*
X8207629Y-5348510D01*
X8202105Y-5297648D01*
X8198479Y-5282396D01*
X8153324Y-5161946D01*
X8144786Y-5146351D01*
X8109745Y-5099596D01*
X8084897Y-5033089D01*
X8099950Y-4963707D01*
X8150125Y-4913477D01*
X8170269Y-4904650D01*
X8181898Y-4900724D01*
X8200000Y-4900000D01*
X9763650Y-3434078D01*
X9827027Y-3402080D01*
X9849827Y-3400000D01*
X13974000Y-3400000D01*
X14042121Y-3420002D01*
G37*
%TD.AperFunction*%
%TD*%
M02*
