M48
; DRILL file {KiCad (6.0.4)} date Tue 03 May 2022 06:37:55 AM EDT
; FORMAT={-:-/ absolute / inch / decimal}
; #@! TF.CreationDate,2022-05-03T06:37:55-04:00
; #@! TF.GenerationSoftware,Kicad,Pcbnew,(6.0.4)
; #@! TF.FileFunction,MixedPlating,1,2
FMAT,2
INCH
; #@! TA.AperFunction,Plated,PTH,ComponentDrill
T1C0.0295
; #@! TA.AperFunction,Plated,PTH,ComponentDrill
T2C0.0315
; #@! TA.AperFunction,Plated,PTH,ComponentDrill
T3C0.0433
; #@! TA.AperFunction,NonPlated,NPTH,ComponentDrill
T4C0.1260
%
G90
G05
T3
X0.2677Y-0.5039
X0.2677Y-0.7008
X0.2677Y-1.3622
X0.2677Y-1.5591
X0.2677Y-1.8701
X0.2677Y-2.0669
X0.622Y-0.7008
X0.722Y-0.7008
X0.822Y-0.7008
X2.0945Y-1.0748
X2.0945Y-1.1748
X2.0945Y-1.2748
X2.0945Y-2.5157
X2.0945Y-2.6157
X2.0945Y-2.7157
X2.374Y-1.1748
X2.374Y-1.5748
X2.374Y-2.2165
X2.374Y-2.6165
X2.685Y-1.1732
X2.685Y-1.3701
X2.685Y-2.311
X2.685Y-2.5079
T0
M30
