M48
; DRILL file {KiCad (6.0.4)} date Tue 03 May 2022 06:31:58 AM EDT
; FORMAT={-:-/ absolute / inch / decimal}
; #@! TF.CreationDate,2022-05-03T06:31:58-04:00
; #@! TF.GenerationSoftware,Kicad,Pcbnew,(6.0.4)
; #@! TF.FileFunction,MixedPlating,1,2
FMAT,2
INCH
; #@! TA.AperFunction,Plated,PTH,ComponentDrill
T1C0.0295
; #@! TA.AperFunction,Plated,PTH,ComponentDrill
T2C0.0315
; #@! TA.AperFunction,Plated,PTH,ComponentDrill
T3C0.0433
; #@! TA.AperFunction,NonPlated,NPTH,ComponentDrill
T4C0.1260
%
G90
G05
T1
X-2.6811Y-0.9803
X-2.6811Y-1.0591
X-2.6811Y-2.437
X-2.6811Y-2.5157
X-2.1299Y-0.2717
X-2.0512Y-0.2717
T2
X-2.4709Y-2.5157
X-2.2795Y-1.8457
X-2.2795Y-2.1457
X-2.2362Y-1.4882
X-2.2362Y-1.626
X-2.1102Y-1.8441
X-2.1102Y-2.2441
X-2.0709Y-2.5157
X-1.9488Y-1.9764
X-1.9449Y-0.6732
X-1.9433Y-0.874
X-1.9433Y-1.0748
X-1.9055Y-1.2638
X-1.9055Y-1.4567
X-1.9055Y-1.5567
X-1.9055Y-1.6567
X-1.9055Y-1.7567
X-1.9055Y-2.4134
X-1.9055Y-2.5134
X-1.6535Y-2.1929
X-1.6055Y-1.2638
X-1.6055Y-1.4567
X-1.6055Y-1.5567
X-1.6055Y-1.6567
X-1.6055Y-1.7567
X-1.6055Y-2.4134
X-1.6055Y-2.5134
X-1.5488Y-1.9764
X-1.5449Y-0.6732
X-1.5433Y-0.874
X-1.5433Y-1.0748
X-1.4567Y-2.1929
X-1.4394Y-2.5157
X-1.4394Y-2.7165
X-1.2126Y-1.9764
X-1.0748Y-1.9764
X-1.0394Y-2.5157
X-1.0394Y-2.7165
T3
X-2.685Y-0.5039
X-2.685Y-0.7008
X-2.685Y-1.3622
X-2.685Y-1.5591
X-2.685Y-1.8701
X-2.685Y-2.0669
X-2.3307Y-0.7008
X-2.2307Y-0.7008
X-2.1307Y-0.7008
X-0.8583Y-1.0748
X-0.8583Y-1.1748
X-0.8583Y-1.2748
X-0.8583Y-2.5157
X-0.8583Y-2.6157
X-0.8583Y-2.7157
X-0.5787Y-1.1748
X-0.5787Y-1.5748
X-0.5787Y-2.2165
X-0.5787Y-2.6165
X-0.2677Y-1.1732
X-0.2677Y-1.3701
X-0.2677Y-2.311
X-0.2677Y-2.5079
T4
X-2.7362Y-0.2165
X-2.7362Y-2.7913
X-0.2165Y-0.2165
X-0.2165Y-2.7913
T0
M30
