M48
; DRILL file {KiCad (6.0.4)} date Tue 03 May 2022 06:37:55 AM EDT
; FORMAT={-:-/ absolute / inch / decimal}
; #@! TF.CreationDate,2022-05-03T06:37:55-04:00
; #@! TF.GenerationSoftware,Kicad,Pcbnew,(6.0.4)
; #@! TF.FileFunction,MixedPlating,1,2
FMAT,2
INCH
; #@! TA.AperFunction,Plated,PTH,ComponentDrill
T1C0.0295
; #@! TA.AperFunction,Plated,PTH,ComponentDrill
T2C0.0315
; #@! TA.AperFunction,Plated,PTH,ComponentDrill
T3C0.0433
; #@! TA.AperFunction,NonPlated,NPTH,ComponentDrill
T4C0.1260
%
G90
G05
T1
X0.2717Y-0.9803
X0.2717Y-1.0591
X0.2717Y-2.437
X0.2717Y-2.5157
X0.8228Y-0.2717
X0.9016Y-0.2717
T2
X0.4819Y-2.5157
X0.6732Y-1.8457
X0.6732Y-2.1457
X0.7165Y-1.4882
X0.7165Y-1.626
X0.8425Y-1.8441
X0.8425Y-2.2441
X0.8819Y-2.5157
X1.0039Y-1.9764
X1.0079Y-0.6732
X1.0094Y-0.874
X1.0094Y-1.0748
X1.0472Y-1.2638
X1.0472Y-1.4567
X1.0472Y-1.5567
X1.0472Y-1.6567
X1.0472Y-1.7567
X1.0472Y-2.4134
X1.0472Y-2.5134
X1.2992Y-2.1929
X1.3472Y-1.2638
X1.3472Y-1.4567
X1.3472Y-1.5567
X1.3472Y-1.6567
X1.3472Y-1.7567
X1.3472Y-2.4134
X1.3472Y-2.5134
X1.4039Y-1.9764
X1.4079Y-0.6732
X1.4094Y-0.874
X1.4094Y-1.0748
X1.4961Y-2.1929
X1.5134Y-2.5157
X1.5134Y-2.7165
X1.7402Y-1.9764
X1.878Y-1.9764
X1.9134Y-2.5157
X1.9134Y-2.7165
T0
M30
