%TF.GenerationSoftware,KiCad,Pcbnew,5.1.9*%
%TF.CreationDate,2021-04-25T11:32:05-04:00*%
%TF.ProjectId,smd_vacuum,736d645f-7661-4637-9575-6d2e6b696361,rev?*%
%TF.SameCoordinates,PXaa6bee0PY277b6c0*%
%TF.FileFunction,Copper,L1,Top*%
%TF.FilePolarity,Positive*%
%FSLAX46Y46*%
G04 Gerber Fmt 4.6, Leading zero omitted, Abs format (unit mm)*
G04 Created by KiCad (PCBNEW 5.1.9) date 2021-04-25 11:32:05*
%MOMM*%
%LPD*%
G01*
G04 APERTURE LIST*
%TA.AperFunction,ComponentPad*%
%ADD10O,1.600000X1.600000*%
%TD*%
%TA.AperFunction,ComponentPad*%
%ADD11R,1.600000X1.600000*%
%TD*%
%TA.AperFunction,ComponentPad*%
%ADD12C,1.800000*%
%TD*%
%TA.AperFunction,ComponentPad*%
%ADD13C,1.600000*%
%TD*%
%TA.AperFunction,ComponentPad*%
%ADD14O,2.000000X1.905000*%
%TD*%
%TA.AperFunction,ComponentPad*%
%ADD15R,2.000000X1.905000*%
%TD*%
%TA.AperFunction,ComponentPad*%
%ADD16O,1.905000X2.000000*%
%TD*%
%TA.AperFunction,ComponentPad*%
%ADD17R,1.905000X2.000000*%
%TD*%
%TA.AperFunction,ComponentPad*%
%ADD18O,2.200000X2.200000*%
%TD*%
%TA.AperFunction,ComponentPad*%
%ADD19R,2.200000X2.200000*%
%TD*%
%TA.AperFunction,ComponentPad*%
%ADD20O,1.750000X1.200000*%
%TD*%
%TA.AperFunction,ComponentPad*%
%ADD21O,1.200000X1.750000*%
%TD*%
G04 APERTURE END LIST*
D10*
%TO.P,U2,4*%
%TO.N,+12V*%
X-40780000Y-61300000D03*
%TO.P,U2,2*%
%TO.N,Net-(R2-Pad1)*%
X-48400000Y-63840000D03*
%TO.P,U2,3*%
%TO.N,Net-(R6-Pad2)*%
X-40780000Y-63840000D03*
D11*
%TO.P,U2,1*%
%TO.N,+12V*%
X-48400000Y-61300000D03*
%TD*%
D10*
%TO.P,U1,8*%
%TO.N,+12V*%
X-40780000Y-37000000D03*
%TO.P,U1,4*%
X-48400000Y-44620000D03*
%TO.P,U1,7*%
%TO.N,Net-(C2-Pad1)*%
X-40780000Y-39540000D03*
%TO.P,U1,3*%
%TO.N,Net-(D4-Pad2)*%
X-48400000Y-42080000D03*
%TO.P,U1,6*%
%TO.N,Net-(C2-Pad1)*%
X-40780000Y-42080000D03*
%TO.P,U1,2*%
%TO.N,Net-(D2-Pad1)*%
X-48400000Y-39540000D03*
%TO.P,U1,5*%
%TO.N,Net-(C1-Pad1)*%
X-40780000Y-44620000D03*
D11*
%TO.P,U1,1*%
%TO.N,GND*%
X-48400000Y-37000000D03*
%TD*%
D12*
%TO.P,SW1,2*%
%TO.N,Net-(D2-Pad1)*%
X-68200000Y-39600000D03*
%TO.P,SW1,1*%
%TO.N,GND*%
X-68200000Y-34600000D03*
%TD*%
D10*
%TO.P,R8,2*%
%TO.N,Net-(R6-Pad2)*%
X-36560000Y-63900000D03*
D13*
%TO.P,R8,1*%
%TO.N,Net-(Q3-Pad1)*%
X-26400000Y-63900000D03*
%TD*%
D10*
%TO.P,R7,2*%
%TO.N,Net-(D4-Pad2)*%
X-49360000Y-27300000D03*
D13*
%TO.P,R7,1*%
%TO.N,Net-(Q2-Pad1)*%
X-39200000Y-27300000D03*
%TD*%
D10*
%TO.P,R6,2*%
%TO.N,Net-(R6-Pad2)*%
X-36560000Y-69000000D03*
D13*
%TO.P,R6,1*%
%TO.N,GND*%
X-26400000Y-69000000D03*
%TD*%
D10*
%TO.P,R5,2*%
%TO.N,Net-(D4-Pad1)*%
X-49360000Y-22200000D03*
D13*
%TO.P,R5,1*%
%TO.N,GND*%
X-39200000Y-22200000D03*
%TD*%
D10*
%TO.P,R4,2*%
%TO.N,Net-(C2-Pad1)*%
X-39340000Y-50200000D03*
D13*
%TO.P,R4,1*%
%TO.N,Net-(R3-Pad2)*%
X-49500000Y-50200000D03*
%TD*%
D12*
%TO.P,R3,2*%
%TO.N,Net-(R3-Pad2)*%
X-68200000Y-52500000D03*
%TO.P,R3,1*%
%TO.N,+12V*%
X-68200000Y-47500000D03*
%TD*%
D10*
%TO.P,R2,2*%
%TO.N,Net-(D3-Pad2)*%
X-62760000Y-63900000D03*
D13*
%TO.P,R2,1*%
%TO.N,Net-(R2-Pad1)*%
X-52600000Y-63900000D03*
%TD*%
D10*
%TO.P,R1,2*%
%TO.N,GND*%
X-39240000Y-17100000D03*
D13*
%TO.P,R1,1*%
%TO.N,Net-(D1-Pad1)*%
X-49400000Y-17100000D03*
%TD*%
D14*
%TO.P,Q3,3*%
%TO.N,GND*%
X-21800000Y-68980000D03*
%TO.P,Q3,2*%
%TO.N,Net-(D6-Pad2)*%
X-21800000Y-66440000D03*
D15*
%TO.P,Q3,1*%
%TO.N,Net-(Q3-Pad1)*%
X-21800000Y-63900000D03*
%TD*%
D14*
%TO.P,Q2,3*%
%TO.N,GND*%
X-21800000Y-32380000D03*
%TO.P,Q2,2*%
%TO.N,Net-(D5-Pad2)*%
X-21800000Y-29840000D03*
D15*
%TO.P,Q2,1*%
%TO.N,Net-(Q2-Pad1)*%
X-21800000Y-27300000D03*
%TD*%
D16*
%TO.P,Q1,3*%
%TO.N,+12V*%
X-54120000Y-17800000D03*
%TO.P,Q1,2*%
%TO.N,Net-(J1-Pad1)*%
X-56660000Y-17800000D03*
D17*
%TO.P,Q1,1*%
%TO.N,GND*%
X-59200000Y-17800000D03*
%TD*%
D12*
%TO.P,M1,2*%
%TO.N,Net-(D5-Pad2)*%
X-6800000Y-29800000D03*
%TO.P,M1,1*%
%TO.N,+12V*%
X-6800000Y-34800000D03*
%TD*%
%TO.P,L1,2*%
%TO.N,+12V*%
X-6800000Y-58700000D03*
%TO.P,L1,1*%
%TO.N,Net-(D6-Pad2)*%
X-6800000Y-63700000D03*
%TD*%
%TO.P,J1,2*%
%TO.N,GND*%
X-68200000Y-17800000D03*
%TO.P,J1,1*%
%TO.N,Net-(J1-Pad1)*%
X-68200000Y-12800000D03*
%TD*%
D18*
%TO.P,D6,2*%
%TO.N,Net-(D6-Pad2)*%
X-14700000Y-66460000D03*
D19*
%TO.P,D6,1*%
%TO.N,+12V*%
X-14700000Y-56300000D03*
%TD*%
D18*
%TO.P,D5,2*%
%TO.N,Net-(D5-Pad2)*%
X-14700000Y-29840000D03*
D19*
%TO.P,D5,1*%
%TO.N,+12V*%
X-14700000Y-40000000D03*
%TD*%
D20*
%TO.P,D4,2*%
%TO.N,Net-(D4-Pad2)*%
X-68100000Y-26900000D03*
%TO.P,D4,1*%
%TO.N,Net-(D4-Pad1)*%
%TA.AperFunction,ComponentPad*%
G36*
G01*
X-68725001Y-24300000D02*
X-67474999Y-24300000D01*
G75*
G02*
X-67225000Y-24549999I0J-249999D01*
G01*
X-67225000Y-25250001D01*
G75*
G02*
X-67474999Y-25500000I-249999J0D01*
G01*
X-68725001Y-25500000D01*
G75*
G02*
X-68975000Y-25250001I0J249999D01*
G01*
X-68975000Y-24549999D01*
G75*
G02*
X-68725001Y-24300000I249999J0D01*
G01*
G37*
%TD.AperFunction*%
%TD*%
%TO.P,D3,2*%
%TO.N,Net-(D3-Pad2)*%
X-68100000Y-63900000D03*
%TO.P,D3,1*%
%TO.N,Net-(D2-Pad1)*%
%TA.AperFunction,ComponentPad*%
G36*
G01*
X-68725001Y-61300000D02*
X-67474999Y-61300000D01*
G75*
G02*
X-67225000Y-61549999I0J-249999D01*
G01*
X-67225000Y-62250001D01*
G75*
G02*
X-67474999Y-62500000I-249999J0D01*
G01*
X-68725001Y-62500000D01*
G75*
G02*
X-68975000Y-62250001I0J249999D01*
G01*
X-68975000Y-61549999D01*
G75*
G02*
X-68725001Y-61300000I249999J0D01*
G01*
G37*
%TD.AperFunction*%
%TD*%
D10*
%TO.P,D2,2*%
%TO.N,Net-(C2-Pad1)*%
X-40780000Y-32100000D03*
D11*
%TO.P,D2,1*%
%TO.N,Net-(D2-Pad1)*%
X-48400000Y-32100000D03*
%TD*%
D21*
%TO.P,D1,2*%
%TO.N,+12V*%
X-54100000Y-6900000D03*
%TO.P,D1,1*%
%TO.N,Net-(D1-Pad1)*%
%TA.AperFunction,ComponentPad*%
G36*
G01*
X-51500000Y-6274999D02*
X-51500000Y-7525001D01*
G75*
G02*
X-51749999Y-7775000I-249999J0D01*
G01*
X-52450001Y-7775000D01*
G75*
G02*
X-52700000Y-7525001I0J249999D01*
G01*
X-52700000Y-6274999D01*
G75*
G02*
X-52450001Y-6025000I249999J0D01*
G01*
X-51749999Y-6025000D01*
G75*
G02*
X-51500000Y-6274999I0J-249999D01*
G01*
G37*
%TD.AperFunction*%
%TD*%
D13*
%TO.P,C2,2*%
%TO.N,GND*%
X-31700000Y-42100000D03*
D11*
%TO.P,C2,1*%
%TO.N,Net-(C2-Pad1)*%
X-35200000Y-42100000D03*
%TD*%
D13*
%TO.P,C1,2*%
%TO.N,GND*%
X-47000000Y-55700000D03*
%TO.P,C1,1*%
%TO.N,Net-(C1-Pad1)*%
X-42000000Y-55700000D03*
%TD*%
M02*
