%TF.GenerationSoftware,KiCad,Pcbnew,(6.0.4)*%
%TF.CreationDate,2022-05-03T06:31:47-04:00*%
%TF.ProjectId,smd_vacuum,736d645f-7661-4637-9575-6d2e6b696361,rev?*%
%TF.SameCoordinates,PXaa6bee0PY277b6c0*%
%TF.FileFunction,Copper,L2,Bot*%
%TF.FilePolarity,Positive*%
%FSLAX46Y46*%
G04 Gerber Fmt 4.6, Leading zero omitted, Abs format (unit mm)*
G04 Created by KiCad (PCBNEW (6.0.4)) date 2022-05-03 06:31:47*
%MOMM*%
%LPD*%
G01*
G04 APERTURE LIST*
G04 Aperture macros list*
%AMRoundRect*
0 Rectangle with rounded corners*
0 $1 Rounding radius*
0 $2 $3 $4 $5 $6 $7 $8 $9 X,Y pos of 4 corners*
0 Add a 4 corners polygon primitive as box body*
4,1,4,$2,$3,$4,$5,$6,$7,$8,$9,$2,$3,0*
0 Add four circle primitives for the rounded corners*
1,1,$1+$1,$2,$3*
1,1,$1+$1,$4,$5*
1,1,$1+$1,$6,$7*
1,1,$1+$1,$8,$9*
0 Add four rect primitives between the rounded corners*
20,1,$1+$1,$2,$3,$4,$5,0*
20,1,$1+$1,$4,$5,$6,$7,0*
20,1,$1+$1,$6,$7,$8,$9,0*
20,1,$1+$1,$8,$9,$2,$3,0*%
G04 Aperture macros list end*
%TA.AperFunction,ComponentPad*%
%ADD10O,1.600000X1.600000*%
%TD*%
%TA.AperFunction,ComponentPad*%
%ADD11C,1.600000*%
%TD*%
%TA.AperFunction,ComponentPad*%
%ADD12R,1.600000X1.600000*%
%TD*%
%TA.AperFunction,ComponentPad*%
%ADD13C,1.800000*%
%TD*%
%TA.AperFunction,ComponentPad*%
%ADD14O,2.000000X1.905000*%
%TD*%
%TA.AperFunction,ComponentPad*%
%ADD15R,2.000000X1.905000*%
%TD*%
%TA.AperFunction,ComponentPad*%
%ADD16O,1.905000X2.000000*%
%TD*%
%TA.AperFunction,ComponentPad*%
%ADD17R,1.905000X2.000000*%
%TD*%
%TA.AperFunction,ComponentPad*%
%ADD18O,2.200000X2.200000*%
%TD*%
%TA.AperFunction,ComponentPad*%
%ADD19R,2.200000X2.200000*%
%TD*%
%TA.AperFunction,ComponentPad*%
%ADD20O,1.750000X1.200000*%
%TD*%
%TA.AperFunction,ComponentPad*%
%ADD21RoundRect,0.249999X-0.625001X0.350001X-0.625001X-0.350001X0.625001X-0.350001X0.625001X0.350001X0*%
%TD*%
%TA.AperFunction,ComponentPad*%
%ADD22O,1.200000X1.750000*%
%TD*%
%TA.AperFunction,ComponentPad*%
%ADD23RoundRect,0.249999X0.350001X0.625001X-0.350001X0.625001X-0.350001X-0.625001X0.350001X-0.625001X0*%
%TD*%
%TA.AperFunction,Conductor*%
%ADD24C,1.000000*%
%TD*%
G04 APERTURE END LIST*
D10*
%TO.P,R9,2*%
%TO.N,Net-(C3-Pad1)*%
X-53600000Y-46840000D03*
D11*
%TO.P,R9,1*%
%TO.N,+12V*%
X-53600000Y-57000000D03*
%TD*%
D10*
%TO.P,D7,2*%
%TO.N,Net-(C3-Pad1)*%
X-57900000Y-46880000D03*
D12*
%TO.P,D7,1*%
%TO.N,+12V*%
X-57900000Y-54500000D03*
%TD*%
D11*
%TO.P,C3,2*%
%TO.N,GND*%
X-56800000Y-37800000D03*
D12*
%TO.P,C3,1*%
%TO.N,Net-(C3-Pad1)*%
X-56800000Y-41300000D03*
%TD*%
D10*
%TO.P,U2,4*%
%TO.N,+12V*%
X-40780000Y-61300000D03*
%TO.P,U2,2*%
%TO.N,Net-(R2-Pad1)*%
X-48400000Y-63840000D03*
%TO.P,U2,3*%
%TO.N,Net-(R6-Pad2)*%
X-40780000Y-63840000D03*
D12*
%TO.P,U2,1*%
%TO.N,+12V*%
X-48400000Y-61300000D03*
%TD*%
D10*
%TO.P,U1,8*%
%TO.N,+12V*%
X-40780000Y-37000000D03*
%TO.P,U1,4*%
%TO.N,Net-(C3-Pad1)*%
X-48400000Y-44620000D03*
%TO.P,U1,7*%
%TO.N,Net-(C2-Pad1)*%
X-40780000Y-39540000D03*
%TO.P,U1,3*%
%TO.N,Net-(D4-Pad2)*%
X-48400000Y-42080000D03*
%TO.P,U1,6*%
%TO.N,Net-(C2-Pad1)*%
X-40780000Y-42080000D03*
%TO.P,U1,2*%
%TO.N,Net-(D2-Pad1)*%
X-48400000Y-39540000D03*
%TO.P,U1,5*%
%TO.N,Net-(C1-Pad1)*%
X-40780000Y-44620000D03*
D12*
%TO.P,U1,1*%
%TO.N,GND*%
X-48400000Y-37000000D03*
%TD*%
D13*
%TO.P,SW1,2*%
%TO.N,Net-(D2-Pad1)*%
X-68200000Y-39600000D03*
%TO.P,SW1,1*%
%TO.N,GND*%
X-68200000Y-34600000D03*
%TD*%
D10*
%TO.P,R8,2*%
%TO.N,Net-(R6-Pad2)*%
X-36560000Y-63900000D03*
D11*
%TO.P,R8,1*%
%TO.N,Net-(Q3-Pad1)*%
X-26400000Y-63900000D03*
%TD*%
D10*
%TO.P,R7,2*%
%TO.N,Net-(D4-Pad2)*%
X-49360000Y-27300000D03*
D11*
%TO.P,R7,1*%
%TO.N,Net-(Q2-Pad1)*%
X-39200000Y-27300000D03*
%TD*%
D10*
%TO.P,R6,2*%
%TO.N,Net-(R6-Pad2)*%
X-36560000Y-69000000D03*
D11*
%TO.P,R6,1*%
%TO.N,GND*%
X-26400000Y-69000000D03*
%TD*%
D10*
%TO.P,R5,2*%
%TO.N,Net-(D4-Pad1)*%
X-49360000Y-22200000D03*
D11*
%TO.P,R5,1*%
%TO.N,GND*%
X-39200000Y-22200000D03*
%TD*%
D10*
%TO.P,R4,2*%
%TO.N,Net-(C2-Pad1)*%
X-39340000Y-50200000D03*
D11*
%TO.P,R4,1*%
%TO.N,Net-(R3-Pad2)*%
X-49500000Y-50200000D03*
%TD*%
D13*
%TO.P,R3,2*%
%TO.N,Net-(R3-Pad2)*%
X-68200000Y-52500000D03*
%TO.P,R3,1*%
%TO.N,+12V*%
X-68200000Y-47500000D03*
%TD*%
D10*
%TO.P,R2,2*%
%TO.N,Net-(D3-Pad2)*%
X-62760000Y-63900000D03*
D11*
%TO.P,R2,1*%
%TO.N,Net-(R2-Pad1)*%
X-52600000Y-63900000D03*
%TD*%
D10*
%TO.P,R1,2*%
%TO.N,GND*%
X-39240000Y-17100000D03*
D11*
%TO.P,R1,1*%
%TO.N,Net-(D1-Pad1)*%
X-49400000Y-17100000D03*
%TD*%
D14*
%TO.P,Q3,3*%
%TO.N,GND*%
X-21800000Y-68980000D03*
%TO.P,Q3,2*%
%TO.N,Net-(D6-Pad2)*%
X-21800000Y-66440000D03*
D15*
%TO.P,Q3,1*%
%TO.N,Net-(Q3-Pad1)*%
X-21800000Y-63900000D03*
%TD*%
D14*
%TO.P,Q2,3*%
%TO.N,GND*%
X-21800000Y-32380000D03*
%TO.P,Q2,2*%
%TO.N,Net-(D5-Pad2)*%
X-21800000Y-29840000D03*
D15*
%TO.P,Q2,1*%
%TO.N,Net-(Q2-Pad1)*%
X-21800000Y-27300000D03*
%TD*%
D16*
%TO.P,Q1,3*%
%TO.N,+12V*%
X-54120000Y-17800000D03*
%TO.P,Q1,2*%
%TO.N,Net-(J1-Pad1)*%
X-56660000Y-17800000D03*
D17*
%TO.P,Q1,1*%
%TO.N,GND*%
X-59200000Y-17800000D03*
%TD*%
D13*
%TO.P,M1,2*%
%TO.N,Net-(D5-Pad2)*%
X-6800000Y-29800000D03*
%TO.P,M1,1*%
%TO.N,+12V*%
X-6800000Y-34800000D03*
%TD*%
%TO.P,L1,2*%
%TO.N,+12V*%
X-6800000Y-58700000D03*
%TO.P,L1,1*%
%TO.N,Net-(D6-Pad2)*%
X-6800000Y-63700000D03*
%TD*%
%TO.P,J1,2*%
%TO.N,GND*%
X-68200000Y-17800000D03*
%TO.P,J1,1*%
%TO.N,Net-(J1-Pad1)*%
X-68200000Y-12800000D03*
%TD*%
D18*
%TO.P,D6,2*%
%TO.N,Net-(D6-Pad2)*%
X-14700000Y-66460000D03*
D19*
%TO.P,D6,1*%
%TO.N,+12V*%
X-14700000Y-56300000D03*
%TD*%
D18*
%TO.P,D5,2*%
%TO.N,Net-(D5-Pad2)*%
X-14700000Y-29840000D03*
D19*
%TO.P,D5,1*%
%TO.N,+12V*%
X-14700000Y-40000000D03*
%TD*%
D20*
%TO.P,D4,2*%
%TO.N,Net-(D4-Pad2)*%
X-68100000Y-26900000D03*
D21*
%TO.P,D4,1*%
%TO.N,Net-(D4-Pad1)*%
X-68100000Y-24900000D03*
%TD*%
D20*
%TO.P,D3,2*%
%TO.N,Net-(D3-Pad2)*%
X-68100000Y-63900000D03*
D21*
%TO.P,D3,1*%
%TO.N,Net-(D2-Pad1)*%
X-68100000Y-61900000D03*
%TD*%
D10*
%TO.P,D2,2*%
%TO.N,Net-(C2-Pad1)*%
X-40780000Y-32100000D03*
D12*
%TO.P,D2,1*%
%TO.N,Net-(D2-Pad1)*%
X-48400000Y-32100000D03*
%TD*%
D22*
%TO.P,D1,2*%
%TO.N,+12V*%
X-54100000Y-6900000D03*
D23*
%TO.P,D1,1*%
%TO.N,Net-(D1-Pad1)*%
X-52100000Y-6900000D03*
%TD*%
D11*
%TO.P,C2,2*%
%TO.N,GND*%
X-27300000Y-50200000D03*
D12*
%TO.P,C2,1*%
%TO.N,Net-(C2-Pad1)*%
X-30800000Y-50200000D03*
%TD*%
D11*
%TO.P,C1,2*%
%TO.N,GND*%
X-37000000Y-55700000D03*
%TO.P,C1,1*%
%TO.N,Net-(C1-Pad1)*%
X-42000000Y-55700000D03*
%TD*%
D24*
%TO.N,GND*%
X-39200000Y-17140000D02*
X-39240000Y-17100000D01*
%TO.N,Net-(C1-Pad1)*%
X-42000000Y-45840000D02*
X-40780000Y-44620000D01*
X-42000000Y-55700000D02*
X-42000000Y-45840000D01*
%TO.N,Net-(C2-Pad1)*%
X-40780000Y-42080000D02*
X-40780000Y-39540000D01*
X-39100000Y-33780000D02*
X-40780000Y-32100000D01*
X-39100000Y-37860000D02*
X-39100000Y-33780000D01*
X-40780000Y-39540000D02*
X-39100000Y-37860000D01*
X-30800000Y-50200000D02*
X-39340000Y-50200000D01*
X-39100000Y-49960000D02*
X-39340000Y-50200000D01*
X-39100000Y-43760000D02*
X-39100000Y-49960000D01*
X-40780000Y-42080000D02*
X-39100000Y-43760000D01*
%TO.N,+12V*%
X-12300000Y-58700000D02*
X-14700000Y-56300000D01*
X-6800000Y-58700000D02*
X-12300000Y-58700000D01*
X-9500000Y-34800000D02*
X-14700000Y-40000000D01*
X-6800000Y-34800000D02*
X-9500000Y-34800000D01*
X-14700000Y-56300000D02*
X-14700000Y-40000000D01*
X-54120000Y-6920000D02*
X-54100000Y-6900000D01*
X-54120000Y-17800000D02*
X-54120000Y-6920000D01*
X-43500000Y-39720000D02*
X-40780000Y-37000000D01*
X-43500000Y-52500000D02*
X-43500000Y-61300000D01*
X-43500000Y-61300000D02*
X-40780000Y-61300000D01*
X-48400000Y-61300000D02*
X-43500000Y-61300000D01*
X-43700000Y-48500000D02*
X-43500000Y-48300000D01*
X-67200000Y-48500000D02*
X-43700000Y-48500000D01*
X-68200000Y-47500000D02*
X-67200000Y-48500000D01*
X-43500000Y-48300000D02*
X-43500000Y-39720000D01*
X-43500000Y-52500000D02*
X-43500000Y-48300000D01*
X-51269999Y-17800000D02*
X-54120000Y-17800000D01*
X-42280001Y-26789998D02*
X-51269999Y-17800000D01*
X-40780000Y-37000000D02*
X-42280001Y-35499999D01*
X-42280001Y-38500001D02*
X-43500000Y-39720000D01*
X-42280001Y-35499999D02*
X-42280001Y-38500001D01*
X-14700000Y-40000000D02*
X-35100000Y-40000000D01*
X-35100000Y-40000000D02*
X-37000000Y-38100000D01*
X-37000000Y-38100000D02*
X-37000000Y-31700000D01*
X-39119999Y-29580001D02*
X-42280001Y-29580001D01*
X-37000000Y-31700000D02*
X-39119999Y-29580001D01*
X-42280001Y-29580001D02*
X-42280001Y-26789998D01*
X-42280001Y-35499999D02*
X-42280001Y-29580001D01*
X-48400000Y-61300000D02*
X-52200000Y-61300000D01*
X-53600000Y-59900000D02*
X-53600000Y-57000000D01*
X-52200000Y-61300000D02*
X-53600000Y-59900000D01*
X-53600000Y-57000000D02*
X-57300000Y-57000000D01*
X-57900000Y-56400000D02*
X-57900000Y-54500000D01*
X-57300000Y-57000000D02*
X-57900000Y-56400000D01*
%TO.N,Net-(D1-Pad1)*%
X-52100000Y-14400000D02*
X-49400000Y-17100000D01*
X-52100000Y-6900000D02*
X-52100000Y-14400000D01*
%TO.N,Net-(D2-Pad1)*%
X-48460000Y-39600000D02*
X-48400000Y-39540000D01*
X-68200000Y-39600000D02*
X-48460000Y-39600000D01*
X-69800001Y-60199999D02*
X-68100000Y-61900000D01*
X-69800001Y-41200001D02*
X-69800001Y-60199999D01*
X-68200000Y-39600000D02*
X-69800001Y-41200001D01*
X-47100000Y-32100000D02*
X-48400000Y-32100000D01*
X-46000000Y-33200000D02*
X-47100000Y-32100000D01*
X-46000000Y-38600000D02*
X-46000000Y-33200000D01*
X-46940000Y-39540000D02*
X-46000000Y-38600000D01*
X-48400000Y-39540000D02*
X-46940000Y-39540000D01*
%TO.N,Net-(D3-Pad2)*%
X-62760000Y-63900000D02*
X-68100000Y-63900000D01*
%TO.N,Net-(D4-Pad2)*%
X-49760000Y-26900000D02*
X-49360000Y-27300000D01*
X-68100000Y-26900000D02*
X-49760000Y-26900000D01*
X-45800000Y-27300000D02*
X-49360000Y-27300000D01*
X-44600000Y-28500000D02*
X-45800000Y-27300000D01*
X-44600000Y-39000000D02*
X-44600000Y-28500000D01*
X-47680000Y-42080000D02*
X-44600000Y-39000000D01*
X-48400000Y-42080000D02*
X-47680000Y-42080000D01*
%TO.N,Net-(D4-Pad1)*%
X-52060000Y-24900000D02*
X-49360000Y-22200000D01*
X-68100000Y-24900000D02*
X-52060000Y-24900000D01*
%TO.N,Net-(D5-Pad2)*%
X-6840000Y-29840000D02*
X-6800000Y-29800000D01*
X-14700000Y-29840000D02*
X-6840000Y-29840000D01*
X-21800000Y-29840000D02*
X-14700000Y-29840000D01*
%TO.N,Net-(D6-Pad2)*%
X-14720000Y-66440000D02*
X-14700000Y-66460000D01*
X-21800000Y-66440000D02*
X-14720000Y-66440000D01*
X-11940000Y-63700000D02*
X-14700000Y-66460000D01*
X-6800000Y-63700000D02*
X-11940000Y-63700000D01*
%TO.N,Net-(J1-Pad1)*%
X-56660000Y-17127498D02*
X-56660000Y-17800000D01*
X-60987498Y-12800000D02*
X-56660000Y-17127498D01*
X-68200000Y-12800000D02*
X-60987498Y-12800000D01*
%TO.N,Net-(Q2-Pad1)*%
X-39200000Y-27300000D02*
X-21800000Y-27300000D01*
%TO.N,Net-(Q3-Pad1)*%
X-26400000Y-63900000D02*
X-21800000Y-63900000D01*
%TO.N,Net-(R2-Pad1)*%
X-52540000Y-63840000D02*
X-52600000Y-63900000D01*
X-48400000Y-63840000D02*
X-52540000Y-63840000D01*
%TO.N,Net-(R3-Pad2)*%
X-65900000Y-50200000D02*
X-68200000Y-52500000D01*
X-49500000Y-50200000D02*
X-65900000Y-50200000D01*
%TO.N,Net-(R6-Pad2)*%
X-36620000Y-63840000D02*
X-36560000Y-63900000D01*
X-40780000Y-63840000D02*
X-36620000Y-63840000D01*
X-36560000Y-63900000D02*
X-36560000Y-69000000D01*
%TD*%
%TA.AperFunction,Conductor*%
%TO.N,GND*%
G36*
X-5523182Y-2602630D02*
G01*
X-5516181Y-2603552D01*
X-5516179Y-2603552D01*
X-5500000Y-2605682D01*
X-5483818Y-2603551D01*
X-5467499Y-2603551D01*
X-5467499Y-2604048D01*
X-5449097Y-2603358D01*
X-5313116Y-2610995D01*
X-5189325Y-2617947D01*
X-5161577Y-2621073D01*
X-4868586Y-2670855D01*
X-4841365Y-2677068D01*
X-4759820Y-2700560D01*
X-4555783Y-2759342D01*
X-4529442Y-2768559D01*
X-4254868Y-2882292D01*
X-4229726Y-2894399D01*
X-3969607Y-3038162D01*
X-3945968Y-3053016D01*
X-3703594Y-3224990D01*
X-3681763Y-3242399D01*
X-3460171Y-3440426D01*
X-3440426Y-3460171D01*
X-3242399Y-3681763D01*
X-3224990Y-3703594D01*
X-3053016Y-3945968D01*
X-3038162Y-3969607D01*
X-2894399Y-4229726D01*
X-2882292Y-4254868D01*
X-2812209Y-4424062D01*
X-2768562Y-4529434D01*
X-2759342Y-4555783D01*
X-2700560Y-4759820D01*
X-2677068Y-4841365D01*
X-2670855Y-4868586D01*
X-2621073Y-5161577D01*
X-2617947Y-5189325D01*
X-2613843Y-5262406D01*
X-2603554Y-5445597D01*
X-2603358Y-5449093D01*
X-2604048Y-5467499D01*
X-2603551Y-5467499D01*
X-2603551Y-5483818D01*
X-2605682Y-5500000D01*
X-2603552Y-5516179D01*
X-2603552Y-5516181D01*
X-2602630Y-5523182D01*
X-2600500Y-5555683D01*
X-2600500Y-70844317D01*
X-2602630Y-70876818D01*
X-2605682Y-70900000D01*
X-2603551Y-70916182D01*
X-2603551Y-70932501D01*
X-2604048Y-70932501D01*
X-2603358Y-70950903D01*
X-2610995Y-71086884D01*
X-2617947Y-71210675D01*
X-2621073Y-71238423D01*
X-2670855Y-71531414D01*
X-2677068Y-71558635D01*
X-2745746Y-71797027D01*
X-2759339Y-71844209D01*
X-2768559Y-71870558D01*
X-2882292Y-72145132D01*
X-2894399Y-72170274D01*
X-3038159Y-72430389D01*
X-3053016Y-72454032D01*
X-3224990Y-72696406D01*
X-3242399Y-72718237D01*
X-3440426Y-72939829D01*
X-3460171Y-72959574D01*
X-3681763Y-73157601D01*
X-3703594Y-73175010D01*
X-3945968Y-73346984D01*
X-3969607Y-73361838D01*
X-4229726Y-73505601D01*
X-4254868Y-73517708D01*
X-4529442Y-73631441D01*
X-4555783Y-73640658D01*
X-4759820Y-73699440D01*
X-4841365Y-73722932D01*
X-4868586Y-73729145D01*
X-5161577Y-73778927D01*
X-5189325Y-73782053D01*
X-5313116Y-73789005D01*
X-5449097Y-73796642D01*
X-5467499Y-73795952D01*
X-5467499Y-73796449D01*
X-5483818Y-73796449D01*
X-5500000Y-73794318D01*
X-5516179Y-73796448D01*
X-5516181Y-73796448D01*
X-5523182Y-73797370D01*
X-5555683Y-73799500D01*
X-69444317Y-73799500D01*
X-69476818Y-73797370D01*
X-69483819Y-73796448D01*
X-69483821Y-73796448D01*
X-69500000Y-73794318D01*
X-69516182Y-73796449D01*
X-69532501Y-73796449D01*
X-69532501Y-73795952D01*
X-69550903Y-73796642D01*
X-69686884Y-73789005D01*
X-69810675Y-73782053D01*
X-69838423Y-73778927D01*
X-70131414Y-73729145D01*
X-70158635Y-73722932D01*
X-70240180Y-73699440D01*
X-70444217Y-73640658D01*
X-70470558Y-73631441D01*
X-70745132Y-73517708D01*
X-70770274Y-73505601D01*
X-71030393Y-73361838D01*
X-71054032Y-73346984D01*
X-71296406Y-73175010D01*
X-71318237Y-73157601D01*
X-71539829Y-72959574D01*
X-71559574Y-72939829D01*
X-71757601Y-72718237D01*
X-71775010Y-72696406D01*
X-71946984Y-72454032D01*
X-71961841Y-72430389D01*
X-72105601Y-72170274D01*
X-72117708Y-72145132D01*
X-72231441Y-71870558D01*
X-72240661Y-71844209D01*
X-72254253Y-71797027D01*
X-72322932Y-71558635D01*
X-72329145Y-71531414D01*
X-72378927Y-71238423D01*
X-72382053Y-71210675D01*
X-72389005Y-71086884D01*
X-72396642Y-70950903D01*
X-72396465Y-70946187D01*
X-71704941Y-70946187D01*
X-71679464Y-71237399D01*
X-71615695Y-71522683D01*
X-71514756Y-71797027D01*
X-71378420Y-72055612D01*
X-71209082Y-72293893D01*
X-71009717Y-72507686D01*
X-70783829Y-72693233D01*
X-70535384Y-72847275D01*
X-70268750Y-72967105D01*
X-69988609Y-73050619D01*
X-69699883Y-73096348D01*
X-69692936Y-73096663D01*
X-69692931Y-73096664D01*
X-69611260Y-73100373D01*
X-69611239Y-73100373D01*
X-69608453Y-73100500D01*
X-69425849Y-73100500D01*
X-69421759Y-73100228D01*
X-69421748Y-73100228D01*
X-69291464Y-73091574D01*
X-69208318Y-73086052D01*
X-68921761Y-73028272D01*
X-68913956Y-73025585D01*
X-68913954Y-73025584D01*
X-68750977Y-72969466D01*
X-68645363Y-72933100D01*
X-68383980Y-72802209D01*
X-68377145Y-72797564D01*
X-68377140Y-72797561D01*
X-68230033Y-72697587D01*
X-68142205Y-72637899D01*
X-68002442Y-72512937D01*
X-67930444Y-72448563D01*
X-67930441Y-72448560D01*
X-67924284Y-72443055D01*
X-67918910Y-72436785D01*
X-67918905Y-72436780D01*
X-67739423Y-72227374D01*
X-67734047Y-72221102D01*
X-67630946Y-72062340D01*
X-67579338Y-71982871D01*
X-67579336Y-71982867D01*
X-67574836Y-71975938D01*
X-67449448Y-71711871D01*
X-67360086Y-71433541D01*
X-67308319Y-71145836D01*
X-67299253Y-70946187D01*
X-7704941Y-70946187D01*
X-7679464Y-71237399D01*
X-7615695Y-71522683D01*
X-7514756Y-71797027D01*
X-7378420Y-72055612D01*
X-7209082Y-72293893D01*
X-7009717Y-72507686D01*
X-6783829Y-72693233D01*
X-6535384Y-72847275D01*
X-6268750Y-72967105D01*
X-5988609Y-73050619D01*
X-5699883Y-73096348D01*
X-5692936Y-73096663D01*
X-5692931Y-73096664D01*
X-5611260Y-73100373D01*
X-5611239Y-73100373D01*
X-5608453Y-73100500D01*
X-5425849Y-73100500D01*
X-5421759Y-73100228D01*
X-5421748Y-73100228D01*
X-5291464Y-73091574D01*
X-5208318Y-73086052D01*
X-4921761Y-73028272D01*
X-4913956Y-73025585D01*
X-4913954Y-73025584D01*
X-4750977Y-72969466D01*
X-4645363Y-72933100D01*
X-4383980Y-72802209D01*
X-4377145Y-72797564D01*
X-4377140Y-72797561D01*
X-4230033Y-72697587D01*
X-4142205Y-72637899D01*
X-4002442Y-72512937D01*
X-3930444Y-72448563D01*
X-3930441Y-72448560D01*
X-3924284Y-72443055D01*
X-3918910Y-72436785D01*
X-3918905Y-72436780D01*
X-3739423Y-72227374D01*
X-3734047Y-72221102D01*
X-3630946Y-72062340D01*
X-3579338Y-71982871D01*
X-3579336Y-71982867D01*
X-3574836Y-71975938D01*
X-3449448Y-71711871D01*
X-3360086Y-71433541D01*
X-3308319Y-71145836D01*
X-3298409Y-70927592D01*
X-3295433Y-70862053D01*
X-3295433Y-70862051D01*
X-3295059Y-70853813D01*
X-3320536Y-70562601D01*
X-3384305Y-70277317D01*
X-3485244Y-70002973D01*
X-3621580Y-69744388D01*
X-3637332Y-69722222D01*
X-3786130Y-69512844D01*
X-3786132Y-69512842D01*
X-3790918Y-69506107D01*
X-3990283Y-69292314D01*
X-4091301Y-69209337D01*
X-4209784Y-69112013D01*
X-4209787Y-69112011D01*
X-4216171Y-69106767D01*
X-4464616Y-68952725D01*
X-4731250Y-68832895D01*
X-5011391Y-68749381D01*
X-5300117Y-68703652D01*
X-5307064Y-68703337D01*
X-5307069Y-68703336D01*
X-5388740Y-68699627D01*
X-5388761Y-68699627D01*
X-5391547Y-68699500D01*
X-5574151Y-68699500D01*
X-5578241Y-68699772D01*
X-5578252Y-68699772D01*
X-5708536Y-68708426D01*
X-5791682Y-68713948D01*
X-6078239Y-68771728D01*
X-6086044Y-68774415D01*
X-6086046Y-68774416D01*
X-6110464Y-68782824D01*
X-6354637Y-68866900D01*
X-6616020Y-68997791D01*
X-6622855Y-69002436D01*
X-6622860Y-69002439D01*
X-6729945Y-69075214D01*
X-6857795Y-69162101D01*
X-6863944Y-69167599D01*
X-6863948Y-69167602D01*
X-7069556Y-69351437D01*
X-7075716Y-69356945D01*
X-7081090Y-69363215D01*
X-7081095Y-69363220D01*
X-7204799Y-69507549D01*
X-7265953Y-69578898D01*
X-7270449Y-69585822D01*
X-7270451Y-69585824D01*
X-7408898Y-69799015D01*
X-7425164Y-69824062D01*
X-7466352Y-69910803D01*
X-7510627Y-70004048D01*
X-7550552Y-70088129D01*
X-7588748Y-70207096D01*
X-7635123Y-70351538D01*
X-7639914Y-70366459D01*
X-7691681Y-70654164D01*
X-7692055Y-70662406D01*
X-7701056Y-70860639D01*
X-7704941Y-70946187D01*
X-67299253Y-70946187D01*
X-67298409Y-70927592D01*
X-67295433Y-70862053D01*
X-67295433Y-70862051D01*
X-67295059Y-70853813D01*
X-67320536Y-70562601D01*
X-67384305Y-70277317D01*
X-67485244Y-70002973D01*
X-67621580Y-69744388D01*
X-67637332Y-69722222D01*
X-67786130Y-69512844D01*
X-67786132Y-69512842D01*
X-67790918Y-69506107D01*
X-67990283Y-69292314D01*
X-68091301Y-69209337D01*
X-68209784Y-69112013D01*
X-68209787Y-69112011D01*
X-68216171Y-69106767D01*
X-68464616Y-68952725D01*
X-68731250Y-68832895D01*
X-69011391Y-68749381D01*
X-69300117Y-68703652D01*
X-69307064Y-68703337D01*
X-69307069Y-68703336D01*
X-69388740Y-68699627D01*
X-69388761Y-68699627D01*
X-69391547Y-68699500D01*
X-69574151Y-68699500D01*
X-69578241Y-68699772D01*
X-69578252Y-68699772D01*
X-69708536Y-68708426D01*
X-69791682Y-68713948D01*
X-70078239Y-68771728D01*
X-70086044Y-68774415D01*
X-70086046Y-68774416D01*
X-70110464Y-68782824D01*
X-70354637Y-68866900D01*
X-70616020Y-68997791D01*
X-70622855Y-69002436D01*
X-70622860Y-69002439D01*
X-70729945Y-69075214D01*
X-70857795Y-69162101D01*
X-70863944Y-69167599D01*
X-70863948Y-69167602D01*
X-71069556Y-69351437D01*
X-71075716Y-69356945D01*
X-71081090Y-69363215D01*
X-71081095Y-69363220D01*
X-71204799Y-69507549D01*
X-71265953Y-69578898D01*
X-71270449Y-69585822D01*
X-71270451Y-69585824D01*
X-71408898Y-69799015D01*
X-71425164Y-69824062D01*
X-71466352Y-69910803D01*
X-71510627Y-70004048D01*
X-71550552Y-70088129D01*
X-71588748Y-70207096D01*
X-71635123Y-70351538D01*
X-71639914Y-70366459D01*
X-71691681Y-70654164D01*
X-71692055Y-70662406D01*
X-71701056Y-70860639D01*
X-71704941Y-70946187D01*
X-72396465Y-70946187D01*
X-72395952Y-70932501D01*
X-72396449Y-70932501D01*
X-72396449Y-70916182D01*
X-72394318Y-70900000D01*
X-72397370Y-70876818D01*
X-72399500Y-70844317D01*
X-72399500Y-41172992D01*
X-70905177Y-41172992D01*
X-70904340Y-41184815D01*
X-70904340Y-41184817D01*
X-70901123Y-41230250D01*
X-70900501Y-41247836D01*
X-70900501Y-60097530D01*
X-70900946Y-60109673D01*
X-70902538Y-60119033D01*
X-70902280Y-60130872D01*
X-70902280Y-60130876D01*
X-70900560Y-60209685D01*
X-70900501Y-60215117D01*
X-70900501Y-60252468D01*
X-70899939Y-60258358D01*
X-70899657Y-60264281D01*
X-70899706Y-60264283D01*
X-70899168Y-60273478D01*
X-70897957Y-60328980D01*
X-70892483Y-60354404D01*
X-70888032Y-60383157D01*
X-70885562Y-60409045D01*
X-70882226Y-60420416D01*
X-70882226Y-60420417D01*
X-70869934Y-60462317D01*
X-70865449Y-60479975D01*
X-70853759Y-60534270D01*
X-70849120Y-60545172D01*
X-70849120Y-60545173D01*
X-70843576Y-60558203D01*
X-70833771Y-60585587D01*
X-70826448Y-60610548D01*
X-70801025Y-60659909D01*
X-70793285Y-60676395D01*
X-70771539Y-60727501D01*
X-70764919Y-60737334D01*
X-70757014Y-60749076D01*
X-70742201Y-60774124D01*
X-70730296Y-60797238D01*
X-70698983Y-60837102D01*
X-70696005Y-60840893D01*
X-70685270Y-60855641D01*
X-70654262Y-60901698D01*
X-70650549Y-60905793D01*
X-70635331Y-60921011D01*
X-70615588Y-60943269D01*
X-70607900Y-60953057D01*
X-70607893Y-60953065D01*
X-70600577Y-60962378D01*
X-70591630Y-60970142D01*
X-70591628Y-60970144D01*
X-70557224Y-60999998D01*
X-70544349Y-61011993D01*
X-69648429Y-61907913D01*
X-69594453Y-61988695D01*
X-69575499Y-62083983D01*
X-69575499Y-62323566D01*
X-69572600Y-62366108D01*
X-69569945Y-62376755D01*
X-69569943Y-62376765D01*
X-69535394Y-62515330D01*
X-69527895Y-62545408D01*
X-69521897Y-62557491D01*
X-69458579Y-62685044D01*
X-69445731Y-62710927D01*
X-69370902Y-62803996D01*
X-69330475Y-62854277D01*
X-69285538Y-62940415D01*
X-69276986Y-63037193D01*
X-69306121Y-63129877D01*
X-69325399Y-63159450D01*
X-69331501Y-63166051D01*
X-69337597Y-63175713D01*
X-69337598Y-63175714D01*
X-69362249Y-63214783D01*
X-69449236Y-63352650D01*
X-69453465Y-63363250D01*
X-69453467Y-63363254D01*
X-69526764Y-63546975D01*
X-69526766Y-63546980D01*
X-69530994Y-63557579D01*
X-69574038Y-63773976D01*
X-69574453Y-63805665D01*
X-69576672Y-63975214D01*
X-69576926Y-63994594D01*
X-69574994Y-64005836D01*
X-69542151Y-64196975D01*
X-69539562Y-64212043D01*
X-69520607Y-64263423D01*
X-69467436Y-64407549D01*
X-69463196Y-64419043D01*
X-69350386Y-64608659D01*
X-69342857Y-64617244D01*
X-69212436Y-64765962D01*
X-69212432Y-64765966D01*
X-69204910Y-64774543D01*
X-69195948Y-64781608D01*
X-69195947Y-64781609D01*
X-69169445Y-64802501D01*
X-69031640Y-64911137D01*
X-68836380Y-65013869D01*
X-68825481Y-65017253D01*
X-68825479Y-65017254D01*
X-68798713Y-65025565D01*
X-68625667Y-65079297D01*
X-68446524Y-65100500D01*
X-67769030Y-65100500D01*
X-67605289Y-65085454D01*
X-67448261Y-65041168D01*
X-67403924Y-65028664D01*
X-67403923Y-65028664D01*
X-67392936Y-65025565D01*
X-67382694Y-65020514D01*
X-67373641Y-65017039D01*
X-67284405Y-65000500D01*
X-63715437Y-65000500D01*
X-63620149Y-65019454D01*
X-63573215Y-65045203D01*
X-63566047Y-65051154D01*
X-63367210Y-65167345D01*
X-63152066Y-65249501D01*
X-62926393Y-65295414D01*
X-62815671Y-65299474D01*
X-62706463Y-65303479D01*
X-62706457Y-65303479D01*
X-62696251Y-65303853D01*
X-62686120Y-65302555D01*
X-62686115Y-65302555D01*
X-62563942Y-65286904D01*
X-62467822Y-65274591D01*
X-62458038Y-65271656D01*
X-62458035Y-65271655D01*
X-62257028Y-65211350D01*
X-62257026Y-65211349D01*
X-62247239Y-65208413D01*
X-62238064Y-65203918D01*
X-62238061Y-65203917D01*
X-62138906Y-65155341D01*
X-62040426Y-65107096D01*
X-61852938Y-64973363D01*
X-61689810Y-64810803D01*
X-61682406Y-64800500D01*
X-61594167Y-64677701D01*
X-61555423Y-64623783D01*
X-61453385Y-64417325D01*
X-61408536Y-64269712D01*
X-61389409Y-64206758D01*
X-61389408Y-64206754D01*
X-61386437Y-64196975D01*
X-61361565Y-64008049D01*
X-61357242Y-63975214D01*
X-61357242Y-63975209D01*
X-61356378Y-63968649D01*
X-61354700Y-63900000D01*
X-61361616Y-63815872D01*
X-61372733Y-63680659D01*
X-61373570Y-63670478D01*
X-61384533Y-63626830D01*
X-61427183Y-63457036D01*
X-61427184Y-63457033D01*
X-61429674Y-63447120D01*
X-61521504Y-63235924D01*
X-61646595Y-63042563D01*
X-61708060Y-62975014D01*
X-61794716Y-62879781D01*
X-61794717Y-62879780D01*
X-61801588Y-62872229D01*
X-61965236Y-62742987D01*
X-61974301Y-62735828D01*
X-61974303Y-62735827D01*
X-61982319Y-62729496D01*
X-62183935Y-62618198D01*
X-62193561Y-62614789D01*
X-62193566Y-62614787D01*
X-62391392Y-62544733D01*
X-62391394Y-62544732D01*
X-62401022Y-62541323D01*
X-62627750Y-62500937D01*
X-62637972Y-62500812D01*
X-62637973Y-62500812D01*
X-62776611Y-62499118D01*
X-62858029Y-62498123D01*
X-62868130Y-62499669D01*
X-62868135Y-62499669D01*
X-63025812Y-62523798D01*
X-63085675Y-62532958D01*
X-63095389Y-62536133D01*
X-63095393Y-62536134D01*
X-63265326Y-62591677D01*
X-63304576Y-62604506D01*
X-63313643Y-62609226D01*
X-63488978Y-62700500D01*
X-63508851Y-62710845D01*
X-63517024Y-62716982D01*
X-63517028Y-62716984D01*
X-63560496Y-62749621D01*
X-63648077Y-62791677D01*
X-63710001Y-62799500D01*
X-66416752Y-62799500D01*
X-66512040Y-62780546D01*
X-66592822Y-62726570D01*
X-66646798Y-62645788D01*
X-66665752Y-62550500D01*
X-66658357Y-62490268D01*
X-66627400Y-62366108D01*
X-66624500Y-62323567D01*
X-66624501Y-61476434D01*
X-66627400Y-61433892D01*
X-66672105Y-61254592D01*
X-66754269Y-61089073D01*
X-66870059Y-60945059D01*
X-67014073Y-60829269D01*
X-67026154Y-60823272D01*
X-67026157Y-60823270D01*
X-67167509Y-60753103D01*
X-67179592Y-60747105D01*
X-67192680Y-60743842D01*
X-67192682Y-60743841D01*
X-67348234Y-60705057D01*
X-67348238Y-60705056D01*
X-67358892Y-60702400D01*
X-67401433Y-60699500D01*
X-67641018Y-60699500D01*
X-67736306Y-60680546D01*
X-67817088Y-60626570D01*
X-68626571Y-59817087D01*
X-68680547Y-59736305D01*
X-68699501Y-59641017D01*
X-68699501Y-54234458D01*
X-68680547Y-54139170D01*
X-68626571Y-54058388D01*
X-68545789Y-54004412D01*
X-68450501Y-53985458D01*
X-68400861Y-53990456D01*
X-68378274Y-53995052D01*
X-68275647Y-53998815D01*
X-68141913Y-54003719D01*
X-68141907Y-54003719D01*
X-68131700Y-54004093D01*
X-68121569Y-54002795D01*
X-68121564Y-54002795D01*
X-67986231Y-53985458D01*
X-67886959Y-53972741D01*
X-67650626Y-53901838D01*
X-67429046Y-53793287D01*
X-67254512Y-53668793D01*
X-67236488Y-53655937D01*
X-67236484Y-53655934D01*
X-67228171Y-53650004D01*
X-67053395Y-53475837D01*
X-66909412Y-53275463D01*
X-66800089Y-53054264D01*
X-66728361Y-52818180D01*
X-66703996Y-52633106D01*
X-66672767Y-52541108D01*
X-66633196Y-52489538D01*
X-65517088Y-51373430D01*
X-65436306Y-51319454D01*
X-65341018Y-51300500D01*
X-50455437Y-51300500D01*
X-50360149Y-51319454D01*
X-50313215Y-51345203D01*
X-50306047Y-51351154D01*
X-50107210Y-51467345D01*
X-49983465Y-51514599D01*
X-49957442Y-51524536D01*
X-49892066Y-51549501D01*
X-49666393Y-51595414D01*
X-49556735Y-51599435D01*
X-49446463Y-51603479D01*
X-49446457Y-51603479D01*
X-49436251Y-51603853D01*
X-49426120Y-51602555D01*
X-49426115Y-51602555D01*
X-49289422Y-51585044D01*
X-49207822Y-51574591D01*
X-49198038Y-51571656D01*
X-49198035Y-51571655D01*
X-48997028Y-51511350D01*
X-48997026Y-51511349D01*
X-48987239Y-51508413D01*
X-48978064Y-51503918D01*
X-48978061Y-51503917D01*
X-48797230Y-51415328D01*
X-48780426Y-51407096D01*
X-48592938Y-51273363D01*
X-48491058Y-51171838D01*
X-48437052Y-51118020D01*
X-48437051Y-51118019D01*
X-48429810Y-51110803D01*
X-48375589Y-51035347D01*
X-48339505Y-50985130D01*
X-48295423Y-50923783D01*
X-48287523Y-50907800D01*
X-48237236Y-50806051D01*
X-48193385Y-50717325D01*
X-48126437Y-50496975D01*
X-48096378Y-50268649D01*
X-48094700Y-50200000D01*
X-48113570Y-49970478D01*
X-48128721Y-49910159D01*
X-48133552Y-49813126D01*
X-48100881Y-49721629D01*
X-48035684Y-49649599D01*
X-47947884Y-49608002D01*
X-47887223Y-49600500D01*
X-44849500Y-49600500D01*
X-44754212Y-49619454D01*
X-44673430Y-49673430D01*
X-44619454Y-49754212D01*
X-44600500Y-49849500D01*
X-44600500Y-59950500D01*
X-44619454Y-60045788D01*
X-44673430Y-60126570D01*
X-44754212Y-60180546D01*
X-44849500Y-60199500D01*
X-46950875Y-60199500D01*
X-47046163Y-60180546D01*
X-47126945Y-60126570D01*
X-47148417Y-60102085D01*
X-47171718Y-60071718D01*
X-47196525Y-60052683D01*
X-47284208Y-59985401D01*
X-47284211Y-59985399D01*
X-47297159Y-59975464D01*
X-47312239Y-59969218D01*
X-47312240Y-59969217D01*
X-47398829Y-59933351D01*
X-47443238Y-59914956D01*
X-47459415Y-59912826D01*
X-47459416Y-59912826D01*
X-47492927Y-59908414D01*
X-47560639Y-59899500D01*
X-48399897Y-59899500D01*
X-49239360Y-59899501D01*
X-49247441Y-59900565D01*
X-49247444Y-59900565D01*
X-49290159Y-59906188D01*
X-49356762Y-59914956D01*
X-49371841Y-59921202D01*
X-49487760Y-59969217D01*
X-49487761Y-59969218D01*
X-49502841Y-59975464D01*
X-49515789Y-59985399D01*
X-49515792Y-59985401D01*
X-49603475Y-60052683D01*
X-49628282Y-60071718D01*
X-49651581Y-60102081D01*
X-49724623Y-60166139D01*
X-49816622Y-60197370D01*
X-49849125Y-60199500D01*
X-51641018Y-60199500D01*
X-51736306Y-60180546D01*
X-51817088Y-60126570D01*
X-52426570Y-59517088D01*
X-52480546Y-59436306D01*
X-52499500Y-59341018D01*
X-52499500Y-57948806D01*
X-52480546Y-57853518D01*
X-52452712Y-57803509D01*
X-52395423Y-57723783D01*
X-52385072Y-57702841D01*
X-52337409Y-57606401D01*
X-52293385Y-57517325D01*
X-52235460Y-57326673D01*
X-52229409Y-57306758D01*
X-52229408Y-57306754D01*
X-52226437Y-57296975D01*
X-52209740Y-57170145D01*
X-52197242Y-57075214D01*
X-52197242Y-57075209D01*
X-52196378Y-57068649D01*
X-52195840Y-57046662D01*
X-52194862Y-57006626D01*
X-52194700Y-57000000D01*
X-52213570Y-56770478D01*
X-52219925Y-56745174D01*
X-52267183Y-56557036D01*
X-52267184Y-56557033D01*
X-52269674Y-56547120D01*
X-52323981Y-56422222D01*
X-52357429Y-56345295D01*
X-52357431Y-56345291D01*
X-52361504Y-56335924D01*
X-52486595Y-56142563D01*
X-52641588Y-55972229D01*
X-52822319Y-55829496D01*
X-53023935Y-55718198D01*
X-53033561Y-55714789D01*
X-53033566Y-55714787D01*
X-53231392Y-55644733D01*
X-53231394Y-55644732D01*
X-53241022Y-55641323D01*
X-53467750Y-55600937D01*
X-53477972Y-55600812D01*
X-53477973Y-55600812D01*
X-53616611Y-55599118D01*
X-53698029Y-55598123D01*
X-53708130Y-55599669D01*
X-53708135Y-55599669D01*
X-53865812Y-55623798D01*
X-53925675Y-55632958D01*
X-53935389Y-55636133D01*
X-53935393Y-55636134D01*
X-54077735Y-55682659D01*
X-54144576Y-55704506D01*
X-54348851Y-55810845D01*
X-54357024Y-55816982D01*
X-54357028Y-55816984D01*
X-54400496Y-55849621D01*
X-54488077Y-55891677D01*
X-54550001Y-55899500D01*
X-56325689Y-55899500D01*
X-56420977Y-55880546D01*
X-56501759Y-55826570D01*
X-56555735Y-55745788D01*
X-56574689Y-55650500D01*
X-56555735Y-55555212D01*
X-56521201Y-55471839D01*
X-56521201Y-55471838D01*
X-56514956Y-55456762D01*
X-56512825Y-55440580D01*
X-56500564Y-55347441D01*
X-56499500Y-55339361D01*
X-56499501Y-53660640D01*
X-56514956Y-53543238D01*
X-56575464Y-53397159D01*
X-56585399Y-53384211D01*
X-56585401Y-53384208D01*
X-56661778Y-53284672D01*
X-56671718Y-53271718D01*
X-56684672Y-53261778D01*
X-56784208Y-53185401D01*
X-56784211Y-53185399D01*
X-56797159Y-53175464D01*
X-56812239Y-53169218D01*
X-56812240Y-53169217D01*
X-56862595Y-53148360D01*
X-56943238Y-53114956D01*
X-56959415Y-53112826D01*
X-56959416Y-53112826D01*
X-56992927Y-53108414D01*
X-57060639Y-53099500D01*
X-57899897Y-53099500D01*
X-58739360Y-53099501D01*
X-58747441Y-53100565D01*
X-58747444Y-53100565D01*
X-58790159Y-53106188D01*
X-58856762Y-53114956D01*
X-58871841Y-53121202D01*
X-58987760Y-53169217D01*
X-58987761Y-53169218D01*
X-59002841Y-53175464D01*
X-59015789Y-53185399D01*
X-59015792Y-53185401D01*
X-59115328Y-53261778D01*
X-59128282Y-53271718D01*
X-59138222Y-53284672D01*
X-59214599Y-53384208D01*
X-59214601Y-53384211D01*
X-59224536Y-53397159D01*
X-59285044Y-53543238D01*
X-59287174Y-53559415D01*
X-59287174Y-53559416D01*
X-59291586Y-53592927D01*
X-59300500Y-53660639D01*
X-59300499Y-55339360D01*
X-59285044Y-55456762D01*
X-59224536Y-55602841D01*
X-59214601Y-55615789D01*
X-59214599Y-55615792D01*
X-59148964Y-55701329D01*
X-59128282Y-55728282D01*
X-59097919Y-55751581D01*
X-59033861Y-55824623D01*
X-59002630Y-55916622D01*
X-59000500Y-55949125D01*
X-59000500Y-56297531D01*
X-59000945Y-56309674D01*
X-59002537Y-56319034D01*
X-59002279Y-56330873D01*
X-59002279Y-56330877D01*
X-59000559Y-56409686D01*
X-59000500Y-56415118D01*
X-59000500Y-56452469D01*
X-58999938Y-56458359D01*
X-58999656Y-56464282D01*
X-58999705Y-56464284D01*
X-58999167Y-56473479D01*
X-58997956Y-56528981D01*
X-58992482Y-56554405D01*
X-58988031Y-56583158D01*
X-58985561Y-56609046D01*
X-58982225Y-56620417D01*
X-58982225Y-56620418D01*
X-58969933Y-56662318D01*
X-58965448Y-56679976D01*
X-58953758Y-56734271D01*
X-58949119Y-56745173D01*
X-58949119Y-56745174D01*
X-58943575Y-56758204D01*
X-58933770Y-56785588D01*
X-58926447Y-56810549D01*
X-58901024Y-56859910D01*
X-58893284Y-56876396D01*
X-58871538Y-56927502D01*
X-58864918Y-56937335D01*
X-58857013Y-56949077D01*
X-58842200Y-56974125D01*
X-58830295Y-56997239D01*
X-58798982Y-57037103D01*
X-58796004Y-57040894D01*
X-58785269Y-57055642D01*
X-58772511Y-57074591D01*
X-58754261Y-57101699D01*
X-58750548Y-57105794D01*
X-58735330Y-57121012D01*
X-58715587Y-57143270D01*
X-58707899Y-57153058D01*
X-58707892Y-57153066D01*
X-58700576Y-57162379D01*
X-58691629Y-57170143D01*
X-58691627Y-57170145D01*
X-58657223Y-57199999D01*
X-58644348Y-57211994D01*
X-58150619Y-57705723D01*
X-58142357Y-57714615D01*
X-58136863Y-57722360D01*
X-58128303Y-57730554D01*
X-58071400Y-57785027D01*
X-58067516Y-57788826D01*
X-58041070Y-57815272D01*
X-58036500Y-57819046D01*
X-58032131Y-57823018D01*
X-58032164Y-57823054D01*
X-58025275Y-57829183D01*
X-57993730Y-57859380D01*
X-57985169Y-57867575D01*
X-57975217Y-57874001D01*
X-57975213Y-57874004D01*
X-57963324Y-57881680D01*
X-57939851Y-57898858D01*
X-57919790Y-57915425D01*
X-57909387Y-57921109D01*
X-57909385Y-57921110D01*
X-57871073Y-57942042D01*
X-57855392Y-57951371D01*
X-57808754Y-57981485D01*
X-57797767Y-57985913D01*
X-57797763Y-57985915D01*
X-57784639Y-57991204D01*
X-57758328Y-58003641D01*
X-57735506Y-58016110D01*
X-57724224Y-58019721D01*
X-57724220Y-58019723D01*
X-57682632Y-58033035D01*
X-57665477Y-58039227D01*
X-57613981Y-58059981D01*
X-57588459Y-58064965D01*
X-57560275Y-58072202D01*
X-57546802Y-58076515D01*
X-57546792Y-58076517D01*
X-57535506Y-58080130D01*
X-57485757Y-58086106D01*
X-57480389Y-58086751D01*
X-57462362Y-58089590D01*
X-57416678Y-58098512D01*
X-57416671Y-58098513D01*
X-57407878Y-58100230D01*
X-57402357Y-58100500D01*
X-57380840Y-58100500D01*
X-57351142Y-58102277D01*
X-57327009Y-58105176D01*
X-57315186Y-58104339D01*
X-57315184Y-58104339D01*
X-57269751Y-58101122D01*
X-57252165Y-58100500D01*
X-54949500Y-58100500D01*
X-54854212Y-58119454D01*
X-54773430Y-58173430D01*
X-54719454Y-58254212D01*
X-54700500Y-58349500D01*
X-54700500Y-59797531D01*
X-54700945Y-59809674D01*
X-54702537Y-59819034D01*
X-54702279Y-59830873D01*
X-54702279Y-59830877D01*
X-54700559Y-59909686D01*
X-54700500Y-59915118D01*
X-54700500Y-59952469D01*
X-54699938Y-59958359D01*
X-54699656Y-59964282D01*
X-54699705Y-59964284D01*
X-54699167Y-59973479D01*
X-54697956Y-60028981D01*
X-54692853Y-60052683D01*
X-54692482Y-60054405D01*
X-54688031Y-60083158D01*
X-54685561Y-60109046D01*
X-54682225Y-60120417D01*
X-54682225Y-60120418D01*
X-54669933Y-60162318D01*
X-54665448Y-60179976D01*
X-54653758Y-60234271D01*
X-54649119Y-60245173D01*
X-54649119Y-60245174D01*
X-54643575Y-60258204D01*
X-54633770Y-60285588D01*
X-54626447Y-60310549D01*
X-54601024Y-60359910D01*
X-54593284Y-60376396D01*
X-54571538Y-60427502D01*
X-54564918Y-60437335D01*
X-54557013Y-60449077D01*
X-54542200Y-60474125D01*
X-54530295Y-60497239D01*
X-54501207Y-60534270D01*
X-54496004Y-60540894D01*
X-54485269Y-60555642D01*
X-54465108Y-60585587D01*
X-54454261Y-60601699D01*
X-54450548Y-60605794D01*
X-54435330Y-60621012D01*
X-54415587Y-60643270D01*
X-54407899Y-60653058D01*
X-54407892Y-60653066D01*
X-54400576Y-60662379D01*
X-54391629Y-60670143D01*
X-54391627Y-60670145D01*
X-54357223Y-60699999D01*
X-54344348Y-60711994D01*
X-53050619Y-62005723D01*
X-53042357Y-62014615D01*
X-53036863Y-62022360D01*
X-53028303Y-62030554D01*
X-52971400Y-62085027D01*
X-52967516Y-62088826D01*
X-52941070Y-62115272D01*
X-52936500Y-62119046D01*
X-52932131Y-62123018D01*
X-52932164Y-62123054D01*
X-52925275Y-62129183D01*
X-52911188Y-62142668D01*
X-52855461Y-62222252D01*
X-52834431Y-62317104D01*
X-52851301Y-62412783D01*
X-52903501Y-62494723D01*
X-52983085Y-62550450D01*
X-53005994Y-62559210D01*
X-53144576Y-62604506D01*
X-53153643Y-62609226D01*
X-53328978Y-62700500D01*
X-53348851Y-62710845D01*
X-53533016Y-62849119D01*
X-53540075Y-62856506D01*
X-53685055Y-63008219D01*
X-53685059Y-63008224D01*
X-53692123Y-63015616D01*
X-53710505Y-63042563D01*
X-53807870Y-63185295D01*
X-53821901Y-63205863D01*
X-53885555Y-63342993D01*
X-53901685Y-63377744D01*
X-53918864Y-63414752D01*
X-53980408Y-63636673D01*
X-53985109Y-63680659D01*
X-54002846Y-63846626D01*
X-54004881Y-63865665D01*
X-53991624Y-64095580D01*
X-53989377Y-64105548D01*
X-53989377Y-64105552D01*
X-53952381Y-64269712D01*
X-53940994Y-64320242D01*
X-53854351Y-64533618D01*
X-53734021Y-64729978D01*
X-53727337Y-64737695D01*
X-53727332Y-64737701D01*
X-53657757Y-64818020D01*
X-53583237Y-64904048D01*
X-53406047Y-65051154D01*
X-53207210Y-65167345D01*
X-52992066Y-65249501D01*
X-52766393Y-65295414D01*
X-52655671Y-65299474D01*
X-52546463Y-65303479D01*
X-52546457Y-65303479D01*
X-52536251Y-65303853D01*
X-52526120Y-65302555D01*
X-52526115Y-65302555D01*
X-52403942Y-65286904D01*
X-52307822Y-65274591D01*
X-52298038Y-65271656D01*
X-52298035Y-65271655D01*
X-52097028Y-65211350D01*
X-52097026Y-65211349D01*
X-52087239Y-65208413D01*
X-52078064Y-65203918D01*
X-52078061Y-65203917D01*
X-51978906Y-65155341D01*
X-51880426Y-65107096D01*
X-51727172Y-64997782D01*
X-51711755Y-64986785D01*
X-51623173Y-64946882D01*
X-51567161Y-64940500D01*
X-49355437Y-64940500D01*
X-49260149Y-64959454D01*
X-49213215Y-64985203D01*
X-49206047Y-64991154D01*
X-49007210Y-65107345D01*
X-48991691Y-65113271D01*
X-48801789Y-65185788D01*
X-48792066Y-65189501D01*
X-48566393Y-65235414D01*
X-48455671Y-65239474D01*
X-48346463Y-65243479D01*
X-48346457Y-65243479D01*
X-48336251Y-65243853D01*
X-48326120Y-65242555D01*
X-48326115Y-65242555D01*
X-48203942Y-65226904D01*
X-48107822Y-65214591D01*
X-48098038Y-65211656D01*
X-48098035Y-65211655D01*
X-47897028Y-65151350D01*
X-47897026Y-65151349D01*
X-47887239Y-65148413D01*
X-47878064Y-65143918D01*
X-47878061Y-65143917D01*
X-47782986Y-65097340D01*
X-47680426Y-65047096D01*
X-47492938Y-64913363D01*
X-47371147Y-64791996D01*
X-47337052Y-64758020D01*
X-47337051Y-64758019D01*
X-47329810Y-64750803D01*
X-47322645Y-64740833D01*
X-47244503Y-64632085D01*
X-47195423Y-64563783D01*
X-47184823Y-64542337D01*
X-47097911Y-64366482D01*
X-47093385Y-64357325D01*
X-47052499Y-64222755D01*
X-47029409Y-64146758D01*
X-47029408Y-64146754D01*
X-47026437Y-64136975D01*
X-47009173Y-64005836D01*
X-46997242Y-63915214D01*
X-46997242Y-63915209D01*
X-46996378Y-63908649D01*
X-46996166Y-63900000D01*
X-46994862Y-63846626D01*
X-46994700Y-63840000D01*
X-47013570Y-63610478D01*
X-47024533Y-63566830D01*
X-47067183Y-63397036D01*
X-47067184Y-63397033D01*
X-47069674Y-63387120D01*
X-47135415Y-63235924D01*
X-47157429Y-63185295D01*
X-47157431Y-63185291D01*
X-47161504Y-63175924D01*
X-47286595Y-62982563D01*
X-47300530Y-62967248D01*
X-47350642Y-62884016D01*
X-47365089Y-62787941D01*
X-47341669Y-62693651D01*
X-47283949Y-62615500D01*
X-47267946Y-62602120D01*
X-47265567Y-62600295D01*
X-47171718Y-62528282D01*
X-47148419Y-62497919D01*
X-47075377Y-62433861D01*
X-46983378Y-62402630D01*
X-46950875Y-62400500D01*
X-43597383Y-62400500D01*
X-43577569Y-62401929D01*
X-43577568Y-62401906D01*
X-43565737Y-62402485D01*
X-43554004Y-62404186D01*
X-43542163Y-62403638D01*
X-43480112Y-62400766D01*
X-43468600Y-62400500D01*
X-41924006Y-62400500D01*
X-41828718Y-62419454D01*
X-41747936Y-62473430D01*
X-41693960Y-62554212D01*
X-41675006Y-62649500D01*
X-41693960Y-62744788D01*
X-41743986Y-62821527D01*
X-41872123Y-62955616D01*
X-41905151Y-63004033D01*
X-41990996Y-63129877D01*
X-42001901Y-63145863D01*
X-42098864Y-63354752D01*
X-42160408Y-63576673D01*
X-42165109Y-63620659D01*
X-42182150Y-63780114D01*
X-42184881Y-63805665D01*
X-42171624Y-64035580D01*
X-42169377Y-64045548D01*
X-42169377Y-64045552D01*
X-42124543Y-64244493D01*
X-42120994Y-64260242D01*
X-42034351Y-64473618D01*
X-42029008Y-64482337D01*
X-41951597Y-64608659D01*
X-41914021Y-64669978D01*
X-41907337Y-64677695D01*
X-41907332Y-64677701D01*
X-41837757Y-64758020D01*
X-41763237Y-64844048D01*
X-41586047Y-64991154D01*
X-41387210Y-65107345D01*
X-41371691Y-65113271D01*
X-41181789Y-65185788D01*
X-41172066Y-65189501D01*
X-40946393Y-65235414D01*
X-40835671Y-65239474D01*
X-40726463Y-65243479D01*
X-40726457Y-65243479D01*
X-40716251Y-65243853D01*
X-40706120Y-65242555D01*
X-40706115Y-65242555D01*
X-40583942Y-65226904D01*
X-40487822Y-65214591D01*
X-40478038Y-65211656D01*
X-40478035Y-65211655D01*
X-40277028Y-65151350D01*
X-40277026Y-65151349D01*
X-40267239Y-65148413D01*
X-40258064Y-65143918D01*
X-40258061Y-65143917D01*
X-40162986Y-65097340D01*
X-40060426Y-65047096D01*
X-39975870Y-64986783D01*
X-39887292Y-64946882D01*
X-39831279Y-64940500D01*
X-37909500Y-64940500D01*
X-37814212Y-64959454D01*
X-37733430Y-65013430D01*
X-37679454Y-65094212D01*
X-37660500Y-65189500D01*
X-37660500Y-68051056D01*
X-37679454Y-68146344D01*
X-37703798Y-68191368D01*
X-37781901Y-68305863D01*
X-37878864Y-68514752D01*
X-37940408Y-68736673D01*
X-37951053Y-68836282D01*
X-37963498Y-68952725D01*
X-37964881Y-68965665D01*
X-37951624Y-69195580D01*
X-37949377Y-69205548D01*
X-37949377Y-69205552D01*
X-37910840Y-69376551D01*
X-37900994Y-69420242D01*
X-37897150Y-69429708D01*
X-37897149Y-69429712D01*
X-37885289Y-69458919D01*
X-37814351Y-69633618D01*
X-37694021Y-69829978D01*
X-37687337Y-69837695D01*
X-37687332Y-69837701D01*
X-37617757Y-69918020D01*
X-37543237Y-70004048D01*
X-37366047Y-70151154D01*
X-37167210Y-70267345D01*
X-36952066Y-70349501D01*
X-36726393Y-70395414D01*
X-36615671Y-70399474D01*
X-36506463Y-70403479D01*
X-36506457Y-70403479D01*
X-36496251Y-70403853D01*
X-36486120Y-70402555D01*
X-36486115Y-70402555D01*
X-36363942Y-70386904D01*
X-36267822Y-70374591D01*
X-36258038Y-70371656D01*
X-36258035Y-70371655D01*
X-36057028Y-70311350D01*
X-36057026Y-70311349D01*
X-36047239Y-70308413D01*
X-36038064Y-70303918D01*
X-36038061Y-70303917D01*
X-35885589Y-70229221D01*
X-35840426Y-70207096D01*
X-35672195Y-70087099D01*
X-27122135Y-70087099D01*
X-27117075Y-70094671D01*
X-27065406Y-70130851D01*
X-27046646Y-70141682D01*
X-26858919Y-70229221D01*
X-26838576Y-70236625D01*
X-26638493Y-70290237D01*
X-26617176Y-70293996D01*
X-26410824Y-70312049D01*
X-26389176Y-70312049D01*
X-26182824Y-70293996D01*
X-26161507Y-70290237D01*
X-25961424Y-70236625D01*
X-25941081Y-70229221D01*
X-25753354Y-70141682D01*
X-25734594Y-70130851D01*
X-25692200Y-70101166D01*
X-25677778Y-70086100D01*
X-25681446Y-70077764D01*
X-26382659Y-69376551D01*
X-26400000Y-69364964D01*
X-26417341Y-69376551D01*
X-27110548Y-70069758D01*
X-27122135Y-70087099D01*
X-35672195Y-70087099D01*
X-35652938Y-70073363D01*
X-35489810Y-69910803D01*
X-35431731Y-69829978D01*
X-35422499Y-69817129D01*
X-35355423Y-69723783D01*
X-35347523Y-69707800D01*
X-35283816Y-69578898D01*
X-35253385Y-69517325D01*
X-35196272Y-69329346D01*
X-35189409Y-69306758D01*
X-35189408Y-69306754D01*
X-35186437Y-69296975D01*
X-35156378Y-69068649D01*
X-35154965Y-69010824D01*
X-27712049Y-69010824D01*
X-27693996Y-69217176D01*
X-27690237Y-69238493D01*
X-27636625Y-69438576D01*
X-27629221Y-69458919D01*
X-27541682Y-69646646D01*
X-27530851Y-69665406D01*
X-27501166Y-69707800D01*
X-27486100Y-69722222D01*
X-27477764Y-69718554D01*
X-26776551Y-69017341D01*
X-26764964Y-69000000D01*
X-26035036Y-69000000D01*
X-26023449Y-69017341D01*
X-25330242Y-69710548D01*
X-25312901Y-69722135D01*
X-25305329Y-69717075D01*
X-25269149Y-69665406D01*
X-25258318Y-69646646D01*
X-25170779Y-69458919D01*
X-25163375Y-69438576D01*
X-25112274Y-69247863D01*
X-23284090Y-69247863D01*
X-23274654Y-69309524D01*
X-23269932Y-69329346D01*
X-23201672Y-69538186D01*
X-23193775Y-69556973D01*
X-23092319Y-69751868D01*
X-23081462Y-69769108D01*
X-22949536Y-69944818D01*
X-22936015Y-69960046D01*
X-22777168Y-70111843D01*
X-22761320Y-70124676D01*
X-22579820Y-70248488D01*
X-22562103Y-70258552D01*
X-22362798Y-70351067D01*
X-22343697Y-70358095D01*
X-22131959Y-70416815D01*
X-22111942Y-70420633D01*
X-22078385Y-70424220D01*
X-22057614Y-70422348D01*
X-22054000Y-70410782D01*
X-22054000Y-70404000D01*
X-21546000Y-70404000D01*
X-21541931Y-70424458D01*
X-21528645Y-70427100D01*
X-21523325Y-70426663D01*
X-21503237Y-70423337D01*
X-21290134Y-70369810D01*
X-21270842Y-70363242D01*
X-21069345Y-70275630D01*
X-21051395Y-70266005D01*
X-20866905Y-70146652D01*
X-20850773Y-70134229D01*
X-20688258Y-69986352D01*
X-20674361Y-69971449D01*
X-20538181Y-69799015D01*
X-20526913Y-69782054D01*
X-20420720Y-69589687D01*
X-20412374Y-69571118D01*
X-20339027Y-69363992D01*
X-20333822Y-69344291D01*
X-20318477Y-69258147D01*
X-20318896Y-69237293D01*
X-20327319Y-69234000D01*
X-21521473Y-69234000D01*
X-21541931Y-69238069D01*
X-21546000Y-69258527D01*
X-21546000Y-70404000D01*
X-22054000Y-70404000D01*
X-22054000Y-69258527D01*
X-22058069Y-69238069D01*
X-22078527Y-69234000D01*
X-23261684Y-69234000D01*
X-23282142Y-69238069D01*
X-23284090Y-69247863D01*
X-25112274Y-69247863D01*
X-25109763Y-69238493D01*
X-25106004Y-69217176D01*
X-25087951Y-69010824D01*
X-25087951Y-68989176D01*
X-25106004Y-68782824D01*
X-25109763Y-68761507D01*
X-25163375Y-68561424D01*
X-25170779Y-68541081D01*
X-25258318Y-68353354D01*
X-25269149Y-68334594D01*
X-25298834Y-68292200D01*
X-25313900Y-68277778D01*
X-25322236Y-68281446D01*
X-26023449Y-68982659D01*
X-26035036Y-69000000D01*
X-26764964Y-69000000D01*
X-26776551Y-68982659D01*
X-27469758Y-68289452D01*
X-27487099Y-68277865D01*
X-27494671Y-68282925D01*
X-27530851Y-68334594D01*
X-27541682Y-68353354D01*
X-27629221Y-68541081D01*
X-27636625Y-68561424D01*
X-27690237Y-68761507D01*
X-27693996Y-68782824D01*
X-27712049Y-68989176D01*
X-27712049Y-69010824D01*
X-35154965Y-69010824D01*
X-35154700Y-69000000D01*
X-35173570Y-68770478D01*
X-35178275Y-68751744D01*
X-35227183Y-68557036D01*
X-35227184Y-68557033D01*
X-35229674Y-68547120D01*
X-35321504Y-68335924D01*
X-35419565Y-68184345D01*
X-35455409Y-68094043D01*
X-35459500Y-68049094D01*
X-35459500Y-67913900D01*
X-27122222Y-67913900D01*
X-27118554Y-67922236D01*
X-26417341Y-68623449D01*
X-26400000Y-68635036D01*
X-26382659Y-68623449D01*
X-25689452Y-67930242D01*
X-25677865Y-67912901D01*
X-25682925Y-67905329D01*
X-25734594Y-67869149D01*
X-25753354Y-67858318D01*
X-25941081Y-67770779D01*
X-25961424Y-67763375D01*
X-26161507Y-67709763D01*
X-26182824Y-67706004D01*
X-26389176Y-67687951D01*
X-26410824Y-67687951D01*
X-26617176Y-67706004D01*
X-26638493Y-67709763D01*
X-26838576Y-67763375D01*
X-26858919Y-67770779D01*
X-27046646Y-67858318D01*
X-27065406Y-67869149D01*
X-27107800Y-67898834D01*
X-27122222Y-67913900D01*
X-35459500Y-67913900D01*
X-35459500Y-64848806D01*
X-35440546Y-64753518D01*
X-35412712Y-64703509D01*
X-35355423Y-64623783D01*
X-35253385Y-64417325D01*
X-35208536Y-64269712D01*
X-35189409Y-64206758D01*
X-35189408Y-64206754D01*
X-35186437Y-64196975D01*
X-35161565Y-64008049D01*
X-35157242Y-63975214D01*
X-35157242Y-63975209D01*
X-35156378Y-63968649D01*
X-35154700Y-63900000D01*
X-35157523Y-63865665D01*
X-27804881Y-63865665D01*
X-27791624Y-64095580D01*
X-27789377Y-64105548D01*
X-27789377Y-64105552D01*
X-27752381Y-64269712D01*
X-27740994Y-64320242D01*
X-27654351Y-64533618D01*
X-27534021Y-64729978D01*
X-27527337Y-64737695D01*
X-27527332Y-64737701D01*
X-27457757Y-64818020D01*
X-27383237Y-64904048D01*
X-27206047Y-65051154D01*
X-27007210Y-65167345D01*
X-26792066Y-65249501D01*
X-26566393Y-65295414D01*
X-26455671Y-65299474D01*
X-26346463Y-65303479D01*
X-26346457Y-65303479D01*
X-26336251Y-65303853D01*
X-26326120Y-65302555D01*
X-26326115Y-65302555D01*
X-26203942Y-65286904D01*
X-26107822Y-65274591D01*
X-26098038Y-65271656D01*
X-26098035Y-65271655D01*
X-25897028Y-65211350D01*
X-25897026Y-65211349D01*
X-25887239Y-65208413D01*
X-25878064Y-65203918D01*
X-25878061Y-65203917D01*
X-25778906Y-65155341D01*
X-25680426Y-65107096D01*
X-25595870Y-65046783D01*
X-25507292Y-65006882D01*
X-25451279Y-65000500D01*
X-23555050Y-65000500D01*
X-23459762Y-65019454D01*
X-23378980Y-65073430D01*
X-23342417Y-65128134D01*
X-23338942Y-65126128D01*
X-23330782Y-65140262D01*
X-23324536Y-65155341D01*
X-23314601Y-65168289D01*
X-23314599Y-65168292D01*
X-23283813Y-65208413D01*
X-23228282Y-65280782D01*
X-23215328Y-65290722D01*
X-23203793Y-65302257D01*
X-23205958Y-65304422D01*
X-23159357Y-65357553D01*
X-23128123Y-65449551D01*
X-23134472Y-65546498D01*
X-23159785Y-65607312D01*
X-23252602Y-65766788D01*
X-23342161Y-66000097D01*
X-23393266Y-66244724D01*
X-23393719Y-66254709D01*
X-23403325Y-66466240D01*
X-23404603Y-66494375D01*
X-23375879Y-66742627D01*
X-23307834Y-66983093D01*
X-23202218Y-67209587D01*
X-23061749Y-67416281D01*
X-23054876Y-67423549D01*
X-22890040Y-67597858D01*
X-22890943Y-67598712D01*
X-22839072Y-67668177D01*
X-22815158Y-67762343D01*
X-22829100Y-67858492D01*
X-22878775Y-67941987D01*
X-22896239Y-67959542D01*
X-22911743Y-67973650D01*
X-22925639Y-67988551D01*
X-23061819Y-68160985D01*
X-23073087Y-68177946D01*
X-23179280Y-68370313D01*
X-23187626Y-68388882D01*
X-23260973Y-68596008D01*
X-23266178Y-68615709D01*
X-23281523Y-68701853D01*
X-23281104Y-68722707D01*
X-23272681Y-68726000D01*
X-20338316Y-68726000D01*
X-20317858Y-68721931D01*
X-20315910Y-68712137D01*
X-20325346Y-68650476D01*
X-20330068Y-68630654D01*
X-20398328Y-68421814D01*
X-20406225Y-68403027D01*
X-20507681Y-68208132D01*
X-20518538Y-68190892D01*
X-20650464Y-68015182D01*
X-20663986Y-67999953D01*
X-20695834Y-67969518D01*
X-20751629Y-67889982D01*
X-20772740Y-67795148D01*
X-20755952Y-67699455D01*
X-20703822Y-67617470D01*
X-20624286Y-67561675D01*
X-20523804Y-67540500D01*
X-16128077Y-67540500D01*
X-16032789Y-67559454D01*
X-15952777Y-67612664D01*
X-15807483Y-67756696D01*
X-15800031Y-67762160D01*
X-15613630Y-67898834D01*
X-15603654Y-67906149D01*
X-15595490Y-67910445D01*
X-15595484Y-67910448D01*
X-15502171Y-67959542D01*
X-15379974Y-68023833D01*
X-15141356Y-68107162D01*
X-14893042Y-68154306D01*
X-14883820Y-68154668D01*
X-14883814Y-68154669D01*
X-14766764Y-68159268D01*
X-14640487Y-68164229D01*
X-14631312Y-68163224D01*
X-14631307Y-68163224D01*
X-14398423Y-68137719D01*
X-14398419Y-68137718D01*
X-14389240Y-68136713D01*
X-14144819Y-68072363D01*
X-13912595Y-67972591D01*
X-13904743Y-67967732D01*
X-13904739Y-67967730D01*
X-13779100Y-67889982D01*
X-13697669Y-67839591D01*
X-13504762Y-67676283D01*
X-13436733Y-67598712D01*
X-13344198Y-67493196D01*
X-13344197Y-67493194D01*
X-13338112Y-67486256D01*
X-13201381Y-67273684D01*
X-13168427Y-67200530D01*
X-13101365Y-67051656D01*
X-13097572Y-67043236D01*
X-13028966Y-66799976D01*
X-12997069Y-66549247D01*
X-12994732Y-66460000D01*
X-12995195Y-66453774D01*
X-12995195Y-66453762D01*
X-12996575Y-66435192D01*
X-12984734Y-66338762D01*
X-12936892Y-66254203D01*
X-12924330Y-66240672D01*
X-11557088Y-64873430D01*
X-11476306Y-64819454D01*
X-11381018Y-64800500D01*
X-7913512Y-64800500D01*
X-7818224Y-64819454D01*
X-7754459Y-64857920D01*
X-7671466Y-64926822D01*
X-7671461Y-64926825D01*
X-7663601Y-64933351D01*
X-7654785Y-64938503D01*
X-7654783Y-64938504D01*
X-7461263Y-65051588D01*
X-7450567Y-65057838D01*
X-7220061Y-65145859D01*
X-7210050Y-65147896D01*
X-7210046Y-65147897D01*
X-6988287Y-65193015D01*
X-6988285Y-65193015D01*
X-6978274Y-65195052D01*
X-6875647Y-65198815D01*
X-6741913Y-65203719D01*
X-6741907Y-65203719D01*
X-6731700Y-65204093D01*
X-6721569Y-65202795D01*
X-6721564Y-65202795D01*
X-6586330Y-65185471D01*
X-6486959Y-65172741D01*
X-6472129Y-65168292D01*
X-6390883Y-65143917D01*
X-6250626Y-65101838D01*
X-6029046Y-64993287D01*
X-5945019Y-64933351D01*
X-5836488Y-64855937D01*
X-5836484Y-64855934D01*
X-5828171Y-64850004D01*
X-5653395Y-64675837D01*
X-5509412Y-64475463D01*
X-5400089Y-64254264D01*
X-5390515Y-64222755D01*
X-5331331Y-64027956D01*
X-5331331Y-64027954D01*
X-5328361Y-64018180D01*
X-5311932Y-63893394D01*
X-5297019Y-63780114D01*
X-5297019Y-63780111D01*
X-5296155Y-63773550D01*
X-5294357Y-63700000D01*
X-5299563Y-63636673D01*
X-5313738Y-63464271D01*
X-5314575Y-63454089D01*
X-5374684Y-63214783D01*
X-5473072Y-62988507D01*
X-5607095Y-62781339D01*
X-5773154Y-62598842D01*
X-5966790Y-62445918D01*
X-6011537Y-62421216D01*
X-6131216Y-62355150D01*
X-6182802Y-62326673D01*
X-6192428Y-62323264D01*
X-6192433Y-62323262D01*
X-6405760Y-62247719D01*
X-6405762Y-62247718D01*
X-6415390Y-62244309D01*
X-6658306Y-62201039D01*
X-6668526Y-62200914D01*
X-6668528Y-62200914D01*
X-6808821Y-62199200D01*
X-6905028Y-62198025D01*
X-7063353Y-62222252D01*
X-7138834Y-62233802D01*
X-7138835Y-62233802D01*
X-7148930Y-62235347D01*
X-7158641Y-62238521D01*
X-7373750Y-62308829D01*
X-7373753Y-62308830D01*
X-7383460Y-62312003D01*
X-7602321Y-62425935D01*
X-7610496Y-62432073D01*
X-7767057Y-62549622D01*
X-7854637Y-62591677D01*
X-7916561Y-62599500D01*
X-11837531Y-62599500D01*
X-11849674Y-62599055D01*
X-11859034Y-62597463D01*
X-11870873Y-62597721D01*
X-11870877Y-62597721D01*
X-11949686Y-62599441D01*
X-11955118Y-62599500D01*
X-11992469Y-62599500D01*
X-11998359Y-62600062D01*
X-12004282Y-62600344D01*
X-12004284Y-62600295D01*
X-12013479Y-62600833D01*
X-12057132Y-62601785D01*
X-12057137Y-62601786D01*
X-12068981Y-62602044D01*
X-12080562Y-62604537D01*
X-12080568Y-62604538D01*
X-12094413Y-62607519D01*
X-12123169Y-62611970D01*
X-12149046Y-62614439D01*
X-12160424Y-62617777D01*
X-12202303Y-62630063D01*
X-12219991Y-62634556D01*
X-12262693Y-62643749D01*
X-12262695Y-62643750D01*
X-12274272Y-62646242D01*
X-12285174Y-62650881D01*
X-12285181Y-62650883D01*
X-12298209Y-62656426D01*
X-12325589Y-62666231D01*
X-12350549Y-62673553D01*
X-12361087Y-62678981D01*
X-12361091Y-62678982D01*
X-12399905Y-62698972D01*
X-12416416Y-62706724D01*
X-12456591Y-62723819D01*
X-12456593Y-62723820D01*
X-12467502Y-62728462D01*
X-12477334Y-62735081D01*
X-12477339Y-62735084D01*
X-12489077Y-62742987D01*
X-12514125Y-62757800D01*
X-12537239Y-62769705D01*
X-12565211Y-62791677D01*
X-12580894Y-62803996D01*
X-12595642Y-62814731D01*
X-12634267Y-62840735D01*
X-12634271Y-62840738D01*
X-12641699Y-62845739D01*
X-12645794Y-62849452D01*
X-12661012Y-62864670D01*
X-12683270Y-62884413D01*
X-12693058Y-62892101D01*
X-12693066Y-62892108D01*
X-12702379Y-62899424D01*
X-12710143Y-62908371D01*
X-12710145Y-62908373D01*
X-12739999Y-62942777D01*
X-12751994Y-62955652D01*
X-14483199Y-64686857D01*
X-14563981Y-64740833D01*
X-14662528Y-64759766D01*
X-14737096Y-64758790D01*
X-14804104Y-64757913D01*
X-14813259Y-64759159D01*
X-14813260Y-64759159D01*
X-15045393Y-64790750D01*
X-15045399Y-64790751D01*
X-15054545Y-64791996D01*
X-15297197Y-64862723D01*
X-15305576Y-64866586D01*
X-15305582Y-64866588D01*
X-15507023Y-64959454D01*
X-15526730Y-64968539D01*
X-15585213Y-65006882D01*
X-15712751Y-65090500D01*
X-15738101Y-65107120D01*
X-15744990Y-65113269D01*
X-15744993Y-65113271D01*
X-15851591Y-65208413D01*
X-15926667Y-65275421D01*
X-15928477Y-65273393D01*
X-15994015Y-65318854D01*
X-16093290Y-65339500D01*
X-19981145Y-65339500D01*
X-20076433Y-65320546D01*
X-20157215Y-65266570D01*
X-20211191Y-65185788D01*
X-20230145Y-65090500D01*
X-20221661Y-65026054D01*
X-20221202Y-65024342D01*
X-20214956Y-65009262D01*
X-20199500Y-64891861D01*
X-20199501Y-62908140D01*
X-20214956Y-62790738D01*
X-20234735Y-62742987D01*
X-20269217Y-62659740D01*
X-20269218Y-62659739D01*
X-20275464Y-62644659D01*
X-20285399Y-62631711D01*
X-20285401Y-62631708D01*
X-20361778Y-62532172D01*
X-20371718Y-62519218D01*
X-20387516Y-62507096D01*
X-20484208Y-62432901D01*
X-20484211Y-62432899D01*
X-20497159Y-62422964D01*
X-20512239Y-62416718D01*
X-20512240Y-62416717D01*
X-20581956Y-62387840D01*
X-20643238Y-62362456D01*
X-20659415Y-62360326D01*
X-20659416Y-62360326D01*
X-20698733Y-62355150D01*
X-20760639Y-62347000D01*
X-21799872Y-62347000D01*
X-22839360Y-62347001D01*
X-22847441Y-62348065D01*
X-22847444Y-62348065D01*
X-22890159Y-62353688D01*
X-22956762Y-62362456D01*
X-22971841Y-62368702D01*
X-23087760Y-62416717D01*
X-23087761Y-62416718D01*
X-23102841Y-62422964D01*
X-23115789Y-62432899D01*
X-23115792Y-62432901D01*
X-23212484Y-62507096D01*
X-23228282Y-62519218D01*
X-23238222Y-62532172D01*
X-23314599Y-62631708D01*
X-23314601Y-62631711D01*
X-23324536Y-62644659D01*
X-23330782Y-62659738D01*
X-23338942Y-62673872D01*
X-23342421Y-62671864D01*
X-23379027Y-62726617D01*
X-23459823Y-62780571D01*
X-23555050Y-62799500D01*
X-25447212Y-62799500D01*
X-25542500Y-62780546D01*
X-25601535Y-62745910D01*
X-25622319Y-62729496D01*
X-25823935Y-62618198D01*
X-25833561Y-62614789D01*
X-25833566Y-62614787D01*
X-26031392Y-62544733D01*
X-26031394Y-62544732D01*
X-26041022Y-62541323D01*
X-26267750Y-62500937D01*
X-26277972Y-62500812D01*
X-26277973Y-62500812D01*
X-26416611Y-62499118D01*
X-26498029Y-62498123D01*
X-26508130Y-62499669D01*
X-26508135Y-62499669D01*
X-26665812Y-62523798D01*
X-26725675Y-62532958D01*
X-26735389Y-62536133D01*
X-26735393Y-62536134D01*
X-26905326Y-62591677D01*
X-26944576Y-62604506D01*
X-26953643Y-62609226D01*
X-27128978Y-62700500D01*
X-27148851Y-62710845D01*
X-27333016Y-62849119D01*
X-27340075Y-62856506D01*
X-27485055Y-63008219D01*
X-27485059Y-63008224D01*
X-27492123Y-63015616D01*
X-27510505Y-63042563D01*
X-27607870Y-63185295D01*
X-27621901Y-63205863D01*
X-27685555Y-63342993D01*
X-27701685Y-63377744D01*
X-27718864Y-63414752D01*
X-27780408Y-63636673D01*
X-27785109Y-63680659D01*
X-27802846Y-63846626D01*
X-27804881Y-63865665D01*
X-35157523Y-63865665D01*
X-35161616Y-63815872D01*
X-35172733Y-63680659D01*
X-35173570Y-63670478D01*
X-35184533Y-63626830D01*
X-35227183Y-63457036D01*
X-35227184Y-63457033D01*
X-35229674Y-63447120D01*
X-35321504Y-63235924D01*
X-35446595Y-63042563D01*
X-35508060Y-62975014D01*
X-35594716Y-62879781D01*
X-35594717Y-62879780D01*
X-35601588Y-62872229D01*
X-35765236Y-62742987D01*
X-35774301Y-62735828D01*
X-35774303Y-62735827D01*
X-35782319Y-62729496D01*
X-35983935Y-62618198D01*
X-35993561Y-62614789D01*
X-35993566Y-62614787D01*
X-36191392Y-62544733D01*
X-36191394Y-62544732D01*
X-36201022Y-62541323D01*
X-36427750Y-62500937D01*
X-36437972Y-62500812D01*
X-36437973Y-62500812D01*
X-36576611Y-62499118D01*
X-36658029Y-62498123D01*
X-36668130Y-62499669D01*
X-36668135Y-62499669D01*
X-36825812Y-62523798D01*
X-36885675Y-62532958D01*
X-36895389Y-62536133D01*
X-36895393Y-62536134D01*
X-37065326Y-62591677D01*
X-37104576Y-62604506D01*
X-37308851Y-62710845D01*
X-37310233Y-62708190D01*
X-37382655Y-62735933D01*
X-37424654Y-62739500D01*
X-39637730Y-62739500D01*
X-39733018Y-62720546D01*
X-39813800Y-62666570D01*
X-39867776Y-62585788D01*
X-39886730Y-62490500D01*
X-39867776Y-62395212D01*
X-39813492Y-62314124D01*
X-39717052Y-62218020D01*
X-39717051Y-62218019D01*
X-39709810Y-62210803D01*
X-39702793Y-62201039D01*
X-39581389Y-62032085D01*
X-39575423Y-62023783D01*
X-39554200Y-61980843D01*
X-39477911Y-61826482D01*
X-39473385Y-61817325D01*
X-39406437Y-61596975D01*
X-39376378Y-61368649D01*
X-39374700Y-61300000D01*
X-39393570Y-61070478D01*
X-39408260Y-61011993D01*
X-39447183Y-60857036D01*
X-39447184Y-60857033D01*
X-39449674Y-60847120D01*
X-39511444Y-60705057D01*
X-39537429Y-60645295D01*
X-39537431Y-60645291D01*
X-39541504Y-60635924D01*
X-39666595Y-60442563D01*
X-39673464Y-60435014D01*
X-39814716Y-60279781D01*
X-39814717Y-60279780D01*
X-39821588Y-60272229D01*
X-39949671Y-60171075D01*
X-39994301Y-60135828D01*
X-39994303Y-60135827D01*
X-40002319Y-60129496D01*
X-40203935Y-60018198D01*
X-40213561Y-60014789D01*
X-40213566Y-60014787D01*
X-40411392Y-59944733D01*
X-40411394Y-59944732D01*
X-40421022Y-59941323D01*
X-40647750Y-59900937D01*
X-40657972Y-59900812D01*
X-40657973Y-59900812D01*
X-40796611Y-59899118D01*
X-40878029Y-59898123D01*
X-40888130Y-59899669D01*
X-40888135Y-59899669D01*
X-41028850Y-59921202D01*
X-41105675Y-59932958D01*
X-41115389Y-59936133D01*
X-41115393Y-59936134D01*
X-41304004Y-59997782D01*
X-41324576Y-60004506D01*
X-41528851Y-60110845D01*
X-41537024Y-60116982D01*
X-41537028Y-60116984D01*
X-41580496Y-60149621D01*
X-41668077Y-60191677D01*
X-41730001Y-60199500D01*
X-42150500Y-60199500D01*
X-42245788Y-60180546D01*
X-42326570Y-60126570D01*
X-42380546Y-60045788D01*
X-42399500Y-59950500D01*
X-42399500Y-57345164D01*
X-42380546Y-57249876D01*
X-42326570Y-57169094D01*
X-42245788Y-57115118D01*
X-42141377Y-57096331D01*
X-41936251Y-57103853D01*
X-41926120Y-57102555D01*
X-41926115Y-57102555D01*
X-41803942Y-57086904D01*
X-41707822Y-57074591D01*
X-41698038Y-57071656D01*
X-41698035Y-57071655D01*
X-41497028Y-57011350D01*
X-41497026Y-57011349D01*
X-41487239Y-57008413D01*
X-41478064Y-57003918D01*
X-41478061Y-57003917D01*
X-41366120Y-56949077D01*
X-41280426Y-56907096D01*
X-41112195Y-56787099D01*
X-37722135Y-56787099D01*
X-37717075Y-56794671D01*
X-37665406Y-56830851D01*
X-37646646Y-56841682D01*
X-37458919Y-56929221D01*
X-37438576Y-56936625D01*
X-37238493Y-56990237D01*
X-37217176Y-56993996D01*
X-37010824Y-57012049D01*
X-36989176Y-57012049D01*
X-36782824Y-56993996D01*
X-36761507Y-56990237D01*
X-36561424Y-56936625D01*
X-36541081Y-56929221D01*
X-36353354Y-56841682D01*
X-36334594Y-56830851D01*
X-36292200Y-56801166D01*
X-36277778Y-56786100D01*
X-36281446Y-56777764D01*
X-36982659Y-56076551D01*
X-37000000Y-56064964D01*
X-37017341Y-56076551D01*
X-37710548Y-56769758D01*
X-37722135Y-56787099D01*
X-41112195Y-56787099D01*
X-41092938Y-56773363D01*
X-40981505Y-56662318D01*
X-40937052Y-56618020D01*
X-40937051Y-56618019D01*
X-40929810Y-56610803D01*
X-40899521Y-56568652D01*
X-40831133Y-56473479D01*
X-40795423Y-56423783D01*
X-40788455Y-56409686D01*
X-40697911Y-56226482D01*
X-40693385Y-56217325D01*
X-40626437Y-55996975D01*
X-40603747Y-55824623D01*
X-40597242Y-55775214D01*
X-40597242Y-55775209D01*
X-40596378Y-55768649D01*
X-40595265Y-55723136D01*
X-40594964Y-55710824D01*
X-38312049Y-55710824D01*
X-38293996Y-55917176D01*
X-38290237Y-55938493D01*
X-38236625Y-56138576D01*
X-38229221Y-56158919D01*
X-38141682Y-56346646D01*
X-38130851Y-56365406D01*
X-38101166Y-56407800D01*
X-38086100Y-56422222D01*
X-38077764Y-56418554D01*
X-37376551Y-55717341D01*
X-37364964Y-55700000D01*
X-36635036Y-55700000D01*
X-36623449Y-55717341D01*
X-35930242Y-56410548D01*
X-35912901Y-56422135D01*
X-35905329Y-56417075D01*
X-35869149Y-56365406D01*
X-35858318Y-56346646D01*
X-35770779Y-56158919D01*
X-35763375Y-56138576D01*
X-35709763Y-55938493D01*
X-35706004Y-55917176D01*
X-35687951Y-55710824D01*
X-35687951Y-55689176D01*
X-35706004Y-55482824D01*
X-35709763Y-55461507D01*
X-35763375Y-55261424D01*
X-35770779Y-55241081D01*
X-35858318Y-55053354D01*
X-35869149Y-55034594D01*
X-35898834Y-54992200D01*
X-35913900Y-54977778D01*
X-35922236Y-54981446D01*
X-36623449Y-55682659D01*
X-36635036Y-55700000D01*
X-37364964Y-55700000D01*
X-37376551Y-55682659D01*
X-38069758Y-54989452D01*
X-38087099Y-54977865D01*
X-38094671Y-54982925D01*
X-38130851Y-55034594D01*
X-38141682Y-55053354D01*
X-38229221Y-55241081D01*
X-38236625Y-55261424D01*
X-38290237Y-55461507D01*
X-38293996Y-55482824D01*
X-38312049Y-55689176D01*
X-38312049Y-55710824D01*
X-40594964Y-55710824D01*
X-40594862Y-55706626D01*
X-40594700Y-55700000D01*
X-40613570Y-55470478D01*
X-40621078Y-55440584D01*
X-40667183Y-55257036D01*
X-40667184Y-55257033D01*
X-40669674Y-55247120D01*
X-40710791Y-55152556D01*
X-40757429Y-55045295D01*
X-40757431Y-55045291D01*
X-40761504Y-55035924D01*
X-40859565Y-54884345D01*
X-40895409Y-54794043D01*
X-40899500Y-54749094D01*
X-40899500Y-54613900D01*
X-37722222Y-54613900D01*
X-37718554Y-54622236D01*
X-37017341Y-55323449D01*
X-37000000Y-55335036D01*
X-36982659Y-55323449D01*
X-36289452Y-54630242D01*
X-36277865Y-54612901D01*
X-36282925Y-54605329D01*
X-36334594Y-54569149D01*
X-36353354Y-54558318D01*
X-36541081Y-54470779D01*
X-36561424Y-54463375D01*
X-36761507Y-54409763D01*
X-36782824Y-54406004D01*
X-36989176Y-54387951D01*
X-37010824Y-54387951D01*
X-37217176Y-54406004D01*
X-37238493Y-54409763D01*
X-37438576Y-54463375D01*
X-37458919Y-54470779D01*
X-37646646Y-54558318D01*
X-37665406Y-54569149D01*
X-37707800Y-54598834D01*
X-37722222Y-54613900D01*
X-40899500Y-54613900D01*
X-40899500Y-51206548D01*
X-40880546Y-51111260D01*
X-40826570Y-51030478D01*
X-40745788Y-50976502D01*
X-40650500Y-50957548D01*
X-40555212Y-50976502D01*
X-40474430Y-51030478D01*
X-40462296Y-51043513D01*
X-40323237Y-51204048D01*
X-40146047Y-51351154D01*
X-39947210Y-51467345D01*
X-39823465Y-51514599D01*
X-39797442Y-51524536D01*
X-39732066Y-51549501D01*
X-39506393Y-51595414D01*
X-39396735Y-51599435D01*
X-39286463Y-51603479D01*
X-39286457Y-51603479D01*
X-39276251Y-51603853D01*
X-39266120Y-51602555D01*
X-39266115Y-51602555D01*
X-39129422Y-51585044D01*
X-39047822Y-51574591D01*
X-39038038Y-51571656D01*
X-39038035Y-51571655D01*
X-38837028Y-51511350D01*
X-38837026Y-51511349D01*
X-38827239Y-51508413D01*
X-38818064Y-51503918D01*
X-38818061Y-51503917D01*
X-38637230Y-51415328D01*
X-38620426Y-51407096D01*
X-38535870Y-51346783D01*
X-38447292Y-51306882D01*
X-38391279Y-51300500D01*
X-32249125Y-51300500D01*
X-32153837Y-51319454D01*
X-32073055Y-51373430D01*
X-32051583Y-51397915D01*
X-32028282Y-51428282D01*
X-32015328Y-51438222D01*
X-31915792Y-51514599D01*
X-31915789Y-51514601D01*
X-31902841Y-51524536D01*
X-31887761Y-51530782D01*
X-31887760Y-51530783D01*
X-31851368Y-51545857D01*
X-31756762Y-51585044D01*
X-31740585Y-51587174D01*
X-31740584Y-51587174D01*
X-31707073Y-51591586D01*
X-31639361Y-51600500D01*
X-30800103Y-51600500D01*
X-29960640Y-51600499D01*
X-29952559Y-51599435D01*
X-29952556Y-51599435D01*
X-29906531Y-51593376D01*
X-29843238Y-51585044D01*
X-29762347Y-51551538D01*
X-29712240Y-51530783D01*
X-29712239Y-51530782D01*
X-29697159Y-51524536D01*
X-29684211Y-51514601D01*
X-29684208Y-51514599D01*
X-29584672Y-51438222D01*
X-29571718Y-51428282D01*
X-29548420Y-51397920D01*
X-29485401Y-51315792D01*
X-29485399Y-51315789D01*
X-29475464Y-51302841D01*
X-29468943Y-51287099D01*
X-28022135Y-51287099D01*
X-28017075Y-51294671D01*
X-27965406Y-51330851D01*
X-27946646Y-51341682D01*
X-27758919Y-51429221D01*
X-27738576Y-51436625D01*
X-27538493Y-51490237D01*
X-27517176Y-51493996D01*
X-27310824Y-51512049D01*
X-27289176Y-51512049D01*
X-27082824Y-51493996D01*
X-27061507Y-51490237D01*
X-26861424Y-51436625D01*
X-26841081Y-51429221D01*
X-26653354Y-51341682D01*
X-26634594Y-51330851D01*
X-26592200Y-51301166D01*
X-26577778Y-51286100D01*
X-26581446Y-51277764D01*
X-27282659Y-50576551D01*
X-27300000Y-50564964D01*
X-27317341Y-50576551D01*
X-28010548Y-51269758D01*
X-28022135Y-51287099D01*
X-29468943Y-51287099D01*
X-29468529Y-51286100D01*
X-29434543Y-51204048D01*
X-29414956Y-51156762D01*
X-29399500Y-51039361D01*
X-29399500Y-50210824D01*
X-28612049Y-50210824D01*
X-28593996Y-50417176D01*
X-28590237Y-50438493D01*
X-28536625Y-50638576D01*
X-28529221Y-50658919D01*
X-28441682Y-50846646D01*
X-28430851Y-50865406D01*
X-28401166Y-50907800D01*
X-28386100Y-50922222D01*
X-28377764Y-50918554D01*
X-27676551Y-50217341D01*
X-27664964Y-50200000D01*
X-26935036Y-50200000D01*
X-26923449Y-50217341D01*
X-26230242Y-50910548D01*
X-26212901Y-50922135D01*
X-26205329Y-50917075D01*
X-26169149Y-50865406D01*
X-26158318Y-50846646D01*
X-26070779Y-50658919D01*
X-26063375Y-50638576D01*
X-26009763Y-50438493D01*
X-26006004Y-50417176D01*
X-25987951Y-50210824D01*
X-25987951Y-50189176D01*
X-26006004Y-49982824D01*
X-26009763Y-49961507D01*
X-26063375Y-49761424D01*
X-26070779Y-49741081D01*
X-26158318Y-49553354D01*
X-26169149Y-49534594D01*
X-26198834Y-49492200D01*
X-26213900Y-49477778D01*
X-26222236Y-49481446D01*
X-26923449Y-50182659D01*
X-26935036Y-50200000D01*
X-27664964Y-50200000D01*
X-27676551Y-50182659D01*
X-28369758Y-49489452D01*
X-28387099Y-49477865D01*
X-28394671Y-49482925D01*
X-28430851Y-49534594D01*
X-28441682Y-49553354D01*
X-28529221Y-49741081D01*
X-28536625Y-49761424D01*
X-28590237Y-49961507D01*
X-28593996Y-49982824D01*
X-28612049Y-50189176D01*
X-28612049Y-50210824D01*
X-29399500Y-50210824D01*
X-29399501Y-49360640D01*
X-29414956Y-49243238D01*
X-29458062Y-49139170D01*
X-29468529Y-49113900D01*
X-28022222Y-49113900D01*
X-28018554Y-49122236D01*
X-27317341Y-49823449D01*
X-27300000Y-49835036D01*
X-27282659Y-49823449D01*
X-26589452Y-49130242D01*
X-26577865Y-49112901D01*
X-26582925Y-49105329D01*
X-26634594Y-49069149D01*
X-26653354Y-49058318D01*
X-26841081Y-48970779D01*
X-26861424Y-48963375D01*
X-27061507Y-48909763D01*
X-27082824Y-48906004D01*
X-27289176Y-48887951D01*
X-27310824Y-48887951D01*
X-27517176Y-48906004D01*
X-27538493Y-48909763D01*
X-27738576Y-48963375D01*
X-27758919Y-48970779D01*
X-27946646Y-49058318D01*
X-27965406Y-49069149D01*
X-28007800Y-49098834D01*
X-28022222Y-49113900D01*
X-29468529Y-49113900D01*
X-29469217Y-49112240D01*
X-29469218Y-49112239D01*
X-29475464Y-49097159D01*
X-29485399Y-49084211D01*
X-29485401Y-49084208D01*
X-29561778Y-48984672D01*
X-29561780Y-48984670D01*
X-29571718Y-48971718D01*
X-29605418Y-48945859D01*
X-29684208Y-48885401D01*
X-29684211Y-48885399D01*
X-29697159Y-48875464D01*
X-29712239Y-48869218D01*
X-29712240Y-48869217D01*
X-29762595Y-48848360D01*
X-29843238Y-48814956D01*
X-29859415Y-48812826D01*
X-29859416Y-48812826D01*
X-29892927Y-48808414D01*
X-29960639Y-48799500D01*
X-30799897Y-48799500D01*
X-31639360Y-48799501D01*
X-31647441Y-48800565D01*
X-31647444Y-48800565D01*
X-31690159Y-48806188D01*
X-31756762Y-48814956D01*
X-31771841Y-48821202D01*
X-31887760Y-48869217D01*
X-31887761Y-48869218D01*
X-31902841Y-48875464D01*
X-31915789Y-48885399D01*
X-31915792Y-48885401D01*
X-31994582Y-48945859D01*
X-32028282Y-48971718D01*
X-32051581Y-49002081D01*
X-32124623Y-49066139D01*
X-32216622Y-49097370D01*
X-32249125Y-49099500D01*
X-37750500Y-49099500D01*
X-37845788Y-49080546D01*
X-37926570Y-49026570D01*
X-37980546Y-48945788D01*
X-37999500Y-48850500D01*
X-37999500Y-43862469D01*
X-37999055Y-43850326D01*
X-37997463Y-43840966D01*
X-37999441Y-43750315D01*
X-37999500Y-43744883D01*
X-37999500Y-43707531D01*
X-38000062Y-43701641D01*
X-38000344Y-43695718D01*
X-38000295Y-43695716D01*
X-38000833Y-43686521D01*
X-38001786Y-43642865D01*
X-38002044Y-43631020D01*
X-38007518Y-43605593D01*
X-38011969Y-43576843D01*
X-38013291Y-43562988D01*
X-38014439Y-43550954D01*
X-38030065Y-43497691D01*
X-38034558Y-43480001D01*
X-38043748Y-43437314D01*
X-38046242Y-43425729D01*
X-38051169Y-43414150D01*
X-38056425Y-43401796D01*
X-38066230Y-43374412D01*
X-38070216Y-43360827D01*
X-38073553Y-43349451D01*
X-38098976Y-43300090D01*
X-38106716Y-43283604D01*
X-38128462Y-43232498D01*
X-38142989Y-43210920D01*
X-38157803Y-43185870D01*
X-38164277Y-43173300D01*
X-38169705Y-43162761D01*
X-38179335Y-43150502D01*
X-38203997Y-43119105D01*
X-38214734Y-43104353D01*
X-38240727Y-43065744D01*
X-38240728Y-43065743D01*
X-38245738Y-43058301D01*
X-38249452Y-43054206D01*
X-38264670Y-43038988D01*
X-38284413Y-43016730D01*
X-38292101Y-43006942D01*
X-38292108Y-43006934D01*
X-38299424Y-42997621D01*
X-38342777Y-42960001D01*
X-38355652Y-42948006D01*
X-39326232Y-41977426D01*
X-39380208Y-41896644D01*
X-39393414Y-41850439D01*
X-39393570Y-41850478D01*
X-39394787Y-41845633D01*
X-39449674Y-41627120D01*
X-39541504Y-41415924D01*
X-39639565Y-41264345D01*
X-39675409Y-41174043D01*
X-39679500Y-41129094D01*
X-39679500Y-40488806D01*
X-39660546Y-40393518D01*
X-39632712Y-40343509D01*
X-39575423Y-40263783D01*
X-39473385Y-40057325D01*
X-39414555Y-39863695D01*
X-39409409Y-39846758D01*
X-39409408Y-39846754D01*
X-39406437Y-39836975D01*
X-39400156Y-39789266D01*
X-39368926Y-39697267D01*
X-39329356Y-39645698D01*
X-38394277Y-38710619D01*
X-38385385Y-38702357D01*
X-38377640Y-38696863D01*
X-38351883Y-38669957D01*
X-38327827Y-38644828D01*
X-38248242Y-38589102D01*
X-38153390Y-38568074D01*
X-38057711Y-38584945D01*
X-37975772Y-38637147D01*
X-37938424Y-38682494D01*
X-37935720Y-38686706D01*
X-37930295Y-38697239D01*
X-37922977Y-38706555D01*
X-37896004Y-38740894D01*
X-37885269Y-38755642D01*
X-37854261Y-38801699D01*
X-37850548Y-38805794D01*
X-37835330Y-38821012D01*
X-37815587Y-38843270D01*
X-37807899Y-38853058D01*
X-37807892Y-38853066D01*
X-37800576Y-38862379D01*
X-37791629Y-38870143D01*
X-37791627Y-38870145D01*
X-37757223Y-38899999D01*
X-37744348Y-38911994D01*
X-35950619Y-40705723D01*
X-35942357Y-40714615D01*
X-35936863Y-40722360D01*
X-35872070Y-40784386D01*
X-35871400Y-40785027D01*
X-35867516Y-40788826D01*
X-35841070Y-40815272D01*
X-35836504Y-40819042D01*
X-35832121Y-40823027D01*
X-35832155Y-40823064D01*
X-35825262Y-40829195D01*
X-35785169Y-40867575D01*
X-35763326Y-40881679D01*
X-35739849Y-40898862D01*
X-35719790Y-40915426D01*
X-35709392Y-40921107D01*
X-35671068Y-40942046D01*
X-35655391Y-40951373D01*
X-35635067Y-40964495D01*
X-35608754Y-40981485D01*
X-35597767Y-40985913D01*
X-35597765Y-40985914D01*
X-35584631Y-40991207D01*
X-35558323Y-41003643D01*
X-35535505Y-41016110D01*
X-35524216Y-41019724D01*
X-35524208Y-41019727D01*
X-35482628Y-41033036D01*
X-35465485Y-41039224D01*
X-35413981Y-41059981D01*
X-35397099Y-41063278D01*
X-35388462Y-41064965D01*
X-35360279Y-41072201D01*
X-35346798Y-41076516D01*
X-35346794Y-41076517D01*
X-35335506Y-41080130D01*
X-35287715Y-41085871D01*
X-35280389Y-41086751D01*
X-35262362Y-41089590D01*
X-35216678Y-41098512D01*
X-35216671Y-41098513D01*
X-35207878Y-41100230D01*
X-35202357Y-41100500D01*
X-35180840Y-41100500D01*
X-35151142Y-41102277D01*
X-35127009Y-41105176D01*
X-35115186Y-41104339D01*
X-35115184Y-41104339D01*
X-35069751Y-41101122D01*
X-35052165Y-41100500D01*
X-16615773Y-41100500D01*
X-16520485Y-41119454D01*
X-16439703Y-41173430D01*
X-16385727Y-41254212D01*
X-16385160Y-41255884D01*
X-16385044Y-41256762D01*
X-16384035Y-41259197D01*
X-16384034Y-41259201D01*
X-16335067Y-41377417D01*
X-16324536Y-41402841D01*
X-16314601Y-41415789D01*
X-16314599Y-41415792D01*
X-16238222Y-41515328D01*
X-16228282Y-41528282D01*
X-16215328Y-41538222D01*
X-16115792Y-41614599D01*
X-16115789Y-41614601D01*
X-16102841Y-41624536D01*
X-16087761Y-41630782D01*
X-16087760Y-41630783D01*
X-15956762Y-41685044D01*
X-15958195Y-41688505D01*
X-15897938Y-41718213D01*
X-15833872Y-41791252D01*
X-15802633Y-41883248D01*
X-15800500Y-41915773D01*
X-15800500Y-54384227D01*
X-15819454Y-54479515D01*
X-15873430Y-54560297D01*
X-15954212Y-54614273D01*
X-15955884Y-54614840D01*
X-15956762Y-54614956D01*
X-15959197Y-54615965D01*
X-15959201Y-54615966D01*
X-16087760Y-54669217D01*
X-16087761Y-54669218D01*
X-16102841Y-54675464D01*
X-16115789Y-54685399D01*
X-16115792Y-54685401D01*
X-16198798Y-54749094D01*
X-16228282Y-54771718D01*
X-16238222Y-54784672D01*
X-16314599Y-54884208D01*
X-16314601Y-54884211D01*
X-16324536Y-54897159D01*
X-16385044Y-55043238D01*
X-16387174Y-55059415D01*
X-16387174Y-55059416D01*
X-16391586Y-55092927D01*
X-16400500Y-55160639D01*
X-16400499Y-57439360D01*
X-16399435Y-57447441D01*
X-16399435Y-57447444D01*
X-16393812Y-57490159D01*
X-16385044Y-57556762D01*
X-16324536Y-57702841D01*
X-16314601Y-57715789D01*
X-16314599Y-57715792D01*
X-16247295Y-57803504D01*
X-16228282Y-57828282D01*
X-16215328Y-57838222D01*
X-16115792Y-57914599D01*
X-16115789Y-57914601D01*
X-16102841Y-57924536D01*
X-16087761Y-57930782D01*
X-16087760Y-57930783D01*
X-16060578Y-57942042D01*
X-15956762Y-57985044D01*
X-15940585Y-57987174D01*
X-15940584Y-57987174D01*
X-15930458Y-57988507D01*
X-15839361Y-58000500D01*
X-15745356Y-58000500D01*
X-14658983Y-58000499D01*
X-14563695Y-58019453D01*
X-14482913Y-58073429D01*
X-13789410Y-58766933D01*
X-13150612Y-59405731D01*
X-13142358Y-59414614D01*
X-13136863Y-59422360D01*
X-13071377Y-59485049D01*
X-13067539Y-59488804D01*
X-13041070Y-59515273D01*
X-13036514Y-59519036D01*
X-13032120Y-59523030D01*
X-13032153Y-59523066D01*
X-13025261Y-59529197D01*
X-12993730Y-59559380D01*
X-12985169Y-59567575D01*
X-12975220Y-59573999D01*
X-12975215Y-59574003D01*
X-12963322Y-59581682D01*
X-12939846Y-59598864D01*
X-12928929Y-59607879D01*
X-12928924Y-59607883D01*
X-12919789Y-59615426D01*
X-12909394Y-59621105D01*
X-12909390Y-59621108D01*
X-12871068Y-59642045D01*
X-12855383Y-59651377D01*
X-12830349Y-59667541D01*
X-12808754Y-59681485D01*
X-12784631Y-59691207D01*
X-12758323Y-59703643D01*
X-12735505Y-59716110D01*
X-12724216Y-59719724D01*
X-12724208Y-59719727D01*
X-12682628Y-59733036D01*
X-12665485Y-59739224D01*
X-12613981Y-59759981D01*
X-12602341Y-59762254D01*
X-12602342Y-59762254D01*
X-12588462Y-59764965D01*
X-12560279Y-59772201D01*
X-12546798Y-59776516D01*
X-12546794Y-59776517D01*
X-12535506Y-59780130D01*
X-12487715Y-59785871D01*
X-12480389Y-59786751D01*
X-12462362Y-59789590D01*
X-12416678Y-59798512D01*
X-12416671Y-59798513D01*
X-12407878Y-59800230D01*
X-12402357Y-59800500D01*
X-12380840Y-59800500D01*
X-12351142Y-59802277D01*
X-12327009Y-59805176D01*
X-12315186Y-59804339D01*
X-12315183Y-59804339D01*
X-12269748Y-59801122D01*
X-12252163Y-59800500D01*
X-7913512Y-59800500D01*
X-7818224Y-59819454D01*
X-7754459Y-59857920D01*
X-7671466Y-59926822D01*
X-7671461Y-59926825D01*
X-7663601Y-59933351D01*
X-7654785Y-59938503D01*
X-7654783Y-59938504D01*
X-7471188Y-60045788D01*
X-7450567Y-60057838D01*
X-7220061Y-60145859D01*
X-7210050Y-60147896D01*
X-7210046Y-60147897D01*
X-6988287Y-60193015D01*
X-6988285Y-60193015D01*
X-6978274Y-60195052D01*
X-6875647Y-60198815D01*
X-6741913Y-60203719D01*
X-6741907Y-60203719D01*
X-6731700Y-60204093D01*
X-6721569Y-60202795D01*
X-6721564Y-60202795D01*
X-6586330Y-60185471D01*
X-6486959Y-60172741D01*
X-6250626Y-60101838D01*
X-6029046Y-59993287D01*
X-5952243Y-59938504D01*
X-5836488Y-59855937D01*
X-5836484Y-59855934D01*
X-5828171Y-59850004D01*
X-5653395Y-59675837D01*
X-5509412Y-59475463D01*
X-5400089Y-59254264D01*
X-5328361Y-59018180D01*
X-5296155Y-58773550D01*
X-5294357Y-58700000D01*
X-5314575Y-58454089D01*
X-5374684Y-58214783D01*
X-5473072Y-57988507D01*
X-5607095Y-57781339D01*
X-5773154Y-57598842D01*
X-5966790Y-57445918D01*
X-5978669Y-57439360D01*
X-6173857Y-57331611D01*
X-6173856Y-57331611D01*
X-6182802Y-57326673D01*
X-6192428Y-57323264D01*
X-6192433Y-57323262D01*
X-6405760Y-57247719D01*
X-6405762Y-57247718D01*
X-6415390Y-57244309D01*
X-6658306Y-57201039D01*
X-6668526Y-57200914D01*
X-6668528Y-57200914D01*
X-6808821Y-57199200D01*
X-6905028Y-57198025D01*
X-7094174Y-57226968D01*
X-7138834Y-57233802D01*
X-7138835Y-57233802D01*
X-7148930Y-57235347D01*
X-7158641Y-57238521D01*
X-7373750Y-57308829D01*
X-7373753Y-57308830D01*
X-7383460Y-57312003D01*
X-7602321Y-57425935D01*
X-7610496Y-57432073D01*
X-7767057Y-57549622D01*
X-7854637Y-57591677D01*
X-7916561Y-57599500D01*
X-11741018Y-57599500D01*
X-11836306Y-57580546D01*
X-11917088Y-57526570D01*
X-12926570Y-56517088D01*
X-12980546Y-56436306D01*
X-12999500Y-56341018D01*
X-12999501Y-55168793D01*
X-12999501Y-55160640D01*
X-13014956Y-55043238D01*
X-13037235Y-54989452D01*
X-13069217Y-54912240D01*
X-13069218Y-54912239D01*
X-13075464Y-54897159D01*
X-13085399Y-54884211D01*
X-13085401Y-54884208D01*
X-13161778Y-54784672D01*
X-13171718Y-54771718D01*
X-13201202Y-54749094D01*
X-13284208Y-54685401D01*
X-13284211Y-54685399D01*
X-13297159Y-54675464D01*
X-13312239Y-54669218D01*
X-13312240Y-54669217D01*
X-13443238Y-54614956D01*
X-13441805Y-54611495D01*
X-13502062Y-54581787D01*
X-13566128Y-54508748D01*
X-13597367Y-54416752D01*
X-13599500Y-54384227D01*
X-13599500Y-41915773D01*
X-13580546Y-41820485D01*
X-13526570Y-41739703D01*
X-13445788Y-41685727D01*
X-13444116Y-41685160D01*
X-13443238Y-41685044D01*
X-13440803Y-41684035D01*
X-13440799Y-41684034D01*
X-13312240Y-41630783D01*
X-13312239Y-41630782D01*
X-13297159Y-41624536D01*
X-13284211Y-41614601D01*
X-13284208Y-41614599D01*
X-13184672Y-41538222D01*
X-13171718Y-41528282D01*
X-13161778Y-41515328D01*
X-13085401Y-41415792D01*
X-13085399Y-41415789D01*
X-13075464Y-41402841D01*
X-13061941Y-41370195D01*
X-13021201Y-41271838D01*
X-13014956Y-41256762D01*
X-12999500Y-41139361D01*
X-12999501Y-39958983D01*
X-12980547Y-39863695D01*
X-12926571Y-39782913D01*
X-9117088Y-35973430D01*
X-9036306Y-35919454D01*
X-8941018Y-35900500D01*
X-7913512Y-35900500D01*
X-7818224Y-35919454D01*
X-7754459Y-35957920D01*
X-7671466Y-36026822D01*
X-7671461Y-36026825D01*
X-7663601Y-36033351D01*
X-7654785Y-36038503D01*
X-7654783Y-36038504D01*
X-7459389Y-36152683D01*
X-7450567Y-36157838D01*
X-7220061Y-36245859D01*
X-7210050Y-36247896D01*
X-7210046Y-36247897D01*
X-6988287Y-36293015D01*
X-6988285Y-36293015D01*
X-6978274Y-36295052D01*
X-6875647Y-36298815D01*
X-6741913Y-36303719D01*
X-6741907Y-36303719D01*
X-6731700Y-36304093D01*
X-6721569Y-36302795D01*
X-6721564Y-36302795D01*
X-6586330Y-36285471D01*
X-6486959Y-36272741D01*
X-6250626Y-36201838D01*
X-6029046Y-36093287D01*
X-5945019Y-36033351D01*
X-5836488Y-35955937D01*
X-5836484Y-35955934D01*
X-5828171Y-35950004D01*
X-5653395Y-35775837D01*
X-5509412Y-35575463D01*
X-5400089Y-35354264D01*
X-5361588Y-35227545D01*
X-5331331Y-35127956D01*
X-5331331Y-35127954D01*
X-5328361Y-35118180D01*
X-5317010Y-35031965D01*
X-5297019Y-34880114D01*
X-5297019Y-34880111D01*
X-5296155Y-34873550D01*
X-5294357Y-34800000D01*
X-5295473Y-34786420D01*
X-5310800Y-34600000D01*
X-5314575Y-34554089D01*
X-5374684Y-34314783D01*
X-5473072Y-34088507D01*
X-5607095Y-33881339D01*
X-5773154Y-33698842D01*
X-5966790Y-33545918D01*
X-5987964Y-33534229D01*
X-6173857Y-33431611D01*
X-6173856Y-33431611D01*
X-6182802Y-33426673D01*
X-6192428Y-33423264D01*
X-6192433Y-33423262D01*
X-6405760Y-33347719D01*
X-6405762Y-33347718D01*
X-6415390Y-33344309D01*
X-6658306Y-33301039D01*
X-6668526Y-33300914D01*
X-6668528Y-33300914D01*
X-6808821Y-33299200D01*
X-6905028Y-33298025D01*
X-7094174Y-33326968D01*
X-7138834Y-33333802D01*
X-7138835Y-33333802D01*
X-7148930Y-33335347D01*
X-7158641Y-33338521D01*
X-7373750Y-33408829D01*
X-7373753Y-33408830D01*
X-7383460Y-33412003D01*
X-7602321Y-33525935D01*
X-7632539Y-33548623D01*
X-7767057Y-33649622D01*
X-7854637Y-33691677D01*
X-7916561Y-33699500D01*
X-9397531Y-33699500D01*
X-9409674Y-33699055D01*
X-9419034Y-33697463D01*
X-9430873Y-33697721D01*
X-9430877Y-33697721D01*
X-9509685Y-33699441D01*
X-9515117Y-33699500D01*
X-9552469Y-33699500D01*
X-9558359Y-33700062D01*
X-9564282Y-33700344D01*
X-9564284Y-33700295D01*
X-9573479Y-33700833D01*
X-9582176Y-33701023D01*
X-9628980Y-33702044D01*
X-9640562Y-33704537D01*
X-9640566Y-33704538D01*
X-9654407Y-33707518D01*
X-9683157Y-33711969D01*
X-9709046Y-33714439D01*
X-9762309Y-33730065D01*
X-9779999Y-33734558D01*
X-9822683Y-33743747D01*
X-9822686Y-33743748D01*
X-9834271Y-33746242D01*
X-9845175Y-33750882D01*
X-9845179Y-33750883D01*
X-9858193Y-33756421D01*
X-9885595Y-33766232D01*
X-9899175Y-33770216D01*
X-9899177Y-33770217D01*
X-9910549Y-33773553D01*
X-9959898Y-33798970D01*
X-9976415Y-33806725D01*
X-10027501Y-33828462D01*
X-10037331Y-33835080D01*
X-10037340Y-33835085D01*
X-10049074Y-33842985D01*
X-10074126Y-33857801D01*
X-10097239Y-33869705D01*
X-10106557Y-33877024D01*
X-10106561Y-33877027D01*
X-10140888Y-33903992D01*
X-10155645Y-33914733D01*
X-10201698Y-33945738D01*
X-10205793Y-33949451D01*
X-10221012Y-33964670D01*
X-10243270Y-33984413D01*
X-10253058Y-33992101D01*
X-10253066Y-33992108D01*
X-10262379Y-33999424D01*
X-10270143Y-34008371D01*
X-10270145Y-34008373D01*
X-10299999Y-34042777D01*
X-10311994Y-34055652D01*
X-14482912Y-38226570D01*
X-14563694Y-38280546D01*
X-14658982Y-38299500D01*
X-15745333Y-38299501D01*
X-15839360Y-38299501D01*
X-15847441Y-38300565D01*
X-15847444Y-38300565D01*
X-15890159Y-38306188D01*
X-15956762Y-38314956D01*
X-15971841Y-38321202D01*
X-16087760Y-38369217D01*
X-16087761Y-38369218D01*
X-16102841Y-38375464D01*
X-16115789Y-38385399D01*
X-16115792Y-38385401D01*
X-16164862Y-38423054D01*
X-16228282Y-38471718D01*
X-16238222Y-38484672D01*
X-16314599Y-38584208D01*
X-16314601Y-38584211D01*
X-16324536Y-38597159D01*
X-16385044Y-38743238D01*
X-16388505Y-38741805D01*
X-16418213Y-38802062D01*
X-16491252Y-38866128D01*
X-16583248Y-38897367D01*
X-16615773Y-38899500D01*
X-34541017Y-38899500D01*
X-34636305Y-38880546D01*
X-34717087Y-38826570D01*
X-35826570Y-37717088D01*
X-35880546Y-37636306D01*
X-35899500Y-37541018D01*
X-35899500Y-32647863D01*
X-23284090Y-32647863D01*
X-23274654Y-32709524D01*
X-23269932Y-32729346D01*
X-23201672Y-32938186D01*
X-23193775Y-32956973D01*
X-23092319Y-33151868D01*
X-23081462Y-33169108D01*
X-22949536Y-33344818D01*
X-22936015Y-33360046D01*
X-22777168Y-33511843D01*
X-22761320Y-33524676D01*
X-22579820Y-33648488D01*
X-22562103Y-33658552D01*
X-22362798Y-33751067D01*
X-22343697Y-33758095D01*
X-22131959Y-33816815D01*
X-22111942Y-33820633D01*
X-22078385Y-33824220D01*
X-22057614Y-33822348D01*
X-22054000Y-33810782D01*
X-22054000Y-33804000D01*
X-21546000Y-33804000D01*
X-21541931Y-33824458D01*
X-21528645Y-33827100D01*
X-21523325Y-33826663D01*
X-21503237Y-33823337D01*
X-21290134Y-33769810D01*
X-21270842Y-33763242D01*
X-21069345Y-33675630D01*
X-21051395Y-33666005D01*
X-20866905Y-33546652D01*
X-20850773Y-33534229D01*
X-20688258Y-33386352D01*
X-20674361Y-33371449D01*
X-20538181Y-33199015D01*
X-20526913Y-33182054D01*
X-20420720Y-32989687D01*
X-20412374Y-32971118D01*
X-20339027Y-32763992D01*
X-20333822Y-32744291D01*
X-20318477Y-32658147D01*
X-20318896Y-32637293D01*
X-20327319Y-32634000D01*
X-21521473Y-32634000D01*
X-21541931Y-32638069D01*
X-21546000Y-32658527D01*
X-21546000Y-33804000D01*
X-22054000Y-33804000D01*
X-22054000Y-32658527D01*
X-22058069Y-32638069D01*
X-22078527Y-32634000D01*
X-23261684Y-32634000D01*
X-23282142Y-32638069D01*
X-23284090Y-32647863D01*
X-35899500Y-32647863D01*
X-35899500Y-31802469D01*
X-35899055Y-31790326D01*
X-35897463Y-31780966D01*
X-35899441Y-31690314D01*
X-35899500Y-31684882D01*
X-35899500Y-31647531D01*
X-35900062Y-31641641D01*
X-35900344Y-31635718D01*
X-35900295Y-31635716D01*
X-35900833Y-31626521D01*
X-35901785Y-31582868D01*
X-35901786Y-31582863D01*
X-35902044Y-31571019D01*
X-35904537Y-31559438D01*
X-35904538Y-31559432D01*
X-35907519Y-31545587D01*
X-35911970Y-31516831D01*
X-35913313Y-31502759D01*
X-35914439Y-31490954D01*
X-35925071Y-31454713D01*
X-35930063Y-31437697D01*
X-35934556Y-31420009D01*
X-35943749Y-31377307D01*
X-35943750Y-31377305D01*
X-35946242Y-31365728D01*
X-35950881Y-31354826D01*
X-35950883Y-31354819D01*
X-35956426Y-31341791D01*
X-35966231Y-31314411D01*
X-35973553Y-31289451D01*
X-35978982Y-31278909D01*
X-35998972Y-31240095D01*
X-36006724Y-31223584D01*
X-36023819Y-31183409D01*
X-36023820Y-31183407D01*
X-36028462Y-31172498D01*
X-36035081Y-31162666D01*
X-36035084Y-31162661D01*
X-36042987Y-31150923D01*
X-36057801Y-31125874D01*
X-36058282Y-31124939D01*
X-36069705Y-31102761D01*
X-36103996Y-31059106D01*
X-36114731Y-31044358D01*
X-36140735Y-31005733D01*
X-36140738Y-31005729D01*
X-36145739Y-30998301D01*
X-36149452Y-30994206D01*
X-36164670Y-30978988D01*
X-36184413Y-30956730D01*
X-36192101Y-30946942D01*
X-36192108Y-30946934D01*
X-36199424Y-30937621D01*
X-36242777Y-30900001D01*
X-36255652Y-30888006D01*
X-38269380Y-28874278D01*
X-38277642Y-28865386D01*
X-38283136Y-28857641D01*
X-38312672Y-28829366D01*
X-38368396Y-28749783D01*
X-38389424Y-28654931D01*
X-38372552Y-28559252D01*
X-38320351Y-28477312D01*
X-38240766Y-28421587D01*
X-38140483Y-28400500D01*
X-23555050Y-28400500D01*
X-23459762Y-28419454D01*
X-23378980Y-28473430D01*
X-23342417Y-28528134D01*
X-23338942Y-28526128D01*
X-23330782Y-28540262D01*
X-23324536Y-28555341D01*
X-23314601Y-28568289D01*
X-23314599Y-28568292D01*
X-23283813Y-28608413D01*
X-23228282Y-28680782D01*
X-23215328Y-28690722D01*
X-23203793Y-28702257D01*
X-23205958Y-28704422D01*
X-23159357Y-28757553D01*
X-23128123Y-28849551D01*
X-23134472Y-28946498D01*
X-23159785Y-29007312D01*
X-23252602Y-29166788D01*
X-23342161Y-29400097D01*
X-23393266Y-29644724D01*
X-23393719Y-29654709D01*
X-23403955Y-29880114D01*
X-23404603Y-29894375D01*
X-23375879Y-30142627D01*
X-23307834Y-30383093D01*
X-23202218Y-30609587D01*
X-23196601Y-30617852D01*
X-23196600Y-30617854D01*
X-23094873Y-30767541D01*
X-23061749Y-30816281D01*
X-23054876Y-30823549D01*
X-22890040Y-30997858D01*
X-22890943Y-30998712D01*
X-22839072Y-31068177D01*
X-22815158Y-31162343D01*
X-22829100Y-31258492D01*
X-22878775Y-31341987D01*
X-22896239Y-31359542D01*
X-22911743Y-31373650D01*
X-22925639Y-31388551D01*
X-23061819Y-31560985D01*
X-23073087Y-31577946D01*
X-23179280Y-31770313D01*
X-23187626Y-31788882D01*
X-23260973Y-31996008D01*
X-23266178Y-32015709D01*
X-23281523Y-32101853D01*
X-23281104Y-32122707D01*
X-23272681Y-32126000D01*
X-20338316Y-32126000D01*
X-20317858Y-32121931D01*
X-20315910Y-32112137D01*
X-20325346Y-32050476D01*
X-20330068Y-32030654D01*
X-20398328Y-31821814D01*
X-20406225Y-31803027D01*
X-20507681Y-31608132D01*
X-20518538Y-31590892D01*
X-20650464Y-31415182D01*
X-20663986Y-31399953D01*
X-20695834Y-31369518D01*
X-20751629Y-31289982D01*
X-20772740Y-31195148D01*
X-20755952Y-31099455D01*
X-20703822Y-31017470D01*
X-20624286Y-30961675D01*
X-20523804Y-30940500D01*
X-16107902Y-30940500D01*
X-16012614Y-30959454D01*
X-15932602Y-31012664D01*
X-15877825Y-31066965D01*
X-15807483Y-31136696D01*
X-15800031Y-31142160D01*
X-15616205Y-31276946D01*
X-15603654Y-31286149D01*
X-15595490Y-31290445D01*
X-15595484Y-31290448D01*
X-15477369Y-31352591D01*
X-15379974Y-31403833D01*
X-15141356Y-31487162D01*
X-14893042Y-31534306D01*
X-14883820Y-31534668D01*
X-14883814Y-31534669D01*
X-14766764Y-31539268D01*
X-14640487Y-31544229D01*
X-14631312Y-31543224D01*
X-14631307Y-31543224D01*
X-14398423Y-31517719D01*
X-14398419Y-31517718D01*
X-14389240Y-31516713D01*
X-14144819Y-31452363D01*
X-14090270Y-31428927D01*
X-14022832Y-31399953D01*
X-13912595Y-31352591D01*
X-13904743Y-31347732D01*
X-13904739Y-31347730D01*
X-13764002Y-31260639D01*
X-13697669Y-31219591D01*
X-13504762Y-31056283D01*
X-13498674Y-31049341D01*
X-13498669Y-31049336D01*
X-13483679Y-31032242D01*
X-13477611Y-31025323D01*
X-13400534Y-30966179D01*
X-13306689Y-30941033D01*
X-13290403Y-30940500D01*
X-7865332Y-30940500D01*
X-7770044Y-30959454D01*
X-7706279Y-30997919D01*
X-7677456Y-31021848D01*
X-7663601Y-31033351D01*
X-7654788Y-31038501D01*
X-7654785Y-31038503D01*
X-7464586Y-31149646D01*
X-7450567Y-31157838D01*
X-7220061Y-31245859D01*
X-7210050Y-31247896D01*
X-7210046Y-31247897D01*
X-6988287Y-31293015D01*
X-6988285Y-31293015D01*
X-6978274Y-31295052D01*
X-6875647Y-31298815D01*
X-6741913Y-31303719D01*
X-6741907Y-31303719D01*
X-6731700Y-31304093D01*
X-6721569Y-31302795D01*
X-6721564Y-31302795D01*
X-6580532Y-31284728D01*
X-6486959Y-31272741D01*
X-6473789Y-31268790D01*
X-6386370Y-31242563D01*
X-6250626Y-31201838D01*
X-6029046Y-31093287D01*
X-5934646Y-31025952D01*
X-5836488Y-30955937D01*
X-5836484Y-30955934D01*
X-5828171Y-30950004D01*
X-5653395Y-30775837D01*
X-5509412Y-30575463D01*
X-5400089Y-30354264D01*
X-5335788Y-30142627D01*
X-5331331Y-30127956D01*
X-5331331Y-30127954D01*
X-5328361Y-30118180D01*
X-5298896Y-29894375D01*
X-5297019Y-29880114D01*
X-5297019Y-29880111D01*
X-5296155Y-29873550D01*
X-5294357Y-29800000D01*
X-5314575Y-29554089D01*
X-5374684Y-29314783D01*
X-5473072Y-29088507D01*
X-5607095Y-28881339D01*
X-5773154Y-28698842D01*
X-5966790Y-28545918D01*
X-5999005Y-28528134D01*
X-6150284Y-28444624D01*
X-6182802Y-28426673D01*
X-6192428Y-28423264D01*
X-6192433Y-28423262D01*
X-6405760Y-28347719D01*
X-6405762Y-28347718D01*
X-6415390Y-28344309D01*
X-6658306Y-28301039D01*
X-6668526Y-28300914D01*
X-6668528Y-28300914D01*
X-6808821Y-28299200D01*
X-6905028Y-28298025D01*
X-7086468Y-28325789D01*
X-7138834Y-28333802D01*
X-7138835Y-28333802D01*
X-7148930Y-28335347D01*
X-7158641Y-28338521D01*
X-7373750Y-28408829D01*
X-7373753Y-28408830D01*
X-7383460Y-28412003D01*
X-7602321Y-28525935D01*
X-7610496Y-28532073D01*
X-7791305Y-28667828D01*
X-7799636Y-28674083D01*
X-7803174Y-28677785D01*
X-7885165Y-28725792D01*
X-7966642Y-28739500D01*
X-13289221Y-28739500D01*
X-13384509Y-28720546D01*
X-13459832Y-28671864D01*
X-13543724Y-28592946D01*
X-13626840Y-28514758D01*
X-13634419Y-28509500D01*
X-13634423Y-28509497D01*
X-13826917Y-28375959D01*
X-13826919Y-28375958D01*
X-13834511Y-28370691D01*
X-13842800Y-28366603D01*
X-13842804Y-28366601D01*
X-14052909Y-28262989D01*
X-14052911Y-28262988D01*
X-14061195Y-28258903D01*
X-14154847Y-28228925D01*
X-14293114Y-28184665D01*
X-14293121Y-28184663D01*
X-14301913Y-28181849D01*
X-14423864Y-28161988D01*
X-14542261Y-28142705D01*
X-14542267Y-28142704D01*
X-14551376Y-28141221D01*
X-14560606Y-28141100D01*
X-14560608Y-28141100D01*
X-14734299Y-28138827D01*
X-14804104Y-28137913D01*
X-14813259Y-28139159D01*
X-14813260Y-28139159D01*
X-15045393Y-28170750D01*
X-15045399Y-28170751D01*
X-15054545Y-28171996D01*
X-15297197Y-28242723D01*
X-15305576Y-28246586D01*
X-15305582Y-28246588D01*
X-15518340Y-28344671D01*
X-15526730Y-28348539D01*
X-15568552Y-28375959D01*
X-15726480Y-28479501D01*
X-15738101Y-28487120D01*
X-15744990Y-28493269D01*
X-15744993Y-28493271D01*
X-15919780Y-28649274D01*
X-15926667Y-28655421D01*
X-15932569Y-28662517D01*
X-15933490Y-28663471D01*
X-16013317Y-28718849D01*
X-16112604Y-28739500D01*
X-19981145Y-28739500D01*
X-20076433Y-28720546D01*
X-20157215Y-28666570D01*
X-20211191Y-28585788D01*
X-20230145Y-28490500D01*
X-20221661Y-28426054D01*
X-20221202Y-28424342D01*
X-20214956Y-28409262D01*
X-20199500Y-28291861D01*
X-20199501Y-26308140D01*
X-20214956Y-26190738D01*
X-20259968Y-26082069D01*
X-20269217Y-26059740D01*
X-20269218Y-26059739D01*
X-20275464Y-26044659D01*
X-20285399Y-26031711D01*
X-20285401Y-26031708D01*
X-20361778Y-25932172D01*
X-20371718Y-25919218D01*
X-20384672Y-25909278D01*
X-20484208Y-25832901D01*
X-20484211Y-25832899D01*
X-20497159Y-25822964D01*
X-20512239Y-25816718D01*
X-20512240Y-25816717D01*
X-20599565Y-25780546D01*
X-20643238Y-25762456D01*
X-20659415Y-25760326D01*
X-20659416Y-25760326D01*
X-20705486Y-25754261D01*
X-20760639Y-25747000D01*
X-21799872Y-25747000D01*
X-22839360Y-25747001D01*
X-22847441Y-25748065D01*
X-22847444Y-25748065D01*
X-22890159Y-25753688D01*
X-22956762Y-25762456D01*
X-22971841Y-25768702D01*
X-23087760Y-25816717D01*
X-23087761Y-25816718D01*
X-23102841Y-25822964D01*
X-23115789Y-25832899D01*
X-23115792Y-25832901D01*
X-23215328Y-25909278D01*
X-23228282Y-25919218D01*
X-23238222Y-25932172D01*
X-23314599Y-26031708D01*
X-23314601Y-26031711D01*
X-23324536Y-26044659D01*
X-23330782Y-26059738D01*
X-23338942Y-26073872D01*
X-23342421Y-26071864D01*
X-23379027Y-26126617D01*
X-23459823Y-26180571D01*
X-23555050Y-26199500D01*
X-38247212Y-26199500D01*
X-38342500Y-26180546D01*
X-38401535Y-26145910D01*
X-38422319Y-26129496D01*
X-38623935Y-26018198D01*
X-38633561Y-26014789D01*
X-38633566Y-26014787D01*
X-38831392Y-25944733D01*
X-38831394Y-25944732D01*
X-38841022Y-25941323D01*
X-39067750Y-25900937D01*
X-39077972Y-25900812D01*
X-39077973Y-25900812D01*
X-39222906Y-25899041D01*
X-39298029Y-25898123D01*
X-39308130Y-25899669D01*
X-39308135Y-25899669D01*
X-39465812Y-25923798D01*
X-39525675Y-25932958D01*
X-39535389Y-25936133D01*
X-39535393Y-25936134D01*
X-39685751Y-25985279D01*
X-39744576Y-26004506D01*
X-39948851Y-26110845D01*
X-40133016Y-26249119D01*
X-40140075Y-26256506D01*
X-40285055Y-26408219D01*
X-40285059Y-26408224D01*
X-40292123Y-26415616D01*
X-40333984Y-26476982D01*
X-40404878Y-26580909D01*
X-40421901Y-26605863D01*
X-40453001Y-26672862D01*
X-40502877Y-26780312D01*
X-40518864Y-26814752D01*
X-40580408Y-27036673D01*
X-40593081Y-27155249D01*
X-40603601Y-27253692D01*
X-40604881Y-27265665D01*
X-40591624Y-27495580D01*
X-40589377Y-27505548D01*
X-40589377Y-27505552D01*
X-40566140Y-27608659D01*
X-40540994Y-27720242D01*
X-40537150Y-27729708D01*
X-40537149Y-27729712D01*
X-40514022Y-27786667D01*
X-40454351Y-27933618D01*
X-40352146Y-28100401D01*
X-40318520Y-28191548D01*
X-40322334Y-28288628D01*
X-40363008Y-28376859D01*
X-40434351Y-28442808D01*
X-40525501Y-28476435D01*
X-40564454Y-28479501D01*
X-40930501Y-28479501D01*
X-41025789Y-28460547D01*
X-41106571Y-28406571D01*
X-41160547Y-28325789D01*
X-41179501Y-28230501D01*
X-41179501Y-26892467D01*
X-41179056Y-26880324D01*
X-41177464Y-26870964D01*
X-41178475Y-26824597D01*
X-41179442Y-26780312D01*
X-41179501Y-26774880D01*
X-41179501Y-26737529D01*
X-41180063Y-26731639D01*
X-41180345Y-26725716D01*
X-41180296Y-26725714D01*
X-41180834Y-26716519D01*
X-41181787Y-26672862D01*
X-41182045Y-26661017D01*
X-41187520Y-26635588D01*
X-41191970Y-26606840D01*
X-41193315Y-26592747D01*
X-41194440Y-26580952D01*
X-41210068Y-26527680D01*
X-41214553Y-26510022D01*
X-41226243Y-26455727D01*
X-41236426Y-26431794D01*
X-41246231Y-26404410D01*
X-41250217Y-26390825D01*
X-41253554Y-26379449D01*
X-41278977Y-26330088D01*
X-41286717Y-26313602D01*
X-41308463Y-26262496D01*
X-41322988Y-26240921D01*
X-41337802Y-26215872D01*
X-41344277Y-26203300D01*
X-41349706Y-26192759D01*
X-41383997Y-26149104D01*
X-41394732Y-26134356D01*
X-41420736Y-26095731D01*
X-41420739Y-26095727D01*
X-41425740Y-26088299D01*
X-41429453Y-26084204D01*
X-41444671Y-26068986D01*
X-41464414Y-26046728D01*
X-41472102Y-26036940D01*
X-41472109Y-26036932D01*
X-41479425Y-26027619D01*
X-41490281Y-26018198D01*
X-41522778Y-25989999D01*
X-41535653Y-25978004D01*
X-44226558Y-23287099D01*
X-39922135Y-23287099D01*
X-39917075Y-23294671D01*
X-39865406Y-23330851D01*
X-39846646Y-23341682D01*
X-39658919Y-23429221D01*
X-39638576Y-23436625D01*
X-39438493Y-23490237D01*
X-39417176Y-23493996D01*
X-39210824Y-23512049D01*
X-39189176Y-23512049D01*
X-38982824Y-23493996D01*
X-38961507Y-23490237D01*
X-38761424Y-23436625D01*
X-38741081Y-23429221D01*
X-38553354Y-23341682D01*
X-38534594Y-23330851D01*
X-38492200Y-23301166D01*
X-38477778Y-23286100D01*
X-38481446Y-23277764D01*
X-39182659Y-22576551D01*
X-39200000Y-22564964D01*
X-39217341Y-22576551D01*
X-39910548Y-23269758D01*
X-39922135Y-23287099D01*
X-44226558Y-23287099D01*
X-45302833Y-22210824D01*
X-40512049Y-22210824D01*
X-40493996Y-22417176D01*
X-40490237Y-22438493D01*
X-40436625Y-22638576D01*
X-40429221Y-22658919D01*
X-40341682Y-22846646D01*
X-40330851Y-22865406D01*
X-40301166Y-22907800D01*
X-40286100Y-22922222D01*
X-40277764Y-22918554D01*
X-39576551Y-22217341D01*
X-39564964Y-22200000D01*
X-38835036Y-22200000D01*
X-38823449Y-22217341D01*
X-38130242Y-22910548D01*
X-38112901Y-22922135D01*
X-38105329Y-22917075D01*
X-38069149Y-22865406D01*
X-38058318Y-22846646D01*
X-37970779Y-22658919D01*
X-37963375Y-22638576D01*
X-37909763Y-22438493D01*
X-37906004Y-22417176D01*
X-37887951Y-22210824D01*
X-37887951Y-22189176D01*
X-37906004Y-21982824D01*
X-37909763Y-21961507D01*
X-37963375Y-21761424D01*
X-37970779Y-21741081D01*
X-38058318Y-21553354D01*
X-38069149Y-21534594D01*
X-38098834Y-21492200D01*
X-38113900Y-21477778D01*
X-38122236Y-21481446D01*
X-38823449Y-22182659D01*
X-38835036Y-22200000D01*
X-39564964Y-22200000D01*
X-39576551Y-22182659D01*
X-40269758Y-21489452D01*
X-40287099Y-21477865D01*
X-40294671Y-21482925D01*
X-40330851Y-21534594D01*
X-40341682Y-21553354D01*
X-40429221Y-21741081D01*
X-40436625Y-21761424D01*
X-40490237Y-21961507D01*
X-40493996Y-21982824D01*
X-40512049Y-22189176D01*
X-40512049Y-22210824D01*
X-45302833Y-22210824D01*
X-46399757Y-21113900D01*
X-39922222Y-21113900D01*
X-39918554Y-21122236D01*
X-39217341Y-21823449D01*
X-39200000Y-21835036D01*
X-39182659Y-21823449D01*
X-38489452Y-21130242D01*
X-38477865Y-21112901D01*
X-38482925Y-21105329D01*
X-38534594Y-21069149D01*
X-38553354Y-21058318D01*
X-38741081Y-20970779D01*
X-38761424Y-20963375D01*
X-38961507Y-20909763D01*
X-38982824Y-20906004D01*
X-39189176Y-20887951D01*
X-39210824Y-20887951D01*
X-39417176Y-20906004D01*
X-39438493Y-20909763D01*
X-39638576Y-20963375D01*
X-39658919Y-20970779D01*
X-39846646Y-21058318D01*
X-39865406Y-21069149D01*
X-39907800Y-21098834D01*
X-39922222Y-21113900D01*
X-46399757Y-21113900D01*
X-48787176Y-18726481D01*
X-48841152Y-18645699D01*
X-48860106Y-18550411D01*
X-48841152Y-18455123D01*
X-48787176Y-18374341D01*
X-48720651Y-18326802D01*
X-48680426Y-18307096D01*
X-48492938Y-18173363D01*
X-48329810Y-18010803D01*
X-48275395Y-17935077D01*
X-48257586Y-17910292D01*
X-48195423Y-17823783D01*
X-48183668Y-17800000D01*
X-48097911Y-17626482D01*
X-48093385Y-17617325D01*
X-48064263Y-17521473D01*
X-48029409Y-17406758D01*
X-48029408Y-17406754D01*
X-48026437Y-17396975D01*
X-48021867Y-17362260D01*
X-40522846Y-17362260D01*
X-40521859Y-17369761D01*
X-40476625Y-17538576D01*
X-40469221Y-17558919D01*
X-40381680Y-17746651D01*
X-40370857Y-17765397D01*
X-40252046Y-17935077D01*
X-40238130Y-17951661D01*
X-40091661Y-18098130D01*
X-40075077Y-18112046D01*
X-39905397Y-18230857D01*
X-39886651Y-18241680D01*
X-39698919Y-18329221D01*
X-39678576Y-18336625D01*
X-39517687Y-18379735D01*
X-39496877Y-18381099D01*
X-39494988Y-18377268D01*
X-39494000Y-18369763D01*
X-39494000Y-18361555D01*
X-38986000Y-18361555D01*
X-38981931Y-18382013D01*
X-38977740Y-18382846D01*
X-38970239Y-18381859D01*
X-38801424Y-18336625D01*
X-38781081Y-18329221D01*
X-38593349Y-18241680D01*
X-38574603Y-18230857D01*
X-38404923Y-18112046D01*
X-38388339Y-18098130D01*
X-38241870Y-17951661D01*
X-38227954Y-17935077D01*
X-38109143Y-17765397D01*
X-38098320Y-17746651D01*
X-38010779Y-17558919D01*
X-38003375Y-17538576D01*
X-37960265Y-17377687D01*
X-37958901Y-17356877D01*
X-37962732Y-17354988D01*
X-37970237Y-17354000D01*
X-38961473Y-17354000D01*
X-38981931Y-17358069D01*
X-38986000Y-17378527D01*
X-38986000Y-18361555D01*
X-39494000Y-18361555D01*
X-39494000Y-17378527D01*
X-39498069Y-17358069D01*
X-39518527Y-17354000D01*
X-40501555Y-17354000D01*
X-40522013Y-17358069D01*
X-40522846Y-17362260D01*
X-48021867Y-17362260D01*
X-47996378Y-17168649D01*
X-47994700Y-17100000D01*
X-48013570Y-16870478D01*
X-48019966Y-16845012D01*
X-48020440Y-16843123D01*
X-40521099Y-16843123D01*
X-40517268Y-16845012D01*
X-40509763Y-16846000D01*
X-39518527Y-16846000D01*
X-39498069Y-16841931D01*
X-39494000Y-16821473D01*
X-38986000Y-16821473D01*
X-38981931Y-16841931D01*
X-38961473Y-16846000D01*
X-37978445Y-16846000D01*
X-37957987Y-16841931D01*
X-37957154Y-16837740D01*
X-37958141Y-16830239D01*
X-38003375Y-16661424D01*
X-38010779Y-16641081D01*
X-38098320Y-16453349D01*
X-38109143Y-16434603D01*
X-38227954Y-16264923D01*
X-38241870Y-16248339D01*
X-38388339Y-16101870D01*
X-38404923Y-16087954D01*
X-38574603Y-15969143D01*
X-38593349Y-15958320D01*
X-38781081Y-15870779D01*
X-38801424Y-15863375D01*
X-38962313Y-15820265D01*
X-38983123Y-15818901D01*
X-38985012Y-15822732D01*
X-38986000Y-15830237D01*
X-38986000Y-16821473D01*
X-39494000Y-16821473D01*
X-39494000Y-15838445D01*
X-39498069Y-15817987D01*
X-39502260Y-15817154D01*
X-39509761Y-15818141D01*
X-39678576Y-15863375D01*
X-39698919Y-15870779D01*
X-39886651Y-15958320D01*
X-39905397Y-15969143D01*
X-40075077Y-16087954D01*
X-40091661Y-16101870D01*
X-40238130Y-16248339D01*
X-40252046Y-16264923D01*
X-40370857Y-16434603D01*
X-40381680Y-16453349D01*
X-40469221Y-16641081D01*
X-40476625Y-16661424D01*
X-40519735Y-16822313D01*
X-40521099Y-16843123D01*
X-48020440Y-16843123D01*
X-48067183Y-16657036D01*
X-48067184Y-16657033D01*
X-48069674Y-16647120D01*
X-48126568Y-16516271D01*
X-48157429Y-16445295D01*
X-48157431Y-16445291D01*
X-48161504Y-16435924D01*
X-48286595Y-16242563D01*
X-48381478Y-16138289D01*
X-48434716Y-16079781D01*
X-48434717Y-16079780D01*
X-48441588Y-16072229D01*
X-48572117Y-15969143D01*
X-48614301Y-15935828D01*
X-48614303Y-15935827D01*
X-48622319Y-15929496D01*
X-48823935Y-15818198D01*
X-48833561Y-15814789D01*
X-48833566Y-15814787D01*
X-49031394Y-15744732D01*
X-49031399Y-15744731D01*
X-49041022Y-15741323D01*
X-49051078Y-15739532D01*
X-49051081Y-15739531D01*
X-49160237Y-15720088D01*
X-49250725Y-15684718D01*
X-49292641Y-15651017D01*
X-50926570Y-14017088D01*
X-50980546Y-13936306D01*
X-50999500Y-13841018D01*
X-50999500Y-7984359D01*
X-50980546Y-7889071D01*
X-50973532Y-7873645D01*
X-50953103Y-7832491D01*
X-50947105Y-7820408D01*
X-50917208Y-7700500D01*
X-50905057Y-7651766D01*
X-50905056Y-7651762D01*
X-50902400Y-7641108D01*
X-50899500Y-7598567D01*
X-50899501Y-6201434D01*
X-50902400Y-6158892D01*
X-50913439Y-6114617D01*
X-50943841Y-5992682D01*
X-50943842Y-5992680D01*
X-50947105Y-5979592D01*
X-51014720Y-5843381D01*
X-51023270Y-5826157D01*
X-51023272Y-5826154D01*
X-51029269Y-5814073D01*
X-51145059Y-5670059D01*
X-51289073Y-5554269D01*
X-51301154Y-5548272D01*
X-51301157Y-5548270D01*
X-51305353Y-5546187D01*
X-7704941Y-5546187D01*
X-7679464Y-5837399D01*
X-7615695Y-6122683D01*
X-7514756Y-6397027D01*
X-7378420Y-6655612D01*
X-7209082Y-6893893D01*
X-7009717Y-7107686D01*
X-6783829Y-7293233D01*
X-6535384Y-7447275D01*
X-6268750Y-7567105D01*
X-5988609Y-7650619D01*
X-5699883Y-7696348D01*
X-5692936Y-7696663D01*
X-5692931Y-7696664D01*
X-5611260Y-7700373D01*
X-5611239Y-7700373D01*
X-5608453Y-7700500D01*
X-5425849Y-7700500D01*
X-5421759Y-7700228D01*
X-5421748Y-7700228D01*
X-5291464Y-7691574D01*
X-5208318Y-7686052D01*
X-4921761Y-7628272D01*
X-4913956Y-7625585D01*
X-4913954Y-7625584D01*
X-4750977Y-7569466D01*
X-4645363Y-7533100D01*
X-4383980Y-7402209D01*
X-4377145Y-7397564D01*
X-4377140Y-7397561D01*
X-4149030Y-7242537D01*
X-4142205Y-7237899D01*
X-4002442Y-7112937D01*
X-3930444Y-7048563D01*
X-3930441Y-7048560D01*
X-3924284Y-7043055D01*
X-3918910Y-7036785D01*
X-3918905Y-7036780D01*
X-3739423Y-6827374D01*
X-3734047Y-6821102D01*
X-3630946Y-6662340D01*
X-3579338Y-6582871D01*
X-3579336Y-6582867D01*
X-3574836Y-6575938D01*
X-3449448Y-6311871D01*
X-3360086Y-6033541D01*
X-3308319Y-5745836D01*
X-3299092Y-5542642D01*
X-3295433Y-5462053D01*
X-3295433Y-5462051D01*
X-3295059Y-5453813D01*
X-3320536Y-5162601D01*
X-3384305Y-4877317D01*
X-3485244Y-4602973D01*
X-3621580Y-4344388D01*
X-3790918Y-4106107D01*
X-3990283Y-3892314D01*
X-4216171Y-3706767D01*
X-4464616Y-3552725D01*
X-4731250Y-3432895D01*
X-5011391Y-3349381D01*
X-5300117Y-3303652D01*
X-5307064Y-3303337D01*
X-5307069Y-3303336D01*
X-5388740Y-3299627D01*
X-5388761Y-3299627D01*
X-5391547Y-3299500D01*
X-5574151Y-3299500D01*
X-5578241Y-3299772D01*
X-5578252Y-3299772D01*
X-5708536Y-3308426D01*
X-5791682Y-3313948D01*
X-6078239Y-3371728D01*
X-6086044Y-3374415D01*
X-6086046Y-3374416D01*
X-6181576Y-3407310D01*
X-6354637Y-3466900D01*
X-6616020Y-3597791D01*
X-6622855Y-3602436D01*
X-6622860Y-3602439D01*
X-6767746Y-3700904D01*
X-6857795Y-3762101D01*
X-6863944Y-3767599D01*
X-6863948Y-3767602D01*
X-7063439Y-3945968D01*
X-7075716Y-3956945D01*
X-7081090Y-3963215D01*
X-7081095Y-3963220D01*
X-7209338Y-4112844D01*
X-7265953Y-4178898D01*
X-7270449Y-4185822D01*
X-7270451Y-4185824D01*
X-7373423Y-4344388D01*
X-7425164Y-4424062D01*
X-7550552Y-4688129D01*
X-7639914Y-4966459D01*
X-7691681Y-5254164D01*
X-7692055Y-5262406D01*
X-7703896Y-5523182D01*
X-7704941Y-5546187D01*
X-51305353Y-5546187D01*
X-51442509Y-5478103D01*
X-51454592Y-5472105D01*
X-51467680Y-5468842D01*
X-51467682Y-5468841D01*
X-51623234Y-5430057D01*
X-51623238Y-5430056D01*
X-51633892Y-5427400D01*
X-51676433Y-5424500D01*
X-51680685Y-5424500D01*
X-52100848Y-5424501D01*
X-52523566Y-5424501D01*
X-52566108Y-5427400D01*
X-52576764Y-5430057D01*
X-52576765Y-5430057D01*
X-52732318Y-5468841D01*
X-52732320Y-5468842D01*
X-52745408Y-5472105D01*
X-52757491Y-5478103D01*
X-52898843Y-5548270D01*
X-52898846Y-5548272D01*
X-52910927Y-5554269D01*
X-53022251Y-5643776D01*
X-53054277Y-5669525D01*
X-53140415Y-5714462D01*
X-53237193Y-5723014D01*
X-53329877Y-5693879D01*
X-53359450Y-5674601D01*
X-53366051Y-5668499D01*
X-53405234Y-5643776D01*
X-53542993Y-5556857D01*
X-53542994Y-5556857D01*
X-53552650Y-5550764D01*
X-53563250Y-5546535D01*
X-53563254Y-5546533D01*
X-53746975Y-5473236D01*
X-53746980Y-5473234D01*
X-53757579Y-5469006D01*
X-53833959Y-5453813D01*
X-53962784Y-5428188D01*
X-53962786Y-5428188D01*
X-53973976Y-5425962D01*
X-54093725Y-5424394D01*
X-54183188Y-5423223D01*
X-54183191Y-5423223D01*
X-54194594Y-5423074D01*
X-54288253Y-5439167D01*
X-54400790Y-5458504D01*
X-54400794Y-5458505D01*
X-54412043Y-5460438D01*
X-54459926Y-5478103D01*
X-54608334Y-5532853D01*
X-54608336Y-5532854D01*
X-54619043Y-5536804D01*
X-54808659Y-5649614D01*
X-54843963Y-5680575D01*
X-54965962Y-5787564D01*
X-54965966Y-5787568D01*
X-54974543Y-5795090D01*
X-54981608Y-5804052D01*
X-54981609Y-5804053D01*
X-55012612Y-5843381D01*
X-55111137Y-5968360D01*
X-55213869Y-6163620D01*
X-55279297Y-6374333D01*
X-55300500Y-6553476D01*
X-55300500Y-7230970D01*
X-55285454Y-7394711D01*
X-55236168Y-7569466D01*
X-55229848Y-7591877D01*
X-55220500Y-7659465D01*
X-55220500Y-16398364D01*
X-55239454Y-16493652D01*
X-55293430Y-16574434D01*
X-55374212Y-16628410D01*
X-55469500Y-16647364D01*
X-55564788Y-16628410D01*
X-55627544Y-16590777D01*
X-55749560Y-16490553D01*
X-55798055Y-16437212D01*
X-55805739Y-16425799D01*
X-55809452Y-16421704D01*
X-55824670Y-16406486D01*
X-55844413Y-16384228D01*
X-55852101Y-16374440D01*
X-55852108Y-16374432D01*
X-55859424Y-16365119D01*
X-55870840Y-16355212D01*
X-55902777Y-16327499D01*
X-55915652Y-16315504D01*
X-60136879Y-12094277D01*
X-60145141Y-12085385D01*
X-60150635Y-12077640D01*
X-60216098Y-12014973D01*
X-60219982Y-12011174D01*
X-60246428Y-11984728D01*
X-60250998Y-11980954D01*
X-60255367Y-11976982D01*
X-60255334Y-11976946D01*
X-60262223Y-11970817D01*
X-60293768Y-11940620D01*
X-60293769Y-11940619D01*
X-60302329Y-11932425D01*
X-60312281Y-11925999D01*
X-60312285Y-11925996D01*
X-60324174Y-11918320D01*
X-60347647Y-11901142D01*
X-60367708Y-11884575D01*
X-60411013Y-11860915D01*
X-60416425Y-11857958D01*
X-60432106Y-11848629D01*
X-60468795Y-11824939D01*
X-60468796Y-11824939D01*
X-60478744Y-11818515D01*
X-60489731Y-11814087D01*
X-60489735Y-11814085D01*
X-60502859Y-11808796D01*
X-60529170Y-11796359D01*
X-60551992Y-11783890D01*
X-60563274Y-11780279D01*
X-60563278Y-11780277D01*
X-60604866Y-11766965D01*
X-60622021Y-11760773D01*
X-60673517Y-11740019D01*
X-60699039Y-11735035D01*
X-60727223Y-11727798D01*
X-60740696Y-11723485D01*
X-60740706Y-11723483D01*
X-60751992Y-11719870D01*
X-60807108Y-11713249D01*
X-60825136Y-11710410D01*
X-60870820Y-11701488D01*
X-60870827Y-11701487D01*
X-60879620Y-11699770D01*
X-60885141Y-11699500D01*
X-60906658Y-11699500D01*
X-60936356Y-11697723D01*
X-60960489Y-11694824D01*
X-60972312Y-11695661D01*
X-60972314Y-11695661D01*
X-61017747Y-11698878D01*
X-61035333Y-11699500D01*
X-67085853Y-11699500D01*
X-67181141Y-11680546D01*
X-67240178Y-11645909D01*
X-67358767Y-11552253D01*
X-67358776Y-11552247D01*
X-67366790Y-11545918D01*
X-67411537Y-11521216D01*
X-67573857Y-11431611D01*
X-67573856Y-11431611D01*
X-67582802Y-11426673D01*
X-67592428Y-11423264D01*
X-67592433Y-11423262D01*
X-67805760Y-11347719D01*
X-67805762Y-11347718D01*
X-67815390Y-11344309D01*
X-68058306Y-11301039D01*
X-68068526Y-11300914D01*
X-68068528Y-11300914D01*
X-68208821Y-11299200D01*
X-68305028Y-11298025D01*
X-68494174Y-11326968D01*
X-68538834Y-11333802D01*
X-68538835Y-11333802D01*
X-68548930Y-11335347D01*
X-68558641Y-11338521D01*
X-68773750Y-11408829D01*
X-68773753Y-11408830D01*
X-68783460Y-11412003D01*
X-69002321Y-11525935D01*
X-69199636Y-11674083D01*
X-69206688Y-11681463D01*
X-69206693Y-11681467D01*
X-69337658Y-11818515D01*
X-69370104Y-11852468D01*
X-69375866Y-11860915D01*
X-69455017Y-11976946D01*
X-69509149Y-12056300D01*
X-69613035Y-12280104D01*
X-69678974Y-12517871D01*
X-69705194Y-12763214D01*
X-69690990Y-13009545D01*
X-69636745Y-13250249D01*
X-69543916Y-13478861D01*
X-69414994Y-13689241D01*
X-69253443Y-13875741D01*
X-69063601Y-14033351D01*
X-68850567Y-14157838D01*
X-68620061Y-14245859D01*
X-68610050Y-14247896D01*
X-68610046Y-14247897D01*
X-68388287Y-14293015D01*
X-68388285Y-14293015D01*
X-68378274Y-14295052D01*
X-68275647Y-14298815D01*
X-68141913Y-14303719D01*
X-68141907Y-14303719D01*
X-68131700Y-14304093D01*
X-68121569Y-14302795D01*
X-68121564Y-14302795D01*
X-67986330Y-14285471D01*
X-67886959Y-14272741D01*
X-67650626Y-14201838D01*
X-67429046Y-14093287D01*
X-67228171Y-13950004D01*
X-67226893Y-13951796D01*
X-67155477Y-13912289D01*
X-67079767Y-13900500D01*
X-61546480Y-13900500D01*
X-61451192Y-13919454D01*
X-61370410Y-13973430D01*
X-59476909Y-15866931D01*
X-59422933Y-15947713D01*
X-59403979Y-16043001D01*
X-59422933Y-16138289D01*
X-59476909Y-16219071D01*
X-59557691Y-16273047D01*
X-59652979Y-16292001D01*
X-60193846Y-16292001D01*
X-60207292Y-16292729D01*
X-60247185Y-16297062D01*
X-60277326Y-16304228D01*
X-60382350Y-16343600D01*
X-60413160Y-16360469D01*
X-60501203Y-16426453D01*
X-60526047Y-16451297D01*
X-60592031Y-16539340D01*
X-60608900Y-16570150D01*
X-60648273Y-16675178D01*
X-60655438Y-16705309D01*
X-60659773Y-16745214D01*
X-60660500Y-16758650D01*
X-60660500Y-17521473D01*
X-60656431Y-17541931D01*
X-60635973Y-17546000D01*
X-59195000Y-17546000D01*
X-59099712Y-17564954D01*
X-59018930Y-17618930D01*
X-58964954Y-17699712D01*
X-58946000Y-17795000D01*
X-58946000Y-19283472D01*
X-58941931Y-19303930D01*
X-58921473Y-19307999D01*
X-58206154Y-19307999D01*
X-58192708Y-19307271D01*
X-58152815Y-19302938D01*
X-58122674Y-19295772D01*
X-58017650Y-19256400D01*
X-57986840Y-19239531D01*
X-57898797Y-19173547D01*
X-57874566Y-19149316D01*
X-57793784Y-19095340D01*
X-57698496Y-19076386D01*
X-57603208Y-19095340D01*
X-57556638Y-19120784D01*
X-57549201Y-19126893D01*
X-57333212Y-19252602D01*
X-57099903Y-19342161D01*
X-56855276Y-19393266D01*
X-56716986Y-19399546D01*
X-56615608Y-19404150D01*
X-56615604Y-19404150D01*
X-56605625Y-19404603D01*
X-56357373Y-19375879D01*
X-56245439Y-19344205D01*
X-56126525Y-19310556D01*
X-56126521Y-19310554D01*
X-56116907Y-19307834D01*
X-55890413Y-19202218D01*
X-55779575Y-19126893D01*
X-55691993Y-19067372D01*
X-55683719Y-19061749D01*
X-55637515Y-19018056D01*
X-55563589Y-18948148D01*
X-55481331Y-18896448D01*
X-55385551Y-18880162D01*
X-55290829Y-18901769D01*
X-55217776Y-18955530D01*
X-55216123Y-18953819D01*
X-55208929Y-18960766D01*
X-55202314Y-18968269D01*
X-55009201Y-19126893D01*
X-55000556Y-19131925D01*
X-55000551Y-19131928D01*
X-54879780Y-19202218D01*
X-54793212Y-19252602D01*
X-54559903Y-19342161D01*
X-54315276Y-19393266D01*
X-54176986Y-19399546D01*
X-54075608Y-19404150D01*
X-54075604Y-19404150D01*
X-54065625Y-19404603D01*
X-53817373Y-19375879D01*
X-53705439Y-19344205D01*
X-53586525Y-19310556D01*
X-53586521Y-19310554D01*
X-53576907Y-19307834D01*
X-53350413Y-19202218D01*
X-53239575Y-19126893D01*
X-53151993Y-19067372D01*
X-53143719Y-19061749D01*
X-53045198Y-18968583D01*
X-52962942Y-18916883D01*
X-52874114Y-18900500D01*
X-51828981Y-18900500D01*
X-51733693Y-18919454D01*
X-51652911Y-18973430D01*
X-50024526Y-20601815D01*
X-49970550Y-20682597D01*
X-49951596Y-20777885D01*
X-49970550Y-20873173D01*
X-50024526Y-20953955D01*
X-50085615Y-20998748D01*
X-50099780Y-21006122D01*
X-50099789Y-21006127D01*
X-50108851Y-21010845D01*
X-50293016Y-21149119D01*
X-50300075Y-21156506D01*
X-50445055Y-21308219D01*
X-50445059Y-21308224D01*
X-50452123Y-21315616D01*
X-50522196Y-21418339D01*
X-50570706Y-21489452D01*
X-50581901Y-21505863D01*
X-50678864Y-21714752D01*
X-50740408Y-21936673D01*
X-50741493Y-21946828D01*
X-50741520Y-21947080D01*
X-50741574Y-21947254D01*
X-50743409Y-21956871D01*
X-50744513Y-21956660D01*
X-50770489Y-22039816D01*
X-50813041Y-22096699D01*
X-52442912Y-23726570D01*
X-52523694Y-23780546D01*
X-52618982Y-23799500D01*
X-67015641Y-23799500D01*
X-67110929Y-23780546D01*
X-67126355Y-23773532D01*
X-67167509Y-23753103D01*
X-67179592Y-23747105D01*
X-67192680Y-23743842D01*
X-67192682Y-23743841D01*
X-67348234Y-23705057D01*
X-67348238Y-23705056D01*
X-67358892Y-23702400D01*
X-67401433Y-23699500D01*
X-67405685Y-23699500D01*
X-68101399Y-23699501D01*
X-68798566Y-23699501D01*
X-68841108Y-23702400D01*
X-68851764Y-23705057D01*
X-68851765Y-23705057D01*
X-69007318Y-23743841D01*
X-69007320Y-23743842D01*
X-69020408Y-23747105D01*
X-69032491Y-23753103D01*
X-69173843Y-23823270D01*
X-69173846Y-23823272D01*
X-69185927Y-23829269D01*
X-69329941Y-23945059D01*
X-69445731Y-24089073D01*
X-69527895Y-24254592D01*
X-69572600Y-24433892D01*
X-69575500Y-24476433D01*
X-69575499Y-25323566D01*
X-69572600Y-25366108D01*
X-69527895Y-25545408D01*
X-69445731Y-25710927D01*
X-69372918Y-25801488D01*
X-69330475Y-25854277D01*
X-69285538Y-25940415D01*
X-69276986Y-26037193D01*
X-69306121Y-26129877D01*
X-69325399Y-26159450D01*
X-69331501Y-26166051D01*
X-69337597Y-26175713D01*
X-69337598Y-26175714D01*
X-69429885Y-26321981D01*
X-69449236Y-26352650D01*
X-69453465Y-26363250D01*
X-69453467Y-26363254D01*
X-69526764Y-26546975D01*
X-69526766Y-26546980D01*
X-69530994Y-26557579D01*
X-69533221Y-26568775D01*
X-69564438Y-26725716D01*
X-69574038Y-26773976D01*
X-69576926Y-26994594D01*
X-69539562Y-27212043D01*
X-69535610Y-27222755D01*
X-69489043Y-27348980D01*
X-69463196Y-27419043D01*
X-69350386Y-27608659D01*
X-69342857Y-27617244D01*
X-69212436Y-27765962D01*
X-69212432Y-27765966D01*
X-69204910Y-27774543D01*
X-69195948Y-27781608D01*
X-69195947Y-27781609D01*
X-69150047Y-27817793D01*
X-69031640Y-27911137D01*
X-68836380Y-28013869D01*
X-68825481Y-28017253D01*
X-68825479Y-28017254D01*
X-68798713Y-28025565D01*
X-68625667Y-28079297D01*
X-68446524Y-28100500D01*
X-67769030Y-28100500D01*
X-67605289Y-28085454D01*
X-67512943Y-28059410D01*
X-67403924Y-28028664D01*
X-67403923Y-28028664D01*
X-67392936Y-28025565D01*
X-67382694Y-28020514D01*
X-67373641Y-28017039D01*
X-67284405Y-28000500D01*
X-50712812Y-28000500D01*
X-50617524Y-28019454D01*
X-50536742Y-28073430D01*
X-50505482Y-28113084D01*
X-50505395Y-28113020D01*
X-50503609Y-28115460D01*
X-50500504Y-28119399D01*
X-50494021Y-28129978D01*
X-50343237Y-28304048D01*
X-50166047Y-28451154D01*
X-49967210Y-28567345D01*
X-49871438Y-28603917D01*
X-49793753Y-28633582D01*
X-49752066Y-28649501D01*
X-49526393Y-28695414D01*
X-49415671Y-28699474D01*
X-49306463Y-28703479D01*
X-49306457Y-28703479D01*
X-49296251Y-28703853D01*
X-49286120Y-28702555D01*
X-49286115Y-28702555D01*
X-49163942Y-28686904D01*
X-49067822Y-28674591D01*
X-49058038Y-28671656D01*
X-49058035Y-28671655D01*
X-48857028Y-28611350D01*
X-48857026Y-28611349D01*
X-48847239Y-28608413D01*
X-48838064Y-28603918D01*
X-48838061Y-28603917D01*
X-48738906Y-28555341D01*
X-48640426Y-28507096D01*
X-48555870Y-28446783D01*
X-48467292Y-28406882D01*
X-48411279Y-28400500D01*
X-46358982Y-28400500D01*
X-46263694Y-28419454D01*
X-46182912Y-28473430D01*
X-45773430Y-28882912D01*
X-45719454Y-28963694D01*
X-45700500Y-29058982D01*
X-45700500Y-31342018D01*
X-45719454Y-31437306D01*
X-45773430Y-31518088D01*
X-45854212Y-31572064D01*
X-45949500Y-31591018D01*
X-46044788Y-31572064D01*
X-46125570Y-31518088D01*
X-46249381Y-31394277D01*
X-46257643Y-31385385D01*
X-46263137Y-31377640D01*
X-46328600Y-31314973D01*
X-46332484Y-31311174D01*
X-46358930Y-31284728D01*
X-46363500Y-31280954D01*
X-46367869Y-31276982D01*
X-46367836Y-31276946D01*
X-46374725Y-31270817D01*
X-46406270Y-31240620D01*
X-46406271Y-31240619D01*
X-46414831Y-31232425D01*
X-46424783Y-31225999D01*
X-46424787Y-31225996D01*
X-46436676Y-31218320D01*
X-46460149Y-31201142D01*
X-46480210Y-31184575D01*
X-46490928Y-31178719D01*
X-46528927Y-31157958D01*
X-46544608Y-31148629D01*
X-46581297Y-31124939D01*
X-46581298Y-31124939D01*
X-46591246Y-31118515D01*
X-46602233Y-31114087D01*
X-46602237Y-31114085D01*
X-46615361Y-31108796D01*
X-46641672Y-31096359D01*
X-46664494Y-31083890D01*
X-46675776Y-31080279D01*
X-46675780Y-31080277D01*
X-46717368Y-31066965D01*
X-46734523Y-31060773D01*
X-46786019Y-31040019D01*
X-46811541Y-31035035D01*
X-46839725Y-31027798D01*
X-46853198Y-31023485D01*
X-46853208Y-31023483D01*
X-46864494Y-31019870D01*
X-46919610Y-31013249D01*
X-46937638Y-31010410D01*
X-46992122Y-30999770D01*
X-46991683Y-30997520D01*
X-47069711Y-30971913D01*
X-47144951Y-30906602D01*
X-47161782Y-30884667D01*
X-47171718Y-30871718D01*
X-47234493Y-30823549D01*
X-47284208Y-30785401D01*
X-47284211Y-30785399D01*
X-47297159Y-30775464D01*
X-47312239Y-30769218D01*
X-47312240Y-30769217D01*
X-47379583Y-30741323D01*
X-47443238Y-30714956D01*
X-47459415Y-30712826D01*
X-47459416Y-30712826D01*
X-47492927Y-30708414D01*
X-47560639Y-30699500D01*
X-48399897Y-30699500D01*
X-49239360Y-30699501D01*
X-49247441Y-30700565D01*
X-49247444Y-30700565D01*
X-49290159Y-30706188D01*
X-49356762Y-30714956D01*
X-49371841Y-30721202D01*
X-49487760Y-30769217D01*
X-49487761Y-30769218D01*
X-49502841Y-30775464D01*
X-49515789Y-30785399D01*
X-49515792Y-30785401D01*
X-49565507Y-30823549D01*
X-49628282Y-30871718D01*
X-49638222Y-30884672D01*
X-49714599Y-30984208D01*
X-49714601Y-30984211D01*
X-49724536Y-30997159D01*
X-49730782Y-31012239D01*
X-49730783Y-31012240D01*
X-49747221Y-31051926D01*
X-49785044Y-31143238D01*
X-49800500Y-31260639D01*
X-49800499Y-32939360D01*
X-49799435Y-32947441D01*
X-49799435Y-32947444D01*
X-49796318Y-32971118D01*
X-49785044Y-33056762D01*
X-49778798Y-33071841D01*
X-49732853Y-33182761D01*
X-49724536Y-33202841D01*
X-49714601Y-33215789D01*
X-49714599Y-33215792D01*
X-49643905Y-33307922D01*
X-49628282Y-33328282D01*
X-49615328Y-33338222D01*
X-49515792Y-33414599D01*
X-49515789Y-33414601D01*
X-49502841Y-33424536D01*
X-49487761Y-33430782D01*
X-49487760Y-33430783D01*
X-49462915Y-33441074D01*
X-49356762Y-33485044D01*
X-49340585Y-33487174D01*
X-49340584Y-33487174D01*
X-49307073Y-33491586D01*
X-49239361Y-33500500D01*
X-48400103Y-33500500D01*
X-47560640Y-33500499D01*
X-47552559Y-33499435D01*
X-47552556Y-33499435D01*
X-47459423Y-33487175D01*
X-47459420Y-33487174D01*
X-47443238Y-33485044D01*
X-47439811Y-33483624D01*
X-47351284Y-33477824D01*
X-47259285Y-33509055D01*
X-47207719Y-33548623D01*
X-47173430Y-33582912D01*
X-47119454Y-33663694D01*
X-47100500Y-33758982D01*
X-47100500Y-35485420D01*
X-47119454Y-35580708D01*
X-47173430Y-35661490D01*
X-47254212Y-35715466D01*
X-47349500Y-35734420D01*
X-47436908Y-35718574D01*
X-47475177Y-35704227D01*
X-47505309Y-35697062D01*
X-47545214Y-35692727D01*
X-47558650Y-35692000D01*
X-48121473Y-35692000D01*
X-48141931Y-35696069D01*
X-48146000Y-35716527D01*
X-48146000Y-37005000D01*
X-48164954Y-37100288D01*
X-48218930Y-37181070D01*
X-48299712Y-37235046D01*
X-48395000Y-37254000D01*
X-49683472Y-37254000D01*
X-49703930Y-37258069D01*
X-49707999Y-37278527D01*
X-49707999Y-37841346D01*
X-49707271Y-37854792D01*
X-49702938Y-37894685D01*
X-49695772Y-37924826D01*
X-49656400Y-38029850D01*
X-49639531Y-38060660D01*
X-49609171Y-38101170D01*
X-49567192Y-38188788D01*
X-49561938Y-38285800D01*
X-49594209Y-38377439D01*
X-49659093Y-38449752D01*
X-49746711Y-38491731D01*
X-49808423Y-38499500D01*
X-55308786Y-38499500D01*
X-55404074Y-38480546D01*
X-55484856Y-38426570D01*
X-55538832Y-38345788D01*
X-55557786Y-38250500D01*
X-55549301Y-38186054D01*
X-55509765Y-38038504D01*
X-55506004Y-38017176D01*
X-55487951Y-37810824D01*
X-55487951Y-37789176D01*
X-55506004Y-37582824D01*
X-55509763Y-37561507D01*
X-55563375Y-37361424D01*
X-55570779Y-37341081D01*
X-55658318Y-37153354D01*
X-55669149Y-37134594D01*
X-55698834Y-37092200D01*
X-55713900Y-37077778D01*
X-55722236Y-37081446D01*
X-56623930Y-37983140D01*
X-56704712Y-38037116D01*
X-56800000Y-38056070D01*
X-56895288Y-38037116D01*
X-56976070Y-37983140D01*
X-57869758Y-37089452D01*
X-57887099Y-37077865D01*
X-57894671Y-37082925D01*
X-57930851Y-37134594D01*
X-57941682Y-37153354D01*
X-58029221Y-37341081D01*
X-58036625Y-37361424D01*
X-58090237Y-37561507D01*
X-58093996Y-37582824D01*
X-58112049Y-37789176D01*
X-58112049Y-37810824D01*
X-58093996Y-38017176D01*
X-58090235Y-38038504D01*
X-58050699Y-38186054D01*
X-58044344Y-38283001D01*
X-58075573Y-38375000D01*
X-58139632Y-38448045D01*
X-58226768Y-38491015D01*
X-58291214Y-38499500D01*
X-67085853Y-38499500D01*
X-67181141Y-38480546D01*
X-67240178Y-38445909D01*
X-67358767Y-38352253D01*
X-67358776Y-38352247D01*
X-67366790Y-38345918D01*
X-67411537Y-38321216D01*
X-67525695Y-38258198D01*
X-67582802Y-38226673D01*
X-67592428Y-38223264D01*
X-67592433Y-38223262D01*
X-67805760Y-38147719D01*
X-67805762Y-38147718D01*
X-67815390Y-38144309D01*
X-68058306Y-38101039D01*
X-68068526Y-38100914D01*
X-68068528Y-38100914D01*
X-68208821Y-38099200D01*
X-68305028Y-38098025D01*
X-68494174Y-38126968D01*
X-68538834Y-38133802D01*
X-68538835Y-38133802D01*
X-68548930Y-38135347D01*
X-68558641Y-38138521D01*
X-68773750Y-38208829D01*
X-68773753Y-38208830D01*
X-68783460Y-38212003D01*
X-69002321Y-38325935D01*
X-69199636Y-38474083D01*
X-69206688Y-38481463D01*
X-69206693Y-38481467D01*
X-69346246Y-38627502D01*
X-69370104Y-38652468D01*
X-69375866Y-38660915D01*
X-69492264Y-38831548D01*
X-69509149Y-38856300D01*
X-69613035Y-39080104D01*
X-69678974Y-39317871D01*
X-69680060Y-39328036D01*
X-69694131Y-39459699D01*
X-69723103Y-39552433D01*
X-69765651Y-39609309D01*
X-70505724Y-40349382D01*
X-70514616Y-40357644D01*
X-70522361Y-40363138D01*
X-70530555Y-40371698D01*
X-70585028Y-40428601D01*
X-70588827Y-40432485D01*
X-70615273Y-40458931D01*
X-70619047Y-40463501D01*
X-70623019Y-40467870D01*
X-70623055Y-40467837D01*
X-70629184Y-40474726D01*
X-70659381Y-40506271D01*
X-70667576Y-40514832D01*
X-70674002Y-40524784D01*
X-70674005Y-40524788D01*
X-70681681Y-40536677D01*
X-70698859Y-40560150D01*
X-70715426Y-40580211D01*
X-70721110Y-40590614D01*
X-70721111Y-40590616D01*
X-70742043Y-40628928D01*
X-70751372Y-40644609D01*
X-70781486Y-40691247D01*
X-70785914Y-40702234D01*
X-70785916Y-40702238D01*
X-70791205Y-40715362D01*
X-70803642Y-40741673D01*
X-70816111Y-40764495D01*
X-70819722Y-40775777D01*
X-70819724Y-40775781D01*
X-70833036Y-40817369D01*
X-70839228Y-40834524D01*
X-70859982Y-40886020D01*
X-70864251Y-40907882D01*
X-70864965Y-40911539D01*
X-70872203Y-40939726D01*
X-70876516Y-40953199D01*
X-70876518Y-40953209D01*
X-70880131Y-40964495D01*
X-70884617Y-41001838D01*
X-70886752Y-41019612D01*
X-70889591Y-41037639D01*
X-70898513Y-41083323D01*
X-70898514Y-41083330D01*
X-70900231Y-41092123D01*
X-70900501Y-41097644D01*
X-70900501Y-41119161D01*
X-70902278Y-41148859D01*
X-70905177Y-41172992D01*
X-72399500Y-41172992D01*
X-72399500Y-36713900D01*
X-57522222Y-36713900D01*
X-57518554Y-36722236D01*
X-56817341Y-37423449D01*
X-56800000Y-37435036D01*
X-56782659Y-37423449D01*
X-56089452Y-36730242D01*
X-56083593Y-36721473D01*
X-49708000Y-36721473D01*
X-49703931Y-36741931D01*
X-49683473Y-36746000D01*
X-48678527Y-36746000D01*
X-48658069Y-36741931D01*
X-48654000Y-36721473D01*
X-48654000Y-35716528D01*
X-48658069Y-35696070D01*
X-48678527Y-35692001D01*
X-49241346Y-35692001D01*
X-49254792Y-35692729D01*
X-49294685Y-35697062D01*
X-49324826Y-35704228D01*
X-49429850Y-35743600D01*
X-49460660Y-35760469D01*
X-49548703Y-35826453D01*
X-49573547Y-35851297D01*
X-49639531Y-35939340D01*
X-49656400Y-35970150D01*
X-49695773Y-36075178D01*
X-49702938Y-36105309D01*
X-49707273Y-36145214D01*
X-49708000Y-36158650D01*
X-49708000Y-36721473D01*
X-56083593Y-36721473D01*
X-56077865Y-36712901D01*
X-56082925Y-36705329D01*
X-56134594Y-36669149D01*
X-56153354Y-36658318D01*
X-56341081Y-36570779D01*
X-56361424Y-36563375D01*
X-56561507Y-36509763D01*
X-56582824Y-36506004D01*
X-56789176Y-36487951D01*
X-56810824Y-36487951D01*
X-57017176Y-36506004D01*
X-57038493Y-36509763D01*
X-57238576Y-36563375D01*
X-57258919Y-36570779D01*
X-57446646Y-36658318D01*
X-57465406Y-36669149D01*
X-57507800Y-36698834D01*
X-57522222Y-36713900D01*
X-72399500Y-36713900D01*
X-72399500Y-35761839D01*
X-68996874Y-35761839D01*
X-68994314Y-35765670D01*
X-68988823Y-35769906D01*
X-68819281Y-35868979D01*
X-68800922Y-35877775D01*
X-68603709Y-35953084D01*
X-68584152Y-35958765D01*
X-68377300Y-36000849D01*
X-68357074Y-36003261D01*
X-68146122Y-36010997D01*
X-68125775Y-36010074D01*
X-67916387Y-35983250D01*
X-67896472Y-35979016D01*
X-67694287Y-35918358D01*
X-67675312Y-35910922D01*
X-67485749Y-35818056D01*
X-67468254Y-35807627D01*
X-67420119Y-35773293D01*
X-67405832Y-35758105D01*
X-67409705Y-35749506D01*
X-68182658Y-34976552D01*
X-68200000Y-34964965D01*
X-68217342Y-34976552D01*
X-68985286Y-35744497D01*
X-68996874Y-35761839D01*
X-72399500Y-35761839D01*
X-72399500Y-34575689D01*
X-69611815Y-34575689D01*
X-69599665Y-34786420D01*
X-69596828Y-34806602D01*
X-69550423Y-35012520D01*
X-69544330Y-35031965D01*
X-69464912Y-35227545D01*
X-69455729Y-35245724D01*
X-69373251Y-35380318D01*
X-69359095Y-35395632D01*
X-69353519Y-35393575D01*
X-69350055Y-35390844D01*
X-68576552Y-34617342D01*
X-68564965Y-34600000D01*
X-67835035Y-34600000D01*
X-67823448Y-34617342D01*
X-67058227Y-35382562D01*
X-67040885Y-35394150D01*
X-67032931Y-35388835D01*
X-66994938Y-35335961D01*
X-66984443Y-35318496D01*
X-66890917Y-35129260D01*
X-66883416Y-35110315D01*
X-66822052Y-34908344D01*
X-66817747Y-34888435D01*
X-66789725Y-34675581D01*
X-66788699Y-34662399D01*
X-66787336Y-34606626D01*
X-66787717Y-34593394D01*
X-66805308Y-34379430D01*
X-66808634Y-34359339D01*
X-66860061Y-34154602D01*
X-66866621Y-34135330D01*
X-66950797Y-33941740D01*
X-66960422Y-33923788D01*
X-67027295Y-33820419D01*
X-67041823Y-33805453D01*
X-67048793Y-33808220D01*
X-67049920Y-33809131D01*
X-67823448Y-34582658D01*
X-67835035Y-34600000D01*
X-68564965Y-34600000D01*
X-68576552Y-34582658D01*
X-69341604Y-33817607D01*
X-69358946Y-33806019D01*
X-69366159Y-33810839D01*
X-69422691Y-33893710D01*
X-69432744Y-33911408D01*
X-69521627Y-34102891D01*
X-69528656Y-34121993D01*
X-69585071Y-34325418D01*
X-69588887Y-34345425D01*
X-69611317Y-34555315D01*
X-69611815Y-34575689D01*
X-72399500Y-34575689D01*
X-72399500Y-33441074D01*
X-68994829Y-33441074D01*
X-68990315Y-33450474D01*
X-68217342Y-34223448D01*
X-68200000Y-34235035D01*
X-68182658Y-34223448D01*
X-67415540Y-33456329D01*
X-67403952Y-33438987D01*
X-67410345Y-33429420D01*
X-67427095Y-33418291D01*
X-67611905Y-33316271D01*
X-67630481Y-33307922D01*
X-67829465Y-33237459D01*
X-67849166Y-33232254D01*
X-68056979Y-33195236D01*
X-68077262Y-33193319D01*
X-68288328Y-33190741D01*
X-68308661Y-33192163D01*
X-68517323Y-33224092D01*
X-68537130Y-33228811D01*
X-68737768Y-33294390D01*
X-68756563Y-33302290D01*
X-68943793Y-33399756D01*
X-68961038Y-33410615D01*
X-68980914Y-33425538D01*
X-68994829Y-33441074D01*
X-72399500Y-33441074D01*
X-72399500Y-18961839D01*
X-68996874Y-18961839D01*
X-68994314Y-18965670D01*
X-68988823Y-18969906D01*
X-68819281Y-19068979D01*
X-68800922Y-19077775D01*
X-68603709Y-19153084D01*
X-68584152Y-19158765D01*
X-68377300Y-19200849D01*
X-68357074Y-19203261D01*
X-68146122Y-19210997D01*
X-68125775Y-19210074D01*
X-67916387Y-19183250D01*
X-67896472Y-19179016D01*
X-67694287Y-19118358D01*
X-67675312Y-19110922D01*
X-67485749Y-19018056D01*
X-67468254Y-19007627D01*
X-67420119Y-18973293D01*
X-67405832Y-18958105D01*
X-67409705Y-18949506D01*
X-67517865Y-18841346D01*
X-60660499Y-18841346D01*
X-60659771Y-18854792D01*
X-60655438Y-18894685D01*
X-60648272Y-18924826D01*
X-60608900Y-19029850D01*
X-60592031Y-19060660D01*
X-60526047Y-19148703D01*
X-60501203Y-19173547D01*
X-60413160Y-19239531D01*
X-60382350Y-19256400D01*
X-60277322Y-19295773D01*
X-60247191Y-19302938D01*
X-60207286Y-19307273D01*
X-60193850Y-19308000D01*
X-59478527Y-19308000D01*
X-59458069Y-19303931D01*
X-59454000Y-19283473D01*
X-59454000Y-18078527D01*
X-59458069Y-18058069D01*
X-59478527Y-18054000D01*
X-60635972Y-18054000D01*
X-60656430Y-18058069D01*
X-60660499Y-18078527D01*
X-60660499Y-18841346D01*
X-67517865Y-18841346D01*
X-68182658Y-18176552D01*
X-68200000Y-18164965D01*
X-68217342Y-18176552D01*
X-68985286Y-18944497D01*
X-68996874Y-18961839D01*
X-72399500Y-18961839D01*
X-72399500Y-17775689D01*
X-69611815Y-17775689D01*
X-69599665Y-17986420D01*
X-69596828Y-18006602D01*
X-69550423Y-18212520D01*
X-69544330Y-18231965D01*
X-69464912Y-18427545D01*
X-69455729Y-18445724D01*
X-69373251Y-18580318D01*
X-69359095Y-18595632D01*
X-69353519Y-18593575D01*
X-69350055Y-18590844D01*
X-68576552Y-17817342D01*
X-68564965Y-17800000D01*
X-67835035Y-17800000D01*
X-67823448Y-17817342D01*
X-67058227Y-18582562D01*
X-67040885Y-18594150D01*
X-67032931Y-18588835D01*
X-66994938Y-18535961D01*
X-66984443Y-18518496D01*
X-66890917Y-18329260D01*
X-66883416Y-18310315D01*
X-66822052Y-18108344D01*
X-66817747Y-18088435D01*
X-66789725Y-17875581D01*
X-66788699Y-17862399D01*
X-66787336Y-17806626D01*
X-66787717Y-17793394D01*
X-66805308Y-17579430D01*
X-66808634Y-17559339D01*
X-66860061Y-17354602D01*
X-66866621Y-17335330D01*
X-66950797Y-17141740D01*
X-66960422Y-17123788D01*
X-67027295Y-17020419D01*
X-67041823Y-17005453D01*
X-67048793Y-17008220D01*
X-67049920Y-17009131D01*
X-67823448Y-17782658D01*
X-67835035Y-17800000D01*
X-68564965Y-17800000D01*
X-68576552Y-17782658D01*
X-69341604Y-17017607D01*
X-69358946Y-17006019D01*
X-69366159Y-17010839D01*
X-69422691Y-17093710D01*
X-69432744Y-17111408D01*
X-69521627Y-17302891D01*
X-69528656Y-17321993D01*
X-69585071Y-17525418D01*
X-69588887Y-17545425D01*
X-69611317Y-17755315D01*
X-69611815Y-17775689D01*
X-72399500Y-17775689D01*
X-72399500Y-16641074D01*
X-68994829Y-16641074D01*
X-68990315Y-16650474D01*
X-68217342Y-17423448D01*
X-68200000Y-17435035D01*
X-68182658Y-17423448D01*
X-67415540Y-16656329D01*
X-67403952Y-16638987D01*
X-67410345Y-16629420D01*
X-67427095Y-16618291D01*
X-67611905Y-16516271D01*
X-67630481Y-16507922D01*
X-67829465Y-16437459D01*
X-67849166Y-16432254D01*
X-68056979Y-16395236D01*
X-68077262Y-16393319D01*
X-68288328Y-16390741D01*
X-68308661Y-16392163D01*
X-68517323Y-16424092D01*
X-68537130Y-16428811D01*
X-68737768Y-16494390D01*
X-68756563Y-16502290D01*
X-68943793Y-16599756D01*
X-68961038Y-16610615D01*
X-68980914Y-16625538D01*
X-68994829Y-16641074D01*
X-72399500Y-16641074D01*
X-72399500Y-5555683D01*
X-72398878Y-5546187D01*
X-71704941Y-5546187D01*
X-71679464Y-5837399D01*
X-71615695Y-6122683D01*
X-71514756Y-6397027D01*
X-71378420Y-6655612D01*
X-71209082Y-6893893D01*
X-71009717Y-7107686D01*
X-70783829Y-7293233D01*
X-70535384Y-7447275D01*
X-70268750Y-7567105D01*
X-69988609Y-7650619D01*
X-69699883Y-7696348D01*
X-69692936Y-7696663D01*
X-69692931Y-7696664D01*
X-69611260Y-7700373D01*
X-69611239Y-7700373D01*
X-69608453Y-7700500D01*
X-69425849Y-7700500D01*
X-69421759Y-7700228D01*
X-69421748Y-7700228D01*
X-69291464Y-7691574D01*
X-69208318Y-7686052D01*
X-68921761Y-7628272D01*
X-68913956Y-7625585D01*
X-68913954Y-7625584D01*
X-68750977Y-7569466D01*
X-68645363Y-7533100D01*
X-68383980Y-7402209D01*
X-68377145Y-7397564D01*
X-68377140Y-7397561D01*
X-68149030Y-7242537D01*
X-68142205Y-7237899D01*
X-68002442Y-7112937D01*
X-67930444Y-7048563D01*
X-67930441Y-7048560D01*
X-67924284Y-7043055D01*
X-67918910Y-7036785D01*
X-67918905Y-7036780D01*
X-67739423Y-6827374D01*
X-67734047Y-6821102D01*
X-67630946Y-6662340D01*
X-67579338Y-6582871D01*
X-67579336Y-6582867D01*
X-67574836Y-6575938D01*
X-67449448Y-6311871D01*
X-67360086Y-6033541D01*
X-67308319Y-5745836D01*
X-67299092Y-5542642D01*
X-67295433Y-5462053D01*
X-67295433Y-5462051D01*
X-67295059Y-5453813D01*
X-67320536Y-5162601D01*
X-67384305Y-4877317D01*
X-67485244Y-4602973D01*
X-67621580Y-4344388D01*
X-67790918Y-4106107D01*
X-67990283Y-3892314D01*
X-68216171Y-3706767D01*
X-68464616Y-3552725D01*
X-68731250Y-3432895D01*
X-69011391Y-3349381D01*
X-69300117Y-3303652D01*
X-69307064Y-3303337D01*
X-69307069Y-3303336D01*
X-69388740Y-3299627D01*
X-69388761Y-3299627D01*
X-69391547Y-3299500D01*
X-69574151Y-3299500D01*
X-69578241Y-3299772D01*
X-69578252Y-3299772D01*
X-69708536Y-3308426D01*
X-69791682Y-3313948D01*
X-70078239Y-3371728D01*
X-70086044Y-3374415D01*
X-70086046Y-3374416D01*
X-70181576Y-3407310D01*
X-70354637Y-3466900D01*
X-70616020Y-3597791D01*
X-70622855Y-3602436D01*
X-70622860Y-3602439D01*
X-70767746Y-3700904D01*
X-70857795Y-3762101D01*
X-70863944Y-3767599D01*
X-70863948Y-3767602D01*
X-71063439Y-3945968D01*
X-71075716Y-3956945D01*
X-71081090Y-3963215D01*
X-71081095Y-3963220D01*
X-71209338Y-4112844D01*
X-71265953Y-4178898D01*
X-71270449Y-4185822D01*
X-71270451Y-4185824D01*
X-71373423Y-4344388D01*
X-71425164Y-4424062D01*
X-71550552Y-4688129D01*
X-71639914Y-4966459D01*
X-71691681Y-5254164D01*
X-71692055Y-5262406D01*
X-71703896Y-5523182D01*
X-71704941Y-5546187D01*
X-72398878Y-5546187D01*
X-72397370Y-5523182D01*
X-72396448Y-5516181D01*
X-72396448Y-5516179D01*
X-72394318Y-5500000D01*
X-72396449Y-5483818D01*
X-72396449Y-5467499D01*
X-72395952Y-5467499D01*
X-72396642Y-5449093D01*
X-72396445Y-5445597D01*
X-72386157Y-5262406D01*
X-72382053Y-5189325D01*
X-72378927Y-5161577D01*
X-72329145Y-4868586D01*
X-72322932Y-4841365D01*
X-72299440Y-4759820D01*
X-72240658Y-4555783D01*
X-72231438Y-4529434D01*
X-72187791Y-4424062D01*
X-72117708Y-4254868D01*
X-72105601Y-4229726D01*
X-71961838Y-3969607D01*
X-71946984Y-3945968D01*
X-71775010Y-3703594D01*
X-71757601Y-3681763D01*
X-71559574Y-3460171D01*
X-71539829Y-3440426D01*
X-71318237Y-3242399D01*
X-71296406Y-3224990D01*
X-71054032Y-3053016D01*
X-71030393Y-3038162D01*
X-70770274Y-2894399D01*
X-70745132Y-2882292D01*
X-70470558Y-2768559D01*
X-70444217Y-2759342D01*
X-70240180Y-2700560D01*
X-70158635Y-2677068D01*
X-70131414Y-2670855D01*
X-69838423Y-2621073D01*
X-69810675Y-2617947D01*
X-69686884Y-2610995D01*
X-69550903Y-2603358D01*
X-69532501Y-2604048D01*
X-69532501Y-2603551D01*
X-69516182Y-2603551D01*
X-69500000Y-2605682D01*
X-69483821Y-2603552D01*
X-69483819Y-2603552D01*
X-69476818Y-2602630D01*
X-69444317Y-2600500D01*
X-5555683Y-2600500D01*
X-5523182Y-2602630D01*
G37*
%TD.AperFunction*%
%TD*%
%TA.AperFunction,Conductor*%
%TO.N,Net-(C3-Pad1)*%
G36*
X-58165879Y-40628502D02*
G01*
X-58119386Y-40682158D01*
X-58108000Y-40734500D01*
X-58108000Y-41027885D01*
X-58103525Y-41043124D01*
X-58102135Y-41044329D01*
X-58094452Y-41046000D01*
X-55510116Y-41046000D01*
X-55494877Y-41041525D01*
X-55493672Y-41040135D01*
X-55492001Y-41032452D01*
X-55492001Y-40734500D01*
X-55471999Y-40666379D01*
X-55418343Y-40619886D01*
X-55366001Y-40608500D01*
X-49826000Y-40608500D01*
X-49757879Y-40628502D01*
X-49711386Y-40682158D01*
X-49700000Y-40734500D01*
X-49700000Y-41920210D01*
X-49700479Y-41931192D01*
X-49713498Y-42080000D01*
X-49713019Y-42085475D01*
X-49700479Y-42228808D01*
X-49700000Y-42239790D01*
X-49700000Y-43700000D01*
X-49594626Y-43700000D01*
X-49526505Y-43720002D01*
X-49480012Y-43773658D01*
X-49469908Y-43843932D01*
X-49491413Y-43898270D01*
X-49533928Y-43958988D01*
X-49539414Y-43968489D01*
X-49631490Y-44165947D01*
X-49635236Y-44176239D01*
X-49681394Y-44348503D01*
X-49681058Y-44362599D01*
X-49673116Y-44366000D01*
X-47132033Y-44366000D01*
X-47118502Y-44362027D01*
X-47117273Y-44353478D01*
X-47164764Y-44176239D01*
X-47168510Y-44165947D01*
X-47260586Y-43968489D01*
X-47266072Y-43958988D01*
X-47308587Y-43898270D01*
X-47331275Y-43830996D01*
X-47313990Y-43762136D01*
X-47262220Y-43713552D01*
X-47205374Y-43700000D01*
X-46726000Y-43700000D01*
X-46657879Y-43720002D01*
X-46611386Y-43773658D01*
X-46600000Y-43826000D01*
X-46600000Y-47365500D01*
X-46620002Y-47433621D01*
X-46673658Y-47480114D01*
X-46726000Y-47491500D01*
X-52262801Y-47491500D01*
X-52330922Y-47471498D01*
X-52377415Y-47417842D01*
X-52387519Y-47347568D01*
X-52376995Y-47312248D01*
X-52368510Y-47294053D01*
X-52364764Y-47283761D01*
X-52318606Y-47111497D01*
X-52318942Y-47097401D01*
X-52326884Y-47094000D01*
X-54867967Y-47094000D01*
X-54881498Y-47097973D01*
X-54882727Y-47106522D01*
X-54835236Y-47283761D01*
X-54831490Y-47294053D01*
X-54823005Y-47312248D01*
X-54812343Y-47382440D01*
X-54841322Y-47447253D01*
X-54900741Y-47486110D01*
X-54937199Y-47491500D01*
X-56545870Y-47491500D01*
X-56613991Y-47471498D01*
X-56660484Y-47417842D01*
X-56670588Y-47347568D01*
X-56665959Y-47329132D01*
X-56666187Y-47329071D01*
X-56618606Y-47151497D01*
X-56618942Y-47137401D01*
X-56626884Y-47134000D01*
X-59167967Y-47134000D01*
X-59181498Y-47137973D01*
X-59182727Y-47146522D01*
X-59133813Y-47329071D01*
X-59135282Y-47329465D01*
X-59131224Y-47393249D01*
X-59165737Y-47455292D01*
X-59228314Y-47488827D01*
X-59254130Y-47491500D01*
X-59774000Y-47491500D01*
X-59842121Y-47471498D01*
X-59888614Y-47417842D01*
X-59900000Y-47365500D01*
X-59900000Y-46608503D01*
X-59181394Y-46608503D01*
X-59181058Y-46622599D01*
X-59173116Y-46626000D01*
X-58172115Y-46626000D01*
X-58156876Y-46621525D01*
X-58155671Y-46620135D01*
X-58154000Y-46612452D01*
X-58154000Y-46607885D01*
X-57646000Y-46607885D01*
X-57641525Y-46623124D01*
X-57640135Y-46624329D01*
X-57632452Y-46626000D01*
X-56632033Y-46626000D01*
X-56618502Y-46622027D01*
X-56617273Y-46613478D01*
X-56629324Y-46568503D01*
X-54881394Y-46568503D01*
X-54881058Y-46582599D01*
X-54873116Y-46586000D01*
X-53872115Y-46586000D01*
X-53856876Y-46581525D01*
X-53855671Y-46580135D01*
X-53854000Y-46572452D01*
X-53854000Y-46567885D01*
X-53346000Y-46567885D01*
X-53341525Y-46583124D01*
X-53340135Y-46584329D01*
X-53332452Y-46586000D01*
X-52332033Y-46586000D01*
X-52318502Y-46582027D01*
X-52317273Y-46573478D01*
X-52364764Y-46396239D01*
X-52368510Y-46385947D01*
X-52460586Y-46188489D01*
X-52466069Y-46178993D01*
X-52591028Y-46000533D01*
X-52598084Y-45992125D01*
X-52752125Y-45838084D01*
X-52760533Y-45831028D01*
X-52938993Y-45706069D01*
X-52948489Y-45700586D01*
X-53145947Y-45608510D01*
X-53156239Y-45604764D01*
X-53328503Y-45558606D01*
X-53342599Y-45558942D01*
X-53346000Y-45566884D01*
X-53346000Y-46567885D01*
X-53854000Y-46567885D01*
X-53854000Y-45572033D01*
X-53857973Y-45558502D01*
X-53866522Y-45557273D01*
X-54043761Y-45604764D01*
X-54054053Y-45608510D01*
X-54251511Y-45700586D01*
X-54261007Y-45706069D01*
X-54439467Y-45831028D01*
X-54447875Y-45838084D01*
X-54601916Y-45992125D01*
X-54608972Y-46000533D01*
X-54733931Y-46178993D01*
X-54739414Y-46188489D01*
X-54831490Y-46385947D01*
X-54835236Y-46396239D01*
X-54881394Y-46568503D01*
X-56629324Y-46568503D01*
X-56664764Y-46436239D01*
X-56668510Y-46425947D01*
X-56760586Y-46228489D01*
X-56766069Y-46218993D01*
X-56891028Y-46040533D01*
X-56898084Y-46032125D01*
X-57052125Y-45878084D01*
X-57060533Y-45871028D01*
X-57238993Y-45746069D01*
X-57248489Y-45740586D01*
X-57445947Y-45648510D01*
X-57456239Y-45644764D01*
X-57628503Y-45598606D01*
X-57642599Y-45598942D01*
X-57646000Y-45606884D01*
X-57646000Y-46607885D01*
X-58154000Y-46607885D01*
X-58154000Y-45612033D01*
X-58157973Y-45598502D01*
X-58166522Y-45597273D01*
X-58343761Y-45644764D01*
X-58354053Y-45648510D01*
X-58551511Y-45740586D01*
X-58561007Y-45746069D01*
X-58739467Y-45871028D01*
X-58747875Y-45878084D01*
X-58901916Y-46032125D01*
X-58908972Y-46040533D01*
X-59033931Y-46218993D01*
X-59039414Y-46228489D01*
X-59131490Y-46425947D01*
X-59135236Y-46436239D01*
X-59181394Y-46608503D01*
X-59900000Y-46608503D01*
X-59900000Y-44886522D01*
X-49682727Y-44886522D01*
X-49635236Y-45063761D01*
X-49631490Y-45074053D01*
X-49539414Y-45271511D01*
X-49533931Y-45281007D01*
X-49408972Y-45459467D01*
X-49401916Y-45467875D01*
X-49247875Y-45621916D01*
X-49239467Y-45628972D01*
X-49061007Y-45753931D01*
X-49051511Y-45759414D01*
X-48854053Y-45851490D01*
X-48843761Y-45855236D01*
X-48671497Y-45901394D01*
X-48657401Y-45901058D01*
X-48654000Y-45893116D01*
X-48654000Y-45887967D01*
X-48146000Y-45887967D01*
X-48142027Y-45901498D01*
X-48133478Y-45902727D01*
X-47956239Y-45855236D01*
X-47945947Y-45851490D01*
X-47748489Y-45759414D01*
X-47738993Y-45753931D01*
X-47560533Y-45628972D01*
X-47552125Y-45621916D01*
X-47398084Y-45467875D01*
X-47391028Y-45459467D01*
X-47266069Y-45281007D01*
X-47260586Y-45271511D01*
X-47168510Y-45074053D01*
X-47164764Y-45063761D01*
X-47118606Y-44891497D01*
X-47118942Y-44877401D01*
X-47126884Y-44874000D01*
X-48127885Y-44874000D01*
X-48143124Y-44878475D01*
X-48144329Y-44879865D01*
X-48146000Y-44887548D01*
X-48146000Y-45887967D01*
X-48654000Y-45887967D01*
X-48654000Y-44892115D01*
X-48658475Y-44876876D01*
X-48659865Y-44875671D01*
X-48667548Y-44874000D01*
X-49667967Y-44874000D01*
X-49681498Y-44877973D01*
X-49682727Y-44886522D01*
X-59900000Y-44886522D01*
X-59900000Y-42144669D01*
X-58107999Y-42144669D01*
X-58107629Y-42151490D01*
X-58102105Y-42202352D01*
X-58098479Y-42217604D01*
X-58053324Y-42338054D01*
X-58044786Y-42353649D01*
X-57968285Y-42455724D01*
X-57955724Y-42468285D01*
X-57853649Y-42544786D01*
X-57838054Y-42553324D01*
X-57717606Y-42598478D01*
X-57702351Y-42602105D01*
X-57651486Y-42607631D01*
X-57644672Y-42608000D01*
X-57072115Y-42608000D01*
X-57056876Y-42603525D01*
X-57055671Y-42602135D01*
X-57054000Y-42594452D01*
X-57054000Y-42589884D01*
X-56546000Y-42589884D01*
X-56541525Y-42605123D01*
X-56540135Y-42606328D01*
X-56532452Y-42607999D01*
X-55955331Y-42607999D01*
X-55948510Y-42607629D01*
X-55897648Y-42602105D01*
X-55882396Y-42598479D01*
X-55761946Y-42553324D01*
X-55746351Y-42544786D01*
X-55644276Y-42468285D01*
X-55631715Y-42455724D01*
X-55555214Y-42353649D01*
X-55546676Y-42338054D01*
X-55501522Y-42217606D01*
X-55497895Y-42202351D01*
X-55492369Y-42151486D01*
X-55492000Y-42144672D01*
X-55492000Y-41572115D01*
X-55496475Y-41556876D01*
X-55497865Y-41555671D01*
X-55505548Y-41554000D01*
X-56527885Y-41554000D01*
X-56543124Y-41558475D01*
X-56544329Y-41559865D01*
X-56546000Y-41567548D01*
X-56546000Y-42589884D01*
X-57054000Y-42589884D01*
X-57054000Y-41572115D01*
X-57058475Y-41556876D01*
X-57059865Y-41555671D01*
X-57067548Y-41554000D01*
X-58089884Y-41554000D01*
X-58105123Y-41558475D01*
X-58106328Y-41559865D01*
X-58107999Y-41567548D01*
X-58107999Y-42144669D01*
X-59900000Y-42144669D01*
X-59900000Y-40734500D01*
X-59879998Y-40666379D01*
X-59826342Y-40619886D01*
X-59774000Y-40608500D01*
X-58234000Y-40608500D01*
X-58165879Y-40628502D01*
G37*
%TD.AperFunction*%
%TD*%
M02*
