%TF.GenerationSoftware,KiCad,Pcbnew,5.1.9*%
%TF.CreationDate,2021-04-25T11:32:05-04:00*%
%TF.ProjectId,smd_vacuum,736d645f-7661-4637-9575-6d2e6b696361,rev?*%
%TF.SameCoordinates,PXaa6bee0PY277b6c0*%
%TF.FileFunction,Copper,L2,Bot*%
%TF.FilePolarity,Positive*%
%FSLAX46Y46*%
G04 Gerber Fmt 4.6, Leading zero omitted, Abs format (unit mm)*
G04 Created by KiCad (PCBNEW 5.1.9) date 2021-04-25 11:32:05*
%MOMM*%
%LPD*%
G01*
G04 APERTURE LIST*
%TA.AperFunction,ComponentPad*%
%ADD10O,1.600000X1.600000*%
%TD*%
%TA.AperFunction,ComponentPad*%
%ADD11R,1.600000X1.600000*%
%TD*%
%TA.AperFunction,ComponentPad*%
%ADD12C,1.800000*%
%TD*%
%TA.AperFunction,ComponentPad*%
%ADD13C,1.600000*%
%TD*%
%TA.AperFunction,ComponentPad*%
%ADD14O,2.000000X1.905000*%
%TD*%
%TA.AperFunction,ComponentPad*%
%ADD15R,2.000000X1.905000*%
%TD*%
%TA.AperFunction,ComponentPad*%
%ADD16O,1.905000X2.000000*%
%TD*%
%TA.AperFunction,ComponentPad*%
%ADD17R,1.905000X2.000000*%
%TD*%
%TA.AperFunction,ComponentPad*%
%ADD18O,2.200000X2.200000*%
%TD*%
%TA.AperFunction,ComponentPad*%
%ADD19R,2.200000X2.200000*%
%TD*%
%TA.AperFunction,ComponentPad*%
%ADD20O,1.750000X1.200000*%
%TD*%
%TA.AperFunction,ComponentPad*%
%ADD21O,1.200000X1.750000*%
%TD*%
%TA.AperFunction,Conductor*%
%ADD22C,1.000000*%
%TD*%
%TA.AperFunction,Conductor*%
%ADD23C,0.254000*%
%TD*%
%TA.AperFunction,Conductor*%
%ADD24C,0.100000*%
%TD*%
G04 APERTURE END LIST*
D10*
%TO.P,U2,4*%
%TO.N,+12V*%
X-40780000Y-61300000D03*
%TO.P,U2,2*%
%TO.N,Net-(R2-Pad1)*%
X-48400000Y-63840000D03*
%TO.P,U2,3*%
%TO.N,Net-(R6-Pad2)*%
X-40780000Y-63840000D03*
D11*
%TO.P,U2,1*%
%TO.N,+12V*%
X-48400000Y-61300000D03*
%TD*%
D10*
%TO.P,U1,8*%
%TO.N,+12V*%
X-40780000Y-37000000D03*
%TO.P,U1,4*%
X-48400000Y-44620000D03*
%TO.P,U1,7*%
%TO.N,Net-(C2-Pad1)*%
X-40780000Y-39540000D03*
%TO.P,U1,3*%
%TO.N,Net-(D4-Pad2)*%
X-48400000Y-42080000D03*
%TO.P,U1,6*%
%TO.N,Net-(C2-Pad1)*%
X-40780000Y-42080000D03*
%TO.P,U1,2*%
%TO.N,Net-(D2-Pad1)*%
X-48400000Y-39540000D03*
%TO.P,U1,5*%
%TO.N,Net-(C1-Pad1)*%
X-40780000Y-44620000D03*
D11*
%TO.P,U1,1*%
%TO.N,GND*%
X-48400000Y-37000000D03*
%TD*%
D12*
%TO.P,SW1,2*%
%TO.N,Net-(D2-Pad1)*%
X-68200000Y-39600000D03*
%TO.P,SW1,1*%
%TO.N,GND*%
X-68200000Y-34600000D03*
%TD*%
D10*
%TO.P,R8,2*%
%TO.N,Net-(R6-Pad2)*%
X-36560000Y-63900000D03*
D13*
%TO.P,R8,1*%
%TO.N,Net-(Q3-Pad1)*%
X-26400000Y-63900000D03*
%TD*%
D10*
%TO.P,R7,2*%
%TO.N,Net-(D4-Pad2)*%
X-49360000Y-27300000D03*
D13*
%TO.P,R7,1*%
%TO.N,Net-(Q2-Pad1)*%
X-39200000Y-27300000D03*
%TD*%
D10*
%TO.P,R6,2*%
%TO.N,Net-(R6-Pad2)*%
X-36560000Y-69000000D03*
D13*
%TO.P,R6,1*%
%TO.N,GND*%
X-26400000Y-69000000D03*
%TD*%
D10*
%TO.P,R5,2*%
%TO.N,Net-(D4-Pad1)*%
X-49360000Y-22200000D03*
D13*
%TO.P,R5,1*%
%TO.N,GND*%
X-39200000Y-22200000D03*
%TD*%
D10*
%TO.P,R4,2*%
%TO.N,Net-(C2-Pad1)*%
X-39340000Y-50200000D03*
D13*
%TO.P,R4,1*%
%TO.N,Net-(R3-Pad2)*%
X-49500000Y-50200000D03*
%TD*%
D12*
%TO.P,R3,2*%
%TO.N,Net-(R3-Pad2)*%
X-68200000Y-52500000D03*
%TO.P,R3,1*%
%TO.N,+12V*%
X-68200000Y-47500000D03*
%TD*%
D10*
%TO.P,R2,2*%
%TO.N,Net-(D3-Pad2)*%
X-62760000Y-63900000D03*
D13*
%TO.P,R2,1*%
%TO.N,Net-(R2-Pad1)*%
X-52600000Y-63900000D03*
%TD*%
D10*
%TO.P,R1,2*%
%TO.N,GND*%
X-39240000Y-17100000D03*
D13*
%TO.P,R1,1*%
%TO.N,Net-(D1-Pad1)*%
X-49400000Y-17100000D03*
%TD*%
D14*
%TO.P,Q3,3*%
%TO.N,GND*%
X-21800000Y-68980000D03*
%TO.P,Q3,2*%
%TO.N,Net-(D6-Pad2)*%
X-21800000Y-66440000D03*
D15*
%TO.P,Q3,1*%
%TO.N,Net-(Q3-Pad1)*%
X-21800000Y-63900000D03*
%TD*%
D14*
%TO.P,Q2,3*%
%TO.N,GND*%
X-21800000Y-32380000D03*
%TO.P,Q2,2*%
%TO.N,Net-(D5-Pad2)*%
X-21800000Y-29840000D03*
D15*
%TO.P,Q2,1*%
%TO.N,Net-(Q2-Pad1)*%
X-21800000Y-27300000D03*
%TD*%
D16*
%TO.P,Q1,3*%
%TO.N,+12V*%
X-54120000Y-17800000D03*
%TO.P,Q1,2*%
%TO.N,Net-(J1-Pad1)*%
X-56660000Y-17800000D03*
D17*
%TO.P,Q1,1*%
%TO.N,GND*%
X-59200000Y-17800000D03*
%TD*%
D12*
%TO.P,M1,2*%
%TO.N,Net-(D5-Pad2)*%
X-6800000Y-29800000D03*
%TO.P,M1,1*%
%TO.N,+12V*%
X-6800000Y-34800000D03*
%TD*%
%TO.P,L1,2*%
%TO.N,+12V*%
X-6800000Y-58700000D03*
%TO.P,L1,1*%
%TO.N,Net-(D6-Pad2)*%
X-6800000Y-63700000D03*
%TD*%
%TO.P,J1,2*%
%TO.N,GND*%
X-68200000Y-17800000D03*
%TO.P,J1,1*%
%TO.N,Net-(J1-Pad1)*%
X-68200000Y-12800000D03*
%TD*%
D18*
%TO.P,D6,2*%
%TO.N,Net-(D6-Pad2)*%
X-14700000Y-66460000D03*
D19*
%TO.P,D6,1*%
%TO.N,+12V*%
X-14700000Y-56300000D03*
%TD*%
D18*
%TO.P,D5,2*%
%TO.N,Net-(D5-Pad2)*%
X-14700000Y-29840000D03*
D19*
%TO.P,D5,1*%
%TO.N,+12V*%
X-14700000Y-40000000D03*
%TD*%
D20*
%TO.P,D4,2*%
%TO.N,Net-(D4-Pad2)*%
X-68100000Y-26900000D03*
%TO.P,D4,1*%
%TO.N,Net-(D4-Pad1)*%
%TA.AperFunction,ComponentPad*%
G36*
G01*
X-68725001Y-24300000D02*
X-67474999Y-24300000D01*
G75*
G02*
X-67225000Y-24549999I0J-249999D01*
G01*
X-67225000Y-25250001D01*
G75*
G02*
X-67474999Y-25500000I-249999J0D01*
G01*
X-68725001Y-25500000D01*
G75*
G02*
X-68975000Y-25250001I0J249999D01*
G01*
X-68975000Y-24549999D01*
G75*
G02*
X-68725001Y-24300000I249999J0D01*
G01*
G37*
%TD.AperFunction*%
%TD*%
%TO.P,D3,2*%
%TO.N,Net-(D3-Pad2)*%
X-68100000Y-63900000D03*
%TO.P,D3,1*%
%TO.N,Net-(D2-Pad1)*%
%TA.AperFunction,ComponentPad*%
G36*
G01*
X-68725001Y-61300000D02*
X-67474999Y-61300000D01*
G75*
G02*
X-67225000Y-61549999I0J-249999D01*
G01*
X-67225000Y-62250001D01*
G75*
G02*
X-67474999Y-62500000I-249999J0D01*
G01*
X-68725001Y-62500000D01*
G75*
G02*
X-68975000Y-62250001I0J249999D01*
G01*
X-68975000Y-61549999D01*
G75*
G02*
X-68725001Y-61300000I249999J0D01*
G01*
G37*
%TD.AperFunction*%
%TD*%
D10*
%TO.P,D2,2*%
%TO.N,Net-(C2-Pad1)*%
X-40780000Y-32100000D03*
D11*
%TO.P,D2,1*%
%TO.N,Net-(D2-Pad1)*%
X-48400000Y-32100000D03*
%TD*%
D21*
%TO.P,D1,2*%
%TO.N,+12V*%
X-54100000Y-6900000D03*
%TO.P,D1,1*%
%TO.N,Net-(D1-Pad1)*%
%TA.AperFunction,ComponentPad*%
G36*
G01*
X-51500000Y-6274999D02*
X-51500000Y-7525001D01*
G75*
G02*
X-51749999Y-7775000I-249999J0D01*
G01*
X-52450001Y-7775000D01*
G75*
G02*
X-52700000Y-7525001I0J249999D01*
G01*
X-52700000Y-6274999D01*
G75*
G02*
X-52450001Y-6025000I249999J0D01*
G01*
X-51749999Y-6025000D01*
G75*
G02*
X-51500000Y-6274999I0J-249999D01*
G01*
G37*
%TD.AperFunction*%
%TD*%
D13*
%TO.P,C2,2*%
%TO.N,GND*%
X-31700000Y-42100000D03*
D11*
%TO.P,C2,1*%
%TO.N,Net-(C2-Pad1)*%
X-35200000Y-42100000D03*
%TD*%
D13*
%TO.P,C1,2*%
%TO.N,GND*%
X-47000000Y-55700000D03*
%TO.P,C1,1*%
%TO.N,Net-(C1-Pad1)*%
X-42000000Y-55700000D03*
%TD*%
D22*
%TO.N,GND*%
X-39200000Y-17140000D02*
X-39240000Y-17100000D01*
X-39200000Y-22200000D02*
X-39200000Y-17140000D01*
%TO.N,Net-(C1-Pad1)*%
X-42000000Y-45840000D02*
X-40780000Y-44620000D01*
X-42000000Y-55700000D02*
X-42000000Y-45840000D01*
%TO.N,Net-(C2-Pad1)*%
X-39279999Y-33600001D02*
X-40780000Y-32100000D01*
X-39279999Y-38039999D02*
X-39279999Y-33600001D01*
X-40780000Y-39540000D02*
X-39279999Y-38039999D01*
X-40780000Y-42080000D02*
X-40780000Y-39540000D01*
X-35220000Y-42080000D02*
X-35200000Y-42100000D01*
X-40780000Y-42080000D02*
X-35220000Y-42080000D01*
X-39279999Y-50139999D02*
X-39340000Y-50200000D01*
X-39279999Y-43580001D02*
X-39279999Y-50139999D01*
X-40780000Y-42080000D02*
X-39279999Y-43580001D01*
%TO.N,+12V*%
X-12300000Y-58700000D02*
X-14700000Y-56300000D01*
X-6800000Y-58700000D02*
X-12300000Y-58700000D01*
X-48400000Y-61300000D02*
X-40780000Y-61300000D01*
X-45499999Y-58399999D02*
X-48400000Y-61300000D01*
X-45499999Y-47520001D02*
X-45499999Y-58399999D01*
X-48400000Y-44620000D02*
X-45499999Y-47520001D01*
X-19700000Y-61300000D02*
X-14700000Y-56300000D01*
X-40780000Y-61300000D02*
X-19700000Y-61300000D01*
X-9500000Y-34800000D02*
X-14700000Y-40000000D01*
X-6800000Y-34800000D02*
X-9500000Y-34800000D01*
X-51539998Y-17800000D02*
X-54120000Y-17800000D01*
X-42280001Y-27059997D02*
X-51539998Y-17800000D01*
X-42280001Y-35499999D02*
X-42280001Y-27059997D01*
X-40780000Y-37000000D02*
X-42280001Y-35499999D01*
X-48400000Y-44620000D02*
X-40780000Y-37000000D01*
X-14700000Y-56300000D02*
X-14700000Y-40000000D01*
X-65320000Y-44620000D02*
X-68200000Y-47500000D01*
X-48400000Y-44620000D02*
X-65320000Y-44620000D01*
X-54120000Y-6920000D02*
X-54100000Y-6900000D01*
X-54120000Y-17800000D02*
X-54120000Y-6920000D01*
%TO.N,Net-(D1-Pad1)*%
X-52100000Y-14400000D02*
X-49400000Y-17100000D01*
X-52100000Y-6900000D02*
X-52100000Y-14400000D01*
%TO.N,Net-(D2-Pad1)*%
X-50100000Y-32100000D02*
X-48400000Y-32100000D01*
X-51500000Y-33500000D02*
X-50100000Y-32100000D01*
X-51500000Y-39000000D02*
X-51500000Y-33500000D01*
X-50960000Y-39540000D02*
X-51500000Y-39000000D01*
X-48400000Y-39540000D02*
X-50960000Y-39540000D01*
X-48460000Y-39600000D02*
X-48400000Y-39540000D01*
X-68200000Y-39600000D02*
X-48460000Y-39600000D01*
X-69800001Y-60199999D02*
X-68100000Y-61900000D01*
X-69800001Y-41200001D02*
X-69800001Y-60199999D01*
X-68200000Y-39600000D02*
X-69800001Y-41200001D01*
%TO.N,Net-(D3-Pad2)*%
X-62760000Y-63900000D02*
X-68100000Y-63900000D01*
%TO.N,Net-(D4-Pad2)*%
X-45800000Y-27300000D02*
X-49360000Y-27300000D01*
X-44200000Y-28900000D02*
X-45800000Y-27300000D01*
X-44200000Y-37880000D02*
X-44200000Y-28900000D01*
X-48400000Y-42080000D02*
X-44200000Y-37880000D01*
X-49760000Y-26900000D02*
X-49360000Y-27300000D01*
X-68100000Y-26900000D02*
X-49760000Y-26900000D01*
%TO.N,Net-(D4-Pad1)*%
X-52060000Y-24900000D02*
X-49360000Y-22200000D01*
X-68100000Y-24900000D02*
X-52060000Y-24900000D01*
%TO.N,Net-(D5-Pad2)*%
X-21800000Y-29840000D02*
X-14700000Y-29840000D01*
X-6840000Y-29840000D02*
X-6800000Y-29800000D01*
X-14700000Y-29840000D02*
X-6840000Y-29840000D01*
%TO.N,Net-(D6-Pad2)*%
X-14720000Y-66440000D02*
X-14700000Y-66460000D01*
X-21800000Y-66440000D02*
X-14720000Y-66440000D01*
X-11940000Y-63700000D02*
X-14700000Y-66460000D01*
X-6800000Y-63700000D02*
X-11940000Y-63700000D01*
%TO.N,Net-(J1-Pad1)*%
X-56660000Y-17127498D02*
X-56660000Y-17800000D01*
X-60987498Y-12800000D02*
X-56660000Y-17127498D01*
X-68200000Y-12800000D02*
X-60987498Y-12800000D01*
%TO.N,Net-(Q2-Pad1)*%
X-39200000Y-27300000D02*
X-21800000Y-27300000D01*
%TO.N,Net-(Q3-Pad1)*%
X-26400000Y-63900000D02*
X-21800000Y-63900000D01*
%TO.N,Net-(R2-Pad1)*%
X-52540000Y-63840000D02*
X-52600000Y-63900000D01*
X-48400000Y-63840000D02*
X-52540000Y-63840000D01*
%TO.N,Net-(R3-Pad2)*%
X-65900000Y-50200000D02*
X-68200000Y-52500000D01*
X-49500000Y-50200000D02*
X-65900000Y-50200000D01*
%TO.N,Net-(R6-Pad2)*%
X-36620000Y-63840000D02*
X-36560000Y-63900000D01*
X-40780000Y-63840000D02*
X-36620000Y-63840000D01*
X-36560000Y-63900000D02*
X-36560000Y-69000000D01*
%TD*%
D23*
%TO.N,GND*%
X-4948990Y-2717192D02*
X-4418964Y-2877216D01*
X-3930121Y-3137140D01*
X-3501069Y-3487065D01*
X-3148156Y-3913664D01*
X-2884827Y-4400681D01*
X-2721106Y-4929578D01*
X-2660000Y-5510960D01*
X-2659999Y-70867711D01*
X-2717192Y-71451010D01*
X-2877217Y-71981036D01*
X-3137140Y-72469880D01*
X-3487065Y-72898931D01*
X-3913665Y-73251845D01*
X-4400680Y-73515173D01*
X-4929578Y-73678894D01*
X-5510960Y-73740000D01*
X-69467721Y-73740000D01*
X-70051010Y-73682808D01*
X-70581036Y-73522783D01*
X-71069880Y-73262860D01*
X-71498931Y-72912935D01*
X-71851845Y-72486335D01*
X-72115173Y-71999320D01*
X-72278894Y-71470422D01*
X-72340000Y-70889040D01*
X-72340000Y-70679872D01*
X-71735000Y-70679872D01*
X-71735000Y-71120128D01*
X-71649110Y-71551925D01*
X-71480631Y-71958669D01*
X-71236038Y-72324729D01*
X-70924729Y-72636038D01*
X-70558669Y-72880631D01*
X-70151925Y-73049110D01*
X-69720128Y-73135000D01*
X-69279872Y-73135000D01*
X-68848075Y-73049110D01*
X-68441331Y-72880631D01*
X-68075271Y-72636038D01*
X-67763962Y-72324729D01*
X-67519369Y-71958669D01*
X-67350890Y-71551925D01*
X-67265000Y-71120128D01*
X-67265000Y-70679872D01*
X-7735000Y-70679872D01*
X-7735000Y-71120128D01*
X-7649110Y-71551925D01*
X-7480631Y-71958669D01*
X-7236038Y-72324729D01*
X-6924729Y-72636038D01*
X-6558669Y-72880631D01*
X-6151925Y-73049110D01*
X-5720128Y-73135000D01*
X-5279872Y-73135000D01*
X-4848075Y-73049110D01*
X-4441331Y-72880631D01*
X-4075271Y-72636038D01*
X-3763962Y-72324729D01*
X-3519369Y-71958669D01*
X-3350890Y-71551925D01*
X-3265000Y-71120128D01*
X-3265000Y-70679872D01*
X-3350890Y-70248075D01*
X-3519369Y-69841331D01*
X-3763962Y-69475271D01*
X-4075271Y-69163962D01*
X-4441331Y-68919369D01*
X-4848075Y-68750890D01*
X-5279872Y-68665000D01*
X-5720128Y-68665000D01*
X-6151925Y-68750890D01*
X-6558669Y-68919369D01*
X-6924729Y-69163962D01*
X-7236038Y-69475271D01*
X-7480631Y-69841331D01*
X-7649110Y-70248075D01*
X-7735000Y-70679872D01*
X-67265000Y-70679872D01*
X-67350890Y-70248075D01*
X-67519369Y-69841331D01*
X-67763962Y-69475271D01*
X-68075271Y-69163962D01*
X-68441331Y-68919369D01*
X-68848075Y-68750890D01*
X-69279872Y-68665000D01*
X-69720128Y-68665000D01*
X-70151925Y-68750890D01*
X-70558669Y-68919369D01*
X-70924729Y-69163962D01*
X-71236038Y-69475271D01*
X-71480631Y-69841331D01*
X-71649110Y-70248075D01*
X-71735000Y-70679872D01*
X-72340000Y-70679872D01*
X-72340000Y-41200001D01*
X-70940492Y-41200001D01*
X-70935001Y-41255752D01*
X-70935000Y-60144237D01*
X-70940492Y-60199999D01*
X-70918578Y-60422497D01*
X-70853677Y-60636445D01*
X-70853676Y-60636446D01*
X-70748284Y-60833622D01*
X-70606449Y-61006448D01*
X-70563141Y-61041990D01*
X-69613072Y-61992060D01*
X-69613072Y-62250001D01*
X-69596008Y-62423255D01*
X-69545472Y-62589851D01*
X-69463405Y-62743387D01*
X-69352962Y-62877962D01*
X-69218387Y-62988405D01*
X-69213889Y-62990809D01*
X-69252502Y-63022498D01*
X-69406833Y-63210551D01*
X-69521511Y-63425099D01*
X-69592130Y-63657898D01*
X-69615975Y-63900000D01*
X-69592130Y-64142102D01*
X-69521511Y-64374901D01*
X-69406833Y-64589449D01*
X-69252502Y-64777502D01*
X-69064449Y-64931833D01*
X-68849901Y-65046511D01*
X-68617102Y-65117130D01*
X-68435665Y-65135000D01*
X-67764335Y-65135000D01*
X-67582898Y-65117130D01*
X-67350099Y-65046511D01*
X-67328563Y-65035000D01*
X-63644284Y-65035000D01*
X-63439727Y-65171680D01*
X-63178574Y-65279853D01*
X-62901335Y-65335000D01*
X-62618665Y-65335000D01*
X-62341426Y-65279853D01*
X-62080273Y-65171680D01*
X-61845241Y-65014637D01*
X-61645363Y-64814759D01*
X-61488320Y-64579727D01*
X-61380147Y-64318574D01*
X-61325000Y-64041335D01*
X-61325000Y-63758665D01*
X-61380147Y-63481426D01*
X-61488320Y-63220273D01*
X-61645363Y-62985241D01*
X-61845241Y-62785363D01*
X-62080273Y-62628320D01*
X-62341426Y-62520147D01*
X-62618665Y-62465000D01*
X-62901335Y-62465000D01*
X-63178574Y-62520147D01*
X-63439727Y-62628320D01*
X-63644284Y-62765000D01*
X-66754332Y-62765000D01*
X-66736595Y-62743387D01*
X-66654528Y-62589851D01*
X-66603992Y-62423255D01*
X-66586928Y-62250001D01*
X-66586928Y-61549999D01*
X-66603992Y-61376745D01*
X-66654528Y-61210149D01*
X-66736595Y-61056613D01*
X-66847038Y-60922038D01*
X-66981613Y-60811595D01*
X-67135149Y-60729528D01*
X-67301745Y-60678992D01*
X-67474999Y-60661928D01*
X-67732940Y-60661928D01*
X-68665001Y-59729868D01*
X-68665001Y-55770512D01*
X-48440217Y-55770512D01*
X-48398787Y-56050130D01*
X-48303603Y-56316292D01*
X-48236671Y-56441514D01*
X-47992702Y-56513097D01*
X-47179605Y-55700000D01*
X-47992702Y-54886903D01*
X-48236671Y-54958486D01*
X-48357571Y-55213996D01*
X-48426300Y-55488184D01*
X-48440217Y-55770512D01*
X-68665001Y-55770512D01*
X-68665001Y-53968862D01*
X-68647743Y-53976011D01*
X-68351184Y-54035000D01*
X-68048816Y-54035000D01*
X-67752257Y-53976011D01*
X-67472905Y-53860299D01*
X-67221495Y-53692312D01*
X-67007688Y-53478505D01*
X-66839701Y-53227095D01*
X-66723989Y-52947743D01*
X-66665000Y-52651184D01*
X-66665000Y-52570131D01*
X-65429868Y-51335000D01*
X-50384284Y-51335000D01*
X-50179727Y-51471680D01*
X-49918574Y-51579853D01*
X-49641335Y-51635000D01*
X-49358665Y-51635000D01*
X-49081426Y-51579853D01*
X-48820273Y-51471680D01*
X-48585241Y-51314637D01*
X-48385363Y-51114759D01*
X-48228320Y-50879727D01*
X-48120147Y-50618574D01*
X-48065000Y-50341335D01*
X-48065000Y-50058665D01*
X-48120147Y-49781426D01*
X-48228320Y-49520273D01*
X-48385363Y-49285241D01*
X-48585241Y-49085363D01*
X-48820273Y-48928320D01*
X-49081426Y-48820147D01*
X-49358665Y-48765000D01*
X-49641335Y-48765000D01*
X-49918574Y-48820147D01*
X-50179727Y-48928320D01*
X-50384284Y-49065000D01*
X-65844257Y-49065000D01*
X-65900001Y-49059510D01*
X-65955745Y-49065000D01*
X-65955752Y-49065000D01*
X-66101507Y-49079356D01*
X-66122500Y-49081423D01*
X-66172295Y-49096529D01*
X-66336447Y-49146324D01*
X-66533623Y-49251716D01*
X-66706449Y-49393551D01*
X-66741989Y-49436857D01*
X-68270131Y-50965000D01*
X-68351184Y-50965000D01*
X-68647743Y-51023989D01*
X-68665001Y-51031138D01*
X-68665001Y-48968862D01*
X-68647743Y-48976011D01*
X-68351184Y-49035000D01*
X-68048816Y-49035000D01*
X-67752257Y-48976011D01*
X-67472905Y-48860299D01*
X-67221495Y-48692312D01*
X-67007688Y-48478505D01*
X-66839701Y-48227095D01*
X-66723989Y-47947743D01*
X-66665000Y-47651184D01*
X-66665000Y-47570131D01*
X-64849868Y-45755000D01*
X-49284284Y-45755000D01*
X-49079727Y-45891680D01*
X-48818574Y-45999853D01*
X-48577282Y-46047850D01*
X-46634999Y-47990133D01*
X-46634998Y-54312098D01*
X-46788184Y-54273700D01*
X-47070512Y-54259783D01*
X-47350130Y-54301213D01*
X-47616292Y-54396397D01*
X-47741514Y-54463329D01*
X-47813097Y-54707298D01*
X-47000000Y-55520395D01*
X-46985857Y-55506253D01*
X-46806252Y-55685858D01*
X-46820395Y-55700000D01*
X-46806252Y-55714143D01*
X-46985857Y-55893748D01*
X-47000000Y-55879605D01*
X-47813097Y-56692702D01*
X-47741514Y-56936671D01*
X-47486004Y-57057571D01*
X-47211816Y-57126300D01*
X-46929488Y-57140217D01*
X-46649870Y-57098787D01*
X-46634998Y-57093469D01*
X-46634998Y-57929866D01*
X-48567059Y-59861928D01*
X-49200000Y-59861928D01*
X-49324482Y-59874188D01*
X-49444180Y-59910498D01*
X-49554494Y-59969463D01*
X-49651185Y-60048815D01*
X-49730537Y-60145506D01*
X-49789502Y-60255820D01*
X-49825812Y-60375518D01*
X-49838072Y-60500000D01*
X-49838072Y-62100000D01*
X-49825812Y-62224482D01*
X-49789502Y-62344180D01*
X-49730537Y-62454494D01*
X-49651185Y-62551185D01*
X-49554494Y-62630537D01*
X-49444180Y-62689502D01*
X-49393090Y-62705000D01*
X-51805513Y-62705000D01*
X-51920273Y-62628320D01*
X-52181426Y-62520147D01*
X-52458665Y-62465000D01*
X-52741335Y-62465000D01*
X-53018574Y-62520147D01*
X-53279727Y-62628320D01*
X-53514759Y-62785363D01*
X-53714637Y-62985241D01*
X-53871680Y-63220273D01*
X-53979853Y-63481426D01*
X-54035000Y-63758665D01*
X-54035000Y-64041335D01*
X-53979853Y-64318574D01*
X-53871680Y-64579727D01*
X-53714637Y-64814759D01*
X-53514759Y-65014637D01*
X-53279727Y-65171680D01*
X-53018574Y-65279853D01*
X-52741335Y-65335000D01*
X-52458665Y-65335000D01*
X-52181426Y-65279853D01*
X-51920273Y-65171680D01*
X-51685241Y-65014637D01*
X-51645604Y-64975000D01*
X-49284284Y-64975000D01*
X-49079727Y-65111680D01*
X-48818574Y-65219853D01*
X-48541335Y-65275000D01*
X-48258665Y-65275000D01*
X-47981426Y-65219853D01*
X-47720273Y-65111680D01*
X-47485241Y-64954637D01*
X-47285363Y-64754759D01*
X-47128320Y-64519727D01*
X-47020147Y-64258574D01*
X-46965000Y-63981335D01*
X-46965000Y-63698665D01*
X-47020147Y-63421426D01*
X-47128320Y-63160273D01*
X-47285363Y-62925241D01*
X-47483961Y-62726643D01*
X-47475518Y-62725812D01*
X-47355820Y-62689502D01*
X-47245506Y-62630537D01*
X-47148815Y-62551185D01*
X-47069463Y-62454494D01*
X-47059043Y-62435000D01*
X-41664284Y-62435000D01*
X-41462241Y-62570000D01*
X-41694759Y-62725363D01*
X-41894637Y-62925241D01*
X-42051680Y-63160273D01*
X-42159853Y-63421426D01*
X-42215000Y-63698665D01*
X-42215000Y-63981335D01*
X-42159853Y-64258574D01*
X-42051680Y-64519727D01*
X-41894637Y-64754759D01*
X-41694759Y-64954637D01*
X-41459727Y-65111680D01*
X-41198574Y-65219853D01*
X-40921335Y-65275000D01*
X-40638665Y-65275000D01*
X-40361426Y-65219853D01*
X-40100273Y-65111680D01*
X-39895716Y-64975000D01*
X-37695000Y-64975000D01*
X-37694999Y-68115715D01*
X-37831680Y-68320273D01*
X-37939853Y-68581426D01*
X-37995000Y-68858665D01*
X-37995000Y-69141335D01*
X-37939853Y-69418574D01*
X-37831680Y-69679727D01*
X-37674637Y-69914759D01*
X-37474759Y-70114637D01*
X-37239727Y-70271680D01*
X-36978574Y-70379853D01*
X-36701335Y-70435000D01*
X-36418665Y-70435000D01*
X-36141426Y-70379853D01*
X-35880273Y-70271680D01*
X-35645241Y-70114637D01*
X-35523306Y-69992702D01*
X-27213097Y-69992702D01*
X-27141514Y-70236671D01*
X-26886004Y-70357571D01*
X-26611816Y-70426300D01*
X-26329488Y-70440217D01*
X-26049870Y-70398787D01*
X-25783708Y-70303603D01*
X-25658486Y-70236671D01*
X-25586903Y-69992702D01*
X-26400000Y-69179605D01*
X-27213097Y-69992702D01*
X-35523306Y-69992702D01*
X-35445363Y-69914759D01*
X-35288320Y-69679727D01*
X-35180147Y-69418574D01*
X-35125000Y-69141335D01*
X-35125000Y-69070512D01*
X-27840217Y-69070512D01*
X-27798787Y-69350130D01*
X-27703603Y-69616292D01*
X-27636671Y-69741514D01*
X-27392702Y-69813097D01*
X-26579605Y-69000000D01*
X-26220395Y-69000000D01*
X-25407298Y-69813097D01*
X-25163329Y-69741514D01*
X-25042429Y-69486004D01*
X-25009085Y-69352980D01*
X-23390563Y-69352980D01*
X-23319571Y-69571094D01*
X-23175969Y-69846923D01*
X-22981315Y-70089437D01*
X-22743089Y-70289316D01*
X-22470446Y-70438879D01*
X-22173863Y-70532378D01*
X-21927000Y-70405570D01*
X-21927000Y-69107000D01*
X-21673000Y-69107000D01*
X-21673000Y-70405570D01*
X-21426137Y-70532378D01*
X-21129554Y-70438879D01*
X-20856911Y-70289316D01*
X-20618685Y-70089437D01*
X-20424031Y-69846923D01*
X-20280429Y-69571094D01*
X-20209437Y-69352980D01*
X-20329406Y-69107000D01*
X-21673000Y-69107000D01*
X-21927000Y-69107000D01*
X-23270594Y-69107000D01*
X-23390563Y-69352980D01*
X-25009085Y-69352980D01*
X-24973700Y-69211816D01*
X-24959783Y-68929488D01*
X-25001213Y-68649870D01*
X-25096397Y-68383708D01*
X-25163329Y-68258486D01*
X-25407298Y-68186903D01*
X-26220395Y-69000000D01*
X-26579605Y-69000000D01*
X-27392702Y-68186903D01*
X-27636671Y-68258486D01*
X-27757571Y-68513996D01*
X-27826300Y-68788184D01*
X-27840217Y-69070512D01*
X-35125000Y-69070512D01*
X-35125000Y-68858665D01*
X-35180147Y-68581426D01*
X-35288320Y-68320273D01*
X-35425000Y-68115716D01*
X-35425000Y-68007298D01*
X-27213097Y-68007298D01*
X-26400000Y-68820395D01*
X-25586903Y-68007298D01*
X-25658486Y-67763329D01*
X-25913996Y-67642429D01*
X-26188184Y-67573700D01*
X-26470512Y-67559783D01*
X-26750130Y-67601213D01*
X-27016292Y-67696397D01*
X-27141514Y-67763329D01*
X-27213097Y-68007298D01*
X-35425000Y-68007298D01*
X-35425000Y-64784284D01*
X-35288320Y-64579727D01*
X-35180147Y-64318574D01*
X-35125000Y-64041335D01*
X-35125000Y-63758665D01*
X-35180147Y-63481426D01*
X-35288320Y-63220273D01*
X-35445363Y-62985241D01*
X-35645241Y-62785363D01*
X-35880273Y-62628320D01*
X-36141426Y-62520147D01*
X-36418665Y-62465000D01*
X-36701335Y-62465000D01*
X-36978574Y-62520147D01*
X-37239727Y-62628320D01*
X-37354487Y-62705000D01*
X-39895716Y-62705000D01*
X-40097759Y-62570000D01*
X-39895716Y-62435000D01*
X-23176472Y-62435000D01*
X-23251185Y-62496315D01*
X-23330537Y-62593006D01*
X-23389502Y-62703320D01*
X-23408212Y-62765000D01*
X-25515716Y-62765000D01*
X-25720273Y-62628320D01*
X-25981426Y-62520147D01*
X-26258665Y-62465000D01*
X-26541335Y-62465000D01*
X-26818574Y-62520147D01*
X-27079727Y-62628320D01*
X-27314759Y-62785363D01*
X-27514637Y-62985241D01*
X-27671680Y-63220273D01*
X-27779853Y-63481426D01*
X-27835000Y-63758665D01*
X-27835000Y-64041335D01*
X-27779853Y-64318574D01*
X-27671680Y-64579727D01*
X-27514637Y-64814759D01*
X-27314759Y-65014637D01*
X-27079727Y-65171680D01*
X-26818574Y-65279853D01*
X-26541335Y-65335000D01*
X-26258665Y-65335000D01*
X-25981426Y-65279853D01*
X-25720273Y-65171680D01*
X-25515716Y-65035000D01*
X-23408212Y-65035000D01*
X-23389502Y-65096680D01*
X-23330537Y-65206994D01*
X-23251185Y-65303685D01*
X-23154494Y-65383037D01*
X-23070554Y-65427905D01*
X-23173845Y-65553765D01*
X-23321255Y-65829551D01*
X-23412030Y-66128796D01*
X-23442681Y-66440000D01*
X-23412030Y-66751204D01*
X-23321255Y-67050449D01*
X-23173845Y-67326235D01*
X-22975463Y-67567963D01*
X-22796101Y-67715163D01*
X-22981315Y-67870563D01*
X-23175969Y-68113077D01*
X-23319571Y-68388906D01*
X-23390563Y-68607020D01*
X-23270594Y-68853000D01*
X-21927000Y-68853000D01*
X-21927000Y-68833000D01*
X-21673000Y-68833000D01*
X-21673000Y-68853000D01*
X-20329406Y-68853000D01*
X-20209437Y-68607020D01*
X-20280429Y-68388906D01*
X-20424031Y-68113077D01*
X-20618685Y-67870563D01*
X-20803899Y-67715163D01*
X-20633112Y-67575000D01*
X-16038661Y-67575000D01*
X-15805998Y-67807663D01*
X-15521831Y-67997537D01*
X-15206081Y-68128325D01*
X-14870883Y-68195000D01*
X-14529117Y-68195000D01*
X-14193919Y-68128325D01*
X-13878169Y-67997537D01*
X-13594002Y-67807663D01*
X-13352337Y-67565998D01*
X-13162463Y-67281831D01*
X-13031675Y-66966081D01*
X-12965000Y-66630883D01*
X-12965000Y-66330131D01*
X-11469868Y-64835000D01*
X-7835817Y-64835000D01*
X-7778505Y-64892312D01*
X-7527095Y-65060299D01*
X-7247743Y-65176011D01*
X-6951184Y-65235000D01*
X-6648816Y-65235000D01*
X-6352257Y-65176011D01*
X-6072905Y-65060299D01*
X-5821495Y-64892312D01*
X-5607688Y-64678505D01*
X-5439701Y-64427095D01*
X-5323989Y-64147743D01*
X-5265000Y-63851184D01*
X-5265000Y-63548816D01*
X-5323989Y-63252257D01*
X-5439701Y-62972905D01*
X-5607688Y-62721495D01*
X-5821495Y-62507688D01*
X-6072905Y-62339701D01*
X-6352257Y-62223989D01*
X-6648816Y-62165000D01*
X-6951184Y-62165000D01*
X-7247743Y-62223989D01*
X-7527095Y-62339701D01*
X-7778505Y-62507688D01*
X-7835817Y-62565000D01*
X-11884259Y-62565000D01*
X-11940001Y-62559510D01*
X-11995743Y-62565000D01*
X-11995752Y-62565000D01*
X-12162499Y-62581423D01*
X-12376447Y-62646324D01*
X-12573623Y-62751716D01*
X-12746449Y-62893551D01*
X-12781991Y-62936859D01*
X-14570131Y-64725000D01*
X-14870883Y-64725000D01*
X-15206081Y-64791675D01*
X-15521831Y-64922463D01*
X-15805998Y-65112337D01*
X-15998661Y-65305000D01*
X-20350417Y-65305000D01*
X-20348815Y-65303685D01*
X-20269463Y-65206994D01*
X-20210498Y-65096680D01*
X-20174188Y-64976982D01*
X-20161928Y-64852500D01*
X-20161928Y-62947500D01*
X-20174188Y-62823018D01*
X-20210498Y-62703320D01*
X-20269463Y-62593006D01*
X-20348815Y-62496315D01*
X-20423528Y-62435000D01*
X-19755751Y-62435000D01*
X-19700000Y-62440491D01*
X-19644249Y-62435000D01*
X-19644248Y-62435000D01*
X-19477501Y-62418577D01*
X-19263553Y-62353676D01*
X-19066377Y-62248284D01*
X-18893551Y-62106449D01*
X-18858004Y-62063135D01*
X-14832940Y-58038072D01*
X-14567060Y-58038072D01*
X-13141987Y-59463146D01*
X-13106449Y-59506449D01*
X-13063146Y-59541987D01*
X-13063144Y-59541989D01*
X-12933623Y-59648284D01*
X-12736447Y-59753676D01*
X-12522499Y-59818577D01*
X-12300000Y-59840491D01*
X-12244248Y-59835000D01*
X-7835817Y-59835000D01*
X-7778505Y-59892312D01*
X-7527095Y-60060299D01*
X-7247743Y-60176011D01*
X-6951184Y-60235000D01*
X-6648816Y-60235000D01*
X-6352257Y-60176011D01*
X-6072905Y-60060299D01*
X-5821495Y-59892312D01*
X-5607688Y-59678505D01*
X-5439701Y-59427095D01*
X-5323989Y-59147743D01*
X-5265000Y-58851184D01*
X-5265000Y-58548816D01*
X-5323989Y-58252257D01*
X-5439701Y-57972905D01*
X-5607688Y-57721495D01*
X-5821495Y-57507688D01*
X-6072905Y-57339701D01*
X-6352257Y-57223989D01*
X-6648816Y-57165000D01*
X-6951184Y-57165000D01*
X-7247743Y-57223989D01*
X-7527095Y-57339701D01*
X-7778505Y-57507688D01*
X-7835817Y-57565000D01*
X-11829867Y-57565000D01*
X-12961928Y-56432940D01*
X-12961928Y-55200000D01*
X-12974188Y-55075518D01*
X-13010498Y-54955820D01*
X-13069463Y-54845506D01*
X-13148815Y-54748815D01*
X-13245506Y-54669463D01*
X-13355820Y-54610498D01*
X-13475518Y-54574188D01*
X-13565000Y-54565375D01*
X-13565000Y-41734625D01*
X-13475518Y-41725812D01*
X-13355820Y-41689502D01*
X-13245506Y-41630537D01*
X-13148815Y-41551185D01*
X-13069463Y-41454494D01*
X-13010498Y-41344180D01*
X-12974188Y-41224482D01*
X-12961928Y-41100000D01*
X-12961928Y-39867059D01*
X-9029867Y-35935000D01*
X-7835817Y-35935000D01*
X-7778505Y-35992312D01*
X-7527095Y-36160299D01*
X-7247743Y-36276011D01*
X-6951184Y-36335000D01*
X-6648816Y-36335000D01*
X-6352257Y-36276011D01*
X-6072905Y-36160299D01*
X-5821495Y-35992312D01*
X-5607688Y-35778505D01*
X-5439701Y-35527095D01*
X-5323989Y-35247743D01*
X-5265000Y-34951184D01*
X-5265000Y-34648816D01*
X-5323989Y-34352257D01*
X-5439701Y-34072905D01*
X-5607688Y-33821495D01*
X-5821495Y-33607688D01*
X-6072905Y-33439701D01*
X-6352257Y-33323989D01*
X-6648816Y-33265000D01*
X-6951184Y-33265000D01*
X-7247743Y-33323989D01*
X-7527095Y-33439701D01*
X-7778505Y-33607688D01*
X-7835817Y-33665000D01*
X-9444248Y-33665000D01*
X-9500000Y-33659509D01*
X-9722499Y-33681423D01*
X-9936447Y-33746324D01*
X-10133623Y-33851716D01*
X-10263144Y-33958011D01*
X-10263146Y-33958013D01*
X-10306449Y-33993551D01*
X-10341987Y-34036854D01*
X-14567059Y-38261928D01*
X-15800000Y-38261928D01*
X-15924482Y-38274188D01*
X-16044180Y-38310498D01*
X-16154494Y-38369463D01*
X-16251185Y-38448815D01*
X-16330537Y-38545506D01*
X-16389502Y-38655820D01*
X-16425812Y-38775518D01*
X-16438072Y-38900000D01*
X-16438072Y-41100000D01*
X-16425812Y-41224482D01*
X-16389502Y-41344180D01*
X-16330537Y-41454494D01*
X-16251185Y-41551185D01*
X-16154494Y-41630537D01*
X-16044180Y-41689502D01*
X-15924482Y-41725812D01*
X-15834999Y-41734625D01*
X-15835000Y-54565375D01*
X-15924482Y-54574188D01*
X-16044180Y-54610498D01*
X-16154494Y-54669463D01*
X-16251185Y-54748815D01*
X-16330537Y-54845506D01*
X-16389502Y-54955820D01*
X-16425812Y-55075518D01*
X-16438072Y-55200000D01*
X-16438072Y-56432940D01*
X-20170131Y-60165000D01*
X-39895716Y-60165000D01*
X-40100273Y-60028320D01*
X-40361426Y-59920147D01*
X-40638665Y-59865000D01*
X-40921335Y-59865000D01*
X-41198574Y-59920147D01*
X-41459727Y-60028320D01*
X-41664284Y-60165000D01*
X-45659868Y-60165000D01*
X-44736858Y-59241990D01*
X-44693550Y-59206448D01*
X-44551715Y-59033622D01*
X-44446323Y-58836446D01*
X-44381422Y-58622498D01*
X-44364999Y-58455751D01*
X-44359508Y-58399999D01*
X-44364999Y-58344247D01*
X-44364999Y-47575753D01*
X-44359508Y-47520001D01*
X-44381422Y-47297502D01*
X-44446323Y-47083554D01*
X-44551715Y-46886378D01*
X-44632220Y-46788283D01*
X-44693550Y-46713552D01*
X-44736858Y-46678010D01*
X-46794869Y-44620000D01*
X-42152117Y-39977249D01*
X-42051680Y-40219727D01*
X-41914999Y-40424285D01*
X-41915000Y-41195716D01*
X-42051680Y-41400273D01*
X-42159853Y-41661426D01*
X-42215000Y-41938665D01*
X-42215000Y-42221335D01*
X-42159853Y-42498574D01*
X-42051680Y-42759727D01*
X-41894637Y-42994759D01*
X-41694759Y-43194637D01*
X-41462241Y-43350000D01*
X-41694759Y-43505363D01*
X-41894637Y-43705241D01*
X-42051680Y-43940273D01*
X-42159853Y-44201426D01*
X-42207850Y-44442718D01*
X-42763140Y-44998009D01*
X-42806448Y-45033551D01*
X-42948283Y-45206377D01*
X-42973536Y-45253623D01*
X-43053676Y-45403554D01*
X-43118577Y-45617502D01*
X-43140491Y-45840000D01*
X-43134999Y-45895761D01*
X-43135000Y-54815716D01*
X-43271680Y-55020273D01*
X-43379853Y-55281426D01*
X-43435000Y-55558665D01*
X-43435000Y-55841335D01*
X-43379853Y-56118574D01*
X-43271680Y-56379727D01*
X-43114637Y-56614759D01*
X-42914759Y-56814637D01*
X-42679727Y-56971680D01*
X-42418574Y-57079853D01*
X-42141335Y-57135000D01*
X-41858665Y-57135000D01*
X-41581426Y-57079853D01*
X-41320273Y-56971680D01*
X-41085241Y-56814637D01*
X-40885363Y-56614759D01*
X-40728320Y-56379727D01*
X-40620147Y-56118574D01*
X-40565000Y-55841335D01*
X-40565000Y-55558665D01*
X-40620147Y-55281426D01*
X-40728320Y-55020273D01*
X-40865000Y-54815716D01*
X-40865000Y-46310132D01*
X-40602718Y-46047850D01*
X-40414999Y-46010509D01*
X-40414998Y-49245602D01*
X-40454637Y-49285241D01*
X-40611680Y-49520273D01*
X-40719853Y-49781426D01*
X-40775000Y-50058665D01*
X-40775000Y-50341335D01*
X-40719853Y-50618574D01*
X-40611680Y-50879727D01*
X-40454637Y-51114759D01*
X-40254759Y-51314637D01*
X-40019727Y-51471680D01*
X-39758574Y-51579853D01*
X-39481335Y-51635000D01*
X-39198665Y-51635000D01*
X-38921426Y-51579853D01*
X-38660273Y-51471680D01*
X-38425241Y-51314637D01*
X-38225363Y-51114759D01*
X-38068320Y-50879727D01*
X-37960147Y-50618574D01*
X-37905000Y-50341335D01*
X-37905000Y-50058665D01*
X-37960147Y-49781426D01*
X-38068320Y-49520273D01*
X-38144999Y-49405515D01*
X-38144999Y-43635753D01*
X-38139508Y-43580001D01*
X-38161422Y-43357502D01*
X-38204650Y-43215000D01*
X-36551647Y-43215000D01*
X-36530537Y-43254494D01*
X-36451185Y-43351185D01*
X-36354494Y-43430537D01*
X-36244180Y-43489502D01*
X-36124482Y-43525812D01*
X-36000000Y-43538072D01*
X-34400000Y-43538072D01*
X-34275518Y-43525812D01*
X-34155820Y-43489502D01*
X-34045506Y-43430537D01*
X-33948815Y-43351185D01*
X-33869463Y-43254494D01*
X-33810498Y-43144180D01*
X-33794883Y-43092702D01*
X-32513097Y-43092702D01*
X-32441514Y-43336671D01*
X-32186004Y-43457571D01*
X-31911816Y-43526300D01*
X-31629488Y-43540217D01*
X-31349870Y-43498787D01*
X-31083708Y-43403603D01*
X-30958486Y-43336671D01*
X-30886903Y-43092702D01*
X-31700000Y-42279605D01*
X-32513097Y-43092702D01*
X-33794883Y-43092702D01*
X-33774188Y-43024482D01*
X-33761928Y-42900000D01*
X-33761928Y-42170512D01*
X-33140217Y-42170512D01*
X-33098787Y-42450130D01*
X-33003603Y-42716292D01*
X-32936671Y-42841514D01*
X-32692702Y-42913097D01*
X-31879605Y-42100000D01*
X-31520395Y-42100000D01*
X-30707298Y-42913097D01*
X-30463329Y-42841514D01*
X-30342429Y-42586004D01*
X-30273700Y-42311816D01*
X-30259783Y-42029488D01*
X-30301213Y-41749870D01*
X-30396397Y-41483708D01*
X-30463329Y-41358486D01*
X-30707298Y-41286903D01*
X-31520395Y-42100000D01*
X-31879605Y-42100000D01*
X-32692702Y-41286903D01*
X-32936671Y-41358486D01*
X-33057571Y-41613996D01*
X-33126300Y-41888184D01*
X-33140217Y-42170512D01*
X-33761928Y-42170512D01*
X-33761928Y-41300000D01*
X-33774188Y-41175518D01*
X-33794882Y-41107298D01*
X-32513097Y-41107298D01*
X-31700000Y-41920395D01*
X-30886903Y-41107298D01*
X-30958486Y-40863329D01*
X-31213996Y-40742429D01*
X-31488184Y-40673700D01*
X-31770512Y-40659783D01*
X-32050130Y-40701213D01*
X-32316292Y-40796397D01*
X-32441514Y-40863329D01*
X-32513097Y-41107298D01*
X-33794882Y-41107298D01*
X-33810498Y-41055820D01*
X-33869463Y-40945506D01*
X-33948815Y-40848815D01*
X-34045506Y-40769463D01*
X-34155820Y-40710498D01*
X-34275518Y-40674188D01*
X-34400000Y-40661928D01*
X-36000000Y-40661928D01*
X-36124482Y-40674188D01*
X-36244180Y-40710498D01*
X-36354494Y-40769463D01*
X-36451185Y-40848815D01*
X-36530122Y-40945000D01*
X-39645000Y-40945000D01*
X-39645000Y-40424284D01*
X-39508320Y-40219727D01*
X-39400147Y-39958574D01*
X-39352150Y-39717282D01*
X-38516859Y-38881991D01*
X-38473550Y-38846448D01*
X-38331715Y-38673622D01*
X-38226323Y-38476446D01*
X-38161422Y-38262498D01*
X-38144999Y-38095751D01*
X-38144999Y-38095750D01*
X-38139508Y-38039999D01*
X-38144999Y-37984247D01*
X-38144999Y-33655753D01*
X-38139508Y-33600001D01*
X-38161422Y-33377502D01*
X-38226323Y-33163554D01*
X-38331715Y-32966378D01*
X-38386190Y-32900000D01*
X-38473550Y-32793552D01*
X-38516859Y-32758009D01*
X-38521888Y-32752980D01*
X-23390563Y-32752980D01*
X-23319571Y-32971094D01*
X-23175969Y-33246923D01*
X-22981315Y-33489437D01*
X-22743089Y-33689316D01*
X-22470446Y-33838879D01*
X-22173863Y-33932378D01*
X-21927000Y-33805570D01*
X-21927000Y-32507000D01*
X-21673000Y-32507000D01*
X-21673000Y-33805570D01*
X-21426137Y-33932378D01*
X-21129554Y-33838879D01*
X-20856911Y-33689316D01*
X-20618685Y-33489437D01*
X-20424031Y-33246923D01*
X-20280429Y-32971094D01*
X-20209437Y-32752980D01*
X-20329406Y-32507000D01*
X-21673000Y-32507000D01*
X-21927000Y-32507000D01*
X-23270594Y-32507000D01*
X-23390563Y-32752980D01*
X-38521888Y-32752980D01*
X-39352150Y-31922718D01*
X-39400147Y-31681426D01*
X-39508320Y-31420273D01*
X-39665363Y-31185241D01*
X-39865241Y-30985363D01*
X-40100273Y-30828320D01*
X-40361426Y-30720147D01*
X-40638665Y-30665000D01*
X-40921335Y-30665000D01*
X-41145001Y-30709491D01*
X-41145001Y-27158665D01*
X-40635000Y-27158665D01*
X-40635000Y-27441335D01*
X-40579853Y-27718574D01*
X-40471680Y-27979727D01*
X-40314637Y-28214759D01*
X-40114759Y-28414637D01*
X-39879727Y-28571680D01*
X-39618574Y-28679853D01*
X-39341335Y-28735000D01*
X-39058665Y-28735000D01*
X-38781426Y-28679853D01*
X-38520273Y-28571680D01*
X-38315716Y-28435000D01*
X-23408212Y-28435000D01*
X-23389502Y-28496680D01*
X-23330537Y-28606994D01*
X-23251185Y-28703685D01*
X-23154494Y-28783037D01*
X-23070554Y-28827905D01*
X-23173845Y-28953765D01*
X-23321255Y-29229551D01*
X-23412030Y-29528796D01*
X-23442681Y-29840000D01*
X-23412030Y-30151204D01*
X-23321255Y-30450449D01*
X-23173845Y-30726235D01*
X-22975463Y-30967963D01*
X-22796101Y-31115163D01*
X-22981315Y-31270563D01*
X-23175969Y-31513077D01*
X-23319571Y-31788906D01*
X-23390563Y-32007020D01*
X-23270594Y-32253000D01*
X-21927000Y-32253000D01*
X-21927000Y-32233000D01*
X-21673000Y-32233000D01*
X-21673000Y-32253000D01*
X-20329406Y-32253000D01*
X-20209437Y-32007020D01*
X-20280429Y-31788906D01*
X-20424031Y-31513077D01*
X-20618685Y-31270563D01*
X-20803899Y-31115163D01*
X-20633112Y-30975000D01*
X-16018661Y-30975000D01*
X-15805998Y-31187663D01*
X-15521831Y-31377537D01*
X-15206081Y-31508325D01*
X-14870883Y-31575000D01*
X-14529117Y-31575000D01*
X-14193919Y-31508325D01*
X-13878169Y-31377537D01*
X-13594002Y-31187663D01*
X-13381339Y-30975000D01*
X-7795817Y-30975000D01*
X-7778505Y-30992312D01*
X-7527095Y-31160299D01*
X-7247743Y-31276011D01*
X-6951184Y-31335000D01*
X-6648816Y-31335000D01*
X-6352257Y-31276011D01*
X-6072905Y-31160299D01*
X-5821495Y-30992312D01*
X-5607688Y-30778505D01*
X-5439701Y-30527095D01*
X-5323989Y-30247743D01*
X-5265000Y-29951184D01*
X-5265000Y-29648816D01*
X-5323989Y-29352257D01*
X-5439701Y-29072905D01*
X-5607688Y-28821495D01*
X-5821495Y-28607688D01*
X-6072905Y-28439701D01*
X-6352257Y-28323989D01*
X-6648816Y-28265000D01*
X-6951184Y-28265000D01*
X-7247743Y-28323989D01*
X-7527095Y-28439701D01*
X-7778505Y-28607688D01*
X-7875817Y-28705000D01*
X-13381339Y-28705000D01*
X-13594002Y-28492337D01*
X-13878169Y-28302463D01*
X-14193919Y-28171675D01*
X-14529117Y-28105000D01*
X-14870883Y-28105000D01*
X-15206081Y-28171675D01*
X-15521831Y-28302463D01*
X-15805998Y-28492337D01*
X-16018661Y-28705000D01*
X-20350417Y-28705000D01*
X-20348815Y-28703685D01*
X-20269463Y-28606994D01*
X-20210498Y-28496680D01*
X-20174188Y-28376982D01*
X-20161928Y-28252500D01*
X-20161928Y-26347500D01*
X-20174188Y-26223018D01*
X-20210498Y-26103320D01*
X-20269463Y-25993006D01*
X-20348815Y-25896315D01*
X-20445506Y-25816963D01*
X-20555820Y-25757998D01*
X-20675518Y-25721688D01*
X-20800000Y-25709428D01*
X-22800000Y-25709428D01*
X-22924482Y-25721688D01*
X-23044180Y-25757998D01*
X-23154494Y-25816963D01*
X-23251185Y-25896315D01*
X-23330537Y-25993006D01*
X-23389502Y-26103320D01*
X-23408212Y-26165000D01*
X-38315716Y-26165000D01*
X-38520273Y-26028320D01*
X-38781426Y-25920147D01*
X-39058665Y-25865000D01*
X-39341335Y-25865000D01*
X-39618574Y-25920147D01*
X-39879727Y-26028320D01*
X-40114759Y-26185363D01*
X-40314637Y-26385241D01*
X-40471680Y-26620273D01*
X-40579853Y-26881426D01*
X-40635000Y-27158665D01*
X-41145001Y-27158665D01*
X-41145001Y-27115738D01*
X-41139511Y-27059996D01*
X-41145001Y-27004254D01*
X-41145001Y-27004245D01*
X-41161424Y-26837498D01*
X-41226325Y-26623550D01*
X-41331717Y-26426374D01*
X-41473552Y-26253548D01*
X-41516860Y-26218006D01*
X-44542164Y-23192702D01*
X-40013097Y-23192702D01*
X-39941514Y-23436671D01*
X-39686004Y-23557571D01*
X-39411816Y-23626300D01*
X-39129488Y-23640217D01*
X-38849870Y-23598787D01*
X-38583708Y-23503603D01*
X-38458486Y-23436671D01*
X-38386903Y-23192702D01*
X-39200000Y-22379605D01*
X-40013097Y-23192702D01*
X-44542164Y-23192702D01*
X-45464354Y-22270512D01*
X-40640217Y-22270512D01*
X-40598787Y-22550130D01*
X-40503603Y-22816292D01*
X-40436671Y-22941514D01*
X-40192702Y-23013097D01*
X-39379605Y-22200000D01*
X-39020395Y-22200000D01*
X-38207298Y-23013097D01*
X-37963329Y-22941514D01*
X-37842429Y-22686004D01*
X-37773700Y-22411816D01*
X-37759783Y-22129488D01*
X-37801213Y-21849870D01*
X-37896397Y-21583708D01*
X-37963329Y-21458486D01*
X-38207298Y-21386903D01*
X-39020395Y-22200000D01*
X-39379605Y-22200000D01*
X-40192702Y-21386903D01*
X-40436671Y-21458486D01*
X-40557571Y-21713996D01*
X-40626300Y-21988184D01*
X-40640217Y-22270512D01*
X-45464354Y-22270512D01*
X-46527568Y-21207298D01*
X-40013097Y-21207298D01*
X-39200000Y-22020395D01*
X-38386903Y-21207298D01*
X-38458486Y-20963329D01*
X-38713996Y-20842429D01*
X-38988184Y-20773700D01*
X-39270512Y-20759783D01*
X-39550130Y-20801213D01*
X-39816292Y-20896397D01*
X-39941514Y-20963329D01*
X-40013097Y-21207298D01*
X-46527568Y-21207298D01*
X-49209622Y-18525245D01*
X-48981426Y-18479853D01*
X-48720273Y-18371680D01*
X-48485241Y-18214637D01*
X-48285363Y-18014759D01*
X-48128320Y-17779727D01*
X-48020147Y-17518574D01*
X-48006316Y-17449039D01*
X-40631904Y-17449039D01*
X-40591246Y-17583087D01*
X-40471037Y-17837420D01*
X-40303519Y-18063414D01*
X-40095131Y-18252385D01*
X-39853881Y-18397070D01*
X-39589040Y-18491909D01*
X-39367000Y-18370624D01*
X-39367000Y-17227000D01*
X-39113000Y-17227000D01*
X-39113000Y-18370624D01*
X-38890960Y-18491909D01*
X-38626119Y-18397070D01*
X-38384869Y-18252385D01*
X-38176481Y-18063414D01*
X-38008963Y-17837420D01*
X-37888754Y-17583087D01*
X-37848096Y-17449039D01*
X-37970085Y-17227000D01*
X-39113000Y-17227000D01*
X-39367000Y-17227000D01*
X-40509915Y-17227000D01*
X-40631904Y-17449039D01*
X-48006316Y-17449039D01*
X-47965000Y-17241335D01*
X-47965000Y-16958665D01*
X-48006315Y-16750961D01*
X-40631904Y-16750961D01*
X-40509915Y-16973000D01*
X-39367000Y-16973000D01*
X-39367000Y-15829376D01*
X-39113000Y-15829376D01*
X-39113000Y-16973000D01*
X-37970085Y-16973000D01*
X-37848096Y-16750961D01*
X-37888754Y-16616913D01*
X-38008963Y-16362580D01*
X-38176481Y-16136586D01*
X-38384869Y-15947615D01*
X-38626119Y-15802930D01*
X-38890960Y-15708091D01*
X-39113000Y-15829376D01*
X-39367000Y-15829376D01*
X-39589040Y-15708091D01*
X-39853881Y-15802930D01*
X-40095131Y-15947615D01*
X-40303519Y-16136586D01*
X-40471037Y-16362580D01*
X-40591246Y-16616913D01*
X-40631904Y-16750961D01*
X-48006315Y-16750961D01*
X-48020147Y-16681426D01*
X-48128320Y-16420273D01*
X-48285363Y-16185241D01*
X-48485241Y-15985363D01*
X-48720273Y-15828320D01*
X-48981426Y-15720147D01*
X-49222717Y-15672151D01*
X-50965000Y-13929869D01*
X-50965000Y-7931214D01*
X-50929528Y-7864851D01*
X-50878992Y-7698255D01*
X-50861928Y-7525001D01*
X-50861928Y-6274999D01*
X-50878992Y-6101745D01*
X-50929528Y-5935149D01*
X-51011595Y-5781613D01*
X-51122038Y-5647038D01*
X-51256613Y-5536595D01*
X-51410149Y-5454528D01*
X-51576745Y-5403992D01*
X-51749999Y-5386928D01*
X-52450001Y-5386928D01*
X-52623255Y-5403992D01*
X-52789851Y-5454528D01*
X-52943387Y-5536595D01*
X-53077962Y-5647038D01*
X-53188405Y-5781613D01*
X-53190809Y-5786111D01*
X-53222498Y-5747498D01*
X-53410551Y-5593167D01*
X-53625099Y-5478489D01*
X-53857898Y-5407870D01*
X-54100000Y-5384025D01*
X-54342101Y-5407870D01*
X-54574900Y-5478489D01*
X-54789448Y-5593167D01*
X-54977501Y-5747498D01*
X-55131832Y-5935551D01*
X-55246511Y-6150099D01*
X-55317130Y-6382898D01*
X-55335000Y-6564335D01*
X-55335000Y-7235664D01*
X-55317130Y-7417101D01*
X-55254999Y-7621919D01*
X-55255000Y-16633111D01*
X-55390000Y-16797609D01*
X-55532037Y-16624537D01*
X-55753938Y-16442427D01*
X-55853551Y-16321049D01*
X-55896859Y-16285507D01*
X-60145502Y-12036865D01*
X-60181049Y-11993551D01*
X-60353875Y-11851716D01*
X-60551051Y-11746324D01*
X-60764999Y-11681423D01*
X-60931746Y-11665000D01*
X-60931747Y-11665000D01*
X-60987498Y-11659509D01*
X-61043249Y-11665000D01*
X-67164183Y-11665000D01*
X-67221495Y-11607688D01*
X-67472905Y-11439701D01*
X-67752257Y-11323989D01*
X-68048816Y-11265000D01*
X-68351184Y-11265000D01*
X-68647743Y-11323989D01*
X-68927095Y-11439701D01*
X-69178505Y-11607688D01*
X-69392312Y-11821495D01*
X-69560299Y-12072905D01*
X-69676011Y-12352257D01*
X-69735000Y-12648816D01*
X-69735000Y-12951184D01*
X-69676011Y-13247743D01*
X-69560299Y-13527095D01*
X-69392312Y-13778505D01*
X-69178505Y-13992312D01*
X-68927095Y-14160299D01*
X-68647743Y-14276011D01*
X-68351184Y-14335000D01*
X-68048816Y-14335000D01*
X-67752257Y-14276011D01*
X-67472905Y-14160299D01*
X-67221495Y-13992312D01*
X-67164183Y-13935000D01*
X-61457629Y-13935000D01*
X-59227630Y-16165000D01*
X-59327002Y-16165000D01*
X-59327002Y-16323748D01*
X-59485750Y-16165000D01*
X-60152500Y-16161928D01*
X-60276982Y-16174188D01*
X-60396680Y-16210498D01*
X-60506994Y-16269463D01*
X-60603685Y-16348815D01*
X-60683037Y-16445506D01*
X-60742002Y-16555820D01*
X-60778312Y-16675518D01*
X-60790572Y-16800000D01*
X-60787500Y-17514250D01*
X-60628750Y-17673000D01*
X-59327000Y-17673000D01*
X-59327000Y-17653000D01*
X-59073000Y-17653000D01*
X-59073000Y-17673000D01*
X-59053000Y-17673000D01*
X-59053000Y-17927000D01*
X-59073000Y-17927000D01*
X-59073000Y-19276250D01*
X-58914250Y-19435000D01*
X-58247500Y-19438072D01*
X-58123018Y-19425812D01*
X-58003320Y-19389502D01*
X-57893006Y-19330537D01*
X-57796315Y-19251185D01*
X-57716963Y-19154494D01*
X-57672095Y-19070553D01*
X-57546234Y-19173845D01*
X-57270448Y-19321255D01*
X-56971203Y-19412030D01*
X-56660000Y-19442681D01*
X-56348796Y-19412030D01*
X-56049551Y-19321255D01*
X-55773765Y-19173845D01*
X-55532037Y-18975463D01*
X-55390000Y-18802391D01*
X-55247963Y-18975463D01*
X-55006234Y-19173845D01*
X-54730448Y-19321255D01*
X-54431203Y-19412030D01*
X-54120000Y-19442681D01*
X-53808796Y-19412030D01*
X-53509551Y-19321255D01*
X-53233765Y-19173845D01*
X-52992037Y-18975463D01*
X-52958830Y-18935000D01*
X-52010129Y-18935000D01*
X-50023522Y-20921608D01*
X-50039727Y-20928320D01*
X-50274759Y-21085363D01*
X-50474637Y-21285241D01*
X-50631680Y-21520273D01*
X-50739853Y-21781426D01*
X-50787849Y-22022717D01*
X-52530131Y-23765000D01*
X-67068786Y-23765000D01*
X-67135149Y-23729528D01*
X-67301745Y-23678992D01*
X-67474999Y-23661928D01*
X-68725001Y-23661928D01*
X-68898255Y-23678992D01*
X-69064851Y-23729528D01*
X-69218387Y-23811595D01*
X-69352962Y-23922038D01*
X-69463405Y-24056613D01*
X-69545472Y-24210149D01*
X-69596008Y-24376745D01*
X-69613072Y-24549999D01*
X-69613072Y-25250001D01*
X-69596008Y-25423255D01*
X-69545472Y-25589851D01*
X-69463405Y-25743387D01*
X-69352962Y-25877962D01*
X-69218387Y-25988405D01*
X-69213889Y-25990809D01*
X-69252502Y-26022498D01*
X-69406833Y-26210551D01*
X-69521511Y-26425099D01*
X-69592130Y-26657898D01*
X-69615975Y-26900000D01*
X-69592130Y-27142102D01*
X-69521511Y-27374901D01*
X-69406833Y-27589449D01*
X-69252502Y-27777502D01*
X-69064449Y-27931833D01*
X-68849901Y-28046511D01*
X-68617102Y-28117130D01*
X-68435665Y-28135000D01*
X-67764335Y-28135000D01*
X-67582898Y-28117130D01*
X-67350099Y-28046511D01*
X-67328563Y-28035000D01*
X-50594748Y-28035000D01*
X-50474637Y-28214759D01*
X-50274759Y-28414637D01*
X-50039727Y-28571680D01*
X-49778574Y-28679853D01*
X-49501335Y-28735000D01*
X-49218665Y-28735000D01*
X-48941426Y-28679853D01*
X-48680273Y-28571680D01*
X-48475716Y-28435000D01*
X-46270131Y-28435000D01*
X-45334999Y-29370133D01*
X-45335000Y-37409868D01*
X-47027882Y-39102751D01*
X-47128320Y-38860273D01*
X-47285363Y-38625241D01*
X-47483961Y-38426643D01*
X-47475518Y-38425812D01*
X-47355820Y-38389502D01*
X-47245506Y-38330537D01*
X-47148815Y-38251185D01*
X-47069463Y-38154494D01*
X-47010498Y-38044180D01*
X-46974188Y-37924482D01*
X-46961928Y-37800000D01*
X-46965000Y-37285750D01*
X-47123750Y-37127000D01*
X-48273000Y-37127000D01*
X-48273000Y-37147000D01*
X-48527000Y-37147000D01*
X-48527000Y-37127000D01*
X-49676250Y-37127000D01*
X-49835000Y-37285750D01*
X-49838072Y-37800000D01*
X-49825812Y-37924482D01*
X-49789502Y-38044180D01*
X-49730537Y-38154494D01*
X-49651185Y-38251185D01*
X-49554494Y-38330537D01*
X-49444180Y-38389502D01*
X-49393090Y-38405000D01*
X-50365000Y-38405000D01*
X-50365000Y-36200000D01*
X-49838072Y-36200000D01*
X-49835000Y-36714250D01*
X-49676250Y-36873000D01*
X-48527000Y-36873000D01*
X-48527000Y-35723750D01*
X-48273000Y-35723750D01*
X-48273000Y-36873000D01*
X-47123750Y-36873000D01*
X-46965000Y-36714250D01*
X-46961928Y-36200000D01*
X-46974188Y-36075518D01*
X-47010498Y-35955820D01*
X-47069463Y-35845506D01*
X-47148815Y-35748815D01*
X-47245506Y-35669463D01*
X-47355820Y-35610498D01*
X-47475518Y-35574188D01*
X-47600000Y-35561928D01*
X-48114250Y-35565000D01*
X-48273000Y-35723750D01*
X-48527000Y-35723750D01*
X-48685750Y-35565000D01*
X-49200000Y-35561928D01*
X-49324482Y-35574188D01*
X-49444180Y-35610498D01*
X-49554494Y-35669463D01*
X-49651185Y-35748815D01*
X-49730537Y-35845506D01*
X-49789502Y-35955820D01*
X-49825812Y-36075518D01*
X-49838072Y-36200000D01*
X-50365000Y-36200000D01*
X-50365000Y-33970131D01*
X-49693947Y-33299079D01*
X-49651185Y-33351185D01*
X-49554494Y-33430537D01*
X-49444180Y-33489502D01*
X-49324482Y-33525812D01*
X-49200000Y-33538072D01*
X-47600000Y-33538072D01*
X-47475518Y-33525812D01*
X-47355820Y-33489502D01*
X-47245506Y-33430537D01*
X-47148815Y-33351185D01*
X-47069463Y-33254494D01*
X-47010498Y-33144180D01*
X-46974188Y-33024482D01*
X-46961928Y-32900000D01*
X-46961928Y-31300000D01*
X-46974188Y-31175518D01*
X-47010498Y-31055820D01*
X-47069463Y-30945506D01*
X-47148815Y-30848815D01*
X-47245506Y-30769463D01*
X-47355820Y-30710498D01*
X-47475518Y-30674188D01*
X-47600000Y-30661928D01*
X-49200000Y-30661928D01*
X-49324482Y-30674188D01*
X-49444180Y-30710498D01*
X-49554494Y-30769463D01*
X-49651185Y-30848815D01*
X-49730537Y-30945506D01*
X-49740957Y-30965000D01*
X-50044249Y-30965000D01*
X-50100000Y-30959509D01*
X-50155752Y-30965000D01*
X-50322499Y-30981423D01*
X-50536447Y-31046324D01*
X-50733623Y-31151716D01*
X-50906449Y-31293551D01*
X-50941992Y-31336860D01*
X-52263140Y-32658009D01*
X-52306448Y-32693551D01*
X-52448283Y-32866377D01*
X-52501734Y-32966378D01*
X-52553676Y-33063554D01*
X-52618577Y-33277502D01*
X-52640491Y-33500000D01*
X-52634999Y-33555761D01*
X-52635000Y-38465000D01*
X-67164183Y-38465000D01*
X-67221495Y-38407688D01*
X-67472905Y-38239701D01*
X-67752257Y-38123989D01*
X-68048816Y-38065000D01*
X-68351184Y-38065000D01*
X-68647743Y-38123989D01*
X-68927095Y-38239701D01*
X-69178505Y-38407688D01*
X-69392312Y-38621495D01*
X-69560299Y-38872905D01*
X-69676011Y-39152257D01*
X-69735000Y-39448816D01*
X-69735000Y-39529868D01*
X-70563136Y-40358005D01*
X-70606450Y-40393552D01*
X-70748285Y-40566378D01*
X-70829636Y-40718577D01*
X-70853677Y-40763555D01*
X-70918578Y-40977503D01*
X-70940492Y-41200001D01*
X-72340000Y-41200001D01*
X-72340000Y-35664080D01*
X-69084475Y-35664080D01*
X-69000792Y-35918261D01*
X-68728225Y-36049158D01*
X-68435358Y-36124365D01*
X-68133447Y-36140991D01*
X-67834093Y-36098397D01*
X-67548801Y-35998222D01*
X-67399208Y-35918261D01*
X-67315525Y-35664080D01*
X-68200000Y-34779605D01*
X-69084475Y-35664080D01*
X-72340000Y-35664080D01*
X-72340000Y-34666553D01*
X-69740991Y-34666553D01*
X-69698397Y-34965907D01*
X-69598222Y-35251199D01*
X-69518261Y-35400792D01*
X-69264080Y-35484475D01*
X-68379605Y-34600000D01*
X-68020395Y-34600000D01*
X-67135920Y-35484475D01*
X-66881739Y-35400792D01*
X-66750842Y-35128225D01*
X-66675635Y-34835358D01*
X-66659009Y-34533447D01*
X-66701603Y-34234093D01*
X-66801778Y-33948801D01*
X-66881739Y-33799208D01*
X-67135920Y-33715525D01*
X-68020395Y-34600000D01*
X-68379605Y-34600000D01*
X-69264080Y-33715525D01*
X-69518261Y-33799208D01*
X-69649158Y-34071775D01*
X-69724365Y-34364642D01*
X-69740991Y-34666553D01*
X-72340000Y-34666553D01*
X-72340000Y-33535920D01*
X-69084475Y-33535920D01*
X-68200000Y-34420395D01*
X-67315525Y-33535920D01*
X-67399208Y-33281739D01*
X-67671775Y-33150842D01*
X-67964642Y-33075635D01*
X-68266553Y-33059009D01*
X-68565907Y-33101603D01*
X-68851199Y-33201778D01*
X-69000792Y-33281739D01*
X-69084475Y-33535920D01*
X-72340000Y-33535920D01*
X-72340000Y-18864080D01*
X-69084475Y-18864080D01*
X-69000792Y-19118261D01*
X-68728225Y-19249158D01*
X-68435358Y-19324365D01*
X-68133447Y-19340991D01*
X-67834093Y-19298397D01*
X-67548801Y-19198222D01*
X-67399208Y-19118261D01*
X-67315525Y-18864080D01*
X-67379605Y-18800000D01*
X-60790572Y-18800000D01*
X-60778312Y-18924482D01*
X-60742002Y-19044180D01*
X-60683037Y-19154494D01*
X-60603685Y-19251185D01*
X-60506994Y-19330537D01*
X-60396680Y-19389502D01*
X-60276982Y-19425812D01*
X-60152500Y-19438072D01*
X-59485750Y-19435000D01*
X-59327000Y-19276250D01*
X-59327000Y-17927000D01*
X-60628750Y-17927000D01*
X-60787500Y-18085750D01*
X-60790572Y-18800000D01*
X-67379605Y-18800000D01*
X-68200000Y-17979605D01*
X-69084475Y-18864080D01*
X-72340000Y-18864080D01*
X-72340000Y-17866553D01*
X-69740991Y-17866553D01*
X-69698397Y-18165907D01*
X-69598222Y-18451199D01*
X-69518261Y-18600792D01*
X-69264080Y-18684475D01*
X-68379605Y-17800000D01*
X-68020395Y-17800000D01*
X-67135920Y-18684475D01*
X-66881739Y-18600792D01*
X-66750842Y-18328225D01*
X-66675635Y-18035358D01*
X-66659009Y-17733447D01*
X-66701603Y-17434093D01*
X-66801778Y-17148801D01*
X-66881739Y-16999208D01*
X-67135920Y-16915525D01*
X-68020395Y-17800000D01*
X-68379605Y-17800000D01*
X-69264080Y-16915525D01*
X-69518261Y-16999208D01*
X-69649158Y-17271775D01*
X-69724365Y-17564642D01*
X-69740991Y-17866553D01*
X-72340000Y-17866553D01*
X-72340000Y-16735920D01*
X-69084475Y-16735920D01*
X-68200000Y-17620395D01*
X-67315525Y-16735920D01*
X-67399208Y-16481739D01*
X-67671775Y-16350842D01*
X-67964642Y-16275635D01*
X-68266553Y-16259009D01*
X-68565907Y-16301603D01*
X-68851199Y-16401778D01*
X-69000792Y-16481739D01*
X-69084475Y-16735920D01*
X-72340000Y-16735920D01*
X-72340000Y-5532279D01*
X-72315252Y-5279872D01*
X-71735000Y-5279872D01*
X-71735000Y-5720128D01*
X-71649110Y-6151925D01*
X-71480631Y-6558669D01*
X-71236038Y-6924729D01*
X-70924729Y-7236038D01*
X-70558669Y-7480631D01*
X-70151925Y-7649110D01*
X-69720128Y-7735000D01*
X-69279872Y-7735000D01*
X-68848075Y-7649110D01*
X-68441331Y-7480631D01*
X-68075271Y-7236038D01*
X-67763962Y-6924729D01*
X-67519369Y-6558669D01*
X-67350890Y-6151925D01*
X-67265000Y-5720128D01*
X-67265000Y-5279872D01*
X-7735000Y-5279872D01*
X-7735000Y-5720128D01*
X-7649110Y-6151925D01*
X-7480631Y-6558669D01*
X-7236038Y-6924729D01*
X-6924729Y-7236038D01*
X-6558669Y-7480631D01*
X-6151925Y-7649110D01*
X-5720128Y-7735000D01*
X-5279872Y-7735000D01*
X-4848075Y-7649110D01*
X-4441331Y-7480631D01*
X-4075271Y-7236038D01*
X-3763962Y-6924729D01*
X-3519369Y-6558669D01*
X-3350890Y-6151925D01*
X-3265000Y-5720128D01*
X-3265000Y-5279872D01*
X-3350890Y-4848075D01*
X-3519369Y-4441331D01*
X-3763962Y-4075271D01*
X-4075271Y-3763962D01*
X-4441331Y-3519369D01*
X-4848075Y-3350890D01*
X-5279872Y-3265000D01*
X-5720128Y-3265000D01*
X-6151925Y-3350890D01*
X-6558669Y-3519369D01*
X-6924729Y-3763962D01*
X-7236038Y-4075271D01*
X-7480631Y-4441331D01*
X-7649110Y-4848075D01*
X-7735000Y-5279872D01*
X-67265000Y-5279872D01*
X-67350890Y-4848075D01*
X-67519369Y-4441331D01*
X-67763962Y-4075271D01*
X-68075271Y-3763962D01*
X-68441331Y-3519369D01*
X-68848075Y-3350890D01*
X-69279872Y-3265000D01*
X-69720128Y-3265000D01*
X-70151925Y-3350890D01*
X-70558669Y-3519369D01*
X-70924729Y-3763962D01*
X-71236038Y-4075271D01*
X-71480631Y-4441331D01*
X-71649110Y-4848075D01*
X-71735000Y-5279872D01*
X-72315252Y-5279872D01*
X-72282808Y-4948990D01*
X-72122784Y-4418964D01*
X-71862860Y-3930121D01*
X-71512935Y-3501069D01*
X-71086336Y-3148156D01*
X-70599319Y-2884827D01*
X-70070422Y-2721106D01*
X-69489040Y-2660000D01*
X-5532279Y-2660000D01*
X-4948990Y-2717192D01*
%TA.AperFunction,Conductor*%
D24*
G36*
X-4948990Y-2717192D02*
G01*
X-4418964Y-2877216D01*
X-3930121Y-3137140D01*
X-3501069Y-3487065D01*
X-3148156Y-3913664D01*
X-2884827Y-4400681D01*
X-2721106Y-4929578D01*
X-2660000Y-5510960D01*
X-2659999Y-70867711D01*
X-2717192Y-71451010D01*
X-2877217Y-71981036D01*
X-3137140Y-72469880D01*
X-3487065Y-72898931D01*
X-3913665Y-73251845D01*
X-4400680Y-73515173D01*
X-4929578Y-73678894D01*
X-5510960Y-73740000D01*
X-69467721Y-73740000D01*
X-70051010Y-73682808D01*
X-70581036Y-73522783D01*
X-71069880Y-73262860D01*
X-71498931Y-72912935D01*
X-71851845Y-72486335D01*
X-72115173Y-71999320D01*
X-72278894Y-71470422D01*
X-72340000Y-70889040D01*
X-72340000Y-70679872D01*
X-71735000Y-70679872D01*
X-71735000Y-71120128D01*
X-71649110Y-71551925D01*
X-71480631Y-71958669D01*
X-71236038Y-72324729D01*
X-70924729Y-72636038D01*
X-70558669Y-72880631D01*
X-70151925Y-73049110D01*
X-69720128Y-73135000D01*
X-69279872Y-73135000D01*
X-68848075Y-73049110D01*
X-68441331Y-72880631D01*
X-68075271Y-72636038D01*
X-67763962Y-72324729D01*
X-67519369Y-71958669D01*
X-67350890Y-71551925D01*
X-67265000Y-71120128D01*
X-67265000Y-70679872D01*
X-7735000Y-70679872D01*
X-7735000Y-71120128D01*
X-7649110Y-71551925D01*
X-7480631Y-71958669D01*
X-7236038Y-72324729D01*
X-6924729Y-72636038D01*
X-6558669Y-72880631D01*
X-6151925Y-73049110D01*
X-5720128Y-73135000D01*
X-5279872Y-73135000D01*
X-4848075Y-73049110D01*
X-4441331Y-72880631D01*
X-4075271Y-72636038D01*
X-3763962Y-72324729D01*
X-3519369Y-71958669D01*
X-3350890Y-71551925D01*
X-3265000Y-71120128D01*
X-3265000Y-70679872D01*
X-3350890Y-70248075D01*
X-3519369Y-69841331D01*
X-3763962Y-69475271D01*
X-4075271Y-69163962D01*
X-4441331Y-68919369D01*
X-4848075Y-68750890D01*
X-5279872Y-68665000D01*
X-5720128Y-68665000D01*
X-6151925Y-68750890D01*
X-6558669Y-68919369D01*
X-6924729Y-69163962D01*
X-7236038Y-69475271D01*
X-7480631Y-69841331D01*
X-7649110Y-70248075D01*
X-7735000Y-70679872D01*
X-67265000Y-70679872D01*
X-67350890Y-70248075D01*
X-67519369Y-69841331D01*
X-67763962Y-69475271D01*
X-68075271Y-69163962D01*
X-68441331Y-68919369D01*
X-68848075Y-68750890D01*
X-69279872Y-68665000D01*
X-69720128Y-68665000D01*
X-70151925Y-68750890D01*
X-70558669Y-68919369D01*
X-70924729Y-69163962D01*
X-71236038Y-69475271D01*
X-71480631Y-69841331D01*
X-71649110Y-70248075D01*
X-71735000Y-70679872D01*
X-72340000Y-70679872D01*
X-72340000Y-41200001D01*
X-70940492Y-41200001D01*
X-70935001Y-41255752D01*
X-70935000Y-60144237D01*
X-70940492Y-60199999D01*
X-70918578Y-60422497D01*
X-70853677Y-60636445D01*
X-70853676Y-60636446D01*
X-70748284Y-60833622D01*
X-70606449Y-61006448D01*
X-70563141Y-61041990D01*
X-69613072Y-61992060D01*
X-69613072Y-62250001D01*
X-69596008Y-62423255D01*
X-69545472Y-62589851D01*
X-69463405Y-62743387D01*
X-69352962Y-62877962D01*
X-69218387Y-62988405D01*
X-69213889Y-62990809D01*
X-69252502Y-63022498D01*
X-69406833Y-63210551D01*
X-69521511Y-63425099D01*
X-69592130Y-63657898D01*
X-69615975Y-63900000D01*
X-69592130Y-64142102D01*
X-69521511Y-64374901D01*
X-69406833Y-64589449D01*
X-69252502Y-64777502D01*
X-69064449Y-64931833D01*
X-68849901Y-65046511D01*
X-68617102Y-65117130D01*
X-68435665Y-65135000D01*
X-67764335Y-65135000D01*
X-67582898Y-65117130D01*
X-67350099Y-65046511D01*
X-67328563Y-65035000D01*
X-63644284Y-65035000D01*
X-63439727Y-65171680D01*
X-63178574Y-65279853D01*
X-62901335Y-65335000D01*
X-62618665Y-65335000D01*
X-62341426Y-65279853D01*
X-62080273Y-65171680D01*
X-61845241Y-65014637D01*
X-61645363Y-64814759D01*
X-61488320Y-64579727D01*
X-61380147Y-64318574D01*
X-61325000Y-64041335D01*
X-61325000Y-63758665D01*
X-61380147Y-63481426D01*
X-61488320Y-63220273D01*
X-61645363Y-62985241D01*
X-61845241Y-62785363D01*
X-62080273Y-62628320D01*
X-62341426Y-62520147D01*
X-62618665Y-62465000D01*
X-62901335Y-62465000D01*
X-63178574Y-62520147D01*
X-63439727Y-62628320D01*
X-63644284Y-62765000D01*
X-66754332Y-62765000D01*
X-66736595Y-62743387D01*
X-66654528Y-62589851D01*
X-66603992Y-62423255D01*
X-66586928Y-62250001D01*
X-66586928Y-61549999D01*
X-66603992Y-61376745D01*
X-66654528Y-61210149D01*
X-66736595Y-61056613D01*
X-66847038Y-60922038D01*
X-66981613Y-60811595D01*
X-67135149Y-60729528D01*
X-67301745Y-60678992D01*
X-67474999Y-60661928D01*
X-67732940Y-60661928D01*
X-68665001Y-59729868D01*
X-68665001Y-55770512D01*
X-48440217Y-55770512D01*
X-48398787Y-56050130D01*
X-48303603Y-56316292D01*
X-48236671Y-56441514D01*
X-47992702Y-56513097D01*
X-47179605Y-55700000D01*
X-47992702Y-54886903D01*
X-48236671Y-54958486D01*
X-48357571Y-55213996D01*
X-48426300Y-55488184D01*
X-48440217Y-55770512D01*
X-68665001Y-55770512D01*
X-68665001Y-53968862D01*
X-68647743Y-53976011D01*
X-68351184Y-54035000D01*
X-68048816Y-54035000D01*
X-67752257Y-53976011D01*
X-67472905Y-53860299D01*
X-67221495Y-53692312D01*
X-67007688Y-53478505D01*
X-66839701Y-53227095D01*
X-66723989Y-52947743D01*
X-66665000Y-52651184D01*
X-66665000Y-52570131D01*
X-65429868Y-51335000D01*
X-50384284Y-51335000D01*
X-50179727Y-51471680D01*
X-49918574Y-51579853D01*
X-49641335Y-51635000D01*
X-49358665Y-51635000D01*
X-49081426Y-51579853D01*
X-48820273Y-51471680D01*
X-48585241Y-51314637D01*
X-48385363Y-51114759D01*
X-48228320Y-50879727D01*
X-48120147Y-50618574D01*
X-48065000Y-50341335D01*
X-48065000Y-50058665D01*
X-48120147Y-49781426D01*
X-48228320Y-49520273D01*
X-48385363Y-49285241D01*
X-48585241Y-49085363D01*
X-48820273Y-48928320D01*
X-49081426Y-48820147D01*
X-49358665Y-48765000D01*
X-49641335Y-48765000D01*
X-49918574Y-48820147D01*
X-50179727Y-48928320D01*
X-50384284Y-49065000D01*
X-65844257Y-49065000D01*
X-65900001Y-49059510D01*
X-65955745Y-49065000D01*
X-65955752Y-49065000D01*
X-66101507Y-49079356D01*
X-66122500Y-49081423D01*
X-66172295Y-49096529D01*
X-66336447Y-49146324D01*
X-66533623Y-49251716D01*
X-66706449Y-49393551D01*
X-66741989Y-49436857D01*
X-68270131Y-50965000D01*
X-68351184Y-50965000D01*
X-68647743Y-51023989D01*
X-68665001Y-51031138D01*
X-68665001Y-48968862D01*
X-68647743Y-48976011D01*
X-68351184Y-49035000D01*
X-68048816Y-49035000D01*
X-67752257Y-48976011D01*
X-67472905Y-48860299D01*
X-67221495Y-48692312D01*
X-67007688Y-48478505D01*
X-66839701Y-48227095D01*
X-66723989Y-47947743D01*
X-66665000Y-47651184D01*
X-66665000Y-47570131D01*
X-64849868Y-45755000D01*
X-49284284Y-45755000D01*
X-49079727Y-45891680D01*
X-48818574Y-45999853D01*
X-48577282Y-46047850D01*
X-46634999Y-47990133D01*
X-46634998Y-54312098D01*
X-46788184Y-54273700D01*
X-47070512Y-54259783D01*
X-47350130Y-54301213D01*
X-47616292Y-54396397D01*
X-47741514Y-54463329D01*
X-47813097Y-54707298D01*
X-47000000Y-55520395D01*
X-46985857Y-55506253D01*
X-46806252Y-55685858D01*
X-46820395Y-55700000D01*
X-46806252Y-55714143D01*
X-46985857Y-55893748D01*
X-47000000Y-55879605D01*
X-47813097Y-56692702D01*
X-47741514Y-56936671D01*
X-47486004Y-57057571D01*
X-47211816Y-57126300D01*
X-46929488Y-57140217D01*
X-46649870Y-57098787D01*
X-46634998Y-57093469D01*
X-46634998Y-57929866D01*
X-48567059Y-59861928D01*
X-49200000Y-59861928D01*
X-49324482Y-59874188D01*
X-49444180Y-59910498D01*
X-49554494Y-59969463D01*
X-49651185Y-60048815D01*
X-49730537Y-60145506D01*
X-49789502Y-60255820D01*
X-49825812Y-60375518D01*
X-49838072Y-60500000D01*
X-49838072Y-62100000D01*
X-49825812Y-62224482D01*
X-49789502Y-62344180D01*
X-49730537Y-62454494D01*
X-49651185Y-62551185D01*
X-49554494Y-62630537D01*
X-49444180Y-62689502D01*
X-49393090Y-62705000D01*
X-51805513Y-62705000D01*
X-51920273Y-62628320D01*
X-52181426Y-62520147D01*
X-52458665Y-62465000D01*
X-52741335Y-62465000D01*
X-53018574Y-62520147D01*
X-53279727Y-62628320D01*
X-53514759Y-62785363D01*
X-53714637Y-62985241D01*
X-53871680Y-63220273D01*
X-53979853Y-63481426D01*
X-54035000Y-63758665D01*
X-54035000Y-64041335D01*
X-53979853Y-64318574D01*
X-53871680Y-64579727D01*
X-53714637Y-64814759D01*
X-53514759Y-65014637D01*
X-53279727Y-65171680D01*
X-53018574Y-65279853D01*
X-52741335Y-65335000D01*
X-52458665Y-65335000D01*
X-52181426Y-65279853D01*
X-51920273Y-65171680D01*
X-51685241Y-65014637D01*
X-51645604Y-64975000D01*
X-49284284Y-64975000D01*
X-49079727Y-65111680D01*
X-48818574Y-65219853D01*
X-48541335Y-65275000D01*
X-48258665Y-65275000D01*
X-47981426Y-65219853D01*
X-47720273Y-65111680D01*
X-47485241Y-64954637D01*
X-47285363Y-64754759D01*
X-47128320Y-64519727D01*
X-47020147Y-64258574D01*
X-46965000Y-63981335D01*
X-46965000Y-63698665D01*
X-47020147Y-63421426D01*
X-47128320Y-63160273D01*
X-47285363Y-62925241D01*
X-47483961Y-62726643D01*
X-47475518Y-62725812D01*
X-47355820Y-62689502D01*
X-47245506Y-62630537D01*
X-47148815Y-62551185D01*
X-47069463Y-62454494D01*
X-47059043Y-62435000D01*
X-41664284Y-62435000D01*
X-41462241Y-62570000D01*
X-41694759Y-62725363D01*
X-41894637Y-62925241D01*
X-42051680Y-63160273D01*
X-42159853Y-63421426D01*
X-42215000Y-63698665D01*
X-42215000Y-63981335D01*
X-42159853Y-64258574D01*
X-42051680Y-64519727D01*
X-41894637Y-64754759D01*
X-41694759Y-64954637D01*
X-41459727Y-65111680D01*
X-41198574Y-65219853D01*
X-40921335Y-65275000D01*
X-40638665Y-65275000D01*
X-40361426Y-65219853D01*
X-40100273Y-65111680D01*
X-39895716Y-64975000D01*
X-37695000Y-64975000D01*
X-37694999Y-68115715D01*
X-37831680Y-68320273D01*
X-37939853Y-68581426D01*
X-37995000Y-68858665D01*
X-37995000Y-69141335D01*
X-37939853Y-69418574D01*
X-37831680Y-69679727D01*
X-37674637Y-69914759D01*
X-37474759Y-70114637D01*
X-37239727Y-70271680D01*
X-36978574Y-70379853D01*
X-36701335Y-70435000D01*
X-36418665Y-70435000D01*
X-36141426Y-70379853D01*
X-35880273Y-70271680D01*
X-35645241Y-70114637D01*
X-35523306Y-69992702D01*
X-27213097Y-69992702D01*
X-27141514Y-70236671D01*
X-26886004Y-70357571D01*
X-26611816Y-70426300D01*
X-26329488Y-70440217D01*
X-26049870Y-70398787D01*
X-25783708Y-70303603D01*
X-25658486Y-70236671D01*
X-25586903Y-69992702D01*
X-26400000Y-69179605D01*
X-27213097Y-69992702D01*
X-35523306Y-69992702D01*
X-35445363Y-69914759D01*
X-35288320Y-69679727D01*
X-35180147Y-69418574D01*
X-35125000Y-69141335D01*
X-35125000Y-69070512D01*
X-27840217Y-69070512D01*
X-27798787Y-69350130D01*
X-27703603Y-69616292D01*
X-27636671Y-69741514D01*
X-27392702Y-69813097D01*
X-26579605Y-69000000D01*
X-26220395Y-69000000D01*
X-25407298Y-69813097D01*
X-25163329Y-69741514D01*
X-25042429Y-69486004D01*
X-25009085Y-69352980D01*
X-23390563Y-69352980D01*
X-23319571Y-69571094D01*
X-23175969Y-69846923D01*
X-22981315Y-70089437D01*
X-22743089Y-70289316D01*
X-22470446Y-70438879D01*
X-22173863Y-70532378D01*
X-21927000Y-70405570D01*
X-21927000Y-69107000D01*
X-21673000Y-69107000D01*
X-21673000Y-70405570D01*
X-21426137Y-70532378D01*
X-21129554Y-70438879D01*
X-20856911Y-70289316D01*
X-20618685Y-70089437D01*
X-20424031Y-69846923D01*
X-20280429Y-69571094D01*
X-20209437Y-69352980D01*
X-20329406Y-69107000D01*
X-21673000Y-69107000D01*
X-21927000Y-69107000D01*
X-23270594Y-69107000D01*
X-23390563Y-69352980D01*
X-25009085Y-69352980D01*
X-24973700Y-69211816D01*
X-24959783Y-68929488D01*
X-25001213Y-68649870D01*
X-25096397Y-68383708D01*
X-25163329Y-68258486D01*
X-25407298Y-68186903D01*
X-26220395Y-69000000D01*
X-26579605Y-69000000D01*
X-27392702Y-68186903D01*
X-27636671Y-68258486D01*
X-27757571Y-68513996D01*
X-27826300Y-68788184D01*
X-27840217Y-69070512D01*
X-35125000Y-69070512D01*
X-35125000Y-68858665D01*
X-35180147Y-68581426D01*
X-35288320Y-68320273D01*
X-35425000Y-68115716D01*
X-35425000Y-68007298D01*
X-27213097Y-68007298D01*
X-26400000Y-68820395D01*
X-25586903Y-68007298D01*
X-25658486Y-67763329D01*
X-25913996Y-67642429D01*
X-26188184Y-67573700D01*
X-26470512Y-67559783D01*
X-26750130Y-67601213D01*
X-27016292Y-67696397D01*
X-27141514Y-67763329D01*
X-27213097Y-68007298D01*
X-35425000Y-68007298D01*
X-35425000Y-64784284D01*
X-35288320Y-64579727D01*
X-35180147Y-64318574D01*
X-35125000Y-64041335D01*
X-35125000Y-63758665D01*
X-35180147Y-63481426D01*
X-35288320Y-63220273D01*
X-35445363Y-62985241D01*
X-35645241Y-62785363D01*
X-35880273Y-62628320D01*
X-36141426Y-62520147D01*
X-36418665Y-62465000D01*
X-36701335Y-62465000D01*
X-36978574Y-62520147D01*
X-37239727Y-62628320D01*
X-37354487Y-62705000D01*
X-39895716Y-62705000D01*
X-40097759Y-62570000D01*
X-39895716Y-62435000D01*
X-23176472Y-62435000D01*
X-23251185Y-62496315D01*
X-23330537Y-62593006D01*
X-23389502Y-62703320D01*
X-23408212Y-62765000D01*
X-25515716Y-62765000D01*
X-25720273Y-62628320D01*
X-25981426Y-62520147D01*
X-26258665Y-62465000D01*
X-26541335Y-62465000D01*
X-26818574Y-62520147D01*
X-27079727Y-62628320D01*
X-27314759Y-62785363D01*
X-27514637Y-62985241D01*
X-27671680Y-63220273D01*
X-27779853Y-63481426D01*
X-27835000Y-63758665D01*
X-27835000Y-64041335D01*
X-27779853Y-64318574D01*
X-27671680Y-64579727D01*
X-27514637Y-64814759D01*
X-27314759Y-65014637D01*
X-27079727Y-65171680D01*
X-26818574Y-65279853D01*
X-26541335Y-65335000D01*
X-26258665Y-65335000D01*
X-25981426Y-65279853D01*
X-25720273Y-65171680D01*
X-25515716Y-65035000D01*
X-23408212Y-65035000D01*
X-23389502Y-65096680D01*
X-23330537Y-65206994D01*
X-23251185Y-65303685D01*
X-23154494Y-65383037D01*
X-23070554Y-65427905D01*
X-23173845Y-65553765D01*
X-23321255Y-65829551D01*
X-23412030Y-66128796D01*
X-23442681Y-66440000D01*
X-23412030Y-66751204D01*
X-23321255Y-67050449D01*
X-23173845Y-67326235D01*
X-22975463Y-67567963D01*
X-22796101Y-67715163D01*
X-22981315Y-67870563D01*
X-23175969Y-68113077D01*
X-23319571Y-68388906D01*
X-23390563Y-68607020D01*
X-23270594Y-68853000D01*
X-21927000Y-68853000D01*
X-21927000Y-68833000D01*
X-21673000Y-68833000D01*
X-21673000Y-68853000D01*
X-20329406Y-68853000D01*
X-20209437Y-68607020D01*
X-20280429Y-68388906D01*
X-20424031Y-68113077D01*
X-20618685Y-67870563D01*
X-20803899Y-67715163D01*
X-20633112Y-67575000D01*
X-16038661Y-67575000D01*
X-15805998Y-67807663D01*
X-15521831Y-67997537D01*
X-15206081Y-68128325D01*
X-14870883Y-68195000D01*
X-14529117Y-68195000D01*
X-14193919Y-68128325D01*
X-13878169Y-67997537D01*
X-13594002Y-67807663D01*
X-13352337Y-67565998D01*
X-13162463Y-67281831D01*
X-13031675Y-66966081D01*
X-12965000Y-66630883D01*
X-12965000Y-66330131D01*
X-11469868Y-64835000D01*
X-7835817Y-64835000D01*
X-7778505Y-64892312D01*
X-7527095Y-65060299D01*
X-7247743Y-65176011D01*
X-6951184Y-65235000D01*
X-6648816Y-65235000D01*
X-6352257Y-65176011D01*
X-6072905Y-65060299D01*
X-5821495Y-64892312D01*
X-5607688Y-64678505D01*
X-5439701Y-64427095D01*
X-5323989Y-64147743D01*
X-5265000Y-63851184D01*
X-5265000Y-63548816D01*
X-5323989Y-63252257D01*
X-5439701Y-62972905D01*
X-5607688Y-62721495D01*
X-5821495Y-62507688D01*
X-6072905Y-62339701D01*
X-6352257Y-62223989D01*
X-6648816Y-62165000D01*
X-6951184Y-62165000D01*
X-7247743Y-62223989D01*
X-7527095Y-62339701D01*
X-7778505Y-62507688D01*
X-7835817Y-62565000D01*
X-11884259Y-62565000D01*
X-11940001Y-62559510D01*
X-11995743Y-62565000D01*
X-11995752Y-62565000D01*
X-12162499Y-62581423D01*
X-12376447Y-62646324D01*
X-12573623Y-62751716D01*
X-12746449Y-62893551D01*
X-12781991Y-62936859D01*
X-14570131Y-64725000D01*
X-14870883Y-64725000D01*
X-15206081Y-64791675D01*
X-15521831Y-64922463D01*
X-15805998Y-65112337D01*
X-15998661Y-65305000D01*
X-20350417Y-65305000D01*
X-20348815Y-65303685D01*
X-20269463Y-65206994D01*
X-20210498Y-65096680D01*
X-20174188Y-64976982D01*
X-20161928Y-64852500D01*
X-20161928Y-62947500D01*
X-20174188Y-62823018D01*
X-20210498Y-62703320D01*
X-20269463Y-62593006D01*
X-20348815Y-62496315D01*
X-20423528Y-62435000D01*
X-19755751Y-62435000D01*
X-19700000Y-62440491D01*
X-19644249Y-62435000D01*
X-19644248Y-62435000D01*
X-19477501Y-62418577D01*
X-19263553Y-62353676D01*
X-19066377Y-62248284D01*
X-18893551Y-62106449D01*
X-18858004Y-62063135D01*
X-14832940Y-58038072D01*
X-14567060Y-58038072D01*
X-13141987Y-59463146D01*
X-13106449Y-59506449D01*
X-13063146Y-59541987D01*
X-13063144Y-59541989D01*
X-12933623Y-59648284D01*
X-12736447Y-59753676D01*
X-12522499Y-59818577D01*
X-12300000Y-59840491D01*
X-12244248Y-59835000D01*
X-7835817Y-59835000D01*
X-7778505Y-59892312D01*
X-7527095Y-60060299D01*
X-7247743Y-60176011D01*
X-6951184Y-60235000D01*
X-6648816Y-60235000D01*
X-6352257Y-60176011D01*
X-6072905Y-60060299D01*
X-5821495Y-59892312D01*
X-5607688Y-59678505D01*
X-5439701Y-59427095D01*
X-5323989Y-59147743D01*
X-5265000Y-58851184D01*
X-5265000Y-58548816D01*
X-5323989Y-58252257D01*
X-5439701Y-57972905D01*
X-5607688Y-57721495D01*
X-5821495Y-57507688D01*
X-6072905Y-57339701D01*
X-6352257Y-57223989D01*
X-6648816Y-57165000D01*
X-6951184Y-57165000D01*
X-7247743Y-57223989D01*
X-7527095Y-57339701D01*
X-7778505Y-57507688D01*
X-7835817Y-57565000D01*
X-11829867Y-57565000D01*
X-12961928Y-56432940D01*
X-12961928Y-55200000D01*
X-12974188Y-55075518D01*
X-13010498Y-54955820D01*
X-13069463Y-54845506D01*
X-13148815Y-54748815D01*
X-13245506Y-54669463D01*
X-13355820Y-54610498D01*
X-13475518Y-54574188D01*
X-13565000Y-54565375D01*
X-13565000Y-41734625D01*
X-13475518Y-41725812D01*
X-13355820Y-41689502D01*
X-13245506Y-41630537D01*
X-13148815Y-41551185D01*
X-13069463Y-41454494D01*
X-13010498Y-41344180D01*
X-12974188Y-41224482D01*
X-12961928Y-41100000D01*
X-12961928Y-39867059D01*
X-9029867Y-35935000D01*
X-7835817Y-35935000D01*
X-7778505Y-35992312D01*
X-7527095Y-36160299D01*
X-7247743Y-36276011D01*
X-6951184Y-36335000D01*
X-6648816Y-36335000D01*
X-6352257Y-36276011D01*
X-6072905Y-36160299D01*
X-5821495Y-35992312D01*
X-5607688Y-35778505D01*
X-5439701Y-35527095D01*
X-5323989Y-35247743D01*
X-5265000Y-34951184D01*
X-5265000Y-34648816D01*
X-5323989Y-34352257D01*
X-5439701Y-34072905D01*
X-5607688Y-33821495D01*
X-5821495Y-33607688D01*
X-6072905Y-33439701D01*
X-6352257Y-33323989D01*
X-6648816Y-33265000D01*
X-6951184Y-33265000D01*
X-7247743Y-33323989D01*
X-7527095Y-33439701D01*
X-7778505Y-33607688D01*
X-7835817Y-33665000D01*
X-9444248Y-33665000D01*
X-9500000Y-33659509D01*
X-9722499Y-33681423D01*
X-9936447Y-33746324D01*
X-10133623Y-33851716D01*
X-10263144Y-33958011D01*
X-10263146Y-33958013D01*
X-10306449Y-33993551D01*
X-10341987Y-34036854D01*
X-14567059Y-38261928D01*
X-15800000Y-38261928D01*
X-15924482Y-38274188D01*
X-16044180Y-38310498D01*
X-16154494Y-38369463D01*
X-16251185Y-38448815D01*
X-16330537Y-38545506D01*
X-16389502Y-38655820D01*
X-16425812Y-38775518D01*
X-16438072Y-38900000D01*
X-16438072Y-41100000D01*
X-16425812Y-41224482D01*
X-16389502Y-41344180D01*
X-16330537Y-41454494D01*
X-16251185Y-41551185D01*
X-16154494Y-41630537D01*
X-16044180Y-41689502D01*
X-15924482Y-41725812D01*
X-15834999Y-41734625D01*
X-15835000Y-54565375D01*
X-15924482Y-54574188D01*
X-16044180Y-54610498D01*
X-16154494Y-54669463D01*
X-16251185Y-54748815D01*
X-16330537Y-54845506D01*
X-16389502Y-54955820D01*
X-16425812Y-55075518D01*
X-16438072Y-55200000D01*
X-16438072Y-56432940D01*
X-20170131Y-60165000D01*
X-39895716Y-60165000D01*
X-40100273Y-60028320D01*
X-40361426Y-59920147D01*
X-40638665Y-59865000D01*
X-40921335Y-59865000D01*
X-41198574Y-59920147D01*
X-41459727Y-60028320D01*
X-41664284Y-60165000D01*
X-45659868Y-60165000D01*
X-44736858Y-59241990D01*
X-44693550Y-59206448D01*
X-44551715Y-59033622D01*
X-44446323Y-58836446D01*
X-44381422Y-58622498D01*
X-44364999Y-58455751D01*
X-44359508Y-58399999D01*
X-44364999Y-58344247D01*
X-44364999Y-47575753D01*
X-44359508Y-47520001D01*
X-44381422Y-47297502D01*
X-44446323Y-47083554D01*
X-44551715Y-46886378D01*
X-44632220Y-46788283D01*
X-44693550Y-46713552D01*
X-44736858Y-46678010D01*
X-46794869Y-44620000D01*
X-42152117Y-39977249D01*
X-42051680Y-40219727D01*
X-41914999Y-40424285D01*
X-41915000Y-41195716D01*
X-42051680Y-41400273D01*
X-42159853Y-41661426D01*
X-42215000Y-41938665D01*
X-42215000Y-42221335D01*
X-42159853Y-42498574D01*
X-42051680Y-42759727D01*
X-41894637Y-42994759D01*
X-41694759Y-43194637D01*
X-41462241Y-43350000D01*
X-41694759Y-43505363D01*
X-41894637Y-43705241D01*
X-42051680Y-43940273D01*
X-42159853Y-44201426D01*
X-42207850Y-44442718D01*
X-42763140Y-44998009D01*
X-42806448Y-45033551D01*
X-42948283Y-45206377D01*
X-42973536Y-45253623D01*
X-43053676Y-45403554D01*
X-43118577Y-45617502D01*
X-43140491Y-45840000D01*
X-43134999Y-45895761D01*
X-43135000Y-54815716D01*
X-43271680Y-55020273D01*
X-43379853Y-55281426D01*
X-43435000Y-55558665D01*
X-43435000Y-55841335D01*
X-43379853Y-56118574D01*
X-43271680Y-56379727D01*
X-43114637Y-56614759D01*
X-42914759Y-56814637D01*
X-42679727Y-56971680D01*
X-42418574Y-57079853D01*
X-42141335Y-57135000D01*
X-41858665Y-57135000D01*
X-41581426Y-57079853D01*
X-41320273Y-56971680D01*
X-41085241Y-56814637D01*
X-40885363Y-56614759D01*
X-40728320Y-56379727D01*
X-40620147Y-56118574D01*
X-40565000Y-55841335D01*
X-40565000Y-55558665D01*
X-40620147Y-55281426D01*
X-40728320Y-55020273D01*
X-40865000Y-54815716D01*
X-40865000Y-46310132D01*
X-40602718Y-46047850D01*
X-40414999Y-46010509D01*
X-40414998Y-49245602D01*
X-40454637Y-49285241D01*
X-40611680Y-49520273D01*
X-40719853Y-49781426D01*
X-40775000Y-50058665D01*
X-40775000Y-50341335D01*
X-40719853Y-50618574D01*
X-40611680Y-50879727D01*
X-40454637Y-51114759D01*
X-40254759Y-51314637D01*
X-40019727Y-51471680D01*
X-39758574Y-51579853D01*
X-39481335Y-51635000D01*
X-39198665Y-51635000D01*
X-38921426Y-51579853D01*
X-38660273Y-51471680D01*
X-38425241Y-51314637D01*
X-38225363Y-51114759D01*
X-38068320Y-50879727D01*
X-37960147Y-50618574D01*
X-37905000Y-50341335D01*
X-37905000Y-50058665D01*
X-37960147Y-49781426D01*
X-38068320Y-49520273D01*
X-38144999Y-49405515D01*
X-38144999Y-43635753D01*
X-38139508Y-43580001D01*
X-38161422Y-43357502D01*
X-38204650Y-43215000D01*
X-36551647Y-43215000D01*
X-36530537Y-43254494D01*
X-36451185Y-43351185D01*
X-36354494Y-43430537D01*
X-36244180Y-43489502D01*
X-36124482Y-43525812D01*
X-36000000Y-43538072D01*
X-34400000Y-43538072D01*
X-34275518Y-43525812D01*
X-34155820Y-43489502D01*
X-34045506Y-43430537D01*
X-33948815Y-43351185D01*
X-33869463Y-43254494D01*
X-33810498Y-43144180D01*
X-33794883Y-43092702D01*
X-32513097Y-43092702D01*
X-32441514Y-43336671D01*
X-32186004Y-43457571D01*
X-31911816Y-43526300D01*
X-31629488Y-43540217D01*
X-31349870Y-43498787D01*
X-31083708Y-43403603D01*
X-30958486Y-43336671D01*
X-30886903Y-43092702D01*
X-31700000Y-42279605D01*
X-32513097Y-43092702D01*
X-33794883Y-43092702D01*
X-33774188Y-43024482D01*
X-33761928Y-42900000D01*
X-33761928Y-42170512D01*
X-33140217Y-42170512D01*
X-33098787Y-42450130D01*
X-33003603Y-42716292D01*
X-32936671Y-42841514D01*
X-32692702Y-42913097D01*
X-31879605Y-42100000D01*
X-31520395Y-42100000D01*
X-30707298Y-42913097D01*
X-30463329Y-42841514D01*
X-30342429Y-42586004D01*
X-30273700Y-42311816D01*
X-30259783Y-42029488D01*
X-30301213Y-41749870D01*
X-30396397Y-41483708D01*
X-30463329Y-41358486D01*
X-30707298Y-41286903D01*
X-31520395Y-42100000D01*
X-31879605Y-42100000D01*
X-32692702Y-41286903D01*
X-32936671Y-41358486D01*
X-33057571Y-41613996D01*
X-33126300Y-41888184D01*
X-33140217Y-42170512D01*
X-33761928Y-42170512D01*
X-33761928Y-41300000D01*
X-33774188Y-41175518D01*
X-33794882Y-41107298D01*
X-32513097Y-41107298D01*
X-31700000Y-41920395D01*
X-30886903Y-41107298D01*
X-30958486Y-40863329D01*
X-31213996Y-40742429D01*
X-31488184Y-40673700D01*
X-31770512Y-40659783D01*
X-32050130Y-40701213D01*
X-32316292Y-40796397D01*
X-32441514Y-40863329D01*
X-32513097Y-41107298D01*
X-33794882Y-41107298D01*
X-33810498Y-41055820D01*
X-33869463Y-40945506D01*
X-33948815Y-40848815D01*
X-34045506Y-40769463D01*
X-34155820Y-40710498D01*
X-34275518Y-40674188D01*
X-34400000Y-40661928D01*
X-36000000Y-40661928D01*
X-36124482Y-40674188D01*
X-36244180Y-40710498D01*
X-36354494Y-40769463D01*
X-36451185Y-40848815D01*
X-36530122Y-40945000D01*
X-39645000Y-40945000D01*
X-39645000Y-40424284D01*
X-39508320Y-40219727D01*
X-39400147Y-39958574D01*
X-39352150Y-39717282D01*
X-38516859Y-38881991D01*
X-38473550Y-38846448D01*
X-38331715Y-38673622D01*
X-38226323Y-38476446D01*
X-38161422Y-38262498D01*
X-38144999Y-38095751D01*
X-38144999Y-38095750D01*
X-38139508Y-38039999D01*
X-38144999Y-37984247D01*
X-38144999Y-33655753D01*
X-38139508Y-33600001D01*
X-38161422Y-33377502D01*
X-38226323Y-33163554D01*
X-38331715Y-32966378D01*
X-38386190Y-32900000D01*
X-38473550Y-32793552D01*
X-38516859Y-32758009D01*
X-38521888Y-32752980D01*
X-23390563Y-32752980D01*
X-23319571Y-32971094D01*
X-23175969Y-33246923D01*
X-22981315Y-33489437D01*
X-22743089Y-33689316D01*
X-22470446Y-33838879D01*
X-22173863Y-33932378D01*
X-21927000Y-33805570D01*
X-21927000Y-32507000D01*
X-21673000Y-32507000D01*
X-21673000Y-33805570D01*
X-21426137Y-33932378D01*
X-21129554Y-33838879D01*
X-20856911Y-33689316D01*
X-20618685Y-33489437D01*
X-20424031Y-33246923D01*
X-20280429Y-32971094D01*
X-20209437Y-32752980D01*
X-20329406Y-32507000D01*
X-21673000Y-32507000D01*
X-21927000Y-32507000D01*
X-23270594Y-32507000D01*
X-23390563Y-32752980D01*
X-38521888Y-32752980D01*
X-39352150Y-31922718D01*
X-39400147Y-31681426D01*
X-39508320Y-31420273D01*
X-39665363Y-31185241D01*
X-39865241Y-30985363D01*
X-40100273Y-30828320D01*
X-40361426Y-30720147D01*
X-40638665Y-30665000D01*
X-40921335Y-30665000D01*
X-41145001Y-30709491D01*
X-41145001Y-27158665D01*
X-40635000Y-27158665D01*
X-40635000Y-27441335D01*
X-40579853Y-27718574D01*
X-40471680Y-27979727D01*
X-40314637Y-28214759D01*
X-40114759Y-28414637D01*
X-39879727Y-28571680D01*
X-39618574Y-28679853D01*
X-39341335Y-28735000D01*
X-39058665Y-28735000D01*
X-38781426Y-28679853D01*
X-38520273Y-28571680D01*
X-38315716Y-28435000D01*
X-23408212Y-28435000D01*
X-23389502Y-28496680D01*
X-23330537Y-28606994D01*
X-23251185Y-28703685D01*
X-23154494Y-28783037D01*
X-23070554Y-28827905D01*
X-23173845Y-28953765D01*
X-23321255Y-29229551D01*
X-23412030Y-29528796D01*
X-23442681Y-29840000D01*
X-23412030Y-30151204D01*
X-23321255Y-30450449D01*
X-23173845Y-30726235D01*
X-22975463Y-30967963D01*
X-22796101Y-31115163D01*
X-22981315Y-31270563D01*
X-23175969Y-31513077D01*
X-23319571Y-31788906D01*
X-23390563Y-32007020D01*
X-23270594Y-32253000D01*
X-21927000Y-32253000D01*
X-21927000Y-32233000D01*
X-21673000Y-32233000D01*
X-21673000Y-32253000D01*
X-20329406Y-32253000D01*
X-20209437Y-32007020D01*
X-20280429Y-31788906D01*
X-20424031Y-31513077D01*
X-20618685Y-31270563D01*
X-20803899Y-31115163D01*
X-20633112Y-30975000D01*
X-16018661Y-30975000D01*
X-15805998Y-31187663D01*
X-15521831Y-31377537D01*
X-15206081Y-31508325D01*
X-14870883Y-31575000D01*
X-14529117Y-31575000D01*
X-14193919Y-31508325D01*
X-13878169Y-31377537D01*
X-13594002Y-31187663D01*
X-13381339Y-30975000D01*
X-7795817Y-30975000D01*
X-7778505Y-30992312D01*
X-7527095Y-31160299D01*
X-7247743Y-31276011D01*
X-6951184Y-31335000D01*
X-6648816Y-31335000D01*
X-6352257Y-31276011D01*
X-6072905Y-31160299D01*
X-5821495Y-30992312D01*
X-5607688Y-30778505D01*
X-5439701Y-30527095D01*
X-5323989Y-30247743D01*
X-5265000Y-29951184D01*
X-5265000Y-29648816D01*
X-5323989Y-29352257D01*
X-5439701Y-29072905D01*
X-5607688Y-28821495D01*
X-5821495Y-28607688D01*
X-6072905Y-28439701D01*
X-6352257Y-28323989D01*
X-6648816Y-28265000D01*
X-6951184Y-28265000D01*
X-7247743Y-28323989D01*
X-7527095Y-28439701D01*
X-7778505Y-28607688D01*
X-7875817Y-28705000D01*
X-13381339Y-28705000D01*
X-13594002Y-28492337D01*
X-13878169Y-28302463D01*
X-14193919Y-28171675D01*
X-14529117Y-28105000D01*
X-14870883Y-28105000D01*
X-15206081Y-28171675D01*
X-15521831Y-28302463D01*
X-15805998Y-28492337D01*
X-16018661Y-28705000D01*
X-20350417Y-28705000D01*
X-20348815Y-28703685D01*
X-20269463Y-28606994D01*
X-20210498Y-28496680D01*
X-20174188Y-28376982D01*
X-20161928Y-28252500D01*
X-20161928Y-26347500D01*
X-20174188Y-26223018D01*
X-20210498Y-26103320D01*
X-20269463Y-25993006D01*
X-20348815Y-25896315D01*
X-20445506Y-25816963D01*
X-20555820Y-25757998D01*
X-20675518Y-25721688D01*
X-20800000Y-25709428D01*
X-22800000Y-25709428D01*
X-22924482Y-25721688D01*
X-23044180Y-25757998D01*
X-23154494Y-25816963D01*
X-23251185Y-25896315D01*
X-23330537Y-25993006D01*
X-23389502Y-26103320D01*
X-23408212Y-26165000D01*
X-38315716Y-26165000D01*
X-38520273Y-26028320D01*
X-38781426Y-25920147D01*
X-39058665Y-25865000D01*
X-39341335Y-25865000D01*
X-39618574Y-25920147D01*
X-39879727Y-26028320D01*
X-40114759Y-26185363D01*
X-40314637Y-26385241D01*
X-40471680Y-26620273D01*
X-40579853Y-26881426D01*
X-40635000Y-27158665D01*
X-41145001Y-27158665D01*
X-41145001Y-27115738D01*
X-41139511Y-27059996D01*
X-41145001Y-27004254D01*
X-41145001Y-27004245D01*
X-41161424Y-26837498D01*
X-41226325Y-26623550D01*
X-41331717Y-26426374D01*
X-41473552Y-26253548D01*
X-41516860Y-26218006D01*
X-44542164Y-23192702D01*
X-40013097Y-23192702D01*
X-39941514Y-23436671D01*
X-39686004Y-23557571D01*
X-39411816Y-23626300D01*
X-39129488Y-23640217D01*
X-38849870Y-23598787D01*
X-38583708Y-23503603D01*
X-38458486Y-23436671D01*
X-38386903Y-23192702D01*
X-39200000Y-22379605D01*
X-40013097Y-23192702D01*
X-44542164Y-23192702D01*
X-45464354Y-22270512D01*
X-40640217Y-22270512D01*
X-40598787Y-22550130D01*
X-40503603Y-22816292D01*
X-40436671Y-22941514D01*
X-40192702Y-23013097D01*
X-39379605Y-22200000D01*
X-39020395Y-22200000D01*
X-38207298Y-23013097D01*
X-37963329Y-22941514D01*
X-37842429Y-22686004D01*
X-37773700Y-22411816D01*
X-37759783Y-22129488D01*
X-37801213Y-21849870D01*
X-37896397Y-21583708D01*
X-37963329Y-21458486D01*
X-38207298Y-21386903D01*
X-39020395Y-22200000D01*
X-39379605Y-22200000D01*
X-40192702Y-21386903D01*
X-40436671Y-21458486D01*
X-40557571Y-21713996D01*
X-40626300Y-21988184D01*
X-40640217Y-22270512D01*
X-45464354Y-22270512D01*
X-46527568Y-21207298D01*
X-40013097Y-21207298D01*
X-39200000Y-22020395D01*
X-38386903Y-21207298D01*
X-38458486Y-20963329D01*
X-38713996Y-20842429D01*
X-38988184Y-20773700D01*
X-39270512Y-20759783D01*
X-39550130Y-20801213D01*
X-39816292Y-20896397D01*
X-39941514Y-20963329D01*
X-40013097Y-21207298D01*
X-46527568Y-21207298D01*
X-49209622Y-18525245D01*
X-48981426Y-18479853D01*
X-48720273Y-18371680D01*
X-48485241Y-18214637D01*
X-48285363Y-18014759D01*
X-48128320Y-17779727D01*
X-48020147Y-17518574D01*
X-48006316Y-17449039D01*
X-40631904Y-17449039D01*
X-40591246Y-17583087D01*
X-40471037Y-17837420D01*
X-40303519Y-18063414D01*
X-40095131Y-18252385D01*
X-39853881Y-18397070D01*
X-39589040Y-18491909D01*
X-39367000Y-18370624D01*
X-39367000Y-17227000D01*
X-39113000Y-17227000D01*
X-39113000Y-18370624D01*
X-38890960Y-18491909D01*
X-38626119Y-18397070D01*
X-38384869Y-18252385D01*
X-38176481Y-18063414D01*
X-38008963Y-17837420D01*
X-37888754Y-17583087D01*
X-37848096Y-17449039D01*
X-37970085Y-17227000D01*
X-39113000Y-17227000D01*
X-39367000Y-17227000D01*
X-40509915Y-17227000D01*
X-40631904Y-17449039D01*
X-48006316Y-17449039D01*
X-47965000Y-17241335D01*
X-47965000Y-16958665D01*
X-48006315Y-16750961D01*
X-40631904Y-16750961D01*
X-40509915Y-16973000D01*
X-39367000Y-16973000D01*
X-39367000Y-15829376D01*
X-39113000Y-15829376D01*
X-39113000Y-16973000D01*
X-37970085Y-16973000D01*
X-37848096Y-16750961D01*
X-37888754Y-16616913D01*
X-38008963Y-16362580D01*
X-38176481Y-16136586D01*
X-38384869Y-15947615D01*
X-38626119Y-15802930D01*
X-38890960Y-15708091D01*
X-39113000Y-15829376D01*
X-39367000Y-15829376D01*
X-39589040Y-15708091D01*
X-39853881Y-15802930D01*
X-40095131Y-15947615D01*
X-40303519Y-16136586D01*
X-40471037Y-16362580D01*
X-40591246Y-16616913D01*
X-40631904Y-16750961D01*
X-48006315Y-16750961D01*
X-48020147Y-16681426D01*
X-48128320Y-16420273D01*
X-48285363Y-16185241D01*
X-48485241Y-15985363D01*
X-48720273Y-15828320D01*
X-48981426Y-15720147D01*
X-49222717Y-15672151D01*
X-50965000Y-13929869D01*
X-50965000Y-7931214D01*
X-50929528Y-7864851D01*
X-50878992Y-7698255D01*
X-50861928Y-7525001D01*
X-50861928Y-6274999D01*
X-50878992Y-6101745D01*
X-50929528Y-5935149D01*
X-51011595Y-5781613D01*
X-51122038Y-5647038D01*
X-51256613Y-5536595D01*
X-51410149Y-5454528D01*
X-51576745Y-5403992D01*
X-51749999Y-5386928D01*
X-52450001Y-5386928D01*
X-52623255Y-5403992D01*
X-52789851Y-5454528D01*
X-52943387Y-5536595D01*
X-53077962Y-5647038D01*
X-53188405Y-5781613D01*
X-53190809Y-5786111D01*
X-53222498Y-5747498D01*
X-53410551Y-5593167D01*
X-53625099Y-5478489D01*
X-53857898Y-5407870D01*
X-54100000Y-5384025D01*
X-54342101Y-5407870D01*
X-54574900Y-5478489D01*
X-54789448Y-5593167D01*
X-54977501Y-5747498D01*
X-55131832Y-5935551D01*
X-55246511Y-6150099D01*
X-55317130Y-6382898D01*
X-55335000Y-6564335D01*
X-55335000Y-7235664D01*
X-55317130Y-7417101D01*
X-55254999Y-7621919D01*
X-55255000Y-16633111D01*
X-55390000Y-16797609D01*
X-55532037Y-16624537D01*
X-55753938Y-16442427D01*
X-55853551Y-16321049D01*
X-55896859Y-16285507D01*
X-60145502Y-12036865D01*
X-60181049Y-11993551D01*
X-60353875Y-11851716D01*
X-60551051Y-11746324D01*
X-60764999Y-11681423D01*
X-60931746Y-11665000D01*
X-60931747Y-11665000D01*
X-60987498Y-11659509D01*
X-61043249Y-11665000D01*
X-67164183Y-11665000D01*
X-67221495Y-11607688D01*
X-67472905Y-11439701D01*
X-67752257Y-11323989D01*
X-68048816Y-11265000D01*
X-68351184Y-11265000D01*
X-68647743Y-11323989D01*
X-68927095Y-11439701D01*
X-69178505Y-11607688D01*
X-69392312Y-11821495D01*
X-69560299Y-12072905D01*
X-69676011Y-12352257D01*
X-69735000Y-12648816D01*
X-69735000Y-12951184D01*
X-69676011Y-13247743D01*
X-69560299Y-13527095D01*
X-69392312Y-13778505D01*
X-69178505Y-13992312D01*
X-68927095Y-14160299D01*
X-68647743Y-14276011D01*
X-68351184Y-14335000D01*
X-68048816Y-14335000D01*
X-67752257Y-14276011D01*
X-67472905Y-14160299D01*
X-67221495Y-13992312D01*
X-67164183Y-13935000D01*
X-61457629Y-13935000D01*
X-59227630Y-16165000D01*
X-59327002Y-16165000D01*
X-59327002Y-16323748D01*
X-59485750Y-16165000D01*
X-60152500Y-16161928D01*
X-60276982Y-16174188D01*
X-60396680Y-16210498D01*
X-60506994Y-16269463D01*
X-60603685Y-16348815D01*
X-60683037Y-16445506D01*
X-60742002Y-16555820D01*
X-60778312Y-16675518D01*
X-60790572Y-16800000D01*
X-60787500Y-17514250D01*
X-60628750Y-17673000D01*
X-59327000Y-17673000D01*
X-59327000Y-17653000D01*
X-59073000Y-17653000D01*
X-59073000Y-17673000D01*
X-59053000Y-17673000D01*
X-59053000Y-17927000D01*
X-59073000Y-17927000D01*
X-59073000Y-19276250D01*
X-58914250Y-19435000D01*
X-58247500Y-19438072D01*
X-58123018Y-19425812D01*
X-58003320Y-19389502D01*
X-57893006Y-19330537D01*
X-57796315Y-19251185D01*
X-57716963Y-19154494D01*
X-57672095Y-19070553D01*
X-57546234Y-19173845D01*
X-57270448Y-19321255D01*
X-56971203Y-19412030D01*
X-56660000Y-19442681D01*
X-56348796Y-19412030D01*
X-56049551Y-19321255D01*
X-55773765Y-19173845D01*
X-55532037Y-18975463D01*
X-55390000Y-18802391D01*
X-55247963Y-18975463D01*
X-55006234Y-19173845D01*
X-54730448Y-19321255D01*
X-54431203Y-19412030D01*
X-54120000Y-19442681D01*
X-53808796Y-19412030D01*
X-53509551Y-19321255D01*
X-53233765Y-19173845D01*
X-52992037Y-18975463D01*
X-52958830Y-18935000D01*
X-52010129Y-18935000D01*
X-50023522Y-20921608D01*
X-50039727Y-20928320D01*
X-50274759Y-21085363D01*
X-50474637Y-21285241D01*
X-50631680Y-21520273D01*
X-50739853Y-21781426D01*
X-50787849Y-22022717D01*
X-52530131Y-23765000D01*
X-67068786Y-23765000D01*
X-67135149Y-23729528D01*
X-67301745Y-23678992D01*
X-67474999Y-23661928D01*
X-68725001Y-23661928D01*
X-68898255Y-23678992D01*
X-69064851Y-23729528D01*
X-69218387Y-23811595D01*
X-69352962Y-23922038D01*
X-69463405Y-24056613D01*
X-69545472Y-24210149D01*
X-69596008Y-24376745D01*
X-69613072Y-24549999D01*
X-69613072Y-25250001D01*
X-69596008Y-25423255D01*
X-69545472Y-25589851D01*
X-69463405Y-25743387D01*
X-69352962Y-25877962D01*
X-69218387Y-25988405D01*
X-69213889Y-25990809D01*
X-69252502Y-26022498D01*
X-69406833Y-26210551D01*
X-69521511Y-26425099D01*
X-69592130Y-26657898D01*
X-69615975Y-26900000D01*
X-69592130Y-27142102D01*
X-69521511Y-27374901D01*
X-69406833Y-27589449D01*
X-69252502Y-27777502D01*
X-69064449Y-27931833D01*
X-68849901Y-28046511D01*
X-68617102Y-28117130D01*
X-68435665Y-28135000D01*
X-67764335Y-28135000D01*
X-67582898Y-28117130D01*
X-67350099Y-28046511D01*
X-67328563Y-28035000D01*
X-50594748Y-28035000D01*
X-50474637Y-28214759D01*
X-50274759Y-28414637D01*
X-50039727Y-28571680D01*
X-49778574Y-28679853D01*
X-49501335Y-28735000D01*
X-49218665Y-28735000D01*
X-48941426Y-28679853D01*
X-48680273Y-28571680D01*
X-48475716Y-28435000D01*
X-46270131Y-28435000D01*
X-45334999Y-29370133D01*
X-45335000Y-37409868D01*
X-47027882Y-39102751D01*
X-47128320Y-38860273D01*
X-47285363Y-38625241D01*
X-47483961Y-38426643D01*
X-47475518Y-38425812D01*
X-47355820Y-38389502D01*
X-47245506Y-38330537D01*
X-47148815Y-38251185D01*
X-47069463Y-38154494D01*
X-47010498Y-38044180D01*
X-46974188Y-37924482D01*
X-46961928Y-37800000D01*
X-46965000Y-37285750D01*
X-47123750Y-37127000D01*
X-48273000Y-37127000D01*
X-48273000Y-37147000D01*
X-48527000Y-37147000D01*
X-48527000Y-37127000D01*
X-49676250Y-37127000D01*
X-49835000Y-37285750D01*
X-49838072Y-37800000D01*
X-49825812Y-37924482D01*
X-49789502Y-38044180D01*
X-49730537Y-38154494D01*
X-49651185Y-38251185D01*
X-49554494Y-38330537D01*
X-49444180Y-38389502D01*
X-49393090Y-38405000D01*
X-50365000Y-38405000D01*
X-50365000Y-36200000D01*
X-49838072Y-36200000D01*
X-49835000Y-36714250D01*
X-49676250Y-36873000D01*
X-48527000Y-36873000D01*
X-48527000Y-35723750D01*
X-48273000Y-35723750D01*
X-48273000Y-36873000D01*
X-47123750Y-36873000D01*
X-46965000Y-36714250D01*
X-46961928Y-36200000D01*
X-46974188Y-36075518D01*
X-47010498Y-35955820D01*
X-47069463Y-35845506D01*
X-47148815Y-35748815D01*
X-47245506Y-35669463D01*
X-47355820Y-35610498D01*
X-47475518Y-35574188D01*
X-47600000Y-35561928D01*
X-48114250Y-35565000D01*
X-48273000Y-35723750D01*
X-48527000Y-35723750D01*
X-48685750Y-35565000D01*
X-49200000Y-35561928D01*
X-49324482Y-35574188D01*
X-49444180Y-35610498D01*
X-49554494Y-35669463D01*
X-49651185Y-35748815D01*
X-49730537Y-35845506D01*
X-49789502Y-35955820D01*
X-49825812Y-36075518D01*
X-49838072Y-36200000D01*
X-50365000Y-36200000D01*
X-50365000Y-33970131D01*
X-49693947Y-33299079D01*
X-49651185Y-33351185D01*
X-49554494Y-33430537D01*
X-49444180Y-33489502D01*
X-49324482Y-33525812D01*
X-49200000Y-33538072D01*
X-47600000Y-33538072D01*
X-47475518Y-33525812D01*
X-47355820Y-33489502D01*
X-47245506Y-33430537D01*
X-47148815Y-33351185D01*
X-47069463Y-33254494D01*
X-47010498Y-33144180D01*
X-46974188Y-33024482D01*
X-46961928Y-32900000D01*
X-46961928Y-31300000D01*
X-46974188Y-31175518D01*
X-47010498Y-31055820D01*
X-47069463Y-30945506D01*
X-47148815Y-30848815D01*
X-47245506Y-30769463D01*
X-47355820Y-30710498D01*
X-47475518Y-30674188D01*
X-47600000Y-30661928D01*
X-49200000Y-30661928D01*
X-49324482Y-30674188D01*
X-49444180Y-30710498D01*
X-49554494Y-30769463D01*
X-49651185Y-30848815D01*
X-49730537Y-30945506D01*
X-49740957Y-30965000D01*
X-50044249Y-30965000D01*
X-50100000Y-30959509D01*
X-50155752Y-30965000D01*
X-50322499Y-30981423D01*
X-50536447Y-31046324D01*
X-50733623Y-31151716D01*
X-50906449Y-31293551D01*
X-50941992Y-31336860D01*
X-52263140Y-32658009D01*
X-52306448Y-32693551D01*
X-52448283Y-32866377D01*
X-52501734Y-32966378D01*
X-52553676Y-33063554D01*
X-52618577Y-33277502D01*
X-52640491Y-33500000D01*
X-52634999Y-33555761D01*
X-52635000Y-38465000D01*
X-67164183Y-38465000D01*
X-67221495Y-38407688D01*
X-67472905Y-38239701D01*
X-67752257Y-38123989D01*
X-68048816Y-38065000D01*
X-68351184Y-38065000D01*
X-68647743Y-38123989D01*
X-68927095Y-38239701D01*
X-69178505Y-38407688D01*
X-69392312Y-38621495D01*
X-69560299Y-38872905D01*
X-69676011Y-39152257D01*
X-69735000Y-39448816D01*
X-69735000Y-39529868D01*
X-70563136Y-40358005D01*
X-70606450Y-40393552D01*
X-70748285Y-40566378D01*
X-70829636Y-40718577D01*
X-70853677Y-40763555D01*
X-70918578Y-40977503D01*
X-70940492Y-41200001D01*
X-72340000Y-41200001D01*
X-72340000Y-35664080D01*
X-69084475Y-35664080D01*
X-69000792Y-35918261D01*
X-68728225Y-36049158D01*
X-68435358Y-36124365D01*
X-68133447Y-36140991D01*
X-67834093Y-36098397D01*
X-67548801Y-35998222D01*
X-67399208Y-35918261D01*
X-67315525Y-35664080D01*
X-68200000Y-34779605D01*
X-69084475Y-35664080D01*
X-72340000Y-35664080D01*
X-72340000Y-34666553D01*
X-69740991Y-34666553D01*
X-69698397Y-34965907D01*
X-69598222Y-35251199D01*
X-69518261Y-35400792D01*
X-69264080Y-35484475D01*
X-68379605Y-34600000D01*
X-68020395Y-34600000D01*
X-67135920Y-35484475D01*
X-66881739Y-35400792D01*
X-66750842Y-35128225D01*
X-66675635Y-34835358D01*
X-66659009Y-34533447D01*
X-66701603Y-34234093D01*
X-66801778Y-33948801D01*
X-66881739Y-33799208D01*
X-67135920Y-33715525D01*
X-68020395Y-34600000D01*
X-68379605Y-34600000D01*
X-69264080Y-33715525D01*
X-69518261Y-33799208D01*
X-69649158Y-34071775D01*
X-69724365Y-34364642D01*
X-69740991Y-34666553D01*
X-72340000Y-34666553D01*
X-72340000Y-33535920D01*
X-69084475Y-33535920D01*
X-68200000Y-34420395D01*
X-67315525Y-33535920D01*
X-67399208Y-33281739D01*
X-67671775Y-33150842D01*
X-67964642Y-33075635D01*
X-68266553Y-33059009D01*
X-68565907Y-33101603D01*
X-68851199Y-33201778D01*
X-69000792Y-33281739D01*
X-69084475Y-33535920D01*
X-72340000Y-33535920D01*
X-72340000Y-18864080D01*
X-69084475Y-18864080D01*
X-69000792Y-19118261D01*
X-68728225Y-19249158D01*
X-68435358Y-19324365D01*
X-68133447Y-19340991D01*
X-67834093Y-19298397D01*
X-67548801Y-19198222D01*
X-67399208Y-19118261D01*
X-67315525Y-18864080D01*
X-67379605Y-18800000D01*
X-60790572Y-18800000D01*
X-60778312Y-18924482D01*
X-60742002Y-19044180D01*
X-60683037Y-19154494D01*
X-60603685Y-19251185D01*
X-60506994Y-19330537D01*
X-60396680Y-19389502D01*
X-60276982Y-19425812D01*
X-60152500Y-19438072D01*
X-59485750Y-19435000D01*
X-59327000Y-19276250D01*
X-59327000Y-17927000D01*
X-60628750Y-17927000D01*
X-60787500Y-18085750D01*
X-60790572Y-18800000D01*
X-67379605Y-18800000D01*
X-68200000Y-17979605D01*
X-69084475Y-18864080D01*
X-72340000Y-18864080D01*
X-72340000Y-17866553D01*
X-69740991Y-17866553D01*
X-69698397Y-18165907D01*
X-69598222Y-18451199D01*
X-69518261Y-18600792D01*
X-69264080Y-18684475D01*
X-68379605Y-17800000D01*
X-68020395Y-17800000D01*
X-67135920Y-18684475D01*
X-66881739Y-18600792D01*
X-66750842Y-18328225D01*
X-66675635Y-18035358D01*
X-66659009Y-17733447D01*
X-66701603Y-17434093D01*
X-66801778Y-17148801D01*
X-66881739Y-16999208D01*
X-67135920Y-16915525D01*
X-68020395Y-17800000D01*
X-68379605Y-17800000D01*
X-69264080Y-16915525D01*
X-69518261Y-16999208D01*
X-69649158Y-17271775D01*
X-69724365Y-17564642D01*
X-69740991Y-17866553D01*
X-72340000Y-17866553D01*
X-72340000Y-16735920D01*
X-69084475Y-16735920D01*
X-68200000Y-17620395D01*
X-67315525Y-16735920D01*
X-67399208Y-16481739D01*
X-67671775Y-16350842D01*
X-67964642Y-16275635D01*
X-68266553Y-16259009D01*
X-68565907Y-16301603D01*
X-68851199Y-16401778D01*
X-69000792Y-16481739D01*
X-69084475Y-16735920D01*
X-72340000Y-16735920D01*
X-72340000Y-5532279D01*
X-72315252Y-5279872D01*
X-71735000Y-5279872D01*
X-71735000Y-5720128D01*
X-71649110Y-6151925D01*
X-71480631Y-6558669D01*
X-71236038Y-6924729D01*
X-70924729Y-7236038D01*
X-70558669Y-7480631D01*
X-70151925Y-7649110D01*
X-69720128Y-7735000D01*
X-69279872Y-7735000D01*
X-68848075Y-7649110D01*
X-68441331Y-7480631D01*
X-68075271Y-7236038D01*
X-67763962Y-6924729D01*
X-67519369Y-6558669D01*
X-67350890Y-6151925D01*
X-67265000Y-5720128D01*
X-67265000Y-5279872D01*
X-7735000Y-5279872D01*
X-7735000Y-5720128D01*
X-7649110Y-6151925D01*
X-7480631Y-6558669D01*
X-7236038Y-6924729D01*
X-6924729Y-7236038D01*
X-6558669Y-7480631D01*
X-6151925Y-7649110D01*
X-5720128Y-7735000D01*
X-5279872Y-7735000D01*
X-4848075Y-7649110D01*
X-4441331Y-7480631D01*
X-4075271Y-7236038D01*
X-3763962Y-6924729D01*
X-3519369Y-6558669D01*
X-3350890Y-6151925D01*
X-3265000Y-5720128D01*
X-3265000Y-5279872D01*
X-3350890Y-4848075D01*
X-3519369Y-4441331D01*
X-3763962Y-4075271D01*
X-4075271Y-3763962D01*
X-4441331Y-3519369D01*
X-4848075Y-3350890D01*
X-5279872Y-3265000D01*
X-5720128Y-3265000D01*
X-6151925Y-3350890D01*
X-6558669Y-3519369D01*
X-6924729Y-3763962D01*
X-7236038Y-4075271D01*
X-7480631Y-4441331D01*
X-7649110Y-4848075D01*
X-7735000Y-5279872D01*
X-67265000Y-5279872D01*
X-67350890Y-4848075D01*
X-67519369Y-4441331D01*
X-67763962Y-4075271D01*
X-68075271Y-3763962D01*
X-68441331Y-3519369D01*
X-68848075Y-3350890D01*
X-69279872Y-3265000D01*
X-69720128Y-3265000D01*
X-70151925Y-3350890D01*
X-70558669Y-3519369D01*
X-70924729Y-3763962D01*
X-71236038Y-4075271D01*
X-71480631Y-4441331D01*
X-71649110Y-4848075D01*
X-71735000Y-5279872D01*
X-72315252Y-5279872D01*
X-72282808Y-4948990D01*
X-72122784Y-4418964D01*
X-71862860Y-3930121D01*
X-71512935Y-3501069D01*
X-71086336Y-3148156D01*
X-70599319Y-2884827D01*
X-70070422Y-2721106D01*
X-69489040Y-2660000D01*
X-5532279Y-2660000D01*
X-4948990Y-2717192D01*
G37*
%TD.AperFunction*%
%TD*%
M02*
